<svg width="255" height="477" viewBox="0 0 255 477" fill="none" xmlns="http://www.w3.org/2000/svg">
<path fill-rule="evenodd" clip-rule="evenodd" d="M212.265 161.052C212.265 161.052 244.518 163.236 248.407 163.744C252.296 164.251 255.676 172.021 253.643 177.417C251.61 182.812 245.37 193.782 215.811 192.931L212.265 161.052Z" fill="#FDD7BD"/>
<path fill-rule="evenodd" clip-rule="evenodd" d="M234.225 270.73L220.881 315.609C219.935 317.269 218.439 318.548 216.651 319.227C214.863 319.906 212.895 319.942 211.083 319.329C204.323 317.297 198.578 305.148 199.938 293.671C201.298 282.194 217.73 255.889 217.73 255.889L234.225 270.73Z" fill="#FDD7BD"/>
<path fill-rule="evenodd" clip-rule="evenodd" d="M209.647 250.48C209.647 250.48 222.152 281.356 232.954 286.764C243.756 292.173 251.495 288.009 252.766 283.717C254.037 279.426 252.931 274.615 250.402 267.696C247.873 260.776 236.423 236.312 236.423 236.312C234.623 233.095 231.883 230.504 228.57 228.885C223.169 226.346 214.972 222.22 214.972 222.22L209.647 250.48Z" fill="#FDD7BD"/>
<path fill-rule="evenodd" clip-rule="evenodd" d="M74.8519 44.1379C74.3178 43.014 73.4334 42.0935 72.3313 41.5144C71.2292 40.9353 69.9688 40.7288 68.7393 40.9259C64.3549 41.6114 56.2471 61.1754 46.4492 84.4592C44.0567 90.5871 42.414 96.9813 41.5565 103.503C40.0315 114.637 29.7252 155.466 29.7252 164.251C29.7252 173.037 29.0517 222.651 27.7046 229.71C26.3576 236.769 17.9066 333.307 15.8861 371.102C15.2379 383.086 8.82032 424.804 0.356689 476.171H125.443C125.138 432.269 125.024 400.429 125.316 398.435C126.333 391.681 145.255 371.102 152.003 318.453C152.003 318.453 166.198 295.854 166.872 286.396C167.545 276.938 74.8519 202.732 74.8519 202.732L69.2476 161.738L74.8519 106.232V44.1379Z" fill="#FDD7BD"/>
<path d="M74.8519 202.732C70.6379 205.365 67.2786 209.162 65.181 213.663" stroke="#DBAF91" stroke-width="1.42" stroke-linecap="round" stroke-linejoin="round"/>
<path d="M201.641 0.896484H91.0039C82.1115 0.896484 74.9027 8.09816 74.9027 16.9819V280.01C74.9027 288.894 82.1115 296.096 91.0039 296.096H201.641C210.534 296.096 217.742 288.894 217.742 280.01V16.9819C217.742 8.09816 210.534 0.896484 201.641 0.896484Z" fill="#CC6D73"/>
<path d="M204.259 40.9005H88.3734C86.731 40.9005 85.3997 42.2305 85.3997 43.8713V253.121C85.3997 254.762 86.731 256.092 88.3734 256.092H204.259C205.901 256.092 207.233 254.762 207.233 253.121V43.8713C207.233 42.2305 205.901 40.9005 204.259 40.9005Z" fill="white"/>
<path fill-rule="evenodd" clip-rule="evenodd" d="M146.323 263.481C148.887 263.478 151.394 264.235 153.527 265.657C155.661 267.078 157.324 269.1 158.307 271.466C159.29 273.832 159.549 276.436 159.05 278.949C158.551 281.461 157.318 283.77 155.505 285.582C153.693 287.395 151.384 288.629 148.869 289.13C146.354 289.631 143.747 289.375 141.378 288.395C139.008 287.415 136.983 285.756 135.558 283.626C134.133 281.496 133.373 278.992 133.373 276.43C133.373 272.998 134.737 269.706 137.165 267.278C139.593 264.85 142.887 263.484 146.323 263.481Z" fill="#D4CFE6"/>
<path fill-rule="evenodd" clip-rule="evenodd" d="M138.316 27.9509C137.936 27.9509 137.57 27.7998 137.301 27.5307C137.032 27.2617 136.88 26.8968 136.88 26.5163C136.88 26.1358 137.032 25.7709 137.301 25.5019C137.57 25.2328 137.936 25.0817 138.316 25.0817H161.941C162.322 25.0817 162.687 25.2328 162.956 25.5019C163.226 25.7709 163.377 26.1358 163.377 26.5163C163.377 26.8968 163.226 27.2617 162.956 27.5307C162.687 27.7998 162.322 27.9509 161.941 27.9509H138.316ZM130.692 27.9509C130.311 27.9509 129.945 27.7998 129.676 27.5307C129.407 27.2617 129.255 26.8968 129.255 26.5163C129.255 26.1358 129.407 25.7709 129.676 25.5019C129.945 25.2328 130.311 25.0817 130.692 25.0817H132.445C132.826 25.0817 133.191 25.2328 133.461 25.5019C133.73 25.7709 133.881 26.1358 133.881 26.5163C133.881 26.8968 133.73 27.2617 133.461 27.5307C133.191 27.7998 132.826 27.9509 132.445 27.9509H130.692Z" fill="#D4CFE6"/>
<path fill-rule="evenodd" clip-rule="evenodd" d="M47.237 292.325L97.5613 235.956C97.5613 235.956 107.029 225.66 117.5 233.087C127.972 240.514 140.299 252.994 140.299 252.994C140.299 252.994 149.919 257.387 153.007 258.897C156.095 260.408 163.822 264.471 166.185 271.225C168.549 277.979 166.694 284.213 163.733 285.812C163.733 285.812 160.276 294.445 146.424 295.258C132.572 296.07 117.716 291.893 117.716 291.893C116.348 292.734 114.759 293.145 113.154 293.074C113.154 293.074 101.59 313.819 99.7217 317.031C99.7217 317.031 101.247 330.526 89.4281 333.535C77.6095 336.544 14.0561 328.508 47.237 292.325Z" fill="#FDD7BD"/>
<path d="M69.2984 161.738L63.2112 160.849" stroke="#DBAF91" stroke-width="1.42" stroke-linecap="round" stroke-linejoin="round"/>
<path d="M74.9027 106.232L67.2651 103.82" stroke="#DBAF91" stroke-width="1.42" stroke-linecap="round" stroke-linejoin="round"/>
<path d="M103.737 305.554C115.967 326.58 122.38 350.478 122.317 374.796" stroke="#DBAF91" stroke-width="1.42" stroke-linecap="round" stroke-linejoin="round"/>
<path d="M125.367 398.461L125.189 389.472" stroke="#DBAF91" stroke-width="1.42" stroke-linecap="round" stroke-linejoin="round"/>
<path d="M115.06 396.899C115.06 396.899 107.436 422.379 104.424 429.794" stroke="#DBAF91" stroke-width="1.42" stroke-linecap="round" stroke-linejoin="round"/>
<path d="M110.765 293.087C110.65 286.962 109.054 280.956 106.114 275.58" stroke="#DBAF91" stroke-width="1.42" stroke-linecap="round" stroke-linejoin="round"/>
<path d="M115.327 291.906C115.327 291.906 116.751 281.483 116.751 278.627" stroke="#DBAF91" stroke-width="1.42" stroke-linecap="round" stroke-linejoin="round"/>
<path fill-rule="evenodd" clip-rule="evenodd" d="M57.3654 59.1822C58.9282 58.9875 60.4171 58.4043 61.6958 57.4861C62.9746 56.5679 64.0025 55.3439 64.6853 53.9262C66.1595 51.1713 68.6376 45.4328 70.5565 40.9005C69.9876 40.8187 69.4098 40.8187 68.8409 40.9005C66.1722 41.3321 62.2072 48.5052 57.3654 59.1822Z" fill="#F0DCE4"/>
<path fill-rule="evenodd" clip-rule="evenodd" d="M253.198 280.67C253.351 277.141 252.296 273.053 250.351 267.696C249.487 265.334 247.581 260.929 245.433 256.142C245.054 256.306 244.743 256.594 244.551 256.959C244.359 257.324 244.298 257.744 244.379 258.148C244.544 259.748 250.212 278.639 250.212 279.325C250.212 280.01 253.058 279.502 253.198 280.67Z" fill="#F0DCE4"/>
<path fill-rule="evenodd" clip-rule="evenodd" d="M226.524 296.616L220.881 315.66C220.348 312.041 215.074 310.581 214.527 309.997C213.981 309.413 213.523 308.474 215.544 303.497C217.564 298.521 220.36 289.837 223.652 290.929C226.943 292.02 226.524 296.565 226.524 296.616Z" fill="#F0DCE4"/>
<path fill-rule="evenodd" clip-rule="evenodd" d="M137.948 253.007C137.948 253.007 147.581 257.399 150.656 258.91C153.731 260.421 161.471 264.484 163.834 271.238C166.198 277.992 164.343 284.225 161.382 285.825C157.938 283.73 149.461 275.783 147.606 268.051C145.751 260.319 137.948 253.007 137.948 253.007Z" fill="#F0DCE4"/>
<path d="M115.327 291.906C113.959 292.747 112.37 293.158 110.765 293.087C110.765 293.087 99.188 313.831 97.3326 317.043C97.3326 317.043 98.8575 330.539 87.039 333.548M44.8987 292.325L75.6143 257.933L44.8987 292.325Z" stroke="#DBAF91" stroke-width="1.42" stroke-linecap="round" stroke-linejoin="round"/>
<path fill-rule="evenodd" clip-rule="evenodd" d="M107.779 298.419L152.054 318.478C156.533 311.289 160.532 303.812 164.025 296.096H109.075C108.694 296.798 108.262 297.573 107.779 298.419Z" fill="#DBAF91"/>
<path fill-rule="evenodd" clip-rule="evenodd" d="M93.1262 330.234L108.719 314.822C106.826 310.886 105.085 307.788 103.763 305.605C100.954 310.683 98.1713 315.609 97.3326 317.031C97.3326 317.044 98.2476 325.169 93.1262 330.234Z" fill="#DBAF91"/>
<path fill-rule="evenodd" clip-rule="evenodd" d="M228.621 192.487L221.377 161.687L217.742 161.433V192.982C221.375 193.046 225.009 192.881 228.621 192.487Z" fill="#DBAF91"/>
<path fill-rule="evenodd" clip-rule="evenodd" d="M217.742 275.072L227.68 292.731L230.044 284.758C225.723 281.039 221.339 274.145 217.742 267.518V275.072Z" fill="#DBAF91"/>
<path fill-rule="evenodd" clip-rule="evenodd" d="M218.085 256.193L224.287 226.892C221.923 225.736 219.521 224.543 217.742 223.654V257.818L218.085 256.193Z" fill="#DBAF91"/>
<path fill-rule="evenodd" clip-rule="evenodd" d="M138.672 133.795V107.451C138.695 107.141 138.778 106.839 138.919 106.561C139.059 106.284 139.253 106.037 139.489 105.835C139.726 105.633 140 105.48 140.296 105.385C140.592 105.29 140.904 105.254 141.214 105.28C141.869 105.276 142.504 105.506 143.006 105.928L158.255 119.093C158.484 119.277 158.668 119.511 158.794 119.775C158.921 120.04 158.986 120.329 158.986 120.623C158.986 120.916 158.921 121.206 158.794 121.47C158.668 121.735 158.484 121.968 158.255 122.153L143.006 135.318C142.507 135.73 141.88 135.955 141.233 135.955C140.586 135.955 139.959 135.73 139.46 135.318C139.225 135.137 139.032 134.907 138.896 134.644C138.76 134.381 138.684 134.091 138.672 133.795Z" fill="#496197"/>
<path d="M170.303 93.689H122.342C118.91 93.689 116.128 96.4685 116.128 99.8971V141.336C116.128 144.764 118.91 147.544 122.342 147.544H170.303C173.735 147.544 176.517 144.764 176.517 141.336V99.8971C176.517 96.4685 173.735 93.689 170.303 93.689Z" stroke="#171533" stroke-width="2.13" stroke-linecap="round" stroke-linejoin="round"/>
<path fill-rule="evenodd" clip-rule="evenodd" d="M197.092 66.3299H161.267C160.012 66.3299 158.809 66.827 157.92 67.7124C157.031 68.5977 156.531 69.7989 156.527 71.0526V104.455C156.526 104.56 156.557 104.662 156.616 104.748C156.675 104.835 156.759 104.901 156.858 104.937C156.952 104.983 157.059 104.997 157.163 104.976C157.266 104.956 157.36 104.902 157.429 104.823L165.499 96.7613H197.155C198.41 96.758 199.612 96.2576 200.499 95.3699C201.385 94.4822 201.883 93.2796 201.883 92.0259V71.0526C201.881 70.4275 201.755 69.809 201.513 69.2326C201.271 68.6562 200.917 68.1334 200.472 67.6943C200.026 67.2552 199.498 66.9086 198.918 66.6745C198.338 66.4403 197.717 66.3232 197.092 66.3299Z" fill="#B85972"/>
<path fill-rule="evenodd" clip-rule="evenodd" d="M164.419 80.1681H182.515C182.913 80.1681 183.294 80.3259 183.576 80.6069C183.857 80.8878 184.015 81.2689 184.015 81.6662C184.015 82.0635 183.857 82.4445 183.576 82.7255C183.294 83.0064 182.913 83.1643 182.515 83.1643H164.419C164.02 83.1643 163.637 83.0068 163.354 82.7263C163.071 82.4457 162.91 82.0647 162.907 81.6662C162.91 81.2677 163.071 80.8867 163.354 80.6061C163.637 80.3255 164.02 80.1681 164.419 80.1681Z" fill="white"/>
<path fill-rule="evenodd" clip-rule="evenodd" d="M189.225 80.1681H193.902C194.299 80.1681 194.681 80.3259 194.962 80.6069C195.243 80.8878 195.401 81.2689 195.401 81.6662C195.401 82.0635 195.243 82.4445 194.962 82.7255C194.681 83.0064 194.299 83.1643 193.902 83.1643H189.225C188.827 83.1643 188.446 83.0064 188.165 82.7255C187.884 82.4445 187.726 82.0635 187.726 81.6662C187.726 81.2689 187.884 80.8878 188.165 80.6069C188.446 80.3259 188.827 80.1681 189.225 80.1681Z" fill="white"/>
<path fill-rule="evenodd" clip-rule="evenodd" d="M175.78 87.138H193.876C194.078 87.1379 194.277 87.1783 194.462 87.2567C194.648 87.3351 194.815 87.45 194.955 87.5946C195.095 87.7391 195.204 87.9103 195.277 88.098C195.349 88.2856 195.383 88.4859 195.376 88.6869C195.376 89.0842 195.218 89.4652 194.937 89.7462C194.656 90.0271 194.274 90.185 193.876 90.185H175.78C175.381 90.185 174.998 90.0275 174.715 89.747C174.432 89.4664 174.271 89.0854 174.268 88.6869C174.263 88.4853 174.298 88.2847 174.372 88.097C174.445 87.9093 174.556 87.7382 174.697 87.5939C174.838 87.4495 175.006 87.3348 175.192 87.2565C175.378 87.1782 175.578 87.1379 175.78 87.138Z" fill="white"/>
<path fill-rule="evenodd" clip-rule="evenodd" d="M164.419 73.1982H182.515C182.714 73.1982 182.911 73.2378 183.095 73.3146C183.279 73.3915 183.445 73.5041 183.585 73.646C183.724 73.7878 183.834 73.9559 183.908 74.1406C183.982 74.3253 184.018 74.5229 184.015 74.7217C184.015 75.1202 183.857 75.5026 183.576 75.7855C183.296 76.0685 182.914 76.2292 182.515 76.2325H164.419C164.019 76.2292 163.636 76.0689 163.353 75.7863C163.07 75.5037 162.91 75.1214 162.907 74.7217C162.905 74.5223 162.943 74.3244 163.018 74.1397C163.093 73.9549 163.204 73.7869 163.345 73.6452C163.486 73.5036 163.653 73.3912 163.837 73.3144C164.022 73.2377 164.219 73.1982 164.419 73.1982Z" fill="white"/>
<path fill-rule="evenodd" clip-rule="evenodd" d="M94.9053 175.017H127.146C128.402 175.014 129.606 174.514 130.494 173.627C131.382 172.739 131.883 171.537 131.886 170.282V136.93C131.886 136.826 131.854 136.724 131.795 136.638C131.736 136.552 131.653 136.486 131.556 136.448C131.46 136.406 131.354 136.395 131.252 136.415C131.149 136.435 131.056 136.487 130.984 136.562L122.901 144.548H94.9435C93.6885 144.548 92.4847 145.045 91.5962 145.93C90.7076 146.816 90.2067 148.017 90.2033 149.271V170.244C90.1965 171.499 90.6873 172.705 91.5684 173.6C92.4495 174.494 93.6492 175.004 94.9053 175.017Z" fill="#6C9494"/>
<path fill-rule="evenodd" clip-rule="evenodd" d="M125.761 161.192H107.664C107.265 161.188 106.884 161.028 106.603 160.745C106.322 160.462 106.165 160.079 106.165 159.681C106.165 159.284 106.323 158.903 106.604 158.622C106.885 158.341 107.267 158.183 107.664 158.183H125.761C126.158 158.183 126.54 158.341 126.821 158.622C127.102 158.903 127.26 159.284 127.26 159.681C127.26 160.079 127.103 160.462 126.822 160.745C126.541 161.028 126.16 161.188 125.761 161.192Z" fill="white"/>
<path fill-rule="evenodd" clip-rule="evenodd" d="M100.967 161.192H96.3032C95.9032 161.188 95.5204 161.028 95.2376 160.746C94.9547 160.463 94.7943 160.081 94.791 159.681C94.7943 159.282 94.9551 158.901 95.2383 158.621C95.5216 158.34 95.9043 158.183 96.3032 158.183H100.967C101.366 158.183 101.749 158.34 102.032 158.621C102.315 158.901 102.476 159.282 102.479 159.681C102.476 160.081 102.316 160.463 102.033 160.746C101.75 161.028 101.367 161.188 100.967 161.192Z" fill="white"/>
<path fill-rule="evenodd" clip-rule="evenodd" d="M114.4 154.222H96.3032C95.9021 154.222 95.5175 154.063 95.2339 153.779C94.9503 153.496 94.791 153.112 94.791 152.711C94.7943 152.313 94.9551 151.932 95.2383 151.651C95.5216 151.37 95.9043 151.213 96.3032 151.213H114.4C114.597 151.213 114.792 151.252 114.973 151.327C115.155 151.402 115.321 151.513 115.46 151.652C115.599 151.791 115.71 151.956 115.785 152.138C115.86 152.32 115.899 152.514 115.899 152.711C115.901 152.909 115.863 153.105 115.789 153.288C115.714 153.472 115.604 153.638 115.465 153.779C115.325 153.919 115.159 154.031 114.976 154.107C114.794 154.183 114.598 154.222 114.4 154.222Z" fill="white"/>
<path fill-rule="evenodd" clip-rule="evenodd" d="M125.761 168.149H107.664C107.267 168.149 106.885 167.991 106.604 167.71C106.323 167.429 106.165 167.048 106.165 166.651C106.165 166.254 106.323 165.872 106.604 165.592C106.885 165.311 107.267 165.153 107.664 165.153H125.761C126.158 165.153 126.54 165.311 126.821 165.592C127.102 165.872 127.26 166.254 127.26 166.651C127.26 167.048 127.102 167.429 126.821 167.71C126.54 167.991 126.158 168.149 125.761 168.149Z" fill="white"/>
<path fill-rule="evenodd" clip-rule="evenodd" d="M148.673 80.1681H130.577C130.179 80.1681 129.798 80.3259 129.517 80.6069C129.236 80.8878 129.078 81.2689 129.078 81.6662C129.078 82.0635 129.236 82.4445 129.517 82.7255C129.798 83.0064 130.179 83.1643 130.577 83.1643H148.673C149.072 83.1643 149.455 83.0068 149.738 82.7263C150.022 82.4457 150.182 82.0647 150.186 81.6662C150.182 81.2677 150.022 80.8867 149.738 80.6061C149.455 80.3255 149.072 80.1681 148.673 80.1681Z" fill="#171533"/>
<path fill-rule="evenodd" clip-rule="evenodd" d="M123.893 80.1681H119.216C118.818 80.1681 118.437 80.3259 118.156 80.6069C117.874 80.8878 117.716 81.2689 117.716 81.6662C117.716 82.0635 117.874 82.4445 118.156 82.7255C118.437 83.0064 118.818 83.1643 119.216 83.1643H123.893C124.29 83.1643 124.672 83.0064 124.953 82.7255C125.234 82.4445 125.392 82.0635 125.392 81.6662C125.392 81.2689 125.234 80.8878 124.953 80.6069C124.672 80.3259 124.29 80.1681 123.893 80.1681Z" fill="#171533"/>
<path fill-rule="evenodd" clip-rule="evenodd" d="M148.674 73.1982H130.577C130.378 73.1982 130.181 73.2378 129.997 73.3146C129.814 73.3915 129.647 73.5041 129.508 73.646C129.368 73.7878 129.258 73.9559 129.184 74.1406C129.11 74.3253 129.074 74.5229 129.078 74.7217C129.078 75.1202 129.235 75.5026 129.516 75.7855C129.797 76.0685 130.178 76.2292 130.577 76.2325H148.674C149.074 76.2292 149.456 76.0689 149.739 75.7863C150.022 75.5037 150.182 75.1214 150.186 74.7217C150.187 74.5223 150.15 74.3244 150.074 74.1397C149.999 73.9549 149.888 73.7869 149.747 73.6452C149.607 73.5036 149.439 73.3912 149.255 73.3144C149.071 73.2377 148.873 73.1982 148.674 73.1982Z" fill="#171533"/>
<path fill-rule="evenodd" clip-rule="evenodd" d="M139.663 159.554H157.76C158.159 159.554 158.541 159.397 158.825 159.116C159.108 158.835 159.269 158.454 159.272 158.056C159.269 157.657 159.108 157.276 158.825 156.996C158.541 156.715 158.159 156.558 157.76 156.558H139.663C139.467 156.558 139.272 156.597 139.09 156.672C138.908 156.747 138.742 156.858 138.603 156.997C138.464 157.136 138.353 157.301 138.278 157.483C138.203 157.664 138.164 157.859 138.164 158.056C138.164 158.453 138.322 158.834 138.603 159.115C138.884 159.396 139.266 159.554 139.663 159.554Z" fill="#171533"/>
<path fill-rule="evenodd" clip-rule="evenodd" d="M164.495 159.554H169.159C169.558 159.554 169.941 159.397 170.224 159.116C170.507 158.835 170.668 158.454 170.671 158.056C170.668 157.657 170.507 157.276 170.224 156.996C169.941 156.715 169.558 156.558 169.159 156.558H164.495C164.096 156.558 163.714 156.715 163.43 156.996C163.147 157.276 162.986 157.657 162.983 158.056C162.986 158.454 163.147 158.835 163.43 159.116C163.714 159.397 164.096 159.554 164.495 159.554Z" fill="#171533"/>
<path fill-rule="evenodd" clip-rule="evenodd" d="M139.663 166.524H157.76C158.159 166.524 158.541 166.366 158.825 166.086C159.108 165.805 159.269 165.424 159.272 165.026C159.269 164.627 159.108 164.246 158.825 163.966C158.541 163.685 158.159 163.528 157.76 163.528H139.663C139.266 163.528 138.884 163.686 138.603 163.966C138.322 164.247 138.164 164.628 138.164 165.026C138.164 165.423 138.322 165.804 138.603 166.085C138.884 166.366 139.266 166.524 139.663 166.524Z" fill="#171533"/>
<path fill-rule="evenodd" clip-rule="evenodd" d="M199.061 49.013C198.68 49.013 198.315 48.8619 198.046 48.5928C197.777 48.3238 197.625 47.9589 197.625 47.5784C197.625 47.1979 197.777 46.833 198.046 46.564C198.315 46.2949 198.68 46.1438 199.061 46.1438H200.815C201.196 46.1438 201.561 46.2949 201.83 46.564C202.1 46.833 202.251 47.1979 202.251 47.5784C202.251 47.9589 202.1 48.3238 201.83 48.5928C201.561 48.8619 201.196 49.013 200.815 49.013H199.061Z" fill="#D4CFE6"/>
<path fill-rule="evenodd" clip-rule="evenodd" d="M190.242 49.013C189.861 49.013 189.496 48.8619 189.226 48.5928C188.957 48.3238 188.806 47.9589 188.806 47.5784C188.806 47.1979 188.957 46.833 189.226 46.564C189.496 46.2949 189.861 46.1438 190.242 46.1438H191.996C192.376 46.1438 192.742 46.2949 193.011 46.564C193.28 46.833 193.432 47.1979 193.432 47.5784C193.432 47.9589 193.28 48.3238 193.011 48.5928C192.742 48.8619 192.376 49.013 191.996 49.013H190.242Z" fill="#D4CFE6"/>
<path fill-rule="evenodd" clip-rule="evenodd" d="M91.2454 49.013C90.8645 49.013 90.4993 48.8619 90.23 48.5928C89.9606 48.3238 89.8094 47.9589 89.8094 47.5784C89.8094 47.1979 89.9606 46.833 90.23 46.564C90.4993 46.2949 90.8645 46.1438 91.2454 46.1438H92.9991C93.38 46.1438 93.7452 46.2949 94.0145 46.564C94.2838 46.833 94.4351 47.1979 94.4351 47.5784C94.4351 47.9589 94.2838 48.3238 94.0145 48.5928C93.7452 48.8619 93.38 49.013 92.9991 49.013H91.2454Z" fill="#D4CFE6"/>
<path fill-rule="evenodd" clip-rule="evenodd" d="M199.061 247.928C198.68 247.928 198.315 247.777 198.046 247.508C197.777 247.239 197.625 246.874 197.625 246.494C197.625 246.113 197.777 245.748 198.046 245.479C198.315 245.21 198.68 245.059 199.061 245.059H200.815C201.196 245.059 201.561 245.21 201.83 245.479C202.1 245.748 202.251 246.113 202.251 246.494C202.251 246.874 202.1 247.239 201.83 247.508C201.561 247.777 201.196 247.928 200.815 247.928H199.061Z" fill="#D4CFE6"/>
<path fill-rule="evenodd" clip-rule="evenodd" d="M190.242 247.928C189.861 247.928 189.496 247.777 189.226 247.508C188.957 247.239 188.806 246.874 188.806 246.494C188.806 246.113 188.957 245.748 189.226 245.479C189.496 245.21 189.861 245.059 190.242 245.059H191.996C192.376 245.059 192.742 245.21 193.011 245.479C193.28 245.748 193.432 246.113 193.432 246.494C193.432 246.874 193.28 247.239 193.011 247.508C192.742 247.777 192.376 247.928 191.996 247.928H190.242Z" fill="#D4CFE6"/>
<path opacity="0.42" fill-rule="evenodd" clip-rule="evenodd" d="M95.7568 188.983H196.85C197.304 188.986 197.739 189.168 198.06 189.488C198.381 189.809 198.562 190.243 198.566 190.696C198.566 191.152 198.385 191.589 198.064 191.913C197.743 192.236 197.306 192.42 196.85 192.423H95.7568C95.5298 192.423 95.305 192.378 95.0954 192.292C94.8857 192.205 94.6952 192.078 94.5347 191.917C94.3742 191.757 94.2469 191.567 94.16 191.357C94.0732 191.148 94.0284 190.923 94.0284 190.696C94.0318 190.241 94.2154 189.805 94.5391 189.484C94.8629 189.163 95.3006 188.983 95.7568 188.983Z" fill="#86AEC9"/>
<path opacity="0.42" fill-rule="evenodd" clip-rule="evenodd" d="M95.7568 200.117H196.85C197.304 200.12 197.739 200.302 198.06 200.622C198.381 200.943 198.562 201.377 198.566 201.83C198.566 202.286 198.385 202.723 198.064 203.047C197.743 203.37 197.306 203.554 196.85 203.557H95.7568C95.2984 203.557 94.8588 203.375 94.5347 203.051C94.2105 202.728 94.0284 202.288 94.0284 201.83C94.0318 201.375 94.2154 200.939 94.5391 200.618C94.8629 200.297 95.3006 200.117 95.7568 200.117Z" fill="#86AEC9"/>
<path opacity="0.42" fill-rule="evenodd" clip-rule="evenodd" d="M103.547 211.251H189.098C189.554 211.251 189.992 211.431 190.316 211.752C190.64 212.073 190.823 212.509 190.826 212.965C190.826 213.423 190.644 213.862 190.32 214.185C189.996 214.509 189.556 214.691 189.098 214.691H103.547C103.32 214.691 103.095 214.647 102.885 214.56C102.676 214.473 102.485 214.346 102.325 214.185C102.164 214.025 102.037 213.835 101.95 213.625C101.863 213.416 101.819 213.191 101.819 212.965C101.822 212.509 102.005 212.073 102.329 211.752C102.653 211.431 103.091 211.251 103.547 211.251Z" fill="#86AEC9"/>
<path d="M166.859 226.638H125.773C124.412 226.638 123.308 227.741 123.308 229.101V236.528C123.308 237.888 124.412 238.991 125.773 238.991H166.859C168.22 238.991 169.324 237.888 169.324 236.528V229.101C169.324 227.741 168.22 226.638 166.859 226.638Z" fill="#B85972"/>
</svg>
