<svg width="558" height="618" viewBox="0 0 558 618" fill="none" xmlns="http://www.w3.org/2000/svg">
<path d="M87.5592 123.57C87.5592 123.57 96.5371 164.885 80.2896 177.872C64.0422 190.859 20.1628 174.622 33.9787 228.176C47.7947 281.731 141.215 336.095 161.539 309.311C181.864 282.528 217.651 186.04 181.041 181.059C144.432 176.079 133.109 198.106 135.541 157.538C137.972 116.971 87.5592 123.57 87.5592 123.57Z" fill="#965450"/>
<path d="M88.7313 161.958C92.4051 166.672 96.7881 170.788 101.724 174.161C113.134 181.819 126.526 183.226 139.88 183.487C136.139 179.154 134.706 171.459 135.541 157.588C138.035 117.02 87.5592 123.57 87.5592 123.57C87.5592 123.57 92.2726 145.099 88.7313 161.958Z" fill="#76413B"/>
<path d="M156.402 38.6748C156.402 38.6748 83.5441 3.93467 77.7334 55.0611C72.222 103.349 100.253 174.846 139.194 170.164C158.522 167.836 174.395 162.257 169.657 116.771C165.193 73.8507 166.203 56.767 156.402 38.6748Z" fill="#965450"/>
<path d="M111.575 56.1569C111.575 56.1569 113.608 73.2032 100.602 77.2624C100.602 77.2624 107.772 135.636 108.732 141.762C109.904 149.233 120.129 154.874 120.129 130.941C120.129 111.878 136.763 119.038 144.481 118.228C152.2 117.419 161.539 113.771 162.761 129.186C163.983 144.601 171.702 135.673 169.669 116.199C169.669 116.199 183.485 161.236 163.173 169.741C142.86 178.245 98.9063 194.134 93.6193 134.876C88.3323 75.6188 79.4791 87.8089 75.8256 94.7072C72.1721 101.605 73.3318 124.317 87.1976 125.127C87.1976 125.127 46.9717 90.2619 57.5332 61.4364C68.0947 32.6108 85.1651 41.1526 85.1651 41.1526C85.1651 41.1526 88.8186 21.6783 104.667 17.2206C120.516 12.7629 124.98 34.6529 146.514 18.0299C168.048 1.40699 182.675 38.3137 193.236 20.8689C193.236 20.8689 196.478 38.3012 177.799 35.0638C177.799 35.0638 186.328 43.5807 193.635 32.2248C193.635 32.2248 190.792 63.0551 159.968 57.788C129.144 52.521 137.985 73.6016 111.575 56.1569Z" fill="#352C38"/>
<path d="M91.2626 108.491C91.2626 108.491 90.4147 84.0735 79.0427 89.353C67.6707 94.6324 72.5711 130.443 91.6616 125.936L91.2626 108.491Z" fill="#965450"/>
<path d="M124.693 126.783C124.693 126.783 148.546 128.302 158.771 128.488C158.746 128.488 144.93 142.098 124.693 126.783Z" fill="white"/>
<path d="M87.9457 122.026C86.8847 121.576 85.8871 120.99 84.978 120.283C84.5152 119.918 84.0967 119.5 83.7311 119.038C83.3059 118.536 83.0105 117.937 82.8707 117.294C82.7911 116.938 82.7911 116.568 82.8707 116.211C82.9487 115.85 83.097 115.507 83.3071 115.203C83.7098 114.666 84.2139 114.213 84.791 113.87C85.8272 113.243 86.9427 112.758 88.1078 112.426L87.3846 113.41C87.0806 110.284 86.6186 107.175 86.0005 104.096C85.6797 102.581 85.276 101.084 84.791 99.6131C84.3889 98.2754 83.6899 97.0453 82.746 96.0146C82.5719 95.8365 82.3617 95.6977 82.1294 95.6075C81.8971 95.5172 81.6482 95.4778 81.3993 95.4916H81.2497H80.9629C80.7759 95.4916 80.726 95.5788 80.5888 95.6037C80.3222 95.7274 80.0711 95.882 79.8407 96.0644C78.8427 97.0615 78.1616 98.3307 77.883 99.7127C77.5112 101.22 77.2733 102.758 77.1723 104.307C77.06 105.889 77.0102 107.483 77.0351 109.089C76.6311 107.525 76.3641 105.93 76.2371 104.32C76.08 102.661 76.1134 100.99 76.3368 99.3392C76.4572 98.4871 76.6748 97.6516 76.9852 96.8489C77.3058 96.0226 77.7892 95.2689 78.4067 94.6325C78.7773 94.2824 79.1974 93.9888 79.6536 93.7609C79.9019 93.6555 80.1558 93.564 80.4143 93.4869L80.7011 93.4122H80.8507H81.1126C81.6598 93.3474 82.2146 93.3957 82.7423 93.5542C83.27 93.7128 83.7594 93.9781 84.18 94.3336C84.9013 94.9449 85.4981 95.6889 85.9382 96.5251C86.3542 97.2773 86.7127 98.0599 87.0105 98.866C87.5621 100.426 87.9792 102.029 88.2574 103.66C88.5764 105.257 88.8095 106.869 88.9557 108.491C89.1053 110.11 89.2425 111.704 89.255 113.347V114.169L88.5318 114.331C87.5024 114.538 86.5018 114.868 85.5516 115.315C85.1304 115.512 84.7498 115.787 84.4294 116.124C84.2966 116.27 84.191 116.439 84.1176 116.622C84.0462 116.809 84.0123 117.008 84.0179 117.207C84.1815 118.213 84.6723 119.136 85.4144 119.835C86.1851 120.645 87.0328 121.379 87.9457 122.026Z" fill="#76413B"/>
<path d="M143.796 118.091C145.94 117.593 148.11 117.22 150.267 116.846C152.424 116.473 154.594 116.199 156.764 115.912L155.891 117.294C154.868 114.804 153.933 112.272 153.085 109.699C152.212 107.209 151.452 104.556 150.754 101.954C150.404 100.709 150.105 99.3267 149.818 98.0068C149.532 96.6869 149.232 95.3671 149.058 94.0223C148.883 92.6775 148.596 91.3576 148.522 89.9879C148.447 88.6183 148.384 87.2859 148.384 85.9163C148.783 87.1614 149.145 88.5187 149.469 89.8136C149.606 90.4611 149.831 91.0588 150.03 91.7436L150.604 93.6612L151.165 95.5787L151.776 97.4963C152.2 98.7415 152.537 100.049 153.023 101.306C153.509 102.564 153.833 103.859 154.27 105.129C154.706 106.399 155.118 107.619 155.517 108.939L158.011 116.572L158.447 117.905H157.2C155.006 117.992 152.823 118.079 150.629 118.104C148.434 118.129 146.003 118.203 143.796 118.091Z" fill="#76413B"/>
<path d="M152.898 93.8356L153.285 94.8566C153.522 95.4916 153.883 96.4006 154.357 97.4216C154.606 97.9322 154.881 98.4676 155.193 99.0155C155.52 99.5683 155.886 100.097 156.29 100.597C156.489 100.833 156.726 101.045 156.951 101.269C157.187 101.456 157.432 101.63 157.686 101.792C157.933 101.945 158.203 102.058 158.484 102.128C158.762 102.22 159.053 102.262 159.345 102.253H159.569H159.706L160.28 102.178C160.517 102.178 160.554 102.091 160.667 102.054C160.778 102.021 160.886 101.979 160.991 101.929C161.49 101.644 161.917 101.248 162.238 100.771C162.579 100.256 162.863 99.7044 163.086 99.1275C163.273 98.5423 163.46 97.9695 163.597 97.4216C163.859 96.3259 164.021 95.3671 164.121 94.6947C164.22 94.0224 164.283 93.6239 164.283 93.6239C164.406 93.9537 164.51 94.2904 164.594 94.6325C164.797 95.582 164.897 96.5504 164.894 97.5213C164.899 98.1894 164.841 98.8565 164.719 99.5135C164.584 100.288 164.327 101.036 163.958 101.73L163.634 102.29C163.497 102.477 163.347 102.651 163.198 102.826C162.885 103.194 162.515 103.51 162.101 103.76C161.643 104.001 161.157 104.185 160.654 104.307L160.08 104.407H159.931H159.607H159.245C158.278 104.368 157.34 104.072 156.527 103.548C156.142 103.303 155.786 103.014 155.467 102.689C155.193 102.352 154.918 102.029 154.681 101.693C153.911 100.49 153.382 99.1493 153.123 97.7454C152.923 96.7954 152.823 95.8273 152.823 94.8566C152.83 94.5152 152.855 94.1744 152.898 93.8356Z" fill="#352C38"/>
<path d="M119.244 97.4839C119.244 97.4839 119.381 97.8824 119.643 98.5547C119.905 99.2271 120.291 100.173 120.815 101.257C121.077 101.792 121.376 102.352 121.713 102.925C122.089 103.501 122.506 104.051 122.959 104.569C123.184 104.81 123.421 105.038 123.67 105.254C123.922 105.452 124.189 105.631 124.468 105.789C124.734 105.948 125.025 106.062 125.329 106.125C125.625 106.229 125.938 106.275 126.251 106.262H126.488C126.488 106.262 126.625 106.262 126.376 106.262H126.451H126.613L127.224 106.175C127.372 106.163 127.517 106.121 127.648 106.051C127.762 106.006 127.878 105.968 127.997 105.939C128.531 105.631 128.988 105.205 129.331 104.693C129.702 104.161 130.012 103.589 130.254 102.988C130.466 102.39 130.666 101.742 130.815 101.207C131.089 100.049 131.264 99.0404 131.376 98.3306C131.488 97.6209 131.551 97.1975 131.551 97.1975C131.551 97.1975 131.688 97.596 131.85 98.3182C132.076 99.3192 132.184 100.343 132.174 101.369V102.39C132.174 102.738 132.075 103.1 132.012 103.486C131.853 104.307 131.563 105.097 131.152 105.826C130.676 106.69 129.979 107.412 129.132 107.918C128.877 108.043 128.615 108.152 128.346 108.242C128.113 108.35 127.865 108.426 127.611 108.466L127 108.553H126.85H126.551H126.177C125.668 108.552 125.162 108.468 124.68 108.304C124.191 108.177 123.727 107.966 123.309 107.682C122.505 107.208 121.802 106.582 121.239 105.839C120.782 105.167 120.406 104.444 120.116 103.685C119.864 103.033 119.664 102.363 119.518 101.68C119.303 100.677 119.191 99.6551 119.181 98.6295C119.177 98.2467 119.198 97.864 119.244 97.4839Z" fill="#352C38"/>
<path d="M139.032 84.3101L137.785 83.3638C137 82.791 135.915 81.9816 134.581 81.1847C133.166 80.2921 131.651 79.5691 130.067 79.0306C129.255 78.7625 128.42 78.5707 127.573 78.4578C126.707 78.3706 125.834 78.3706 124.967 78.4578C124.077 78.5443 123.196 78.711 122.336 78.9559C121.913 79.0701 121.497 79.2073 121.089 79.3668C120.665 79.5103 120.249 79.6766 119.842 79.8649C119.418 80.0267 119.019 80.226 118.595 80.4252C118.171 80.6244 117.785 80.7987 117.348 81.0229C116.575 81.4338 115.827 81.8447 115.154 82.268C114.48 82.6914 113.832 83.0525 113.258 83.3887L111.762 84.2976C110.939 84.8082 110.403 85.0696 110.403 85.0696C110.403 85.0696 110.602 84.5342 111.051 83.6377C111.311 83.0956 111.607 82.5715 111.937 82.0688C112.34 81.3987 112.79 80.7579 113.283 80.1513L114.156 79.1053L115.179 78.0718C115.528 77.7107 115.952 77.3994 116.426 77.0508C117.314 76.3496 118.266 75.7327 119.269 75.208L120.067 74.8095L120.927 74.4733C122.131 74.0262 123.389 73.7415 124.668 73.6266C125.958 73.5319 127.255 73.6199 128.521 73.8881C129.724 74.1412 130.887 74.5603 131.975 75.1332C133.801 76.133 135.395 77.5079 136.651 79.1676C137.501 80.2883 138.193 81.52 138.708 82.8283C138.857 83.3125 138.966 83.8081 139.032 84.3101Z" fill="#352C38"/>
<path d="M149.719 85.4432C149.718 84.1402 149.959 82.8483 150.429 81.633C150.89 80.3808 151.537 79.2054 152.35 78.1465C152.836 77.5171 153.387 76.941 153.995 76.4282C154.666 75.8491 155.418 75.3709 156.227 75.0087C157.122 74.5887 158.095 74.3638 159.083 74.3487C160.07 74.306 161.053 74.498 161.951 74.9091C162.362 75.0875 162.751 75.3131 163.111 75.5815C163.444 75.8062 163.749 76.0695 164.021 76.3659C164.511 76.8527 164.931 77.406 165.268 78.0095C165.744 78.8515 166.069 79.7702 166.228 80.724C166.292 81.0819 166.329 81.4439 166.34 81.8073C166.023 81.6413 165.715 81.4584 165.417 81.2594C164.856 80.9108 164.083 80.4251 163.223 79.952C163.01 79.8251 162.79 79.7128 162.562 79.6158C162.347 79.5002 162.121 79.4044 161.889 79.3294C161.676 79.2365 161.455 79.1655 161.228 79.1177C161.019 79.0634 160.806 79.0259 160.592 79.0057C160.212 78.9434 159.824 78.9434 159.445 79.0057C159.011 79.0758 158.591 79.2101 158.198 79.4041C157.207 79.8742 156.271 80.4504 155.404 81.1224C154.457 81.8322 153.534 82.5668 152.711 83.2019C151.888 83.8369 151.14 84.447 150.591 84.7957C150.043 85.1443 149.719 85.4432 149.719 85.4432Z" fill="#352C38"/>
<path d="M219.235 401.005L250.919 607.092H194.857L146.102 435.073L219.235 401.005Z" fill="#597A96"/>
<path d="M92.4721 416.42L82.3221 607.092H140.928L156.664 517.839L233.824 496.335L218.424 394.505L92.4721 416.42Z" fill="#6F96BD"/>
<path d="M153.933 449.405C177.213 447.798 204.783 445.084 224.572 431.039L218.424 394.505L92.4845 416.42L91.6117 445.52C112.135 449.458 133.078 450.764 153.933 449.405Z" fill="#597A96"/>
<path d="M75.4142 180.3C75.4142 180.3 92.4721 198.977 118.483 199.774C144.494 200.571 147.723 182.74 147.723 182.74C147.723 182.74 189.982 164.885 201.341 190.846C212.701 216.808 227.34 414.789 227.34 414.789C227.34 414.789 193.274 457.797 86.038 425.336C86.038 425.336 16.21 202.215 33.2306 193.287C50.2512 184.359 75.4142 180.3 75.4142 180.3Z" fill="#FFA65B"/>
<path d="M130.516 298.067C102.108 280.841 76.0259 260.052 52.9071 236.208C45.5378 228.562 38.3305 220.755 31.0859 212.985C37.1085 269.304 85.9507 425.336 85.9507 425.336C193.186 457.797 227.327 414.789 227.327 414.789C227.327 414.789 224.721 379.514 220.856 336.78C189.027 328.304 158.597 315.264 130.516 298.067Z" fill="#CE8A41"/>
<path d="M34.7892 211.13C34.7892 211.13 34.7892 341.773 41.2857 365.294C47.7822 388.815 83.5441 456.975 83.5441 456.975L89.2301 481.318L103.52 481.38L108.732 432.632L98.9811 429.382L80.2772 349.057L76.2246 217.63L34.7892 211.13Z" fill="#965450"/>
<path d="M63.8801 308.203C68.9025 308.955 73.9768 309.309 79.0552 309.261L76.2246 217.63L34.7892 211.13C34.7892 211.13 34.7892 257.749 36.1609 300.309C45.0763 303.966 54.3741 306.614 63.8801 308.203Z" fill="#76413B"/>
<path d="M89.4919 481.331L103.52 481.393L108.732 432.645L107.946 432.383C103.881 449.342 96.4249 465.281 89.4919 481.331Z" fill="#76413B"/>
<path d="M75.4141 180.3C75.4141 180.3 30.7243 185.168 27.4324 200.584C24.1405 215.999 26.6219 291.481 26.6219 291.481C26.6219 291.481 54.2912 306.061 86.038 301.205L75.4141 180.3Z" fill="#FFA65B"/>
<path d="M162.35 179.49C162.35 179.49 194.857 162.456 210.294 193.287C225.731 224.117 227.352 270.362 227.352 270.362L193.274 278.481L162.35 179.49Z" fill="#FFA65B"/>
<path d="M182.188 243.056L193.274 278.481L227.39 270.362C227.39 270.362 226.292 239.096 217.314 210.831C205.743 221.639 193.947 232.385 182.188 243.056Z" fill="#CE8A41"/>
<g opacity="0.52">
<path opacity="0.52" d="M241.305 210.781L214.085 210.931L207.401 218.153L207.239 188.194C207.236 187.909 207.289 187.626 207.396 187.362C207.503 187.098 207.662 186.857 207.862 186.655C208.063 186.452 208.302 186.291 208.565 186.181C208.829 186.072 209.111 186.015 209.396 186.015L241.168 185.841C241.743 185.841 242.294 186.067 242.702 186.47C243.111 186.873 243.344 187.421 243.35 187.995L243.45 208.602C243.453 208.886 243.4 209.168 243.294 209.431C243.188 209.695 243.031 209.935 242.831 210.137C242.632 210.34 242.395 210.501 242.133 210.611C241.871 210.722 241.59 210.78 241.305 210.781Z" fill="#5A6EDB"/>
</g>
<path d="M230.507 193.909C229.185 192.664 226.691 193.909 225.794 195.154C224.871 193.909 222.364 192.664 221.055 193.996C219.995 194.98 220.195 196.487 220.743 197.931C221.758 200.25 223.56 202.138 225.831 203.261C228.086 202.117 229.855 200.204 230.819 197.869C231.405 196.412 231.592 194.893 230.507 193.909Z" fill="#B40079"/>
<path d="M174.261 209.256L156.551 288.377C156.181 290.028 157.222 291.665 158.875 292.034L195.504 300.21C197.157 300.579 198.797 299.54 199.166 297.889L216.877 218.769C217.246 217.118 216.206 215.48 214.552 215.111L177.924 206.935C176.271 206.566 174.631 207.606 174.261 209.256Z" fill="#1C181E"/>
<path d="M212.738 250.079C212.738 250.079 121.713 234.664 188.361 253.329C188.361 253.329 120.104 241.973 185.867 260.625C185.867 260.625 124.93 252.519 185.867 269.553C185.867 269.553 136.302 267.125 193.186 278.481C193.186 278.481 192.363 375.84 227.302 381.531C262.241 387.221 238.737 294.705 212.738 250.079Z" fill="#965450"/>
<path d="M296.769 55.6712C296.766 54.6128 296.45 53.5788 295.859 52.7C295.268 51.8211 294.43 51.1368 293.45 50.7335C292.47 50.3301 291.393 50.2259 290.353 50.4339C289.314 50.6419 288.36 51.1528 287.611 51.9021C286.863 52.6514 286.353 53.6054 286.147 54.6437C285.941 55.682 286.048 56.7579 286.455 57.7355C286.861 58.7131 287.548 59.5486 288.429 60.1364C289.311 60.7242 290.347 61.0379 291.407 61.0379C292.83 61.0346 294.194 60.4677 295.199 59.4616C296.204 58.4555 296.769 57.0924 296.769 55.6712Z" fill="#E5E3E1"/>
<path d="M316.433 71.7463C321.37 71.7463 325.373 67.7492 325.373 62.8185C325.373 57.8878 321.37 53.8906 316.433 53.8906C311.495 53.8906 307.492 57.8878 307.492 62.8185C307.492 67.7492 311.495 71.7463 316.433 71.7463Z" fill="#E5E3E1"/>
<path d="M533.149 481.393C533.149 479.627 532.624 477.901 531.642 476.433C530.66 474.965 529.263 473.82 527.63 473.145C525.996 472.469 524.198 472.292 522.464 472.637C520.73 472.981 519.137 473.831 517.886 475.08C516.636 476.329 515.785 477.919 515.44 479.651C515.095 481.383 515.272 483.178 515.948 484.809C516.625 486.441 517.771 487.835 519.241 488.816C520.712 489.797 522.44 490.321 524.208 490.321C526.579 490.321 528.854 489.38 530.53 487.706C532.207 486.032 533.149 483.761 533.149 481.393Z" fill="#E5E3E1"/>
<path d="M61.0994 438.011C61.0994 435.89 60.4694 433.817 59.2892 432.054C58.1089 430.291 56.4315 428.916 54.469 428.105C52.5065 427.294 50.3472 427.083 48.2643 427.497C46.1814 427.912 44.2684 428.934 42.7674 430.435C41.2665 431.936 40.2449 433.847 39.8321 435.927C39.4193 438.008 39.6336 440.164 40.4481 442.123C41.2626 444.081 42.6406 445.755 44.4078 446.932C46.175 448.108 48.2519 448.735 50.3758 448.732C51.7851 448.732 53.1806 448.455 54.4825 447.916C55.7843 447.377 56.967 446.587 57.963 445.591C58.9589 444.596 59.7485 443.414 60.2867 442.113C60.8249 440.813 61.101 439.419 61.0994 438.011Z" fill="#E5E3E1"/>
<path d="M402.757 80.5995C402.757 80.5995 363.217 68.484 338.341 86.3397C313.465 104.195 328.777 158.958 320.485 184.434C312.193 209.91 312.181 231.576 350.411 237.303C388.642 243.031 393.792 190.809 393.792 190.809L402.757 80.5995Z" fill="#76413B"/>
<path d="M318.565 272.977C318.565 272.977 325.585 344.96 335.149 355.793C344.713 366.626 361.335 369.166 361.335 369.166L356.871 266.615L318.565 272.977Z" fill="#DD908A"/>
<path d="M285.397 318.202C285.397 318.202 274.548 328.4 287.891 345.595C301.233 362.791 353.604 404.205 370.188 396.56C386.772 388.915 363.168 357.698 363.168 357.698L285.397 318.202Z" fill="#FFAC9D"/>
<path d="M375.674 226.62L371.796 221.465C371.796 221.465 324.6 215.65 320.074 230.492C315.547 245.335 310.373 286.662 310.373 286.662L349.813 295.702L375.674 226.62Z" fill="#769D9D"/>
<path d="M338.478 259.828C330.654 255.833 323.347 250.899 316.72 245.135C313.315 263.066 310.36 286.662 310.36 286.662L349.801 295.702L359.776 269.18C352.501 266.478 345.39 263.356 338.478 259.828Z" fill="#547676"/>
<path d="M358.217 351.211C358.217 351.211 333.653 395.115 320.722 473.872C310.834 534.088 304.662 607.64 304.662 607.64H497.3C497.3 607.64 488.796 435.135 438.382 343.466L358.217 351.211Z" fill="#DB7887"/>
<path d="M413.755 521.724C386.722 542.418 357.232 559.253 324.176 568.305C318.839 569.762 313.465 571.007 308.053 572.041C305.859 593.209 304.662 607.578 304.662 607.578H497.3C497.3 607.578 493.06 521.487 472.797 438.634C460.016 470.896 441.549 500.481 413.755 521.724Z" fill="#D26A7E"/>
<path d="M431.661 370.598C438.295 371.408 444.954 372.13 451.612 372.802C447.895 362.724 443.47 352.921 438.37 343.466L358.205 351.211C358.205 351.211 356.958 353.49 354.838 357.885C380.5 361.509 405.925 367.473 431.661 370.598Z" fill="#D26A7E"/>
<path d="M408.992 152.159C408.992 152.159 408.992 231.999 414.092 233.692C419.192 235.386 374.963 235.398 374.963 235.398L369.016 177.635L408.992 152.159Z" fill="#DD908A"/>
<path d="M372.432 208.553L416.399 199.513L418.332 217.58C418.332 217.58 451.3 206.61 459.705 225.337C468.109 244.065 446.786 350.564 446.786 350.564L352.394 352.506C352.394 352.506 327.83 300.857 335.586 262.132L343.354 223.395L371.796 221.465L372.432 208.553Z" fill="#769D9D"/>
<path d="M413.556 289.613C390.516 302.825 366.442 314.151 341.571 323.481C344.51 333.392 348.126 343.089 352.394 352.506L446.787 350.563C446.787 350.563 458.595 291.58 461.176 253.69C447.834 268.47 430.015 280.237 413.556 289.613Z" fill="#547676"/>
<path d="M472.735 255.782C472.735 255.782 488.035 374.695 473.583 379.788C459.131 384.88 374.914 318.638 374.914 318.638C374.914 318.638 340.897 327.13 349.402 316.932C349.402 316.932 341.745 314.441 347.693 311.839C347.693 311.839 340.897 308.44 345.199 306.746C349.501 305.053 276.307 316.085 372.407 295.702L441.263 326.233L437.859 284.607L472.735 255.782Z" fill="#FFAC9D"/>
<path d="M477.96 307.232C475.865 280.112 472.735 255.782 472.735 255.782L437.821 284.657L439.417 304.243C451.6 308.427 465.017 308.676 477.96 307.232Z" fill="#DD908A"/>
<path d="M430.19 297.395C430.19 297.395 460.341 299.574 481.027 289.239C481.027 289.239 475.216 224.042 450.652 216.945C426.087 209.848 414.042 245.584 430.19 297.395Z" fill="#769D9D"/>
<path d="M300.978 260.908L266.75 278.331C265.21 279.115 264.598 280.997 265.383 282.535L303.115 356.451C303.9 357.989 305.785 358.6 307.325 357.816L341.552 340.393C343.092 339.61 343.704 337.727 342.919 336.19L305.188 262.274C304.403 260.736 302.518 260.125 300.978 260.908Z" fill="#352C38"/>
<path d="M281.569 323.307C281.569 323.307 323.665 271.707 289.861 320.817C289.861 320.817 338.341 278.132 298.153 324.639C298.153 324.639 345.362 297.881 297.517 332.92C297.517 332.92 349.888 308.079 296.881 341.2L304.537 359.043C304.537 359.043 275.184 338.598 281.569 323.307Z" fill="#FFAC9D"/>
<path d="M343.566 151.649L327.181 152.906" stroke="#6F96BD" stroke-width="2.05" stroke-miterlimit="10"/>
<path d="M386.822 102.9C386.822 102.9 335.149 90.349 335.149 148.174C335.149 206 384.914 229.77 407.87 168.421C430.826 107.072 386.822 102.9 386.822 102.9Z" fill="#FFAC9D"/>
<path d="M368.966 93.3873C368.966 93.3873 364.502 128.376 390.014 151.91C415.526 175.444 381.086 241.089 414.254 244.911C447.422 248.734 425.738 210.52 453.171 217.518C453.171 217.518 458.271 190.772 446.151 184.396C434.03 178.021 451.251 86.3023 410.426 75.4694C369.602 64.6365 370.238 85.0572 368.966 93.3873Z" fill="#965450"/>
<path d="M384.827 175.792C384.827 175.792 362.469 181.682 352.793 183.774C352.793 183.774 368.467 194.109 384.827 175.792Z" fill="white"/>
<path d="M351.87 149.793C351.87 149.793 351.983 150.167 352.12 150.827C352.306 151.744 352.394 152.679 352.382 153.616C352.393 155 352.139 156.374 351.633 157.663C351.471 158.024 351.272 158.385 351.072 158.746C350.837 159.119 350.556 159.462 350.237 159.767C349.906 160.092 349.527 160.364 349.115 160.576C348.73 160.813 348.309 160.986 347.868 161.087L347.519 161.174H347.107H346.546C346.047 161.147 345.553 161.059 345.075 160.913C344.226 160.607 343.476 160.078 342.905 159.381C342.425 158.789 342.042 158.125 341.77 157.414C341.533 156.813 341.349 156.192 341.222 155.558C341.04 154.636 340.956 153.697 340.972 152.757C340.972 152.084 341.047 151.698 341.047 151.698C341.047 151.698 341.184 152.059 341.396 152.694C341.608 153.329 341.957 154.189 342.406 155.185C342.643 155.67 342.917 156.181 343.217 156.704C343.53 157.211 343.903 157.679 344.326 158.098C344.717 158.494 345.196 158.793 345.723 158.97C345.831 158.982 345.939 158.982 346.047 158.97C346.159 158.97 346.209 159.057 346.434 158.97H346.995H347.145H347.344C347.624 158.925 347.894 158.832 348.142 158.696C348.397 158.581 348.63 158.421 348.828 158.223C349.047 158.027 349.251 157.815 349.439 157.588C349.613 157.339 349.788 157.09 349.938 156.828C350.228 156.279 350.478 155.708 350.686 155.123C350.873 154.55 351.035 153.989 351.172 153.454C351.434 152.396 351.609 151.474 351.721 150.827L351.87 149.793Z" fill="#352C38"/>
<path d="M384.49 146.929C384.605 147.284 384.697 147.646 384.764 148.013C384.946 148.99 385.029 149.982 385.014 150.976C385.013 152.439 384.72 153.886 384.153 155.235C383.8 156.06 383.282 156.806 382.632 157.426C381.905 158.092 381.022 158.563 380.063 158.796L379.714 158.883H379.278H378.679C378.432 158.89 378.185 158.865 377.944 158.808C377.67 158.773 377.399 158.719 377.133 158.646C376.235 158.324 375.439 157.77 374.826 157.04C374.299 156.43 373.877 155.735 373.579 154.986C373.442 154.637 373.33 154.301 373.218 153.977C373.106 153.653 373.056 153.329 372.981 153.018C372.784 152.043 372.697 151.049 372.719 150.055C372.722 149.68 372.747 149.306 372.794 148.934C372.794 148.934 372.931 149.332 373.168 149.98C373.405 150.627 373.754 151.561 374.24 152.607C374.49 153.13 374.789 153.666 375.113 154.201C375.452 154.725 375.85 155.21 376.298 155.645C376.724 156.048 377.236 156.35 377.794 156.53H378.143C378.286 156.567 378.436 156.567 378.58 156.53H379.166H379.403C379.153 156.53 379.403 156.53 379.278 156.53H379.49C379.787 156.486 380.075 156.389 380.338 156.243C380.617 156.12 380.874 155.952 381.098 155.745C381.33 155.545 381.546 155.329 381.747 155.098C381.946 154.836 382.121 154.575 382.295 154.301C382.608 153.73 382.883 153.139 383.118 152.533C383.318 151.922 383.505 151.287 383.655 150.777C383.941 149.656 384.128 148.685 384.253 147.988L384.49 146.929Z" fill="#352C38"/>
<path d="M355.561 151.91C356.017 152.516 356.394 153.177 356.684 153.877C356.977 154.585 357.203 155.319 357.357 156.069C357.449 156.442 357.515 156.82 357.556 157.202C357.556 157.588 357.656 157.974 357.656 158.36C357.656 158.746 357.656 159.132 357.656 159.53L357.556 160.688C357.556 161.074 357.432 161.46 357.369 161.846C357.315 162.231 357.227 162.61 357.108 162.98L356.771 164.1L356.334 165.184C356.021 165.892 355.667 166.582 355.275 167.25C355.088 167.599 354.851 167.898 354.639 168.222L353.965 169.156L353.616 167.462C354.29 167.935 354.963 168.371 355.624 168.869C356.285 169.367 356.933 169.816 357.569 170.338C358.879 171.338 360.129 172.415 361.31 173.563C359.748 173.038 358.22 172.418 356.733 171.708C355.985 171.372 355.275 170.986 354.539 170.625C353.803 170.264 353.105 169.865 352.394 169.479L351.384 168.944L352.058 167.786C352.22 167.487 352.394 167.176 352.581 166.889C352.768 166.603 352.955 166.317 353.105 166.005C353.404 165.383 353.766 164.76 354.015 164.162C354.301 163.547 354.551 162.915 354.763 162.27C354.884 161.952 354.988 161.628 355.075 161.299C355.162 160.962 355.275 160.639 355.349 160.315C355.474 159.643 355.624 158.97 355.711 158.285C355.773 157.949 355.773 157.6 355.811 157.252C355.848 156.903 355.811 156.567 355.886 156.206C355.886 155.509 355.886 154.799 355.886 154.089C355.826 153.356 355.718 152.628 355.561 151.91Z" fill="#B57572"/>
<path d="M355.798 150.03C357.257 161.074 352.968 170.749 346.209 171.646C339.451 172.542 332.792 164.312 331.334 153.267C329.875 142.223 334.164 132.548 340.91 131.651C347.656 130.755 354.327 138.985 355.798 150.03Z" stroke="#6F96BD" stroke-width="1.98" stroke-miterlimit="10"/>
<path d="M381.352 169.829C389.558 168.746 394.992 158.66 393.488 147.302C391.985 135.944 384.113 127.615 375.907 128.698C367.701 129.781 362.267 139.867 363.77 151.225C365.274 162.583 373.145 170.912 381.352 169.829Z" stroke="#6F96BD" stroke-width="2.21" stroke-miterlimit="10"/>
<path d="M356.521 155.135C356.521 155.135 359.078 147.166 364.178 154.176" stroke="#6F96BD" stroke-width="2.05" stroke-miterlimit="10"/>
<path d="M394.478 149.084L404.366 148.76" stroke="#6F96BD" stroke-width="2.05" stroke-miterlimit="10"/>
<path d="M271.107 257.487L276.718 251.847H297.916C299.987 251.837 301.97 251.007 303.429 249.538C304.888 248.07 305.703 246.083 305.697 244.015V242.321C305.687 240.253 304.855 238.273 303.385 236.816C301.914 235.359 299.925 234.545 297.854 234.552L278.85 234.614C277.824 234.617 276.808 234.822 275.86 235.218C274.913 235.613 274.053 236.191 273.329 236.918C272.606 237.645 272.032 238.508 271.643 239.456C271.253 240.405 271.054 241.421 271.057 242.446L271.107 257.487Z" fill="#FFA65B"/>
<path d="M294.437 242.932C294.437 243.319 294.552 243.697 294.768 244.019C294.983 244.341 295.29 244.591 295.648 244.739C296.007 244.886 296.401 244.924 296.781 244.848C297.161 244.771 297.51 244.584 297.783 244.309C298.057 244.035 298.242 243.685 298.316 243.305C298.39 242.925 298.35 242.532 298.2 242.175C298.05 241.818 297.797 241.513 297.473 241.3C297.15 241.087 296.77 240.974 296.382 240.977C296.126 240.977 295.872 241.027 295.635 241.126C295.398 241.224 295.183 241.368 295.002 241.55C294.821 241.732 294.678 241.947 294.581 242.184C294.484 242.421 294.435 242.675 294.437 242.932Z" fill="white"/>
<path d="M287.292 242.956C287.292 243.344 287.407 243.722 287.623 244.044C287.839 244.366 288.145 244.616 288.503 244.764C288.862 244.911 289.256 244.949 289.636 244.873C290.016 244.796 290.365 244.609 290.638 244.334C290.912 244.06 291.097 243.71 291.171 243.33C291.245 242.95 291.205 242.557 291.055 242.2C290.905 241.843 290.652 241.538 290.328 241.325C290.005 241.112 289.625 240.999 289.237 241.002C288.981 241.001 288.727 241.052 288.49 241.151C288.253 241.249 288.038 241.393 287.857 241.575C287.677 241.757 287.534 241.972 287.437 242.209C287.34 242.446 287.29 242.7 287.292 242.956Z" fill="white"/>
<path d="M280.16 242.981C280.162 243.365 280.279 243.74 280.494 244.058C280.71 244.376 281.016 244.623 281.372 244.768C281.728 244.913 282.12 244.949 282.497 244.871C282.873 244.794 283.219 244.607 283.489 244.334C283.759 244.06 283.942 243.713 284.015 243.336C284.088 242.958 284.047 242.568 283.897 242.214C283.748 241.86 283.496 241.558 283.175 241.347C282.854 241.135 282.477 241.024 282.092 241.026C281.836 241.026 281.583 241.077 281.347 241.176C281.111 241.274 280.897 241.419 280.717 241.6C280.537 241.782 280.395 241.998 280.299 242.235C280.204 242.472 280.156 242.726 280.16 242.981Z" fill="white"/>
<path d="M265.084 270.848L259.997 265.245H240.919C237.028 265.245 233.874 261.783 233.861 257.475V255.782C233.861 251.473 236.979 247.962 240.869 247.949H257.977C261.867 247.949 265.022 251.411 265.034 255.719L265.084 270.848Z" fill="#B85972"/>
<path d="M243.986 256.504C243.95 256.841 243.817 257.16 243.603 257.423C243.39 257.686 243.104 257.882 242.781 257.987C242.459 258.092 242.112 258.101 241.785 258.013C241.457 257.926 241.161 257.746 240.934 257.494C240.706 257.243 240.556 256.931 240.502 256.597C240.448 256.262 240.492 255.919 240.629 255.609C240.766 255.299 240.99 255.035 241.274 254.849C241.557 254.663 241.889 254.563 242.228 254.561C242.719 254.587 243.179 254.806 243.509 255.17C243.838 255.534 244.01 256.014 243.986 256.504Z" fill="white"/>
<path d="M250.42 256.417C250.387 256.757 250.255 257.08 250.041 257.347C249.827 257.614 249.54 257.813 249.215 257.921C248.89 258.028 248.541 258.039 248.21 257.953C247.878 257.866 247.579 257.685 247.349 257.432C247.118 257.18 246.966 256.865 246.911 256.528C246.856 256.191 246.899 255.844 247.037 255.531C247.175 255.218 247.4 254.952 247.687 254.764C247.973 254.577 248.307 254.476 248.65 254.474C249.14 254.503 249.6 254.722 249.931 255.085C250.262 255.448 250.437 255.926 250.42 256.417Z" fill="white"/>
<path d="M256.867 256.392C256.831 256.729 256.698 257.048 256.484 257.311C256.27 257.574 255.985 257.77 255.662 257.875C255.339 257.979 254.993 257.989 254.665 257.901C254.337 257.814 254.042 257.634 253.814 257.382C253.587 257.131 253.437 256.819 253.383 256.485C253.329 256.15 253.373 255.807 253.51 255.497C253.647 255.187 253.871 254.923 254.154 254.737C254.438 254.551 254.769 254.451 255.109 254.449C255.6 254.475 256.06 254.694 256.39 255.058C256.719 255.422 256.891 255.902 256.867 256.392Z" fill="white"/>
</svg>
