<svg width="49" height="34" viewBox="0 0 49 34" fill="none" xmlns="http://www.w3.org/2000/svg">
<g style="mix-blend-mode:multiply" opacity="0.1">
<g style="mix-blend-mode:multiply" opacity="0.1">
<path d="M18.0696 1.25353H38.7384C40.3325 1.25353 41.9325 1.33143 43.5326 1.19959C44.6595 1.18032 45.7742 1.43535 46.7806 1.94269C47.4413 2.14432 48.0168 2.55855 48.4178 3.121C48.8188 3.68345 49.0227 4.3626 48.9979 5.0529C48.95 9.19985 48.8062 13.3408 48.8002 17.4818C48.8002 20.9336 48.956 24.3854 48.962 27.8312C48.962 29.3473 49.1777 30.8994 48.3627 32.3497C48.1849 32.7382 47.8971 33.0661 47.535 33.293C47.173 33.5198 46.7524 33.6356 46.3252 33.6261C41.7468 33.4883 37.1623 33.74 32.5899 33.6261C27.3283 33.4583 22.0727 33.7819 16.8111 33.5482C13.7309 33.4164 10.6386 33.6801 7.55238 33.6381C6.35384 33.6381 5.1553 33.5302 3.92679 33.6381C2.69829 33.746 1.34394 32.0381 1.26603 30.2462C1.16416 27.6214 1.20611 24.9846 1.2121 22.3538C1.2121 16.6008 1.26603 10.8478 1.27802 5.09485C1.27802 2.76968 2.6084 1.32544 5.01747 1.29548C9.36218 1.25353 13.7129 1.29548 18.0576 1.29548L18.0696 1.25353ZM28.7246 31.6845H30.4205C35.2147 31.6845 39.9789 31.6845 44.7611 31.6845C45.8757 31.6845 47.1941 31.3189 47.2181 30.1504C47.314 26.0034 47.1162 21.8505 47.0982 17.6975C47.0982 16.7507 46.6787 16.5829 45.8997 16.5889C41.1894 16.5889 36.4732 16.6608 31.7629 16.6608C23.3731 16.6608 14.9833 16.6468 6.59355 16.6188C3.21366 16.6188 3.12377 16.5649 2.99792 19.8249C2.87208 23.085 2.91403 26.4169 2.94399 29.7009C2.94399 31.1032 3.72903 32.062 4.80173 31.8703C7.48047 31.3908 10.1592 31.8163 12.8379 31.7384C18.1295 31.5766 23.4271 31.6845 28.7246 31.6845ZM47.0443 9.93097C47.1102 8.8343 47.1522 7.71966 47.2421 6.60501C47.4698 3.9922 46.5469 2.95546 43.8742 2.94946C38.0333 2.94946 32.1904 2.96145 26.3455 2.98542C19.2262 2.98542 12.1068 3.0813 4.9875 3.0873C3.87286 3.0873 3.41142 3.59068 3.18969 4.59746C2.78818 6.39527 3.23763 8.15712 2.94998 9.93097H47.0443ZM11.8671 14.6292V14.7071C12.5683 14.6652 13.2814 14.6712 13.9766 14.5693C14.41 14.563 14.8233 14.3856 15.1264 14.0757C15.4295 13.7659 15.5978 13.3488 15.5946 12.9153C15.6078 12.7002 15.5765 12.4847 15.5028 12.2822C15.429 12.0796 15.3144 11.8945 15.166 11.7382C15.0175 11.5819 14.8385 11.4579 14.6401 11.3738C14.4417 11.2897 14.228 11.2473 14.0125 11.2494C12.6507 11.1445 11.2836 11.1265 9.9195 11.1954C9.70438 11.1965 9.49178 11.2418 9.29488 11.3284C9.09799 11.4151 8.921 11.5413 8.7749 11.6992C8.6288 11.8571 8.51671 12.0433 8.44558 12.2463C8.37445 12.4493 8.34579 12.6648 8.3614 12.8794C8.34596 13.0939 8.37344 13.3093 8.44222 13.513C8.511 13.7168 8.61971 13.9048 8.76199 14.066C8.90427 14.2273 9.07727 14.3586 9.27087 14.4522C9.46447 14.5458 9.67479 14.5999 9.88953 14.6113C10.5475 14.6625 11.2083 14.6685 11.8671 14.6292Z" fill="black"/>
</g>
<g style="mix-blend-mode:multiply" opacity="0.1">
<path d="M18.6689 18.6024H28.5928C28.9252 18.5965 29.2577 18.6145 29.5876 18.6563C30.1868 18.7342 30.7861 18.8122 30.7501 19.6032C30.7142 20.3942 30.1029 20.5201 29.4557 20.5201C26.6811 20.5201 23.9065 20.4182 21.1259 20.4901C17.0988 20.598 13.0657 20.4901 9.03258 20.4482C8.74958 20.4753 8.46462 20.4753 8.18162 20.4482C7.5404 20.3223 6.91716 20.0347 6.98308 19.2856C7.049 18.5365 7.72018 18.5784 8.32544 18.5844C11.7653 18.5844 15.2111 18.5844 18.6509 18.5844L18.6689 18.6024Z" fill="black"/>
</g>
<g style="mix-blend-mode:multiply" opacity="0.1">
<path d="M40.5003 27.9869C40.4404 28.5862 40.2905 29.1855 39.6194 29.1076C38.9482 29.0296 38.6545 28.4364 38.6545 27.7652C38.6545 27.094 38.8403 26.5666 39.6014 26.6386C40.3625 26.7105 40.3924 27.4656 40.5003 27.9869Z" fill="black"/>
</g>
<g style="mix-blend-mode:multiply" opacity="0.1">
<path d="M42.3041 26.6206C42.5812 26.7324 42.8151 26.9301 42.9715 27.1846C43.1279 27.4392 43.1986 27.7372 43.173 28.0349C43.1844 28.1537 43.1692 28.2735 43.1285 28.3857C43.0878 28.4978 43.0226 28.5995 42.9376 28.6833C42.8527 28.7671 42.7501 28.8309 42.6374 28.8701C42.5247 28.9093 42.4047 28.9229 42.2861 28.9099C41.561 28.82 41.3992 28.1668 41.3752 27.5315C41.3512 26.8963 41.7887 26.7585 42.3041 26.6206Z" fill="black"/>
</g>
</g>
<path d="M16.8711 0.0549507H37.5399C39.134 0.0549507 40.734 0.132856 42.3341 0.00101658C43.461 -0.0182563 44.5757 0.236767 45.5821 0.744112C46.2428 0.945739 46.8184 1.35997 47.2193 1.92242C47.6203 2.48487 47.8242 3.16403 47.7994 3.85433C47.7515 8.00128 47.6077 12.1422 47.6017 16.2832C47.6017 19.735 47.7575 23.1868 47.7635 26.6326C47.7635 28.1488 47.9792 29.7009 47.1642 31.1511C46.9864 31.5396 46.6987 31.8675 46.3366 32.0944C45.9745 32.3212 45.5539 32.437 45.1267 32.4275C40.5483 32.2897 35.9638 32.5414 31.3914 32.4275C26.1298 32.2597 20.8742 32.5834 15.6126 32.3496C12.5324 32.2178 9.44014 32.4815 6.35389 32.4395C5.15535 32.4395 3.95681 32.3317 2.72831 32.4395C1.4998 32.5474 0.145452 30.8395 0.067547 29.0477C-0.034329 26.4228 0.00761984 23.7861 0.0136125 21.1553C0.0136125 15.4023 0.067547 9.64927 0.0795324 3.89627C0.0795324 1.57111 1.40991 0.126863 3.81898 0.0968998C8.16369 0.0549508 12.5144 0.0968998 16.8591 0.0968998L16.8711 0.0549507ZM27.5261 30.4859H29.2221C34.0162 30.4859 38.7804 30.4859 43.5626 30.4859C44.6772 30.4859 45.9956 30.1203 46.0196 28.9518C46.1155 24.8048 45.9177 20.6519 45.8997 16.4989C45.8997 15.5521 45.4803 15.3843 44.7012 15.3903C39.9909 15.3903 35.2747 15.4622 30.5644 15.4622C22.1746 15.4622 13.7848 15.4482 5.39506 15.4202C2.01518 15.4202 1.92529 15.3663 1.79944 18.6263C1.67359 21.8864 1.71554 25.2183 1.7455 28.5023C1.7455 29.9046 2.53055 30.8634 3.60324 30.6717C6.28198 30.1923 8.96072 30.6177 11.6395 30.5398C16.931 30.378 22.2286 30.4859 27.5261 30.4859ZM45.8458 8.73239C45.9117 7.63572 45.9537 6.52108 46.0436 5.40644C46.2713 2.79362 45.3484 1.75688 42.6757 1.75089C36.8348 1.75089 30.9919 1.76287 25.147 1.78684C18.0277 1.78684 10.9083 1.88273 3.78902 1.88872C2.67437 1.88872 2.21293 2.39211 1.9912 3.39888C1.58969 5.19669 2.03915 6.95855 1.7515 8.73239H45.8458ZM10.6686 13.4307V13.5086C11.3698 13.4666 12.0829 13.4726 12.7781 13.3707C13.2115 13.3644 13.6248 13.187 13.9279 12.8772C14.231 12.5673 14.3993 12.1502 14.3961 11.7168C14.4093 11.5016 14.378 11.2861 14.3043 11.0836C14.2305 10.8811 14.1159 10.6959 13.9675 10.5396C13.8191 10.3833 13.6401 10.2593 13.4416 10.1752C13.2432 10.0911 13.0295 10.0487 12.814 10.0508C11.4522 9.94595 10.0851 9.92793 8.72101 9.99685C8.50589 9.99792 8.29329 10.0432 8.0964 10.1298C7.8995 10.2165 7.72251 10.3427 7.57641 10.5006C7.43032 10.6585 7.31822 10.8447 7.24709 11.0478C7.17596 11.2508 7.14731 11.4662 7.16291 11.6808C7.14747 11.8953 7.17495 12.1107 7.24373 12.3145C7.31252 12.5182 7.42123 12.7062 7.56351 12.8675C7.70579 13.0287 7.87878 13.16 8.07238 13.2536C8.26598 13.3472 8.4763 13.4013 8.69105 13.4127C9.34906 13.4639 10.0098 13.4699 10.6686 13.4307Z" fill="#609FA0"/>
<path d="M17.4704 17.4039H27.3943C27.7267 17.398 28.0592 17.416 28.3891 17.4578C28.9883 17.5357 29.5876 17.6136 29.5517 18.4047C29.5157 19.1957 28.9044 19.3216 28.2572 19.3216C25.4826 19.3216 22.708 19.2197 19.9274 19.2916C15.9003 19.3995 11.8672 19.2916 7.8341 19.2497C7.55109 19.2768 7.26614 19.2768 6.98313 19.2497C6.34191 19.1238 5.71867 18.8362 5.78459 18.0871C5.85051 17.338 6.52169 17.3799 7.12696 17.3859C10.5668 17.3859 14.0126 17.3859 17.4524 17.3859L17.4704 17.4039Z" fill="#609FA0"/>
<path d="M39.3018 26.7884C39.2419 27.3877 39.0921 27.987 38.4209 27.909C37.7497 27.8311 37.4561 27.2379 37.4561 26.5667C37.4561 25.8955 37.6418 25.3681 38.4029 25.44C39.164 25.512 39.1939 26.267 39.3018 26.7884Z" fill="#609FA0"/>
<path d="M41.1056 25.4221C41.3827 25.5339 41.6166 25.7316 41.773 25.9861C41.9294 26.2407 42.0001 26.5387 41.9745 26.8364C41.9859 26.9552 41.9707 27.075 41.93 27.1872C41.8893 27.2993 41.8241 27.401 41.7391 27.4848C41.6542 27.5686 41.5516 27.6324 41.4389 27.6716C41.3262 27.7108 41.2062 27.7244 41.0876 27.7113C40.3625 27.6215 40.2007 26.9683 40.1767 26.333C40.1528 25.6978 40.5902 25.56 41.1056 25.4221Z" fill="#609FA0"/>
</svg>
