<svg width="49" height="34" viewBox="0 0 49 34" fill="none" xmlns="http://www.w3.org/2000/svg">
<g style="mix-blend-mode:multiply" opacity="0.1">
<g style="mix-blend-mode:multiply" opacity="0.1">
<path d="M18.0696 1.25356H38.7384C40.3325 1.25356 41.9325 1.33146 43.5326 1.19962C44.6595 1.18035 45.7742 1.43538 46.7806 1.94272C47.4413 2.14435 48.0168 2.55858 48.4178 3.12103C48.8188 3.68348 49.0227 4.36263 48.9979 5.05293C48.95 9.19989 48.8062 13.3408 48.8002 17.4818C48.8002 20.9336 48.956 24.3854 48.962 27.8312C48.962 29.3474 49.1777 30.8995 48.3627 32.3497C48.1849 32.7382 47.8971 33.0661 47.535 33.293C47.173 33.5198 46.7524 33.6356 46.3252 33.6261C41.7468 33.4883 37.1623 33.74 32.5899 33.6261C27.3283 33.4584 22.0727 33.782 16.8111 33.5482C13.7309 33.4164 10.6386 33.6801 7.55238 33.6381C6.35384 33.6381 5.1553 33.5303 3.92679 33.6381C2.69829 33.746 1.34394 32.0381 1.26603 30.2463C1.16416 27.6215 1.20611 24.9847 1.2121 22.3539C1.2121 16.6009 1.26603 10.8479 1.27802 5.09488C1.27802 2.76971 2.6084 1.32547 5.01747 1.29551C9.36218 1.25356 13.7129 1.29551 18.0576 1.29551L18.0696 1.25356ZM28.7246 31.6845H30.4205C35.2147 31.6845 39.9789 31.6845 44.7611 31.6845C45.8757 31.6845 47.1941 31.319 47.2181 30.1504C47.314 26.0034 47.1162 21.8505 47.0982 17.6975C47.0982 16.7507 46.6787 16.5829 45.8997 16.5889C41.1894 16.5889 36.4732 16.6608 31.7629 16.6608C23.3731 16.6608 14.9833 16.6468 6.59355 16.6189C3.21366 16.6189 3.12377 16.5649 2.99792 19.825C2.87208 23.085 2.91403 26.4169 2.94399 29.7009C2.94399 31.1032 3.72903 32.0621 4.80173 31.8703C7.48047 31.3909 10.1592 31.8164 12.8379 31.7384C18.1295 31.5766 23.4271 31.6845 28.7246 31.6845ZM47.0443 9.931C47.1102 8.83433 47.1522 7.71969 47.2421 6.60504C47.4698 3.99223 46.5469 2.95549 43.8742 2.94949C38.0333 2.94949 32.1904 2.96148 26.3455 2.98545C19.2262 2.98545 12.1068 3.08133 4.9875 3.08733C3.87286 3.08733 3.41142 3.59071 3.18969 4.59749C2.78818 6.3953 3.23763 8.15716 2.94998 9.931H47.0443ZM11.8671 14.6293V14.7072C12.5683 14.6652 13.2814 14.6712 13.9766 14.5693C14.41 14.563 14.8233 14.3856 15.1264 14.0758C15.4295 13.7659 15.5978 13.3488 15.5946 12.9154C15.6078 12.7002 15.5765 12.4847 15.5028 12.2822C15.429 12.0797 15.3144 11.8945 15.166 11.7382C15.0175 11.5819 14.8385 11.4579 14.6401 11.3738C14.4417 11.2897 14.228 11.2473 14.0125 11.2494C12.6507 11.1446 11.2836 11.1265 9.9195 11.1955C9.70438 11.1965 9.49178 11.2418 9.29488 11.3285C9.09799 11.4151 8.921 11.5413 8.7749 11.6992C8.6288 11.8571 8.51671 12.0433 8.44558 12.2464C8.37445 12.4494 8.34579 12.6649 8.3614 12.8794C8.34596 13.0939 8.37344 13.3093 8.44222 13.5131C8.511 13.7168 8.61971 13.9048 8.76199 14.0661C8.90427 14.2273 9.07727 14.3586 9.27087 14.4522C9.46447 14.5458 9.67479 14.5999 9.88953 14.6113C10.5475 14.6625 11.2083 14.6686 11.8671 14.6293Z" fill="black"/>
</g>
<g style="mix-blend-mode:multiply" opacity="0.1">
<path d="M18.669 18.6025H28.5929C28.9254 18.5966 29.2578 18.6146 29.5877 18.6564C30.1869 18.7343 30.7862 18.8122 30.7503 19.6033C30.7143 20.3943 30.1031 20.5202 29.4558 20.5202C26.6812 20.5202 23.9066 20.4183 21.126 20.4902C17.0989 20.5981 13.0658 20.4902 9.0327 20.4482C8.7497 20.4754 8.46475 20.4754 8.18174 20.4482C7.54052 20.3224 6.91728 20.0347 6.9832 19.2857C7.04912 18.5366 7.7203 18.5785 8.32556 18.5845C11.7654 18.5845 15.2112 18.5845 18.651 18.5845L18.669 18.6025Z" fill="black"/>
</g>
<g style="mix-blend-mode:multiply" opacity="0.1">
<path d="M40.5003 27.9869C40.4404 28.5862 40.2905 29.1854 39.6194 29.1075C38.9482 29.0296 38.6545 28.4363 38.6545 27.7652C38.6545 27.094 38.8403 26.5666 39.6014 26.6385C40.3625 26.7104 40.3924 27.4655 40.5003 27.9869Z" fill="black"/>
</g>
<g style="mix-blend-mode:multiply" opacity="0.1">
<path d="M42.3042 26.6207C42.5813 26.7325 42.8152 26.9302 42.9716 27.1847C43.128 27.4393 43.1987 27.7373 43.1731 28.035C43.1845 28.1538 43.1693 28.2736 43.1286 28.3858C43.0879 28.4979 43.0227 28.5996 42.9377 28.6834C42.8528 28.7672 42.7502 28.831 42.6375 28.8702C42.5248 28.9094 42.4048 28.923 42.2862 28.9099C41.5611 28.82 41.3993 28.1668 41.3753 27.5316C41.3514 26.8964 41.7888 26.7586 42.3042 26.6207Z" fill="black"/>
</g>
</g>
<path d="M16.8711 0.0549507H37.5399C39.134 0.0549507 40.734 0.132856 42.3341 0.00101658C43.461 -0.0182563 44.5757 0.236767 45.5821 0.744112C46.2428 0.945739 46.8184 1.35997 47.2193 1.92242C47.6203 2.48487 47.8242 3.16403 47.7994 3.85433C47.7515 8.00128 47.6077 12.1422 47.6017 16.2832C47.6017 19.735 47.7575 23.1868 47.7635 26.6326C47.7635 28.1488 47.9792 29.7009 47.1642 31.1511C46.9864 31.5396 46.6987 31.8675 46.3366 32.0944C45.9745 32.3212 45.5539 32.437 45.1267 32.4275C40.5483 32.2897 35.9638 32.5414 31.3914 32.4275C26.1298 32.2597 20.8742 32.5834 15.6126 32.3496C12.5324 32.2178 9.44014 32.4815 6.35389 32.4395C5.15535 32.4395 3.95681 32.3317 2.72831 32.4395C1.4998 32.5474 0.145452 30.8395 0.067547 29.0477C-0.034329 26.4228 0.00761984 23.7861 0.0136125 21.1553C0.0136125 15.4023 0.067547 9.64927 0.0795324 3.89627C0.0795324 1.57111 1.40991 0.126863 3.81898 0.0968998C8.16369 0.0549508 12.5144 0.0968998 16.8591 0.0968998L16.8711 0.0549507ZM27.5261 30.4859H29.2221C34.0162 30.4859 38.7804 30.4859 43.5626 30.4859C44.6772 30.4859 45.9956 30.1203 46.0196 28.9518C46.1155 24.8048 45.9177 20.6519 45.8997 16.4989C45.8997 15.5521 45.4803 15.3843 44.7012 15.3903C39.9909 15.3903 35.2747 15.4622 30.5644 15.4622C22.1746 15.4622 13.7848 15.4482 5.39506 15.4202C2.01518 15.4202 1.92529 15.3663 1.79944 18.6263C1.67359 21.8864 1.71554 25.2183 1.7455 28.5023C1.7455 29.9046 2.53055 30.8634 3.60324 30.6717C6.28198 30.1923 8.96072 30.6177 11.6395 30.5398C16.931 30.378 22.2286 30.4859 27.5261 30.4859ZM45.8458 8.73239C45.9117 7.63572 45.9537 6.52108 46.0436 5.40644C46.2713 2.79362 45.3484 1.75688 42.6757 1.75089C36.8348 1.75089 30.9919 1.76287 25.147 1.78684C18.0277 1.78684 10.9083 1.88273 3.78902 1.88872C2.67437 1.88872 2.21293 2.39211 1.9912 3.39888C1.58969 5.19669 2.03915 6.95855 1.7515 8.73239H45.8458ZM10.6686 13.4307V13.5086C11.3698 13.4666 12.0829 13.4726 12.7781 13.3707C13.2115 13.3644 13.6248 13.187 13.9279 12.8772C14.231 12.5673 14.3993 12.1502 14.3961 11.7168C14.4093 11.5016 14.378 11.2861 14.3043 11.0836C14.2305 10.8811 14.1159 10.6959 13.9675 10.5396C13.8191 10.3833 13.6401 10.2593 13.4416 10.1752C13.2432 10.0911 13.0295 10.0487 12.814 10.0508C11.4522 9.94595 10.0851 9.92793 8.72101 9.99685C8.50589 9.99792 8.29329 10.0432 8.0964 10.1298C7.8995 10.2165 7.72251 10.3427 7.57641 10.5006C7.43032 10.6585 7.31822 10.8447 7.24709 11.0478C7.17596 11.2508 7.14731 11.4662 7.16291 11.6808C7.14747 11.8953 7.17495 12.1107 7.24373 12.3145C7.31252 12.5182 7.42123 12.7062 7.56351 12.8675C7.70579 13.0287 7.87878 13.16 8.07238 13.2536C8.26598 13.3472 8.4763 13.4013 8.69105 13.4127C9.34906 13.4639 10.0098 13.4699 10.6686 13.4307Z" fill="#F8798A"/>
<path d="M17.4704 17.4039H27.3943C27.7267 17.3979 28.0592 17.416 28.3891 17.4578C28.9883 17.5357 29.5876 17.6136 29.5517 18.4047C29.5157 19.1957 28.9044 19.3216 28.2572 19.3216C25.4826 19.3216 22.708 19.2197 19.9274 19.2916C15.9003 19.3995 11.8672 19.2916 7.8341 19.2496C7.55109 19.2768 7.26614 19.2768 6.98313 19.2496C6.34191 19.1238 5.71867 18.8361 5.78459 18.0871C5.85051 17.338 6.52169 17.3799 7.12696 17.3859C10.5668 17.3859 14.0126 17.3859 17.4524 17.3859L17.4704 17.4039Z" fill="#F8798A"/>
<path d="M39.3018 26.7884C39.2419 27.3877 39.0921 27.9869 38.4209 27.909C37.7497 27.8311 37.4561 27.2379 37.4561 26.5667C37.4561 25.8955 37.6418 25.3681 38.4029 25.44C39.164 25.512 39.1939 26.267 39.3018 26.7884Z" fill="#F8798A"/>
<path d="M41.1057 25.4221C41.3828 25.5339 41.6167 25.7316 41.7732 25.9861C41.9296 26.2407 42.0002 26.5387 41.9747 26.8364C41.9861 26.9552 41.9708 27.075 41.9301 27.1871C41.8894 27.2993 41.8242 27.401 41.7392 27.4848C41.6543 27.5686 41.5518 27.6324 41.4391 27.6716C41.3264 27.7108 41.2063 27.7243 41.0877 27.7113C40.3626 27.6214 40.2008 26.9682 40.1768 26.333C40.1529 25.6978 40.5903 25.56 41.1057 25.4221Z" fill="#F8798A"/>
</svg>
