<svg width="102" height="102" viewBox="0 0 102 102" fill="none" xmlns="http://www.w3.org/2000/svg">
<path d="M51.3201 101.36C79.3098 101.36 102 78.6697 102 50.6799C102 22.6902 79.3098 0 51.3201 0C23.3303 0 0.640137 22.6902 0.640137 50.6799C0.640137 78.6697 23.3303 101.36 51.3201 101.36Z" fill="#609FA0"/>
<path d="M22.5728 21.2167C28.0124 25.5143 33.1617 30.0828 38.2336 34.7675C43.3055 39.4522 48.2224 44.2143 53.1201 49.0539C58.0177 53.8935 62.7992 58.8685 67.4065 63.9404C72.0138 69.0123 76.6404 74.1616 80.9573 79.6012C75.537 75.3037 70.3683 70.7352 65.3158 66.0505C60.2633 61.3658 55.3076 56.6036 50.4293 51.7641C45.551 46.9245 40.7502 41.9688 36.1429 36.8776C31.5356 31.7863 26.8703 26.637 22.5728 21.2167Z" fill="white"/>
<path d="M80.8608 21.6232C76.5632 27.0435 72.014 32.2121 67.31 37.2646C62.6059 42.3171 57.8631 47.2729 53.0236 52.1705C48.184 57.0681 43.2283 61.8496 38.1371 66.4569C33.0459 71.0642 27.9159 75.6714 22.4956 80.0077C26.7738 74.568 31.3423 69.4187 36.0464 64.3469C40.7504 59.275 45.4932 54.358 50.3328 49.4603C55.1723 44.5627 60.1281 39.7812 65.2193 35.1933C70.3105 30.6054 75.4404 25.9207 80.8608 21.6232Z" fill="white"/>
</svg>
