<svg width="224" height="177" viewBox="0 0 224 177" fill="none" xmlns="http://www.w3.org/2000/svg">
<path d="M108.607 176.896C136.402 176.896 158.934 154.329 158.934 126.492C158.934 98.6544 136.402 76.0876 108.607 76.0876C80.8113 76.0876 58.2788 98.6544 58.2788 126.492C58.2788 154.329 80.8113 176.896 108.607 176.896Z" fill="#DB7887"/>
<path d="M133.386 105.217C134.04 105.756 124.62 118.406 112.394 133.5L104.954 142.51L103.955 143.743L102.859 142.626C93.2472 132.749 86.7688 125.433 87.2302 124.971C87.6915 124.509 95.0158 131.036 104.858 140.624H102.763C105.012 137.793 107.473 134.713 110.049 131.517C122.256 116.442 132.752 104.698 133.386 105.217Z" fill="white"/>
<path d="M180.1 106.18C178.601 100.885 171.738 101.405 171.738 101.405L171.911 105.083C175.89 104.39 178.351 109.068 178.351 109.068L180.1 106.18Z" fill="#DB7887"/>
<path d="M34.3264 117.289C32.8269 111.994 25.9448 112.591 25.9448 112.591L26.1371 116.269C30.1164 115.575 32.577 120.235 32.577 120.235L34.3264 117.289Z" fill="#769D9D"/>
<path d="M114.567 44.0508C122.545 46.4574 127.504 37.2545 127.504 37.2545L122.66 34.4821C120.334 40.1232 112.356 39.4301 112.356 39.4301L114.567 44.0508Z" fill="#769D9D"/>
<path d="M70.3516 53.9468C66.6414 54.3511 66.1992 59.0103 66.1992 59.0103L68.6983 59.2991C68.6983 56.5652 72.0817 55.4485 72.0817 55.4485L70.3516 53.9468Z" fill="#DB7887"/>
<path d="M223.277 88.063C223.815 84.3664 219.432 82.7684 219.432 82.7684L218.528 85.1173C221.181 85.7911 221.431 89.3529 221.431 89.3529L223.277 88.063Z" fill="#769D9D"/>
<path d="M92.0168 5.29456C92.5551 1.598 88.1721 0 88.1721 0L87.2686 2.34886C89.9022 3.02271 90.1521 6.70003 90.1521 6.70003L92.0168 5.29456Z" fill="#DB7887"/>
<path d="M0.357879 64.9209C-0.29573 70.6968 7.37455 72.1215 7.37455 72.1215L8.83556 68.3095C4.24108 67.8859 3.58747 62.5336 3.58747 62.5336L0.357879 64.9209Z" fill="#DB7887"/>
<path d="M170.988 43.916C174.717 44.1278 175.909 39.6033 175.909 39.6033L173.506 38.9102C173.064 41.6056 169.527 42.164 169.527 42.164L170.988 43.916Z" fill="#DB7887"/>
<path d="M191.346 59.1258C189.316 59.5365 187.224 59.5365 185.194 59.1258C187.224 58.7151 189.316 58.7151 191.346 59.1258Z" fill="#769D9D"/>
<path d="M194.614 50.7508C194.895 51.765 194.992 52.8212 194.903 53.8698C194.993 54.9247 194.895 55.9873 194.614 57.008C194.31 55.9918 194.205 54.9259 194.307 53.8698C194.206 52.82 194.311 51.7606 194.614 50.7508Z" fill="#769D9D"/>
<path d="M198.093 58.9333C200.117 58.5209 202.202 58.5209 204.226 58.9333C202.2 59.3181 200.119 59.3181 198.093 58.9333Z" fill="#769D9D"/>
<path d="M194.826 67.3083C194.521 66.2921 194.417 65.2262 194.518 64.1701C194.418 63.1203 194.522 62.0609 194.826 61.0511C195.106 62.0653 195.204 63.1215 195.114 64.1701C195.204 65.225 195.107 66.2876 194.826 67.3083Z" fill="#769D9D"/>
<path d="M199.786 63.708C199.67 63.8236 199.074 63.323 198.459 62.5914C197.844 61.8597 197.479 61.1859 197.613 61.0896C197.748 60.9934 198.325 61.4747 198.92 62.2063C199.516 62.9379 199.92 63.6118 199.786 63.708Z" fill="#769D9D"/>
<path d="M199.497 54.2163C199.612 54.3318 199.208 54.9287 198.574 55.564C197.94 56.1994 197.344 56.6229 197.228 56.5074C197.113 56.3919 197.536 55.7758 198.151 55.1405C198.766 54.5051 199.382 54.1008 199.497 54.2163Z" fill="#769D9D"/>
<path d="M192.461 56.6229C192.346 56.7577 191.788 56.4497 191.173 55.9683C190.558 55.487 190.193 54.9479 190.289 54.8324C190.385 54.7169 190.962 55.0057 191.557 55.5063C192.153 56.0068 192.557 56.5074 192.461 56.6229Z" fill="#769D9D"/>
<path d="M192.173 60.8201C192.308 60.9356 191.942 61.5324 191.366 62.1485C190.789 62.7646 190.231 63.1882 190.116 63.0727C190.001 62.9572 190.366 62.3796 190.923 61.7442C191.481 61.1089 192.058 60.7046 192.173 60.8201Z" fill="#769D9D"/>
<path d="M23.8689 41.9714C22.8697 42.2543 21.8274 42.3521 20.7931 42.2602C19.7588 42.35 18.7169 42.2522 17.7173 41.9714C18.7124 41.6674 19.7576 41.5628 20.7931 41.6634C21.8286 41.5607 22.8742 41.6654 23.8689 41.9714Z" fill="#DB7887"/>
<path d="M27.1365 33.6542C27.4421 34.6636 27.5466 35.7234 27.444 36.7732C27.5446 37.823 27.4401 38.8823 27.1365 39.8921C26.8561 38.8779 26.7584 37.8217 26.8481 36.7732C26.7568 35.7246 26.8544 34.6681 27.1365 33.6542Z" fill="#DB7887"/>
<path d="M30.6162 41.7597C31.6158 41.4789 32.6578 41.3811 33.692 41.4709C34.7263 41.3811 35.7682 41.4789 36.7678 41.7597C35.7727 42.0637 34.7275 42.1684 33.692 42.0677C32.6565 42.1684 31.6113 42.0637 30.6162 41.7597Z" fill="#DB7887"/>
<path d="M27.3479 50.1347C27.0659 49.1207 26.9682 48.0643 27.0595 47.0157C26.9682 45.9671 27.0659 44.9107 27.3479 43.8967C27.6535 44.9062 27.758 45.9659 27.6555 47.0157C27.758 48.0655 27.6535 49.1253 27.3479 50.1347Z" fill="#DB7887"/>
<path d="M32.3268 46.5536C32.1923 46.5536 31.5963 46.1493 31.0004 45.4369C30.4045 44.7246 30.0008 44.0315 30.1353 43.9352C30.2699 43.8389 30.8466 44.3203 31.4618 45.0519C32.0769 45.7835 32.4422 46.4381 32.3268 46.5536Z" fill="#DB7887"/>
<path d="M32.039 37.0427C32.1544 37.1582 31.7314 37.7743 31.1163 38.4096C30.5011 39.045 29.886 39.4493 29.7706 39.3338C29.6553 39.2183 30.059 38.6214 30.6934 37.9861C31.3277 37.3507 31.9045 36.9272 32.039 37.0427Z" fill="#DB7887"/>
<path d="M24.9833 39.43C24.9833 39.5648 24.3105 39.2568 23.7145 38.7562C23.1186 38.2556 22.7149 37.755 22.8302 37.6203C22.9456 37.4855 23.5031 37.7935 24.099 38.2941C24.6949 38.7947 25.0986 39.43 24.9833 39.43Z" fill="#DB7887"/>
<path d="M24.7143 43.6465C24.8296 43.762 24.4644 44.3588 23.9069 44.9942C23.3494 45.6295 22.7727 46.0338 22.6574 45.9183C22.542 45.8028 22.888 45.2059 23.4648 44.5898C24.0415 43.9738 24.5797 43.5502 24.7143 43.6465Z" fill="#DB7887"/>
</svg>
