<svg width="33" height="31" viewBox="0 0 33 31" fill="none" xmlns="http://www.w3.org/2000/svg">
<path d="M16.5 0C7.38375 0 0 7.11642 0 15.8933C0 22.9167 4.72725 28.8727 11.2819 30.9726C12.1069 31.1222 12.4094 30.6302 12.4094 30.2084C12.4094 29.831 12.3956 28.8309 12.3888 27.506C7.799 28.4643 6.831 25.3738 6.831 25.3738C6.08025 23.5394 4.99537 23.0488 4.99537 23.0488C3.50075 22.0636 5.11088 22.0838 5.11088 22.0838C6.76775 22.1943 7.63812 23.7214 7.63812 23.7214C9.10938 26.1515 11.5005 25.4493 12.4438 25.0436C12.5922 24.0152 13.0171 23.3157 13.4888 22.9181C9.82438 22.5205 5.973 21.1538 5.973 15.0644C5.973 13.3298 6.61238 11.9119 7.67112 10.8C7.4855 10.3983 6.92863 8.7823 7.8155 6.59347C7.8155 6.59347 9.19738 6.16756 12.353 8.22296C13.673 7.86984 15.0755 7.69462 16.478 7.68654C17.8805 7.69462 19.283 7.86984 20.603 8.22296C23.738 6.16756 25.1199 6.59347 25.1199 6.59347C26.0067 8.7823 25.4499 10.3983 25.2849 10.8C26.3368 11.9119 26.9761 13.3298 26.9761 15.0644C26.9761 21.17 23.1192 22.5138 19.448 22.9046C20.0255 23.3817 20.5618 24.3562 20.5618 25.8455C20.5618 27.9724 20.5411 29.6814 20.5411 30.1976C20.5411 30.6141 20.8299 31.1114 21.6755 30.9524C28.2769 28.866 33 22.906 33 15.8933C33 7.11642 25.6121 0 16.5 0Z" fill="#FFA65B"/>
</svg>
