<svg xmlns="http://www.w3.org/2000/svg" viewBox="0 0 234.12 391.95"><defs><style>.cls-1{fill:#fdd7bd;}.cls-1,.cls-11,.cls-12,.cls-13,.cls-14,.cls-15,.cls-2,.cls-5,.cls-7,.cls-8,.cls-9{fill-rule:evenodd;}.cls-10,.cls-2,.cls-6{fill:none;stroke-linecap:round;stroke-linejoin:round;}.cls-2,.cls-6{stroke:#dbaf91;stroke-width:1.42px;}.cls-3{fill:#cc6d73;}.cls-12,.cls-4{fill:#fff;}.cls-5{fill:#d4cfe6;}.cls-7{fill:#f0dce4;}.cls-8{fill:#dbaf91;}.cls-9{fill:#496197;}.cls-10{stroke:#171533;stroke-width:2.13px;}.cls-11,.cls-16{fill:#b85972;}.cls-13{fill:#6c9494;}.cls-14{fill:#171533;}.cls-15{fill:#86aec9;opacity:0.42;}</style></defs><title>olhominionPrancheta 2</title><g id="OBJECTS"><path class="cls-1" d="M183.77,143.72s25.38,1.72,28.44,2.12,5.71,6.52,4.12,10.77-6.52,12.89-29.77,12.22Z"/><path class="cls-1" d="M201,230.1l-10.5,35.35a6.48,6.48,0,0,1-7.71,2.93c-5.31-1.6-9.83-11.17-8.77-20.2s14-29.77,14-29.77Z"/><path class="cls-1" d="M181.71,214.16s9.83,24.32,18.34,28.57,14.62.93,15.55-2.39.13-7.18-1.87-12.63-11-24.72-11-24.72a14.19,14.19,0,0,0-6.18-5.85c-4.25-2-10.7-5.25-10.7-5.25Z"/><path class="cls-1" d="M75.67,51.62a4.53,4.53,0,0,0-4.8-2.53c-3.46.54-9.84,16-17.54,34.29a64.62,64.62,0,0,0-3.86,15c-1.19,8.77-9.3,40.93-9.3,47.85s-.53,46-1.6,51.56-7.7,81.6-9.3,111.37c-.5,9.44-5.56,42.3-12.22,82.77h98.43c-.24-34.59-.33-59.67-.09-61.24.8-5.32,15.68-21.53,21-63,0,0,11.16-17.81,11.69-25.26s-72.41-65.92-72.41-65.92l-4.4-32.29,4.4-43.72Z"/><path class="cls-2" d="M75.67,176.54a20.16,20.16,0,0,0-7.6,8.61"/><rect class="cls-3" x="75.67" y="17.56" width="112.4" height="232.52" rx="12.67" ry="12.67"/><rect class="cls-4" x="83.94" y="49.07" width="95.87" height="169.5" rx="2.34" ry="2.34"/><path class="cls-5" d="M131.87,224.39a10.2,10.2,0,1,1-10.19,10.2A10.2,10.2,0,0,1,131.87,224.39Z"/><path class="cls-5" d="M125.57,38.87a1.13,1.13,0,1,1,0-2.25h18.6a1.13,1.13,0,1,1,0,2.25Zm-6,0a1.13,1.13,0,1,1,0-2.25H121a1.13,1.13,0,1,1,0,2.25Z"/><path class="cls-1" d="M53.9,247.11l39.61-44.39s7.44-8.1,15.68-2.26,17.94,15.68,17.94,15.68,7.58,3.46,10,4.66,8.51,4.38,10.37,9.7.39,10.23-1.93,11.49c0,0-2.73,6.8-13.62,7.45s-22.6-2.66-22.6-2.66a6.19,6.19,0,0,1-3.58.93s-9.11,16.34-10.57,18.87c0,0,1.2,10.63-8.11,13S27.79,275.62,53.9,247.11Z"/><line class="cls-6" x1="71.27" y1="144.25" x2="66.47" y2="143.55"/><line class="cls-6" x1="75.67" y1="100.53" x2="69.66" y2="98.63"/><path class="cls-2" d="M98.36,257.53A107.92,107.92,0,0,1,113,312.07"/><line class="cls-6" x1="115.39" y1="330.71" x2="115.25" y2="323.63"/><path class="cls-2" d="M107.27,329.48s-6,20.07-8.37,25.91"/><path class="cls-2" d="M103.89,247.71a29.94,29.94,0,0,0-3.66-13.79"/><path class="cls-2" d="M107.48,246.78s1.12-8.2,1.12-10.46"/><path class="cls-7" d="M61.87,63.47a7.43,7.43,0,0,0,5.73-4.13c1.15-2.18,3.1-6.7,4.62-10.27a5.13,5.13,0,0,0-1.35,0C68.8,49.41,65.69,55.06,61.87,63.47Z"/><path class="cls-7" d="M216,237.93c.12-2.78-.7-6-2.24-10.22-.68-1.86-2.18-5.33-3.86-9.1a1.41,1.41,0,0,0-.84,1.58c.14,1.26,4.59,16.14,4.59,16.68S215.86,237,216,237.93Z"/><path class="cls-7" d="M195,250.49l-4.45,15c-.42-2.84-4.56-4-5-4.46s-.8-1.2.8-5.12,3.78-10.76,6.38-9.9S195,250.45,195,250.49Z"/><path class="cls-7" d="M125.29,216.14s7.57,3.46,10,4.66,8.5,4.38,10.36,9.7.4,10.23-1.93,11.49c-2.71-1.65-9.37-7.91-10.84-14S125.29,216.14,125.29,216.14Z"/><path class="cls-2" d="M52.06,247.11,76.23,220m31.25,26.76a6.23,6.23,0,0,1-3.59.93s-9.1,16.34-10.56,18.87c0,0,1.19,10.63-8.11,13"/><path class="cls-8" d="M101.55,251.91l34.84,15.81a152.07,152.07,0,0,0,9.42-17.64H102.57C102.27,250.63,101.92,251.24,101.55,251.91Z"/><path class="cls-8" d="M90,277l12.27-12.14c-1.5-3.1-2.87-5.54-3.9-7.26-2.22,4-4.41,7.88-5.06,9C93.33,266.58,94.05,273,90,277Z"/><path class="cls-8" d="M196.63,168.47l-5.69-24.26-2.87-.2v24.86A69.29,69.29,0,0,0,196.63,168.47Z"/><path class="cls-8" d="M188.07,233.52l7.82,13.92,1.87-6.29c-3.4-2.93-6.86-8.36-9.69-13.58Z"/><path class="cls-8" d="M188.35,218.65l4.88-23.08c-1.87-.91-3.75-1.85-5.16-2.55v26.91Z"/><path class="cls-9" d="M125.85,122.24V101.49a1.85,1.85,0,0,1,2-1.7,2.11,2.11,0,0,1,1.4.5l12,10.37a1.55,1.55,0,0,1,0,2.41l-12,10.37a2.17,2.17,0,0,1-2.78,0A1.57,1.57,0,0,1,125.85,122.24Z"/><rect class="cls-10" x="108.11" y="90.65" width="47.52" height="42.42" rx="4.89" ry="4.89"/><path class="cls-11" d="M171.82,69.1H143.58a3.73,3.73,0,0,0-3.72,3.73v26.3a.41.41,0,0,0,.25.39.42.42,0,0,0,.46-.1l6.35-6.35h24.9a3.74,3.74,0,0,0,3.73-3.73V72.83A3.74,3.74,0,0,0,171.82,69.1Z"/><path class="cls-12" d="M146.11,80h14.24a1.18,1.18,0,0,1,1.18,1.18h0a1.19,1.19,0,0,1-1.18,1.19H146.11a1.19,1.19,0,0,1-1.18-1.19h0A1.18,1.18,0,0,1,146.11,80Z"/><path class="cls-12" d="M165.61,80h3.68a1.19,1.19,0,0,1,1.19,1.18h0a1.2,1.2,0,0,1-1.19,1.19h-3.68a1.19,1.19,0,0,1-1.18-1.19h0A1.18,1.18,0,0,1,165.61,80Z"/><path class="cls-12" d="M155.05,85.49h14.24a1.19,1.19,0,0,1,1.19,1.18h0a1.19,1.19,0,0,1-1.19,1.18H155.05a1.18,1.18,0,0,1-1.18-1.18h0A1.18,1.18,0,0,1,155.05,85.49Z"/><path class="cls-12" d="M146.11,74.51h14.24a1.18,1.18,0,0,1,1.18,1.18h0a1.18,1.18,0,0,1-1.18,1.19H146.11a1.18,1.18,0,0,1-1.18-1.19h0A1.18,1.18,0,0,1,146.11,74.51Z"/><path class="cls-13" d="M91.42,154.72h25.36a3.74,3.74,0,0,0,3.73-3.73v-26.3a.42.42,0,0,0-.25-.39.43.43,0,0,0-.46.09l-6.35,6.36h-22a3.73,3.73,0,0,0-3.73,3.72V151A3.74,3.74,0,0,0,91.42,154.72Z"/><path class="cls-12" d="M115.69,143.82H101.45a1.18,1.18,0,0,1-1.18-1.19h0a1.18,1.18,0,0,1,1.18-1.18h14.24a1.18,1.18,0,0,1,1.18,1.18h0A1.18,1.18,0,0,1,115.69,143.82Z"/><path class="cls-12" d="M96.19,143.82H92.51a1.18,1.18,0,0,1-1.18-1.19h0a1.18,1.18,0,0,1,1.18-1.18h3.68a1.18,1.18,0,0,1,1.18,1.18h0A1.18,1.18,0,0,1,96.19,143.82Z"/><path class="cls-12" d="M106.75,138.33H92.51a1.18,1.18,0,0,1-1.18-1.19h0A1.19,1.19,0,0,1,92.51,136h14.24a1.19,1.19,0,0,1,1.18,1.18h0A1.18,1.18,0,0,1,106.75,138.33Z"/><path class="cls-12" d="M115.69,149.3H101.45a1.18,1.18,0,0,1-1.18-1.18h0a1.18,1.18,0,0,1,1.18-1.18h14.24a1.18,1.18,0,0,1,1.18,1.18h0A1.18,1.18,0,0,1,115.69,149.3Z"/><path class="cls-14" d="M133.73,80H119.49a1.18,1.18,0,0,0-1.18,1.18h0a1.19,1.19,0,0,0,1.18,1.19h14.24a1.19,1.19,0,0,0,1.18-1.19h0A1.18,1.18,0,0,0,133.73,80Z"/><path class="cls-14" d="M114.23,80h-3.68a1.19,1.19,0,0,0-1.19,1.18h0a1.2,1.2,0,0,0,1.19,1.19h3.68a1.19,1.19,0,0,0,1.18-1.19h0A1.18,1.18,0,0,0,114.23,80Z"/><path class="cls-14" d="M133.73,74.51H119.49a1.18,1.18,0,0,0-1.18,1.18h0a1.18,1.18,0,0,0,1.18,1.19h14.24a1.18,1.18,0,0,0,1.18-1.19h0A1.18,1.18,0,0,0,133.73,74.51Z"/><path class="cls-14" d="M126.67,142.53h14.24a1.18,1.18,0,0,0,1.18-1.18h0a1.18,1.18,0,0,0-1.18-1.18H126.67a1.19,1.19,0,0,0-1.19,1.18h0A1.19,1.19,0,0,0,126.67,142.53Z"/><path class="cls-14" d="M146.17,142.53h3.68a1.18,1.18,0,0,0,1.18-1.18h0a1.18,1.18,0,0,0-1.18-1.18h-3.68a1.18,1.18,0,0,0-1.18,1.18h0A1.18,1.18,0,0,0,146.17,142.53Z"/><path class="cls-14" d="M126.67,148h14.24a1.18,1.18,0,0,0,1.18-1.18h0a1.18,1.18,0,0,0-1.18-1.18H126.67a1.19,1.19,0,0,0-1.19,1.18h0A1.19,1.19,0,0,0,126.67,148Z"/><path class="cls-5" d="M173.38,55.46a1.13,1.13,0,1,1,0-2.26h1.38a1.13,1.13,0,0,1,0,2.26Z"/><path class="cls-5" d="M166.44,55.46a1.13,1.13,0,1,1,0-2.26h1.38a1.13,1.13,0,0,1,0,2.26Z"/><path class="cls-5" d="M88.53,55.46a1.13,1.13,0,1,1,0-2.26h1.38a1.13,1.13,0,1,1,0,2.26Z"/><path class="cls-5" d="M173.38,212.15a1.13,1.13,0,0,1,0-2.26h1.38a1.13,1.13,0,0,1,0,2.26Z"/><path class="cls-5" d="M166.44,212.15a1.13,1.13,0,0,1,0-2.26h1.38a1.13,1.13,0,0,1,0,2.26Z"/><path class="cls-15" d="M92.08,165.71h79.58a1.36,1.36,0,0,1,1.36,1.35h0a1.36,1.36,0,0,1-1.36,1.36H92.08a1.36,1.36,0,0,1-1.35-1.36h0A1.36,1.36,0,0,1,92.08,165.71Z"/><path class="cls-15" d="M92.08,174.48h79.58a1.36,1.36,0,0,1,1.36,1.35h0a1.36,1.36,0,0,1-1.36,1.36H92.08a1.36,1.36,0,0,1-1.35-1.36h0A1.36,1.36,0,0,1,92.08,174.48Z"/><path class="cls-15" d="M98.21,183.25h67.32a1.36,1.36,0,0,1,1.36,1.36h0a1.36,1.36,0,0,1-1.36,1.35H98.21a1.36,1.36,0,0,1-1.35-1.35h0A1.36,1.36,0,0,1,98.21,183.25Z"/><rect class="cls-16" x="113.77" y="195.37" width="36.21" height="9.73" rx="1.94" ry="1.94"/></g></svg>