<svg width="314" height="679" viewBox="0 0 314 679" fill="none" xmlns="http://www.w3.org/2000/svg">
<path d="M103.789 325.143C103.789 325.143 52.3356 431.457 55.3262 493.309C58.3168 555.161 102.817 659.966 102.817 659.966H159.34L166.368 524.728L174.951 659.966H234.389C234.389 659.966 269.679 522.771 265.791 473.677C261.903 424.584 220.752 327.1 220.752 327.1L103.789 325.143Z" fill="#DB7887"/>
<path d="M263.862 459.619C256.565 472.587 244.992 483.643 233.463 492.069C213.515 506.665 189.8 517.363 166.458 526.177L174.951 659.966H234.39C234.39 659.966 269.679 522.771 265.791 473.677C265.403 469.27 264.76 464.549 263.862 459.619Z" fill="#D26A7E"/>
<path d="M231.579 344.893C225.313 333.957 220.723 327.1 220.723 327.1L103.789 325.143C98.2305 332.912 93.0652 340.955 88.313 349.241C155.886 372.488 207.698 356.054 231.579 344.893Z" fill="#D26A7E"/>
<path d="M101.113 161.354C101.113 161.354 163.602 151.867 205.62 163.908C205.62 163.908 220.573 100.756 183.699 83.9487C146.824 67.141 110.982 91.6279 110.982 91.6279L101.113 161.354Z" fill="#E0C7A2"/>
<path d="M136.552 143.425C136.552 143.425 143.864 197.449 129.255 200.377C114.645 203.306 89.0606 188.694 74.4365 213.51C59.8124 238.325 121.21 256.597 161.404 252.952C202.226 249.247 251.945 242.494 238.876 209.132C224.252 171.901 172.663 227.404 175.295 174.77C176.79 145.562 177.478 127.305 177.478 127.305L136.552 143.425Z" fill="#F19C7C"/>
<path d="M137.449 185.646C144.532 186.057 151.637 185.356 158.503 183.57C164.88 182.071 170.699 178.791 175.28 174.113C176.776 145.338 177.434 127.38 177.434 127.38L136.552 143.425C136.552 143.425 139.976 168.734 137.449 185.646Z" fill="#E08565"/>
<path d="M148.978 55.0993C148.978 55.0993 99.812 59.2228 108.784 116.429C118.279 177.041 177.045 193.206 195.751 133.221C213.291 77.0015 176.746 52.9031 148.978 55.0993Z" fill="#F19C7C"/>
<path d="M108.051 39.7707C108.051 39.7707 149.351 21.1403 153.733 56.5634C157.217 84.7405 132.17 85.7714 118.279 95.617C104.387 105.463 121.568 128.485 121.568 128.485C121.568 128.485 110.982 126.663 108.784 116.429C108.784 116.429 101.472 153.301 133.994 168.271C133.994 168.271 120.118 171.259 109.516 158.052C109.516 158.052 115.363 169.735 131.438 170.826C131.438 170.826 116.096 179.222 101.845 165.358L108.051 174.113C101.493 173.476 95.2954 170.815 90.3194 166.499C85.3435 162.183 81.8357 156.427 80.283 150.029C80.283 150.029 80.6419 160.248 71.1466 162.429C71.1466 162.429 77.3671 153.674 70.4139 147.833C63.4608 141.991 51.7824 118.266 73.4046 103.296C95.0267 88.3262 81.0157 56.1899 108.051 39.7707Z" fill="#FDDEC0"/>
<path d="M197.201 39.8155C197.201 39.8155 155.333 22.6194 152.118 58.162C149.531 86.4437 174.667 86.6529 188.872 95.9905C203.078 105.328 186.719 128.948 186.719 128.948C186.719 128.948 197.186 126.767 199.085 116.473C199.085 116.473 207.639 153.077 175.654 169.137C175.654 169.137 189.635 171.588 199.773 158.097C199.773 158.097 194.33 169.959 178.301 171.543C178.301 171.543 193.927 179.416 207.683 165.074L201.777 174.038C208.309 173.177 214.411 170.304 219.234 165.82C224.058 161.335 227.364 155.461 228.693 149.013C228.693 149.013 228.693 159.232 238.248 161.1C238.248 161.1 231.743 152.554 238.487 146.488C245.231 140.422 256.102 116.294 234.001 102.071C211.9 87.8481 224.79 55.2786 197.201 39.8155Z" fill="#FDDEC0"/>
<path d="M99.6475 46.7029C99.6475 46.7029 106.481 38.441 121.599 33.2568C128.313 30.9709 138.137 33.2568 148.245 33.1821C154.406 33.1821 159.624 30.8215 167.235 31.0606C177.119 31.3594 184.88 35.1243 195.018 39.0237L155.916 60.5823L99.6475 46.7029Z" fill="#FDDEC0"/>
<path d="M148.619 104.387L143.101 101.399C139.33 99.3316 135.31 97.755 131.139 96.7076C130.075 96.487 128.994 96.3521 127.909 96.3042C126.906 96.28 125.904 96.3601 124.918 96.5433C123.961 96.7035 123.027 96.9794 122.137 97.365C121.301 97.7167 120.496 98.1364 119.729 98.62C119.369 98.8396 119.024 99.0842 118.698 99.352C118.372 99.5581 118.062 99.7878 117.771 100.039C117.232 100.532 116.679 100.921 116.275 101.309C115.483 102.056 114.989 102.489 114.989 102.489C114.989 102.489 115.154 101.877 115.557 100.816C115.809 100.177 116.109 99.5576 116.455 98.9636C116.881 98.1754 117.381 97.4299 117.95 96.7375C118.673 95.8985 119.491 95.1464 120.387 94.4965C121.436 93.7648 122.584 93.1862 123.797 92.7783C125.096 92.3442 126.45 92.0977 127.819 92.0463C129.204 92.0121 130.589 92.1374 131.946 92.4198C133.269 92.6869 134.562 93.0874 135.804 93.615C136.987 94.0911 138.127 94.6658 139.213 95.3331C141.118 96.4635 142.88 97.8178 144.462 99.367C145.593 100.425 146.625 101.585 147.542 102.833C147.933 103.328 148.293 103.847 148.619 104.387Z" fill="#352C38"/>
<path d="M158.503 105.119C159.115 103.005 160.032 100.992 161.224 99.1429C162.414 97.2055 163.84 95.4238 165.471 93.8391C167.405 91.9276 169.69 90.4059 172.2 89.3571C173.54 88.815 174.949 88.463 176.387 88.3113C177.795 88.1618 179.217 88.2324 180.604 88.5204C181.871 88.8069 183.093 89.2642 184.237 89.88C184.756 90.1555 185.255 90.4649 185.733 90.8063L186.989 91.8073C187.684 92.4117 188.325 93.0766 188.903 93.7943C189.348 94.3297 189.757 94.8937 190.129 95.4825C190.727 96.4686 191.011 97.0512 191.011 97.0512C191.011 97.0512 190.428 96.7226 189.516 96.0951C189.067 95.7664 188.454 95.4676 187.811 95.0642C187.168 94.6608 186.316 94.3321 185.613 93.8989C184.751 93.5181 183.867 93.1888 182.966 92.9128C181.99 92.6318 180.988 92.4467 179.976 92.36C177.858 92.2378 175.741 92.6006 173.785 93.4208C172.753 93.8446 171.753 94.3439 170.794 94.9148C169.821 95.4936 168.877 96.1219 167.968 96.7973C167.071 97.4397 166.219 98.1419 165.411 98.7992C164.604 99.4566 163.826 100.114 163.138 100.756C161.763 101.996 160.596 103.087 159.774 103.864L158.503 105.119Z" fill="#352C38"/>
<path d="M125.232 116.429L126.114 117.295C126.667 117.833 127.46 118.595 128.432 119.432C128.925 119.85 129.464 120.283 130.017 120.716C130.57 121.15 131.228 121.523 131.856 121.912C132.17 122.106 132.514 122.24 132.843 122.42L133.875 122.793C134.55 122.99 135.25 123.085 135.953 123.077H136.462C136.462 123.077 136.716 123.077 136.641 123.077H136.955C137.359 123.005 137.758 122.91 138.151 122.793C138.822 122.596 139.465 122.315 140.065 121.956C140.363 121.783 140.648 121.588 140.918 121.374C141.2 121.178 141.461 120.953 141.695 120.701C142.157 120.237 142.582 119.737 142.966 119.207C143.549 118.371 144.049 117.48 144.462 116.548C144.776 115.846 144.925 115.413 144.925 115.413C145 115.782 145.04 116.157 145.045 116.533C145.046 117.034 145.006 117.533 144.925 118.027C144.732 119.438 144.22 120.787 143.43 121.971C142.923 122.751 142.285 123.438 141.546 124.003C140.767 124.642 139.888 125.147 138.944 125.497C138.51 125.658 138.065 125.788 137.613 125.886H137.299C137 125.886 136.985 125.886 136.821 125.886H136.013C135.482 125.897 134.951 125.857 134.428 125.766C133.921 125.664 133.422 125.529 132.933 125.363C132.034 124.975 131.19 124.473 130.421 123.869C129.141 122.893 128.039 121.705 127.161 120.358C126.309 119.161 125.658 117.834 125.232 116.429Z" fill="#352C38"/>
<path d="M182.966 116.429C182.059 119.448 180.236 122.111 177.747 124.048C176.983 124.652 176.144 125.155 175.25 125.542C174.761 125.708 174.261 125.843 173.755 125.945C173.232 126.038 172.701 126.078 172.17 126.065H171.377C171.218 126.073 171.058 126.073 170.899 126.065H170.57C170.122 125.967 169.683 125.837 169.254 125.677C168.304 125.33 167.419 124.824 166.637 124.183C165.919 123.632 165.297 122.965 164.798 122.21C164.356 121.566 164 120.869 163.736 120.134C163.512 119.53 163.352 118.904 163.258 118.266C163.169 117.773 163.129 117.273 163.138 116.772C163.131 116.352 163.161 115.932 163.228 115.517C163.228 115.517 163.377 115.951 163.706 116.653C164.119 117.585 164.619 118.475 165.202 119.312C165.576 119.845 165.996 120.345 166.458 120.806C166.696 121.054 166.956 121.279 167.235 121.478C168.054 122.147 168.993 122.654 170.002 122.972C170.395 123.087 170.794 123.182 171.198 123.256H171.527C171.437 123.256 171.646 123.256 171.691 123.256H172.215C172.918 123.264 173.618 123.168 174.293 122.972L175.31 122.599C175.639 122.42 175.983 122.285 176.312 122.091C176.94 121.702 177.568 121.314 178.136 120.896C178.704 120.477 179.243 120.029 179.736 119.611C180.693 118.774 181.485 118.012 182.054 117.474L182.966 116.429Z" fill="#352C38"/>
<path d="M157.755 111.693L158.922 116.862C159.146 117.713 159.325 118.55 159.565 119.372C159.654 119.79 159.804 120.194 159.909 120.612C160.013 121.021 160.137 121.425 160.282 121.822C160.537 122.629 160.836 123.316 161.135 124.153L161.643 125.258C161.809 125.619 161.999 125.969 162.211 126.304C162.38 126.652 162.591 126.978 162.839 127.275C163.045 127.586 163.28 127.876 163.542 128.142C163.791 128.411 164.056 128.665 164.335 128.904L165.217 129.516L167.415 131.01L165.187 131.832C164.439 132.116 163.692 132.34 162.914 132.579C162.137 132.818 161.419 133.042 160.626 133.251C159.079 133.698 157.506 134.052 155.916 134.312C157.226 133.374 158.589 132.511 159.998 131.727C160.686 131.324 161.389 130.935 162.092 130.577C162.794 130.218 163.497 129.83 164.215 129.501V131.832L162.824 131.1C162.393 130.811 161.983 130.491 161.598 130.144C161.228 129.799 160.888 129.425 160.581 129.023C160.27 128.638 159.99 128.228 159.744 127.798C159.48 127.389 159.25 126.96 159.056 126.513C158.877 126.08 158.652 125.647 158.503 125.198C158.19 124.316 157.94 123.412 157.755 122.494C157.544 121.605 157.399 120.701 157.322 119.79C157.247 118.879 157.172 117.967 157.187 117.071C157.159 115.262 157.35 113.456 157.755 111.693Z" fill="#C4734E"/>
<path d="M139.063 139.436C139.063 139.436 139.377 139.75 139.946 140.243C140.514 140.736 141.321 141.438 142.323 142.17C142.817 142.544 143.385 142.903 143.953 143.291C144.521 143.679 145.179 144.023 145.837 144.382C146.518 144.736 147.217 145.055 147.931 145.338C148.654 145.632 149.393 145.886 150.144 146.1C150.891 146.354 151.639 146.428 152.432 146.638L154.704 146.936C155.467 146.936 156.2 146.936 156.903 147.026C157.605 147.116 158.263 147.026 158.906 147.026C159.549 147.026 160.117 147.026 160.626 146.936C161.134 146.847 161.598 146.936 161.972 146.832C162.734 146.832 163.183 146.832 163.183 146.832C163.183 146.832 162.824 147.056 162.136 147.429C161.807 147.609 161.388 147.833 160.895 148.072C160.359 148.352 159.792 148.568 159.205 148.714C158.522 148.958 157.823 149.153 157.112 149.297C156.349 149.402 155.527 149.536 154.675 149.611C153.822 149.685 152.94 149.611 152.028 149.611C151.121 149.482 150.223 149.302 149.336 149.073C148.46 148.762 147.614 148.372 146.809 147.907C146.01 147.534 145.248 147.084 144.536 146.563C143.866 146.115 143.231 145.615 142.637 145.069C142.097 144.561 141.597 144.011 141.142 143.425C140.476 142.577 139.918 141.648 139.482 140.662C139.309 140.266 139.169 139.856 139.063 139.436Z" fill="#C4734E"/>
<path d="M120.358 199.556C120.358 199.556 122.302 223.893 156.41 223.893C190.518 223.893 186.615 197.598 186.615 197.598C186.615 197.598 229.485 177.16 243.137 206.368C256.79 235.576 230.472 333.897 230.472 333.897C230.472 333.897 160.312 357.264 93.0682 331.955C93.0682 331.955 59.9471 235.576 68.7096 217.08C77.4721 198.585 86.2496 190.786 120.358 199.556Z" fill="#6F96BD"/>
<path d="M143.55 272.195C114.541 267.429 90.7653 252.608 67.8721 236.054C71.8346 270.178 93.068 331.985 93.068 331.985C160.357 357.294 230.472 333.927 230.472 333.927C236.578 310.432 241.341 286.609 244.737 262.573C211.751 272.538 177.374 277.887 143.55 272.195Z" fill="#597A96"/>
<path d="M49.2255 281.084C49.2255 281.084 23.6407 381.855 49.2255 400.844C74.8102 419.833 88.6867 293.499 88.6867 293.499L49.2255 281.084Z" fill="#E08565"/>
<path d="M266.569 275.974C266.569 275.974 292.154 376.746 266.569 395.72C240.984 414.694 227.108 288.345 227.108 288.345L266.569 275.974Z" fill="#E08565"/>
<path d="M95.999 294.963C95.999 294.963 65.3003 290.586 38.2651 277.439C38.2651 277.439 67.4984 204.426 76.9936 199.302C86.4889 194.177 120.358 199.556 120.358 199.556L95.999 294.963Z" fill="#6F96BD"/>
<path d="M219.81 289.839C219.81 289.839 250.509 285.461 277.544 272.314C277.544 272.314 248.311 199.287 238.816 194.177C229.32 189.068 195.452 194.431 195.452 194.431L219.81 289.839Z" fill="#6F96BD"/>
<path d="M136.415 232.763L130.743 329.873C130.624 331.9 132.172 333.638 134.201 333.757L179.133 336.377C181.161 336.495 182.901 334.948 183.019 332.922L188.692 235.812C188.81 233.785 187.262 232.047 185.234 231.928L140.301 229.308C138.273 229.19 136.533 230.737 136.415 232.763Z" fill="#1C181E"/>
<path d="M37.5323 368.708C37.5323 368.708 108.425 281.084 117.187 275.242C125.95 269.401 214.383 275.242 153.733 278.903C153.733 278.903 218.031 284.744 154.465 285.476C154.465 285.476 212.932 293.499 147.153 292.035C147.153 292.035 195.392 301.537 136.193 297.16C136.193 297.16 90.1223 404.878 67.4983 405.954C36.7996 407.403 37.5323 368.708 37.5323 368.708Z" fill="#F19C7C"/>
<path d="M278.262 363.598C278.262 363.598 207.369 275.974 198.607 270.133C189.844 264.291 101.412 270.133 162.061 273.793C162.061 273.793 97.7632 279.635 161.329 280.352C161.329 280.352 102.877 288.39 168.641 286.926C168.641 286.926 120.417 296.428 179.601 292.035C179.601 292.035 225.672 399.754 248.296 400.844C278.995 402.293 278.262 363.598 278.262 363.598Z" fill="#F19C7C"/>
<path d="M201.867 257.195C197.794 257.304 193.746 256.524 190.007 254.909C186.267 253.293 182.925 250.882 180.215 247.842C174.68 242.003 171.621 234.251 171.677 226.209C171.677 218.022 174.872 210.601 181.261 203.948C187.651 197.295 195.008 193.968 203.332 193.968C211.656 193.968 218.873 197.295 224.984 203.948C230.905 210.192 234.165 218.49 234.076 227.09C234.177 231.181 233.371 235.242 231.717 238.985C230.062 242.728 227.6 246.058 224.506 248.739C218.3 254.315 210.212 257.336 201.867 257.195Z" fill="#FDEDEE"/>
<path d="M190.597 236.744L176.042 232.239L172.056 245.098L186.611 249.602L190.597 236.744Z" fill="#FDEDEE"/>
<path d="M213.979 220.442H211.541L211.631 213.809C211.631 211.459 210.697 209.205 209.034 207.544C207.371 205.882 205.116 204.949 202.764 204.949C200.412 204.949 198.157 205.882 196.494 207.544C194.831 209.205 193.897 211.459 193.897 213.809L193.807 220.457H191.37L191.459 213.823C191.459 210.828 192.65 207.955 194.77 205.837C196.89 203.719 199.766 202.529 202.764 202.529C205.762 202.529 208.637 203.719 210.757 205.837C212.877 207.955 214.068 210.828 214.068 213.823L213.979 220.442Z" fill="#263238"/>
<path d="M203.272 215.721H202.495C193.394 215.721 186.017 223.092 186.017 232.185V232.2C186.017 241.293 193.394 248.664 202.495 248.664H203.272C212.373 248.664 219.751 241.293 219.751 232.2V232.185C219.751 223.092 212.373 215.721 203.272 215.721Z" fill="#E8505B"/>
<g opacity="0.3">
<path opacity="0.3" d="M206.263 230.452C206.263 229.867 206.11 229.291 205.819 228.783C205.528 228.275 205.11 227.852 204.605 227.555C204.1 227.258 203.526 227.099 202.941 227.091C202.355 227.084 201.778 227.229 201.265 227.514C200.753 227.798 200.324 228.21 200.021 228.711C199.717 229.212 199.55 229.783 199.535 230.368C199.52 230.953 199.659 231.532 199.937 232.047C200.214 232.562 200.622 232.996 201.119 233.305L200.267 237.279H205.785L204.768 233.246C205.227 232.938 205.603 232.522 205.864 232.035C206.124 231.548 206.262 231.004 206.263 230.452Z" fill="black"/>
</g>
<g opacity="0.2">
<path opacity="0.2" d="M198.786 237.817C198.898 236.398 199.221 235.003 199.743 233.679L199.833 234.067L198.876 233.066C198.335 232.439 198.015 231.652 197.964 230.825C197.93 230.163 198.086 229.505 198.413 228.928C198.631 228.548 198.927 228.217 199.28 227.957C199.519 227.792 199.684 227.748 199.713 227.792C199.743 227.837 199.28 228.286 198.921 229.167C198.712 229.672 198.635 230.222 198.697 230.766C198.771 231.416 199.037 232.029 199.459 232.529L200.446 233.559L200.611 233.739L200.536 233.948C200.158 235.321 199.567 236.626 198.786 237.817Z" fill="white"/>
</g>
</svg>
