<svg xmlns="http://www.w3.org/2000/svg" viewBox="0 0 447.5 487.56"><defs><style>.cls-1{fill:#965450;}.cls-2{fill:#76413b;}.cls-3{fill:#352c38;}.cls-4{fill:#fff;}.cls-5{fill:#597a96;}.cls-6{fill:#6f96bd;}.cls-7{fill:#ffa65b;}.cls-8{fill:#ce8a41;}.cls-9{opacity:0.52;}.cls-10{fill:#5a6edb;}.cls-11{fill:#b40079;}.cls-12{fill:#1c181e;}.cls-13{fill:#e5e3e1;}.cls-14{fill:#dd908a;}.cls-15{fill:#ffac9d;}.cls-16{fill:#769d9d;}.cls-17{fill:#547676;}.cls-18{fill:#db7887;}.cls-19{fill:#d26a7e;}.cls-20,.cls-22,.cls-23{fill:none;stroke:#6f96bd;stroke-miterlimit:10;}.cls-20{stroke-width:2.05px;}.cls-21{fill:#b57572;}.cls-22{stroke-width:1.98px;}.cls-23{stroke-width:2.21px;}.cls-24{fill:#b85972;}</style></defs><title>olhominionPrancheta 6</title><g id="OBJECTS"><path class="cls-1" d="M70.22,99.24s7.2,33.18-5.83,43.61-48.22-2.61-37.14,40.4,86,86.67,102.3,65.16,45-99,15.64-103-38.44,13.69-36.49-18.89S70.22,99.24,70.22,99.24Z"/><path class="cls-2" d="M71.16,130.07a46.43,46.43,0,0,0,10.42,9.8c9.15,6.15,19.89,7.28,30.6,7.49-3-3.48-4.15-9.66-3.48-20.8,2-32.58-38.48-27.32-38.48-27.32S74,116.53,71.16,130.07Z"/><path class="cls-1" d="M125.43,31.06S67,3.16,62.34,44.22C57.92,83,80.4,140.42,111.63,136.66c15.5-1.87,28.23-6.35,24.43-42.88C132.48,59.31,133.29,45.59,125.43,31.06Z"/><path class="cls-3" d="M89.48,45.1s1.63,13.69-8.8,16.95c0,0,5.75,46.88,6.52,51.8.94,6,9.14,10.53,9.14-8.69,0-15.31,13.34-9.56,19.53-10.21s13.68-3.58,14.66,8.8,7.17,5.21,5.54-10.43c0,0,11.08,36.17-5.21,43s-51.54,19.59-55.78-28S63.74,70.52,60.81,76.06s-2,23.78,9.12,24.43c0,0-32.26-28-23.79-51.15S68.3,33.05,68.3,33.05s2.93-15.64,15.64-19.22,16.29,14,33.56.65,29,16.29,37.47,2.28c0,0,2.6,14-12.38,11.4,0,0,6.84,6.84,12.7-2.28,0,0-2.28,24.76-27,20.53S110.66,59.11,89.48,45.1Z"/><path class="cls-1" d="M73.19,87.13s-.68-19.61-9.8-15.37-5.19,33,10.12,29.38Z"/><path class="cls-4" d="M100,101.82s19.13,1.22,27.33,1.37C127.31,103.19,116.23,114.12,100,101.82Z"/><path class="cls-2" d="M70.53,98a10.62,10.62,0,0,1-2.38-1.4,6.07,6.07,0,0,1-1-1,3.23,3.23,0,0,1-.69-1.4,2,2,0,0,1,0-.87,2.27,2.27,0,0,1,.35-.81A4.12,4.12,0,0,1,68,91.45a10.91,10.91,0,0,1,2.66-1.16l-.58.79a74.9,74.9,0,0,0-1.11-7.48A34,34,0,0,0,68,80a7.46,7.46,0,0,0-1.64-2.89,1.4,1.4,0,0,0-1.08-.42h0l-.12,0-.23,0c-.15,0-.19.07-.3.09a3,3,0,0,0-.6.37,5.75,5.75,0,0,0-1.57,2.93,21.19,21.19,0,0,0-.57,3.69c-.09,1.27-.13,2.55-.11,3.84a22.36,22.36,0,0,1-.64-3.83,17.54,17.54,0,0,1,.08-4,9.07,9.07,0,0,1,.52-2A5.32,5.32,0,0,1,62.88,76a4.17,4.17,0,0,1,1-.7,5.81,5.81,0,0,1,.61-.22l.23-.06.12,0h.21a3.22,3.22,0,0,1,2.46.74,5.92,5.92,0,0,1,1.41,1.76,13.69,13.69,0,0,1,.86,1.88,23.33,23.33,0,0,1,1,3.85,36.62,36.62,0,0,1,.56,3.88c.12,1.3.23,2.58.24,3.9v.66l-.58.13a10.48,10.48,0,0,0-2.39.79,3,3,0,0,0-.9.65,1.33,1.33,0,0,0-.25.4,1.22,1.22,0,0,0-.08.47,3.72,3.72,0,0,0,1.12,2.11A13.85,13.85,0,0,0,70.53,98Z"/><path class="cls-2" d="M115.32,94.84c1.72-.4,3.46-.7,5.19-1s3.47-.52,5.21-.75l-.7,1.11q-1.23-3-2.25-6.1c-.7-2-1.31-4.13-1.87-6.22-.28-1-.52-2.11-.75-3.17s-.47-2.12-.61-3.2-.37-2.14-.43-3.24S119,70.1,119,69c.32,1,.61,2.09.87,3.13.11.52.29,1,.45,1.55l.46,1.54.45,1.54.49,1.54c.34,1,.61,2.05,1,3.06s.65,2.05,1,3.07.68,2,1,3.06l2,6.13.35,1.07-1,0c-1.76.07-3.51.14-5.27.16S117.09,94.93,115.32,94.84Z"/><path class="cls-3" d="M122.62,75.36l.31.82c.19.51.48,1.24.86,2.06.2.41.42.84.67,1.28a10.68,10.68,0,0,0,.88,1.27c.16.19.35.36.53.54a7.16,7.16,0,0,0,.59.42,2.24,2.24,0,0,0,.64.27,2,2,0,0,0,.69.1l.18,0h0l.11,0,.46-.06c.19,0,.22-.07.31-.1a1.72,1.72,0,0,0,.26-.1,3,3,0,0,0,1-.93,6.86,6.86,0,0,0,.68-1.32c.15-.47.3-.93.41-1.37.21-.88.34-1.65.42-2.19s.13-.86.13-.86A7.17,7.17,0,0,1,132,76a10.92,10.92,0,0,1,.24,2.32,8.38,8.38,0,0,1-.14,1.6,6,6,0,0,1-.61,1.78l-.26.45c-.11.15-.23.29-.35.43a3.57,3.57,0,0,1-.88.75,5.06,5.06,0,0,1-1.16.44l-.46.08-.12,0H128l-.29,0a4.34,4.34,0,0,1-2.18-.69,4.83,4.83,0,0,1-.85-.69c-.22-.27-.44-.53-.63-.8a8.87,8.87,0,0,1-1.25-3.17,11.25,11.25,0,0,1-.24-2.32A7.87,7.87,0,0,1,122.62,75.36Z"/><path class="cls-3" d="M95.63,78.29s.11.32.32.86.52,1.3.94,2.17c.21.43.45.88.72,1.34a11.87,11.87,0,0,0,1,1.32,7.4,7.4,0,0,0,.57.55,5.12,5.12,0,0,0,.64.43,2.25,2.25,0,0,0,.69.27,2,2,0,0,0,.74.11l.19,0h0s.11,0-.09,0h.06l.13,0,.49-.07a.86.86,0,0,0,.34-.1,2.29,2.29,0,0,1,.28-.09,3.24,3.24,0,0,0,1.07-1,6.92,6.92,0,0,0,.74-1.37c.17-.48.33-1,.45-1.43.22-.93.36-1.74.45-2.31s.14-.91.14-.91.11.32.24.9a10.69,10.69,0,0,1,.26,2.45l0,.82c0,.28-.08.57-.13.88a6.25,6.25,0,0,1-.69,1.88,4.47,4.47,0,0,1-1.62,1.68,5.18,5.18,0,0,1-.63.26,2.24,2.24,0,0,1-.59.18l-.49.07-.12,0h-.24l-.3,0a3.78,3.78,0,0,1-1.2-.2,3.55,3.55,0,0,1-1.1-.5A5.75,5.75,0,0,1,97.23,85a8.43,8.43,0,0,1-.9-1.73,10.66,10.66,0,0,1-.48-1.61,12.25,12.25,0,0,1-.27-2.45A7.08,7.08,0,0,1,95.63,78.29Z"/><path class="cls-3" d="M111.5,67.71l-1-.76c-.63-.46-1.5-1.11-2.57-1.75a17.08,17.08,0,0,0-3.62-1.73,11,11,0,0,0-2-.46,10.42,10.42,0,0,0-2.09,0,11.89,11.89,0,0,0-2.11.4,9.65,9.65,0,0,0-1,.33,10,10,0,0,0-1,.4c-.34.13-.66.29-1,.45s-.65.3-1,.48c-.62.33-1.22.66-1.76,1s-1.06.63-1.52.9l-1.2.73c-.66.41-1.09.62-1.09.62s.16-.43.52-1.15a10.81,10.81,0,0,1,.71-1.26,13.32,13.32,0,0,1,1.08-1.54l.7-.84.82-.83c.28-.29.62-.54,1-.82a14.61,14.61,0,0,1,2.28-1.48l.64-.32.69-.27a11.58,11.58,0,0,1,3-.68,11,11,0,0,1,3.09.21,10.64,10.64,0,0,1,2.77,1,11.82,11.82,0,0,1,3.75,3.24,12.36,12.36,0,0,1,1.65,2.94A7.36,7.36,0,0,1,111.5,67.71Z"/><path class="cls-3" d="M120.07,68.62a8.47,8.47,0,0,1,.57-3.06,10.63,10.63,0,0,1,1.54-2.8,9,9,0,0,1,1.32-1.38,7.31,7.31,0,0,1,1.79-1.14,5.58,5.58,0,0,1,2.29-.53,5,5,0,0,1,2.3.45,4.63,4.63,0,0,1,.93.54,4.09,4.09,0,0,1,.73.63,5.92,5.92,0,0,1,1,1.32,6.66,6.66,0,0,1,.77,2.18,6,6,0,0,1,.09.87,8,8,0,0,1-.74-.44c-.45-.28-1.07-.67-1.76-1.05a4.39,4.39,0,0,0-.53-.27,3.25,3.25,0,0,0-.54-.23,2.72,2.72,0,0,0-.53-.17,3.22,3.22,0,0,0-.51-.09,2.84,2.84,0,0,0-.92,0,3.54,3.54,0,0,0-1,.32,12.15,12.15,0,0,0-2.24,1.38c-.76.57-1.5,1.16-2.16,1.67s-1.26,1-1.7,1.28S120.07,68.62,120.07,68.62Z"/><polygon class="cls-5" points="175.82 322.05 201.23 487.56 156.27 487.56 117.17 349.41 175.82 322.05"/><polygon class="cls-6" points="74.16 334.43 66.02 487.56 113.02 487.56 125.64 415.88 187.52 398.61 175.17 316.83 74.16 334.43"/><path class="cls-5" d="M123.45,360.92c18.67-1.29,40.78-3.47,56.65-14.75l-4.93-29.34-101,17.6-.7,23.37A196.91,196.91,0,0,0,123.45,360.92Z"/><path class="cls-7" d="M60.48,144.8s13.68,15,34.54,15.64,23.45-13.68,23.45-13.68,33.89-14.34,43,6.51,20.85,179.85,20.85,179.85S155,367.66,69,341.59c0,0-56-179.19-42.35-186.36S60.48,144.8,60.48,144.8Z"/><path class="cls-8" d="M104.67,239.38A312.16,312.16,0,0,1,42.43,189.7c-5.91-6.14-11.69-12.41-17.5-18.65,4.83,45.23,44,170.54,44,170.54,86,26.07,113.38-8.47,113.38-8.47s-2.09-28.33-5.19-62.65A273.28,273.28,0,0,1,104.67,239.38Z"/><path class="cls-1" d="M27.9,169.56s0,104.92,5.21,123.81S67,367,67,367l4.56,19.55,11.46.05,4.18-39.15-7.82-2.61-15-64.51L61.13,174.78Z"/><path class="cls-2" d="M51.23,247.52a77.21,77.21,0,0,0,12.17.85l-2.27-73.59L27.9,169.56S27.9,207,29,241.18A103.48,103.48,0,0,0,51.23,247.52Z"/><path class="cls-2" d="M71.77,386.56l11.25.05,4.18-39.15-.63-.21C83.31,360.87,77.33,373.67,71.77,386.56Z"/><path class="cls-7" d="M60.48,144.8S24.64,148.71,22,161.09s-.65,73-.65,73S43.54,245.8,69,241.9Z"/><path class="cls-7" d="M130.2,144.15s26.07-13.68,38.45,11.08,13.68,61.9,13.68,61.9L155,223.65Z"/><path class="cls-8" d="M146.11,195.2,155,223.65l27.36-6.52s-.88-25.11-8.08-47.81C165,178,155.54,186.63,146.11,195.2Z"/><g class="cls-9"><path class="cls-10" d="M193.52,169.28l-21.83.12-5.36,5.8-.13-24.06a1.73,1.73,0,0,1,1.73-1.75l25.48-.14a1.75,1.75,0,0,1,1.75,1.73l.08,16.55A1.73,1.73,0,0,1,193.52,169.28Z"/></g><path class="cls-11" d="M184.86,155.73h0c-1.06-1-3.06,0-3.78,1-.74-1-2.75-2-3.8-.93h0c-.85.79-.69,2-.25,3.16a8.63,8.63,0,0,0,4.08,4.28h0a8.48,8.48,0,0,0,4-4.33C185.58,157.74,185.73,156.52,184.86,155.73Z"/><rect class="cls-12" x="114.72" y="186.14" width="70.03" height="35.02" rx="2.46" ry="2.46" transform="translate(-81.67 305.35) rotate(-77.4)"/><path class="cls-1" d="M170.61,200.84s-73-12.38-19.55,2.61c0,0-54.74-9.12-2,5.86,0,0-48.87-6.51,0,7.17,0,0-39.75-1.95,5.87,7.17,0,0-.66,78.19,27.36,82.76S191.46,236.68,170.61,200.84Z"/><path class="cls-13" d="M238,44.71a4.3,4.3,0,1,0-4.3,4.31A4.31,4.31,0,0,0,238,44.71Z"/><circle class="cls-13" cx="253.77" cy="50.45" r="7.17"/><path class="cls-13" d="M427.57,386.61a7.17,7.17,0,1,0-7.17,7.17A7.17,7.17,0,0,0,427.57,386.61Z"/><path class="cls-13" d="M49,351.77a8.61,8.61,0,1,0-8.6,8.61A8.6,8.6,0,0,0,49,351.77Z"/><path class="cls-2" d="M323,64.73S291.29,55,271.34,69.34s-7.67,58.32-14.32,78.78-6.66,37.86,24,42.46,34.79-37.34,34.79-37.34Z"/><path class="cls-14" d="M255.48,219.23s5.63,57.81,13.3,66.51,21,10.74,21,10.74l-3.58-82.36Z"/><path class="cls-15" d="M228.88,255.55s-8.7,8.19,2,22,52.7,47.07,66,40.93-5.63-31.21-5.63-31.21Z"/><path class="cls-16" d="M301.28,182l-3.11-4.14s-37.85-4.67-41.48,7.25-7.78,45.11-7.78,45.11l31.63,7.26Z"/><path class="cls-17" d="M271.45,208.67A86.62,86.62,0,0,1,254,196.87c-2.73,14.4-5.1,33.35-5.1,33.35l31.63,7.26,8-21.3A160.39,160.39,0,0,1,271.45,208.67Z"/><path class="cls-18" d="M287.28,282.06s-19.7,35.26-30.07,98.51C249.28,428.93,244.33,488,244.33,488H398.82S392,349.46,351.57,275.84Z"/><path class="cls-19" d="M331.82,419c-21.68,16.62-45.33,30.14-71.84,37.41-4.28,1.17-8.59,2.17-12.93,3-1.76,17-2.72,28.54-2.72,28.54H398.82s-3.4-69.14-19.65-135.68C368.92,378.18,354.11,401.94,331.82,419Z"/><path class="cls-19" d="M346.18,297.63c5.32.65,10.66,1.23,16,1.77a183.18,183.18,0,0,0-10.62-23.56l-64.29,6.22s-1,1.83-2.7,5.36C305.15,290.33,325.54,295.12,346.18,297.63Z"/><path class="cls-14" d="M328,122.2s0,64.12,4.09,65.48-31.38,1.37-31.38,1.37l-4.77-46.39Z"/><path class="cls-16" d="M298.68,167.49l35.26-7.26,1.55,14.51s26.44-8.81,33.18,6.23-10.36,100.57-10.36,100.57l-75.7,1.56s-19.7-41.48-13.48-72.58l6.23-31.11,22.81-1.55Z"/><path class="cls-17" d="M331.66,232.59a394.55,394.55,0,0,1-57.73,27.2,181.6,181.6,0,0,0,8.68,23.31l75.7-1.56s9.47-47.37,11.54-77.8C359.15,215.61,344.86,225.06,331.66,232.59Z"/><path class="cls-15" d="M379.12,205.42s12.27,95.5.68,99.59-79.13-49.11-79.13-49.11-27.28,6.82-20.46-1.37c0,0-6.14-2-1.37-4.09,0,0-5.45-2.73-2-4.09s-55.25,7.5,21.82-8.87L353.88,262l-2.73-33.43Z"/><path class="cls-14" d="M383.31,246.74c-1.68-21.78-4.19-41.32-4.19-41.32l-28,23.19,1.28,15.73C362.17,247.7,372.93,247.9,383.31,246.74Z"/><path class="cls-16" d="M345,238.84s24.18,1.75,40.77-6.55c0,0-4.66-52.36-24.36-58.06S332.05,197.23,345,238.84Z"/><rect class="cls-3" x="226.01" y="212.6" width="35.83" height="71.65" rx="2.51" ry="2.51" transform="translate(-86.22 137.9) rotate(-27.01)"/><path class="cls-15" d="M225.81,259.65s33.76-41.44,6.65-2c0,0,38.88-34.28,6.65,3.07,0,0,37.86-21.49-.51,6.65,0,0,42-19.95-.51,6.65l6.14,14.33S220.69,271.93,225.81,259.65Z"/><line class="cls-20" x1="275.53" y1="121.79" x2="262.39" y2="122.8"/><path class="cls-15" d="M310.22,82.64S268.78,72.56,268.78,119s39.91,65.53,58.32,16.26S310.22,82.64,310.22,82.64Z"/><path class="cls-1" d="M295.9,75S292.32,103.1,312.78,122s-7.16,71.62,19.44,74.69,9.21-27.62,31.21-22c0,0,4.09-21.48-5.63-26.6s4.09-78.78-28.65-87.48S296.92,68.31,295.9,75Z"/><path class="cls-4" d="M308.62,141.18s-17.93,4.73-25.69,6.41C282.93,147.59,295.5,155.89,308.62,141.18Z"/><path class="cls-3" d="M282.19,120.3s.09.3.2.83a10.54,10.54,0,0,1,.21,2.24,8.73,8.73,0,0,1-.6,3.25c-.13.29-.29.58-.45.87a4.3,4.3,0,0,1-.67.82,3.7,3.7,0,0,1-.9.65,3.32,3.32,0,0,1-1,.41l-.28.07h-.33l-.45,0a4.9,4.9,0,0,1-1.18-.21A4,4,0,0,1,275,128a5.8,5.8,0,0,1-.91-1.58,8.81,8.81,0,0,1-.44-1.49,10.72,10.72,0,0,1-.2-2.25c0-.54.06-.85.06-.85s.11.29.28.8.45,1.2.81,2c.19.39.41.8.65,1.22a6.09,6.09,0,0,0,.89,1.12,2.85,2.85,0,0,0,1.12.7,1.19,1.19,0,0,0,.26,0c.09,0,.13.07.31,0l.45,0h.12l.16,0a2,2,0,0,0,.64-.22,1.87,1.87,0,0,0,.55-.38,4.74,4.74,0,0,0,.49-.51c.14-.2.28-.4.4-.61a10.35,10.35,0,0,0,.6-1.37c.15-.46.28-.91.39-1.34.21-.85.35-1.59.44-2.11Z"/><path class="cls-3" d="M308.35,118a6.78,6.78,0,0,1,.22.87,12,12,0,0,1,.2,2.38,8.85,8.85,0,0,1-.69,3.42,5.33,5.33,0,0,1-1.22,1.76,4.69,4.69,0,0,1-2.06,1.1l-.28.07h-.35l-.48,0a2.29,2.29,0,0,1-.59-.06,4.67,4.67,0,0,1-.65-.13,4.32,4.32,0,0,1-1.85-1.29,5.79,5.79,0,0,1-1-1.65c-.11-.28-.2-.55-.29-.81s-.13-.52-.19-.77a10.83,10.83,0,0,1-.21-2.38,7.54,7.54,0,0,1,.06-.9s.11.32.3.84.47,1.27.86,2.11c.2.42.44.85.7,1.28a6.68,6.68,0,0,0,.95,1.16,3.16,3.16,0,0,0,1.2.71l.28,0a.69.69,0,0,0,.35,0l.47,0h.19c-.2,0,0,0-.1,0h0l.17,0a2,2,0,0,0,.68-.23,2.22,2.22,0,0,0,.61-.4,5.11,5.11,0,0,0,.52-.52c.16-.21.3-.42.44-.64a12.09,12.09,0,0,0,.66-1.42c.16-.49.31-1,.43-1.41.23-.9.38-1.68.48-2.24Z"/><path class="cls-21" d="M285.15,122a7.25,7.25,0,0,1,.9,1.58,9.69,9.69,0,0,1,.54,1.76,6.93,6.93,0,0,1,.16.91c0,.31.08.62.08.93s0,.62,0,.94l-.08.93c0,.31-.1.62-.15.93a5.47,5.47,0,0,1-.21.91l-.27.9-.35.87a16.2,16.2,0,0,1-.85,1.66c-.15.28-.34.52-.51.78l-.54.75-.28-1.36c.54.38,1.08.73,1.61,1.13s1.05.76,1.56,1.18a33,33,0,0,1,3,2.59,32.75,32.75,0,0,1-3.67-1.49c-.6-.27-1.17-.58-1.76-.87s-1.15-.61-1.72-.92l-.81-.43.54-.93c.13-.24.27-.49.42-.72s.3-.46.42-.71c.24-.5.53-1,.73-1.48a14.11,14.11,0,0,0,.6-1.52,7.83,7.83,0,0,0,.25-.78c.07-.27.16-.53.22-.79.1-.54.22-1.08.29-1.63.05-.27.05-.55.08-.83s0-.55.06-.84c0-.56,0-1.13,0-1.7A13.29,13.29,0,0,0,285.15,122Z"/><path class="cls-22" d="M285.34,120.49c1.17,8.87-2.27,16.64-7.69,17.36s-10.76-5.89-11.93-14.76,2.27-16.64,7.68-17.36S284.16,111.62,285.34,120.49Z"/><ellipse class="cls-23" cx="303.65" cy="119.87" rx="12.02" ry="16.66" transform="translate(-13.09 40.83) rotate(-7.53)"/><path class="cls-20" d="M285.92,124.59s2.05-6.4,6.14-.77"/><line class="cls-20" x1="316.36" y1="119.73" x2="324.29" y2="119.47"/><path class="cls-7" d="M217.42,206.79l4.5-4.53,17,0a6.27,6.27,0,0,0,6.24-6.29v-1.36a6.27,6.27,0,0,0-6.29-6.24l-15.24.05a6.27,6.27,0,0,0-6.25,6.29Z"/><path class="cls-4" d="M236.13,195.1a1.57,1.57,0,1,0,1.56-1.57A1.56,1.56,0,0,0,236.13,195.1Z"/><path class="cls-4" d="M230.4,195.12a1.57,1.57,0,1,0,1.56-1.57A1.56,1.56,0,0,0,230.4,195.12Z"/><path class="cls-4" d="M224.68,195.14a1.56,1.56,0,1,0,1.55-1.57A1.55,1.55,0,0,0,224.68,195.14Z"/><path class="cls-24" d="M212.59,217.52l-4.08-4.5-15.3,0c-3.12,0-5.65-2.78-5.66-6.24v-1.36c0-3.46,2.5-6.28,5.62-6.29l13.72,0c3.12,0,5.65,2.78,5.66,6.24Z"/><path class="cls-4" d="M195.67,206a1.41,1.41,0,1,1-1.41-1.56A1.49,1.49,0,0,1,195.67,206Z"/><path class="cls-4" d="M200.83,205.93a1.42,1.42,0,1,1-1.42-1.56A1.51,1.51,0,0,1,200.83,205.93Z"/><path class="cls-4" d="M206,205.91a1.41,1.41,0,1,1-1.41-1.56A1.49,1.49,0,0,1,206,205.91Z"/></g></svg>