<svg width="369" height="735" viewBox="0 0 369 735" fill="none" xmlns="http://www.w3.org/2000/svg">
<path d="M133.218 168.777C133.218 168.777 143.169 214.577 125.161 228.974C107.152 243.371 58.517 225.371 73.8303 284.741C89.1437 344.11 192.689 404.363 215.217 374.685C237.744 345.007 277.41 237.96 236.832 232.508C196.254 227.055 183.691 251.405 186.4 206.419C189.109 161.433 133.218 168.777 133.218 168.777Z" fill="#965450"/>
<path d="M134.517 211.319C138.586 216.552 143.444 221.12 148.918 224.861C161.564 233.35 176.408 234.91 191.21 235.199C187.064 230.396 185.474 221.851 186.4 206.474C189.095 161.502 133.218 168.777 133.218 168.777C133.218 168.777 138.401 192.629 134.517 211.319Z" fill="#76413B"/>
<path d="M209.509 74.6636C209.509 74.6636 128.782 36.1516 122.327 92.8292C116.219 146.346 147.288 225.606 190.45 220.416C211.872 217.848 229.466 211.664 224.214 161.24C219.252 113.645 220.386 94.7065 209.509 74.6636Z" fill="#965450"/>
<path d="M159.837 94.0439C159.837 94.0439 162.09 112.941 147.675 117.427C147.675 117.427 155.622 182.138 156.686 188.944C157.985 197.226 169.318 203.479 169.318 176.948C169.318 155.815 187.755 163.752 196.31 162.855C204.865 161.958 215.217 157.913 216.571 175.002C217.925 192.091 226.48 182.194 224.228 160.605C224.228 160.605 239.541 210.532 217.013 219.96C194.485 229.388 145.795 247.002 139.935 181.31C134.075 115.619 124.262 129.119 120.24 136.766C116.219 144.413 117.476 169.605 132.859 170.502C132.859 170.502 88.273 131.852 99.9792 99.8966C111.685 67.9413 130.565 77.4106 130.565 77.4106C130.565 77.4106 134.614 55.8217 152.18 50.8663C169.746 45.9108 174.694 70.1913 198.563 51.7635C222.431 33.3357 238.643 74.2634 250.349 54.9245C250.349 54.9245 253.942 74.2495 233.225 70.6606C233.225 70.6606 242.692 80.1023 250.791 67.5134C250.791 67.5134 247.64 101.691 213.475 95.8384C179.31 89.9856 189.095 113.383 159.837 94.0439Z" fill="#352C38"/>
<path d="M137.323 152.06C137.323 152.06 136.383 124.992 123.778 130.83C111.174 136.669 116.606 176.382 137.765 171.399L137.323 152.06Z" fill="#965450"/>
<path d="M174.349 172.338C174.349 172.338 200.788 174.008 212.121 174.215C212.121 174.215 196.807 189.316 174.349 172.338Z" fill="white"/>
<path d="M133.647 167.093C132.473 166.589 131.368 165.94 130.357 165.16C129.848 164.752 129.384 164.289 128.975 163.78C128.504 163.223 128.177 162.56 128.022 161.847C127.939 161.446 127.939 161.033 128.022 160.632C128.122 160.238 128.29 159.864 128.519 159.528C128.954 158.927 129.498 158.412 130.122 158.01C131.274 157.321 132.509 156.782 133.799 156.409L132.997 157.499C132.659 154.038 132.147 150.597 131.463 147.188C131.092 145.521 130.631 143.876 130.081 142.26C129.638 140.776 128.863 139.411 127.814 138.271C127.618 138.073 127.383 137.918 127.123 137.816C126.864 137.714 126.586 137.667 126.308 137.677H126.142H125.824C125.617 137.677 125.561 137.787 125.409 137.815C125.114 137.947 124.835 138.113 124.58 138.312C123.477 139.42 122.723 140.826 122.41 142.356C121.992 144.031 121.728 145.741 121.623 147.464C121.498 149.217 121.443 150.984 121.471 152.764C121.023 151.026 120.727 149.253 120.586 147.464C120.411 145.625 120.448 143.773 120.697 141.942C120.824 140.997 121.065 140.07 121.415 139.182C121.775 138.208 122.341 137.322 123.074 136.587C123.485 136.199 123.95 135.873 124.456 135.62C124.732 135.51 125.078 135.372 125.299 135.303H125.617H125.783H126.073C126.679 135.232 127.294 135.286 127.879 135.461C128.464 135.637 129.006 135.931 129.473 136.324C130.269 137 130.93 137.819 131.421 138.74C131.906 139.576 132.327 140.449 132.679 141.349C133.284 143.08 133.746 144.857 134.061 146.663C134.415 148.433 134.673 150.221 134.835 152.019C135.001 153.813 135.153 155.58 135.167 157.402V158.313L134.365 158.493C133.221 158.725 132.107 159.091 131.048 159.583C130.584 159.801 130.167 160.106 129.818 160.481C129.668 160.64 129.551 160.828 129.473 161.033C129.379 161.236 129.341 161.459 129.362 161.682C129.546 162.795 130.09 163.818 130.91 164.594C131.739 165.513 132.656 166.35 133.647 167.093Z" fill="#76413B"/>
<path d="M195.55 162.689C197.927 162.151 200.332 161.737 202.723 161.309C205.114 160.881 207.519 160.591 209.923 160.274L208.956 161.806C207.823 159.045 206.786 156.284 205.832 153.386C204.879 150.487 204.036 147.685 203.262 144.786C202.875 143.406 202.543 141.887 202.225 140.424C201.907 138.961 201.576 137.498 201.382 135.993C201.189 134.488 200.871 133.039 200.788 131.534C200.705 130.03 200.622 128.525 200.581 127.035C201.009 128.415 201.41 129.919 201.783 131.355C201.935 132.073 202.184 132.735 202.405 133.495L203.041 135.62L203.663 137.746L204.34 139.858C204.81 141.238 205.183 142.702 205.722 144.096C206.261 145.49 206.62 146.856 207.104 148.333C207.588 149.81 208.044 151.094 208.486 152.557L211.25 161.005L211.734 162.496H210.283C207.85 162.593 205.432 162.689 202.999 162.717C200.567 162.744 197.982 162.882 195.55 162.689Z" fill="#76413B"/>
<path d="M205.639 135.814L206.067 136.945C206.33 137.649 206.731 138.643 207.256 139.789C207.532 140.355 207.836 140.949 208.182 141.556C208.541 142.166 208.948 142.748 209.398 143.295C209.628 143.562 209.873 143.815 210.131 144.054C210.39 144.264 210.662 144.458 210.946 144.634C211.22 144.803 211.518 144.929 211.831 145.007C212.138 145.108 212.461 145.155 212.784 145.145H213.047H213.199L213.835 145.062C214.097 145.062 214.125 144.965 214.263 144.924C214.401 144.883 214.498 144.924 214.622 144.786C215.177 144.466 215.65 144.022 216.004 143.488C216.384 142.924 216.694 142.317 216.93 141.68C217.152 141.031 217.359 140.396 217.511 139.789C217.801 138.574 217.967 137.511 218.091 136.766C218.216 136.021 218.271 135.579 218.271 135.579C218.401 135.963 218.507 136.355 218.589 136.752C218.814 137.805 218.925 138.878 218.921 139.955C218.92 140.695 218.855 141.434 218.727 142.163C218.576 143.021 218.291 143.85 217.884 144.62L217.525 145.241C217.373 145.448 217.207 145.642 217.041 145.835C216.69 146.236 216.28 146.58 215.825 146.856C215.32 147.134 214.781 147.343 214.222 147.478L213.586 147.574H213.42H212.715C212.179 147.567 211.647 147.474 211.14 147.298C210.647 147.144 210.181 146.916 209.757 146.622C209.331 146.35 208.937 146.03 208.583 145.669C208.279 145.297 207.975 144.938 207.712 144.565C206.858 143.232 206.272 141.746 205.984 140.189C205.756 139.137 205.645 138.063 205.653 136.987C205.627 136.596 205.622 136.205 205.639 135.814Z" fill="#352C38"/>
<path d="M168.323 139.858L168.779 141.045C169.069 141.791 169.498 142.84 170.078 144.041C170.368 144.634 170.7 145.255 171.073 145.89C171.487 146.527 171.949 147.131 172.455 147.698C172.704 147.97 172.967 148.228 173.243 148.471C173.522 148.691 173.818 148.89 174.127 149.065C174.423 149.241 174.745 149.367 175.081 149.438C175.409 149.552 175.756 149.604 176.104 149.59H176.366H176.546L177.209 149.493C177.379 149.482 177.544 149.434 177.693 149.355L178.066 149.217C178.671 148.888 179.184 148.413 179.559 147.837C179.971 147.249 180.31 146.614 180.568 145.945C180.817 145.269 181.024 144.565 181.204 143.972C181.508 142.688 181.701 141.57 181.826 140.783C181.95 139.996 182.005 139.527 182.005 139.527C182.148 139.928 182.263 140.339 182.351 140.755C182.594 141.871 182.714 143.009 182.71 144.151V145.283C182.71 145.669 182.6 146.07 182.53 146.484C182.357 147.395 182.035 148.272 181.577 149.079C181.053 150.043 180.28 150.849 179.338 151.412C179.075 151.536 178.771 151.66 178.467 151.771C178.206 151.884 177.932 151.968 177.652 152.019L176.975 152.116H176.809H176.062C175.499 152.107 174.94 152.014 174.404 151.84C173.861 151.698 173.347 151.465 172.884 151.149C172.012 150.59 171.26 149.862 170.672 149.01C170.164 148.271 169.747 147.474 169.428 146.636C169.149 145.913 168.927 145.17 168.765 144.413C168.527 143.301 168.402 142.168 168.392 141.031C168.35 140.642 168.327 140.25 168.323 139.858Z" fill="#352C38"/>
<path d="M190.256 125.254L188.874 124.205C188.004 123.57 186.801 122.673 185.322 121.789C183.754 120.8 182.075 119.998 180.319 119.401C179.418 119.106 178.493 118.889 177.555 118.752C176.594 118.662 175.627 118.662 174.667 118.752C173.68 118.843 172.704 119.024 171.75 119.291C171.267 119.429 170.783 119.567 170.368 119.746C169.898 119.91 169.436 120.099 168.986 120.312C168.516 120.492 168.074 120.712 167.604 120.933C167.134 121.154 166.706 121.347 166.222 121.596C165.351 122.051 164.536 122.493 163.79 122.976C163.043 123.459 162.325 123.832 161.689 124.219L160.03 125.212C159.104 125.778 158.524 126.082 158.524 126.082C158.735 125.54 158.974 125.01 159.243 124.495C159.522 123.889 159.85 123.308 160.224 122.755C160.66 121.987 161.154 121.253 161.703 120.561L162.67 119.401L163.803 118.255C164.219 117.853 164.658 117.476 165.116 117.124C165.585 116.732 166.079 116.372 166.595 116.047C167.128 115.684 167.687 115.361 168.268 115.081L169.152 114.625L170.106 114.266C171.44 113.771 172.834 113.455 174.252 113.328C175.682 113.223 177.12 113.32 178.523 113.617C179.856 113.9 181.144 114.365 182.351 114.998C184.376 116.106 186.142 117.63 187.534 119.47C188.476 120.713 189.243 122.078 189.814 123.528C190.017 124.088 190.166 124.666 190.256 125.254Z" fill="#352C38"/>
<path d="M202.115 126.51C202.114 125.065 202.381 123.633 202.902 122.286C203.413 120.898 204.13 119.595 205.031 118.421C205.562 117.717 206.174 117.077 206.855 116.516C207.601 115.874 208.434 115.34 209.329 114.929C210.324 114.476 211.401 114.227 212.494 114.197C213.588 114.162 214.676 114.379 215.673 114.832C216.122 115.028 216.549 115.274 216.944 115.564C217.314 115.817 217.657 116.109 217.967 116.433C218.511 116.978 218.976 117.596 219.349 118.269C219.877 119.203 220.237 120.221 220.413 121.278C220.484 121.675 220.525 122.077 220.538 122.479C220.186 122.295 219.845 122.093 219.515 121.872C218.893 121.485 218.036 120.933 217.082 120.423C216.847 120.282 216.602 120.157 216.35 120.05C216.111 119.922 215.861 119.816 215.604 119.732C215.37 119.623 215.124 119.544 214.871 119.498C214.639 119.44 214.403 119.394 214.166 119.36C213.745 119.29 213.316 119.29 212.895 119.36C212.415 119.437 211.949 119.586 211.513 119.801C210.413 120.319 209.375 120.958 208.417 121.706C207.366 122.479 206.344 123.294 205.431 124.011C204.519 124.729 203.69 125.392 203.082 125.765C202.474 126.137 202.115 126.51 202.115 126.51Z" fill="#352C38"/>
<path d="M279.165 476.321L314.284 704.798H252.146L198.106 514.101L279.165 476.321Z" fill="#34588E"/>
<path d="M138.663 493.41L127.413 704.798H192.371L209.813 605.854L295.335 582.015L278.267 469.129L138.663 493.41Z" fill="#3A619B"/>
<path d="M206.786 529.975C232.589 528.208 263.147 525.199 285.081 509.629L278.267 469.129L138.677 493.41L137.71 525.682C160.458 530.05 183.672 531.493 206.786 529.975Z" fill="#34588E"/>
<path d="M119.757 231.666C119.757 231.666 138.664 252.371 167.494 253.255C196.324 254.138 199.903 234.357 199.903 234.357C199.903 234.357 246.742 214.577 259.332 243.357C271.923 272.138 288.162 491.615 288.162 491.615C288.162 491.615 250.349 539.293 131.463 503.307C131.463 503.307 54.0668 255.946 72.9183 246.063C91.7698 236.18 119.757 231.666 119.757 231.666Z" fill="#609FA0"/>
<path d="M180.831 362.22C149.343 343.123 120.435 320.077 94.8103 293.644C86.6423 285.169 78.6539 276.514 70.624 267.886C77.2994 330.334 131.435 503.307 131.435 503.307C250.294 539.293 288.135 491.615 288.135 491.615C288.135 491.615 285.246 452.496 280.962 405.136C245.685 395.734 211.958 381.278 180.831 362.22Z" fill="#4E8C8D"/>
<path d="M74.7288 265.843C74.7288 265.843 74.7288 410.657 81.9294 436.746C89.13 462.835 128.768 538.34 128.768 538.34L135.07 565.313L150.909 565.395L156.686 511.354L145.878 507.752L125.147 418.704L120.655 273.035L74.7288 265.843Z" fill="#965450"/>
<path d="M106.973 373.443C112.538 374.287 118.163 374.684 123.792 374.63L120.655 273.035L74.7288 265.843C74.7288 265.843 74.7288 317.524 76.2629 364.691C86.1358 368.757 96.4381 371.692 106.973 373.443Z" fill="#76413B"/>
<path d="M135.36 565.368L150.909 565.451L156.686 511.409L155.815 511.12C151.309 529.92 143.045 547.589 135.36 565.368Z" fill="#76413B"/>
<path d="M119.757 231.666C119.757 231.666 70.2232 237.063 66.616 254.152C63.0088 271.241 65.7176 354.918 65.7176 354.918C65.7176 354.918 96.3444 371.11 131.463 365.713L119.757 231.666Z" fill="#609FA0"/>
<path d="M216.115 230.768C216.115 230.768 252.146 211.871 269.256 246.063C286.366 280.254 288.163 331.507 288.163 331.507L250.349 340.507L216.115 230.768Z" fill="#609FA0"/>
<path d="M238.09 301.236L250.349 340.507L288.162 331.507C288.162 331.507 286.946 296.833 276.995 265.512C264.156 277.549 251.137 289.406 238.09 301.236Z" fill="#4E8C8D"/>
<path d="M229.306 263.772L209.676 351.482C209.266 353.313 210.42 355.128 212.252 355.537L252.851 364.601C254.683 365.01 256.501 363.858 256.911 362.028L276.541 274.317C276.95 272.487 275.797 270.671 273.964 270.262L233.366 261.199C231.533 260.789 229.716 261.942 229.306 263.772Z" fill="#1C181E"/>
<path d="M271.951 309.021C271.951 309.021 171.059 291.932 244.945 312.624C244.945 312.624 169.29 300.021 242.181 320.713C242.181 320.713 174.639 311.713 242.181 330.61C242.181 330.61 187.244 327.849 250.294 340.507C250.294 340.507 249.382 448.437 288.107 454.732C326.833 461.026 300.781 358.493 271.951 309.021Z" fill="#965450"/>
</svg>
