<svg width="808" height="527" viewBox="0 0 808 527" fill="none" xmlns="http://www.w3.org/2000/svg">
<path d="M385.691 70.8237C385.691 70.6309 387.592 70.4748 389.933 70.4748C392.275 70.4748 394.185 70.6309 394.185 70.8237C394.185 71.0165 392.284 71.1634 389.933 71.1634C387.583 71.1634 385.691 71.0073 385.691 70.8237Z" fill="#E0E0E0"/>
<path d="M356.42 70.8237C356.42 70.6309 359.698 70.4748 363.765 70.4748C367.833 70.4748 371.111 70.6309 371.111 70.8237C371.111 71.0165 367.833 71.1634 363.765 71.1634C359.698 71.1634 356.42 71.0073 356.42 70.8237Z" fill="#E0E0E0"/>
<path d="M327.148 70.8237C327.148 70.6309 330.426 70.4748 334.494 70.4748C338.561 70.4748 341.839 70.6309 341.839 70.8237C341.839 71.0165 338.561 71.1634 334.494 71.1634C330.426 71.1634 327.148 71.0073 327.148 70.8237Z" fill="#E0E0E0"/>
<path d="M304.028 78.7654C303.826 78.7654 303.661 75.2123 303.661 70.8237L304.028 70.4748H305.755H307.352L310.043 70.5482C310.88 70.5111 311.718 70.5945 312.531 70.7961C311.716 70.9855 310.879 71.0658 310.043 71.0348L307.352 71.1083H305.755H304.047L304.414 70.7686C304.396 75.2123 304.23 78.7654 304.028 78.7654Z" fill="#E0E0E0"/>
<path d="M304.028 109.577C303.826 109.577 303.661 106.125 303.661 101.874C303.661 97.6235 303.826 94.1714 304.028 94.1714C304.23 94.1714 304.396 97.6235 304.396 101.874C304.396 106.125 304.23 109.577 304.028 109.577Z" fill="#E0E0E0"/>
<path d="M304.028 134.458C303.826 134.458 303.661 131.006 303.661 126.755C303.661 122.505 303.826 119.052 304.028 119.052C304.23 119.052 304.396 122.495 304.396 126.755C304.396 131.016 304.23 134.458 304.028 134.458Z" fill="#E0E0E0"/>
<path d="M304.028 158.981C303.826 158.981 303.661 155.538 303.661 151.288C303.661 147.037 303.826 143.575 304.028 143.575C304.23 143.575 304.396 147.028 304.396 151.288C304.396 155.548 304.23 158.981 304.028 158.981Z" fill="#E0E0E0"/>
<path d="M304.028 187.14C303.826 187.14 303.661 183.697 303.661 179.437C303.661 175.177 303.826 171.734 304.028 171.734C304.23 171.734 304.396 175.186 304.396 179.437C304.396 183.688 304.23 187.14 304.028 187.14Z" fill="#E0E0E0"/>
<path d="M304.028 214.757C303.826 214.757 303.661 211.305 303.661 207.054C303.661 202.803 303.826 199.351 304.028 199.351C304.23 199.351 304.396 202.794 304.396 207.054C304.396 211.314 304.23 214.757 304.028 214.757Z" fill="#E0E0E0"/>
<path d="M304.028 235.396C303.826 235.396 303.661 233.615 303.661 231.421C303.661 229.227 303.826 227.445 304.028 227.445C304.23 227.445 304.396 229.227 304.396 231.421C304.396 233.615 304.23 235.396 304.028 235.396Z" fill="#E0E0E0"/>
<path d="M716.659 47.4208H394.735V282.753H716.659V47.4208Z" fill="white"/>
<path d="M716.659 282.781C716.659 280.302 716.54 190.051 716.356 47.4484L716.659 47.7422L394.763 47.8156L395.13 47.4484C395.13 131.915 395.13 211.92 395.13 282.781L394.791 282.45L716.714 282.781L394.791 283.111H394.46V282.781C394.46 211.92 394.46 131.879 394.46 47.4484V47.0719H394.855L716.751 47.1454H717.054V47.4484C716.779 190.051 716.668 280.274 716.659 282.781Z" fill="#263238"/>
<path d="M717.752 81.7125C717.752 81.9145 645.84 82.0798 557.153 82.0798C468.466 82.0798 396.535 81.9145 396.535 81.7125C396.535 81.5106 468.429 81.3453 557.153 81.3453C645.877 81.3453 717.752 81.4646 717.752 81.7125Z" fill="#E0E0E0"/>
<path d="M415.385 63.8092C415.385 64.768 415.101 65.7053 414.568 66.5025C414.036 67.2997 413.279 67.921 412.393 68.2879C411.507 68.6548 410.532 68.7508 409.592 68.5638C408.651 68.3767 407.787 67.915 407.109 67.2371C406.431 66.5591 405.97 65.6953 405.783 64.755C405.596 63.8146 405.692 62.8399 406.058 61.9541C406.425 61.0683 407.047 60.3112 407.844 59.7786C408.641 59.2459 409.579 58.9616 410.537 58.9616C411.823 58.9616 413.056 59.4723 413.965 60.3814C414.875 61.2905 415.385 62.5236 415.385 63.8092Z" fill="#E0E0E0"/>
<path d="M429.984 63.8092C429.984 64.7672 429.7 65.7037 429.168 66.5005C428.636 67.2973 427.88 67.9187 426.996 68.2861C426.111 68.6536 425.137 68.7506 424.197 68.565C423.257 68.3795 422.393 67.9196 421.715 67.2435C421.036 66.5674 420.573 65.7053 420.383 64.7662C420.194 63.827 420.288 62.8529 420.652 61.9668C421.016 61.0807 421.635 60.3223 422.429 59.7875C423.224 59.2526 424.16 58.9652 425.118 58.9616C425.756 58.9579 426.389 59.0807 426.98 59.3228C427.571 59.5649 428.108 59.9216 428.56 60.3722C429.013 60.8228 429.371 61.3585 429.616 61.9484C429.86 62.5383 429.985 63.1707 429.984 63.8092Z" fill="#E0E0E0"/>
<path d="M444.592 63.8092C444.592 64.768 444.308 65.7053 443.775 66.5025C443.243 67.2996 442.486 67.921 441.6 68.2879C440.714 68.6548 439.739 68.7508 438.799 68.5637C437.858 68.3767 436.994 67.915 436.316 67.237C435.638 66.5591 435.177 65.6953 434.99 64.755C434.803 63.8146 434.899 62.8399 435.266 61.9541C435.632 61.0683 436.254 60.3112 437.051 59.7785C437.848 59.2459 438.786 58.9616 439.744 58.9616C440.381 58.9604 441.012 59.0849 441.601 59.3281C442.19 59.5713 442.725 59.9283 443.175 60.3787C443.626 60.8291 443.983 61.364 444.226 61.9527C444.469 62.5414 444.594 63.1723 444.592 63.8092Z" fill="#E0E0E0"/>
<path d="M415.67 140.573L417.7 139.288C418.58 138.726 419.567 138.351 420.598 138.186C421.629 138.021 422.683 138.069 423.695 138.327C424.707 138.585 425.655 139.048 426.481 139.687C427.307 140.326 427.993 141.127 428.497 142.042C431.766 147.992 435.843 156.3 435.843 156.3L427.267 169.879L424.393 169.962C421.271 171.954 413.981 167.933 409.041 164.94C404.101 161.947 406.544 158.935 406.544 158.935C403.449 154.675 407.71 152.913 407.71 152.913C405.084 149.038 408.968 146.412 408.968 146.412" fill="#FFBE9D"/>
<path d="M410.684 96.6796L348.795 108.678L365.597 195.333L427.486 183.335L410.684 96.6796Z" fill="white"/>
<path d="M366.006 196.376C366.006 196.376 366.006 196.248 365.914 195.982C365.822 195.715 365.777 195.302 365.666 194.797C365.446 193.705 365.134 192.135 364.748 190.106C363.931 185.965 362.747 179.942 361.25 172.34C358.266 157.007 354.051 135.276 349.056 109.596L348.992 109.265L349.323 109.201L411.346 97.3206L411.713 97.2563L411.777 97.6144L428.351 184.468L428.406 184.762L428.121 184.817L382.855 193.337L370.386 195.642L367.135 196.239C366.401 196.367 366.034 196.413 366.034 196.413C366.034 196.413 366.438 196.312 367.181 196.156L370.478 195.495L382.983 193.016L427.974 184.23L427.735 184.579C423.071 160.331 417.287 130.263 411.025 97.7521L411.456 98.0459L349.433 109.899L349.699 109.504C354.538 135.129 358.633 156.796 361.525 172.101C362.949 179.749 364.078 185.8 364.858 189.977L365.731 194.742C365.822 195.265 365.896 195.66 365.942 195.982C365.976 196.111 365.998 196.243 366.006 196.376Z" fill="#263238"/>
<path d="M359.716 129.455C359.716 129.253 369.917 127.123 382.588 124.699C395.259 122.275 405.542 120.466 405.588 120.668C405.634 120.87 395.396 122.991 382.725 125.424C370.055 127.857 359.753 129.629 359.716 129.455Z" fill="#263238"/>
<path d="M360.892 135.56C360.892 135.358 371.093 133.228 383.764 130.804C396.434 128.381 406.718 126.572 406.764 126.765C406.81 126.957 396.572 129.097 383.901 131.53C371.23 133.963 360.938 135.762 360.892 135.56Z" fill="#263238"/>
<path d="M362.066 141.693C362.066 141.491 372.267 139.361 384.938 136.937C397.609 134.514 407.893 132.705 407.939 132.898C407.985 133.09 397.747 135.23 385.076 137.653C372.405 140.077 362.103 141.895 362.066 141.693Z" fill="#263238"/>
<path d="M363.242 147.817C363.242 147.615 373.443 145.485 386.114 143.061C398.785 140.637 409.069 138.829 409.115 139.022C409.161 139.214 398.923 141.354 386.252 143.777C373.581 146.201 363.279 148.019 363.242 147.817Z" fill="#263238"/>
<path d="M364.417 153.959C364.417 153.757 374.618 151.627 387.289 149.203C399.96 146.78 410.243 144.962 410.289 145.164C410.335 145.366 400.097 147.496 387.427 149.92C374.756 152.343 364.454 154.152 364.417 153.959Z" fill="#263238"/>
<path d="M365.593 160.092C365.593 159.89 375.794 157.76 388.465 155.327C401.136 152.894 411.419 151.095 411.465 151.297C411.511 151.499 401.273 153.629 388.602 156.053C375.931 158.476 365.63 160.285 365.593 160.092Z" fill="#263238"/>
<path d="M366.768 166.179C366.768 165.987 376.969 163.857 389.639 161.424C402.31 158.991 412.594 157.191 412.64 157.393C412.686 157.595 402.448 159.725 389.777 162.149C377.106 164.573 366.804 166.418 366.768 166.179Z" fill="#263238"/>
<path d="M367.943 172.349C367.943 172.156 378.144 170.026 390.815 167.593C403.486 165.16 413.77 163.361 413.816 163.563C413.862 163.765 403.624 165.895 390.953 168.319C378.282 170.743 367.98 172.551 367.943 172.349Z" fill="#263238"/>
<path d="M369.109 178.482C369.109 178.28 379.31 176.15 391.981 173.726C404.652 171.303 414.936 169.494 414.982 169.696C415.028 169.898 404.79 172.028 392.119 174.452C379.448 176.876 369.155 178.684 369.109 178.482Z" fill="#263238"/>
<path d="M402.852 102.49C403.056 102.986 403.204 103.503 403.293 104.032L404.211 108.301L404.505 109.715C404.611 110.28 404.58 110.863 404.413 111.414C404.209 112.06 403.821 112.632 403.296 113.06C402.772 113.489 402.134 113.755 401.46 113.826C400.786 113.898 400.107 113.771 399.504 113.461C398.902 113.152 398.403 112.673 398.068 112.084C397.885 111.76 397.752 111.41 397.673 111.046L397.48 110.046C397.352 109.366 397.214 108.687 397.086 107.998C396.819 106.621 396.571 105.244 396.324 103.968C396.195 103.316 396.076 102.673 395.965 102.049C395.805 101.413 395.737 100.758 395.763 100.102C395.857 98.9369 396.391 97.8509 397.258 97.066C398.125 96.2812 399.259 95.8567 400.428 95.8791C401.195 95.8961 401.944 96.1134 402.602 96.5097C403.259 96.9059 403.801 97.4671 404.174 98.1377C404.377 98.4911 404.52 98.8759 404.596 99.2761C404.642 99.5516 404.642 99.6893 404.596 99.6985C404.41 99.2089 404.183 98.736 403.917 98.2846C403.527 97.7134 403.002 97.2471 402.388 96.9268C401.775 96.6066 401.092 96.4423 400.4 96.4483C399.461 96.4515 398.55 96.7754 397.82 97.3665C397.416 97.71 397.085 98.1304 396.845 98.6033C396.606 99.0762 396.463 99.5921 396.425 100.121C396.416 100.725 396.494 101.328 396.654 101.911C396.773 102.545 396.902 103.178 397.031 103.83C397.278 105.134 397.545 106.483 397.811 107.861L398.197 109.908L398.389 110.9C398.447 111.19 398.552 111.47 398.702 111.726C398.984 112.221 399.41 112.619 399.923 112.868C400.435 113.117 401.012 113.206 401.576 113.121C402.089 113.039 402.571 112.819 402.969 112.484C403.367 112.15 403.666 111.713 403.834 111.221C403.984 110.768 404.022 110.286 403.944 109.816C403.862 109.33 403.779 108.898 403.697 108.393C403.421 106.704 403.182 105.262 402.99 104.087C402.877 103.562 402.831 103.026 402.852 102.49Z" fill="#263238"/>
<path d="M421.308 138.113C420.84 138.113 402.467 141.005 402.467 141.005C402.136 142.703 403.128 145.099 407.462 145.164C411.557 145.228 415.266 144.888 415.266 144.888C415.266 144.888 419.857 154.372 424.283 155.419C428.708 156.466 426.551 146.321 426.551 146.321L421.308 138.113Z" fill="#FFBE9D"/>
<path d="M631.902 78.2788C633.49 74.5604 635.115 70.741 635.262 66.6829C635.409 62.6249 633.747 58.2363 630.249 56.4C627.017 54.7015 623.041 55.4819 619.607 54.27C615.374 52.7643 612.693 48.495 610.82 44.2992C608.947 40.1034 611.555 38.5793 608.378 35.32C604.163 31.0049 601.409 30.3805 596.083 33.0523C592.245 30.2979 578.904 25.4135 575.057 25.2942C569.355 25.1197 562.864 25.5696 558.879 29.6644C555.784 32.8319 553.829 36.8716 550.027 39.1578C544.812 42.2977 538.165 39.626 532.077 39.8463C530.828 39.8463 529.387 40.2044 528.873 41.3429C528.432 42.3161 528.873 43.4454 529.359 44.4186L534.069 54.169C532.784 54.753 531.383 55.039 529.971 55.0056C528.559 54.9723 527.173 54.6203 525.916 53.9762C526.206 60.4597 528.767 66.6348 533.151 71.4204C532.068 70.6584 530.443 71.4204 529.91 72.6599C529.483 73.9257 529.503 75.2995 529.965 76.5527C531.026 80.4893 532.92 84.152 535.519 87.293C538.119 90.434 541.363 92.9799 545.031 94.7585C548.7 96.537 552.708 97.5067 556.784 97.6018C560.861 97.697 564.91 96.9153 568.657 95.3099L602.217 97.8347C602.679 99.1295 603.446 100.294 604.453 101.23C605.459 102.167 606.677 102.847 608.001 103.215C611.757 100.461 612.363 98.8722 612.363 98.8722C614.677 100.589 612.859 99.726 614.677 100.589C618.836 102.572 624.988 100.222 625.924 95.5853C626.16 93.7013 626.935 91.9254 628.156 90.4714C629.487 89.1218 631.388 88.6352 633.059 87.717C635.738 86.348 637.896 84.139 639.201 81.4279C637.834 81.4316 636.48 81.154 635.224 80.6122C633.968 80.0705 632.837 79.2762 631.902 78.2788Z" fill="#263238"/>
<path d="M608.157 63.8919L609.02 133.155C609.167 144.934 606.973 162.259 588.334 161.616C572.211 159.863 567.932 144.594 567.803 133.605C567.748 128.39 567.684 124.038 567.647 123.505C567.647 123.505 549.991 122.064 548.503 104.629C547.778 96.2096 547.713 78.7287 547.833 62.9187C547.901 54.7291 551.049 46.8651 556.652 40.8907C562.254 34.9163 569.9 31.2691 578.069 30.6743L579.749 30.555C597.984 30.2979 608.396 45.658 608.157 63.8919Z" fill="#FFBE9D"/>
<path d="M567.647 123.533C567.647 123.533 578.666 123.377 589.877 115.16C589.877 115.16 585.286 128.307 567.739 128.013L567.647 123.533Z" fill="#EB996E"/>
<path d="M577.646 70.0892C577.986 70.4472 580.006 68.8222 582.926 68.7487C585.846 68.6753 588.031 70.0984 588.334 69.7219C588.49 69.5567 588.123 68.914 587.177 68.2437C585.895 67.3878 584.375 66.9603 582.834 67.0226C581.308 67.0648 579.836 67.5995 578.638 68.5467C577.757 69.272 577.472 69.9331 577.646 70.0892Z" fill="#263238"/>
<path d="M577.114 76.5894C577.154 77.2048 577.433 77.7802 577.89 78.1934C578.348 78.6065 578.949 78.8249 579.565 78.8021C579.867 78.8047 580.166 78.7465 580.445 78.6312C580.723 78.5158 580.976 78.3455 581.188 78.1305C581.399 77.9155 581.565 77.6602 581.676 77.3797C581.787 77.0991 581.841 76.7992 581.833 76.4976C581.795 75.8798 581.516 75.3016 581.056 74.8877C580.595 74.4738 579.991 74.2573 579.372 74.285C579.072 74.2849 578.774 74.3448 578.497 74.4612C578.22 74.5775 577.969 74.748 577.759 74.9626C577.549 75.1772 577.383 75.4317 577.272 75.711C577.162 75.9904 577.108 76.289 577.114 76.5894Z" fill="#263238"/>
<path d="M570.329 90.4163C570.329 90.2602 568.64 90.095 565.913 89.9481C565.224 89.9481 564.563 89.8379 564.416 89.3788C564.305 88.6745 564.414 87.9531 564.728 87.3131C565.251 85.6054 565.793 83.8242 566.372 81.9513C568.64 74.3676 570.191 68.0693 569.925 67.9408C569.659 67.8122 567.519 73.9636 565.251 81.5932C564.71 83.4294 564.186 85.2657 563.691 86.9826C563.314 87.8532 563.258 88.8293 563.534 89.7369C563.653 89.9704 563.823 90.1742 564.031 90.3332C564.239 90.4921 564.481 90.6021 564.737 90.655C565.124 90.7311 565.519 90.7558 565.913 90.7285C568.64 90.6734 570.329 90.5632 570.329 90.4163Z" fill="#263238"/>
<path d="M578.886 59.1085C579.171 59.7603 581.512 59.2737 584.304 59.4115C587.095 59.5492 589.409 60.1735 589.739 59.5492C589.877 59.2554 589.446 58.6311 588.491 58.0802C587.236 57.3812 585.834 56.9863 584.399 56.9273C582.964 56.8683 581.535 57.1468 580.227 57.7405C579.235 58.2454 578.767 58.8055 578.886 59.1085Z" fill="#263238"/>
<path d="M551.139 64.5254C551.451 65.0487 553.728 64.4611 556.492 64.3785C559.256 64.2958 561.542 64.6447 561.836 64.0938C561.964 63.8368 561.515 63.3594 560.55 62.937C559.252 62.4245 557.859 62.196 556.465 62.2668C555.053 62.307 553.666 62.6482 552.397 63.2675C551.451 63.7633 551.011 64.2683 551.139 64.5254Z" fill="#263238"/>
<path d="M607.681 76.9108C607.965 76.7639 619.406 72.4946 619.902 84.4485C620.398 96.4024 608.277 94.4377 608.25 94.0888C608.222 93.7399 607.681 76.9108 607.681 76.9108Z" fill="#FFBE9D"/>
<path d="M611.712 89.4156C611.767 89.4156 611.932 89.5533 612.29 89.7002C612.788 89.8971 613.343 89.8971 613.842 89.7002C615.09 89.186 616.073 87.1386 616.045 84.981C616.033 83.9552 615.792 82.9451 615.338 82.0247C615.21 81.6552 614.994 81.322 614.71 81.0535C614.425 80.785 614.08 80.589 613.704 80.4823C613.462 80.4287 613.209 80.4619 612.989 80.576C612.769 80.6901 612.597 80.878 612.501 81.1066C612.354 81.4463 612.437 81.685 612.373 81.7034C612.308 81.7217 612.106 81.5197 612.189 81.0148C612.241 80.7186 612.393 80.4494 612.621 80.2527C612.942 79.9885 613.354 79.86 613.768 79.8947C614.263 79.9753 614.728 80.1802 615.122 80.4901C615.515 80.8001 615.824 81.2049 616.018 81.6666C616.572 82.6807 616.865 83.8164 616.872 84.9719C616.872 87.3773 615.761 89.6818 614.044 90.2602C613.728 90.3648 613.392 90.3977 613.062 90.3564C612.732 90.3151 612.415 90.2007 612.134 90.0215C611.748 89.7002 611.675 89.4339 611.712 89.4156Z" fill="#EB996E"/>
<path d="M573.148 98.6886C573.019 98.3948 575.36 97.6878 577.004 95.4935C577.692 94.5298 578.25 93.4803 578.666 92.3719C579.015 91.4538 579.272 90.958 579.401 90.9947C579.529 91.0315 579.492 91.6191 579.309 92.5647C579.053 93.8284 578.527 95.0217 577.766 96.0627C576.98 97.1073 575.922 97.9169 574.709 98.404C573.8 98.7712 573.175 98.7987 573.148 98.6886Z" fill="#263238"/>
<path d="M623.573 57.5568C621.085 53.3335 620.507 48.3022 619.139 43.6014C617.771 38.9007 615.181 34.0163 610.59 32.3729L610.489 32.4188C606.339 30.7478 601.234 30.7294 597.828 33.6031C596.992 27.3875 591.538 22.4664 585.469 20.878C579.4 19.2897 569.676 20.2353 563.855 22.5765C559.356 24.4128 555.004 28.0852 549.724 33.5389C547.474 35.8352 545.414 38.31 543.563 40.9389L538.293 57.2263C537.724 57.6587 537.226 58.1758 536.814 58.7596C534.721 61.6149 538.651 65.1864 541.295 62.8544H541.341C541.85 63.7484 542.312 64.6677 542.728 65.6087L542.819 65.7924C543.096 66.3859 543.402 66.9651 543.738 67.5276L547.814 85.5227C548.071 80.62 547.713 63.543 547.97 58.631C551.657 58.5107 555.282 57.6468 558.627 56.0912C561.972 54.5356 564.968 52.3203 567.436 49.5784C570.117 46.6129 572.229 42.8945 575.81 41.1133C580.401 38.8272 585.91 40.489 590.822 42.1875L590.62 41.9947C593.162 43.1606 595.458 44.7995 597.387 46.824C596.297 56.5278 597.302 66.3525 600.334 75.6346C600.793 77.021 602.042 79.8947 603.41 80.418C606.091 81.4555 606.817 78.7287 608.433 77.2689C609.626 76.2038 611.389 76.0661 613.317 76.0661C614.663 72.0017 615.76 67.8595 616.604 63.6623C618.227 64.1614 619.944 64.2746 621.618 63.9929L620.075 60.3204C620.716 60.7887 621.448 61.1171 622.224 61.2844C622.617 61.3607 623.024 61.3134 623.389 61.149C623.754 60.9846 624.059 60.7112 624.262 60.3663C624.721 59.4941 624.097 58.4382 623.573 57.5568Z" fill="#263238"/>
<path d="M592.301 35.6046C592.922 36.092 593.505 36.626 594.045 37.2022C595.421 38.8715 596.344 40.8665 596.726 42.9955C597.023 44.455 597.17 45.9407 597.167 47.43C597.167 49.0367 597.048 50.7536 596.928 52.5715C596.766 54.4735 596.72 56.3837 596.791 58.2914C596.851 59.3032 596.983 60.3095 597.186 61.3028C597.338 62.3794 597.761 63.3998 598.416 64.2683C598.72 64.6067 599.106 64.8606 599.537 65.0054C599.969 65.1502 600.43 65.181 600.877 65.0946C601.735 64.9361 602.517 64.4969 603.099 63.846C604.037 62.5404 604.617 61.0113 604.779 59.4115H604.412C604.937 60.7318 605.652 61.9688 606.533 63.0839C607.385 64.1076 608.598 64.7649 609.921 64.9202C610.55 64.9897 611.186 64.8816 611.757 64.608C612.278 64.3377 612.704 63.9149 612.978 63.3961C613.244 62.9268 613.375 62.3928 613.355 61.8537C613.328 61.3501 613.131 60.8707 612.795 60.4948L612.611 60.6601C613.646 61.8525 614.923 62.8103 616.357 63.4695C616.734 63.6431 617.12 63.7964 617.514 63.9286C617.649 63.9719 617.787 64.0057 617.927 64.0296C617.804 63.9621 617.675 63.9067 617.542 63.8643C617.275 63.7542 616.89 63.5981 616.412 63.3502C615.028 62.6533 613.798 61.6855 612.795 60.504L612.611 60.6693C612.898 61.0347 613.064 61.4806 613.085 61.9447C613.107 62.4089 612.983 62.8681 612.73 63.2584C612.474 63.7157 612.087 64.0864 611.619 64.3234C611.113 64.5609 610.55 64.6531 609.994 64.5896C608.759 64.428 607.633 63.8007 606.845 62.836C605.991 61.7491 605.301 60.5427 604.797 59.2554L604.549 58.6953L604.43 59.3013C604.278 60.8306 603.727 62.2931 602.832 63.543C602.312 64.1221 601.615 64.5127 600.849 64.6539C600.47 64.7319 600.076 64.7084 599.709 64.5859C599.341 64.4634 599.012 64.2462 598.756 63.9561C598.153 63.1471 597.761 62.2004 597.617 61.2018C597.412 60.2278 597.283 59.2394 597.231 58.2454C597.154 56.3538 597.187 54.4592 597.332 52.5715C597.452 50.7352 597.562 49.0367 597.544 47.4116C597.536 45.8983 597.367 44.3901 597.039 42.9129C596.631 40.7508 595.651 38.7375 594.201 37.0828C593.657 36.485 593.014 35.9851 592.301 35.6046Z" fill="#455A64"/>
<path d="M538.339 52.5715C538.339 52.5715 538.339 52.6174 538.477 52.6908L538.908 53.0122C539.144 53.1898 539.392 53.3494 539.652 53.4896C539.993 53.6954 540.346 53.8824 540.708 54.0496C543.042 55.1003 545.6 55.5607 548.154 55.3901C551.964 55.1369 555.619 53.7847 558.677 51.4973C562.371 48.677 565.448 45.1307 567.721 41.0766C568.988 38.965 570.025 36.7982 571.164 34.7967C572.206 32.8512 573.52 31.0643 575.066 29.49C576.458 28.0689 578.185 27.0207 580.089 26.4418C580.951 26.1976 581.847 26.0953 582.742 26.1388C583.566 26.1889 584.381 26.3432 585.166 26.5979C586.533 27.0587 587.785 27.8069 588.839 28.7922C589.629 29.5298 590.293 30.392 590.804 31.3446C591.217 32.1756 591.525 33.0545 591.722 33.9612C591.722 33.9612 591.722 33.8969 591.722 33.7776C591.722 33.6582 591.667 33.4562 591.639 33.2451C591.5 32.5627 591.278 31.8999 590.978 31.2711C589.793 28.9625 587.769 27.195 585.322 26.3316C584.513 26.0513 583.67 25.8785 582.816 25.8175C581.888 25.7719 580.958 25.871 580.061 26.1113C578.095 26.6962 576.308 27.7666 574.864 29.2237C573.284 30.8162 571.942 32.6282 570.879 34.6039C569.732 36.6146 568.694 38.7813 567.436 40.8655C565.188 44.8724 562.156 48.3853 558.52 51.1943C555.511 53.4615 551.912 54.8131 548.154 55.0871C545.645 55.2872 543.125 54.8778 540.809 53.8936C539.96 53.502 539.135 53.0605 538.339 52.5715Z" fill="#455A64"/>
<path d="M536.751 44.9144C536.94 45.0839 537.15 45.2289 537.375 45.3459C537.963 45.6984 538.577 46.0053 539.212 46.264C540.162 46.6477 541.141 46.9547 542.141 47.1821C543.376 47.4557 544.632 47.6215 545.896 47.6779C547.159 47.7087 548.423 47.6227 549.67 47.4208C550.684 47.2466 551.682 46.9886 552.654 46.6496C553.314 46.4479 553.958 46.1994 554.582 45.9059C555.014 45.6764 555.252 45.5387 555.234 45.5111C555.216 45.4836 554.233 45.9427 552.58 46.4293C551.613 46.7257 550.625 46.9497 549.624 47.0995C548.408 47.2777 547.179 47.3514 545.951 47.3198C544.717 47.2718 543.488 47.1213 542.278 46.87C541.287 46.6361 540.314 46.3292 539.368 45.9518C537.715 45.401 536.788 44.8409 536.751 44.9144Z" fill="#455A64"/>
<path d="M551.01 71.1909C551.358 71.549 553.369 69.9239 556.289 69.8505C559.209 69.777 561.394 71.2001 561.697 70.8237C561.853 70.6584 561.495 70.0157 560.54 69.3455C559.26 68.4851 557.739 68.0543 556.197 68.1152C554.67 68.1548 553.198 68.6897 552.001 69.6393C551.129 70.3738 550.844 71.0348 551.01 71.1909Z" fill="#263238"/>
<path d="M552.662 76.9842C552.7 77.5988 552.977 78.1742 553.433 78.5876C553.89 79.001 554.489 79.2196 555.105 79.1969C555.406 79.1982 555.705 79.1392 555.984 79.0235C556.263 78.9078 556.515 78.7377 556.728 78.523C556.94 78.3084 557.107 78.0537 557.219 77.7737C557.331 77.4937 557.387 77.1941 557.382 76.8924C557.344 76.2779 557.067 75.7025 556.611 75.2891C556.155 74.8757 555.555 74.657 554.94 74.6798C554.638 74.6785 554.339 74.7374 554.06 74.8532C553.782 74.9689 553.529 75.139 553.317 75.3536C553.105 75.5682 552.938 75.823 552.825 76.103C552.713 76.383 552.658 76.6826 552.662 76.9842Z" fill="#263238"/>
<path d="M539.413 141.758L476.325 183.073L437.881 153.069L425.944 172.028C425.944 172.028 448.33 197.928 456.621 206.724C464.912 215.519 470.449 220.22 476.986 219.375C483.524 218.531 538.155 197.34 538.155 197.34L546.419 139.435L542.948 140.27C541.694 140.562 540.499 141.065 539.413 141.758Z" fill="#496197"/>
<path d="M609.828 127.618C595.716 136.487 581.493 139.829 567.078 134.045L545.427 139.554L534.896 157.916C533.234 160.794 532.479 164.106 532.729 167.419L536.87 237.471L524.116 281.973L649.053 283.056L642.901 250.004L627.412 131.236L609.828 127.618Z" fill="#496197"/>
<path d="M628.954 184.542L625.043 130.905C625.043 130.905 654.425 133.66 664.185 154.372C672.384 171.863 696.992 222.68 699.416 229.879C706.532 250.995 693.447 281.798 647.658 280.118L642.433 251.408L628.954 184.542Z" fill="#496197"/>
<path d="M652.423 229.208C652.605 229.933 652.851 230.639 653.157 231.32C653.653 232.605 654.406 234.35 655.269 236.269C656.132 238.187 656.867 239.822 657.473 241.171C657.75 241.865 658.072 242.54 658.437 243.191C658.255 242.467 658.009 241.76 657.702 241.08C657.197 239.794 656.454 238.041 655.591 236.122C654.728 234.203 653.993 232.569 653.387 231.219C653.112 230.528 652.79 229.856 652.423 229.208Z" fill="#263238"/>
<path d="M636.153 186.984C636.245 186.984 636.328 183.587 636.328 179.391C636.328 175.195 636.245 171.798 636.153 171.798C636.062 171.798 635.97 175.205 635.97 179.391C635.97 183.578 636.052 186.984 636.153 186.984Z" fill="#263238"/>
<path d="M640.478 164.15C640.592 163.874 640.681 163.589 640.744 163.297C640.891 162.746 641.12 161.956 641.442 160.992C643.105 155.946 645.832 151.315 649.439 147.413C650.128 146.66 650.697 146.073 651.11 145.678C651.335 145.484 651.542 145.269 651.725 145.035C651.471 145.19 651.234 145.371 651.018 145.577C650.578 145.944 649.972 146.495 649.255 147.239C647.396 149.162 645.769 151.298 644.407 153.601C643.049 155.913 641.973 158.379 641.203 160.946C640.918 161.929 640.716 162.736 640.615 163.297C640.539 163.575 640.493 163.862 640.478 164.15Z" fill="#263238"/>
<path d="M536.723 160.827C536.84 161.404 536.896 161.992 536.888 162.58C536.961 163.71 536.971 165.335 536.943 167.373C536.888 171.422 536.475 176.995 536.025 183.128C535.575 189.261 535.3 194.825 535.401 198.855C535.446 200.866 535.52 202.528 535.612 203.62C535.697 204.201 535.712 204.79 535.658 205.374C535.487 204.812 535.376 204.233 535.327 203.648C535.153 202.528 534.997 200.893 534.886 198.874C534.677 193.604 534.812 188.325 535.29 183.073C535.786 176.931 536.282 171.385 536.466 167.355C536.567 165.344 536.631 163.682 536.649 162.58C536.607 161.995 536.632 161.407 536.723 160.827Z" fill="#263238"/>
<path d="M671.191 239.069C670.546 239.495 669.871 239.872 669.171 240.198C667.867 240.896 665.994 241.933 663.717 243.292C661.439 244.651 658.758 246.331 655.618 247.947C654.057 248.764 652.386 249.563 650.632 250.325L645.123 252.593L643.443 253.281L643.673 252.877C644.866 260.479 645.913 267.273 646.62 272.158C646.951 274.517 647.217 276.464 647.428 277.96C647.554 278.664 647.622 279.376 647.63 280.09C647.403 279.41 647.243 278.709 647.153 277.997C646.886 276.519 646.547 274.582 646.124 272.231C645.279 267.347 644.159 260.562 642.947 252.951V252.666L643.214 252.556L644.894 251.858L650.357 249.618C652.102 248.874 653.763 248.085 655.324 247.304C658.446 245.725 661.146 244.1 663.469 242.796C665.792 241.493 667.701 240.51 669.06 239.895C669.731 239.574 670.263 239.363 670.63 239.216C670.998 239.069 671.191 239.041 671.191 239.069Z" fill="#263238"/>
<path d="M677.82 229.879C677.82 230.007 676.341 230.292 674.046 231.146C668.037 233.396 662.957 237.599 659.621 243.081C658.345 245.165 657.785 246.588 657.666 246.542C657.546 246.496 657.721 246.157 657.95 245.496C658.286 244.571 658.695 243.675 659.171 242.815C662.351 237.054 667.603 232.718 673.862 230.686C674.797 230.381 675.755 230.151 676.727 229.998C677.434 229.86 677.811 229.823 677.82 229.879Z" fill="#263238"/>
<path d="M630.221 282.523L660.925 208.459C662.33 205.08 660.567 202.335 656.995 202.335H650.825C648.3 202.335 646.583 200.949 646.418 198.782L646.216 196.027C646.051 193.861 644.38 192.474 641.809 192.474H612.427C609.868 192.595 607.445 193.666 605.632 195.477L603.245 197.79C601.438 199.604 599.017 200.675 596.46 200.792H559.108C557.203 200.9 555.364 201.528 553.79 202.608C552.217 203.687 550.969 205.177 550.183 206.916L519.755 282.496L630.221 282.523Z" fill="#FFA65B"/>
<g opacity="0.3">
<path opacity="0.3" d="M630.221 282.523L660.925 208.459C662.33 205.08 660.567 202.335 656.995 202.335H650.825C648.3 202.335 646.583 200.949 646.418 198.782L646.216 196.027C646.051 193.861 644.38 192.474 641.809 192.474H612.427C609.868 192.595 607.445 193.666 605.632 195.477L603.245 197.79C601.438 199.604 599.017 200.675 596.46 200.792H559.108C557.203 200.9 555.364 201.528 553.79 202.608C552.217 203.687 550.969 205.177 550.183 206.916L519.755 282.496L630.221 282.523Z" fill="black"/>
</g>
<path d="M635.299 257.367L646.878 212.6C647.64 209.652 645.712 206.696 643.021 206.696H552.268C551.344 206.74 550.462 207.092 549.761 207.696C549.06 208.3 548.582 209.121 548.403 210.029L531.545 277.41C530.81 280.366 531.995 282.138 534.685 282.11H625.998C626.908 282.054 627.775 281.7 628.463 281.103C629.152 280.506 629.625 279.698 629.809 278.805L635.299 257.367Z" fill="#E0E0E0"/>
<path d="M629.028 280.494L633.959 210.001C633.994 209.412 633.908 208.823 633.707 208.268C633.506 207.714 633.194 207.206 632.79 206.776C632.386 206.346 631.899 206.004 631.358 205.769C630.817 205.534 630.233 205.412 629.643 205.411H535.612V280.531L629.028 280.494Z" fill="#EBEBEB"/>
<path d="M630.084 282.11L618.854 209.432C618.593 208.274 617.943 207.24 617.013 206.502C616.082 205.764 614.928 205.366 613.74 205.374H518.653C517.797 205.362 516.951 205.563 516.192 205.961C515.433 206.359 514.786 206.94 514.309 207.652C513.832 208.363 513.54 209.182 513.46 210.035C513.38 210.888 513.514 211.748 513.851 212.535L534.382 279.044L630.084 282.11Z" fill="#FAFAFA"/>
<path d="M630.222 282.487L607.157 214.427C606.717 213.063 605.86 211.873 604.706 211.023C603.553 210.173 602.162 209.706 600.73 209.689H502.677C501.926 209.712 501.19 209.912 500.53 210.272C499.87 210.632 499.303 211.143 498.877 211.762C498.451 212.381 498.176 213.093 498.075 213.838C497.975 214.583 498.051 215.341 498.297 216.052L519.755 282.523L630.222 282.487Z" fill="#FFA65B"/>
<g opacity="0.3">
<path opacity="0.3" d="M582.807 271.093C582.807 271.093 586.479 271.258 588.224 271.377C596.406 271.929 604.6 270.479 612.097 267.154C614.401 266.126 616.844 264.675 617.541 262.242C618.322 259.488 616.559 256.733 614.41 254.851C612.262 252.969 609.654 251.702 607.79 249.572C605.926 247.442 605.036 243.999 606.872 241.842L607.377 242.218C608.708 245.578 612.4 247.194 615.457 249.122C621.157 252.749 625.386 258.279 627.393 264.73C628.468 268.256 628.752 272.369 626.613 275.371C625.098 277.501 622.619 278.713 620.186 279.622C612.767 282.376 604.843 282.477 596.928 282.487C594.431 282.487 586.755 282.376 586.755 282.376C584.34 281.725 583.541 280.467 582.09 278.438C580.75 276.602 581.044 272.553 582.807 271.093Z" fill="black"/>
</g>
<path d="M582.807 271.093L608.387 267.246L618.322 261.535C618.972 261.17 619.52 260.65 619.918 260.02C620.315 259.39 620.549 258.67 620.599 257.927C620.595 257.9 620.595 257.872 620.599 257.844C620.619 256.924 620.362 256.018 619.861 255.245C619.36 254.472 618.638 253.868 617.789 253.511C614.631 252.189 609.645 250.417 607.515 246.689C604.457 241.337 607.515 240.262 607.515 240.262L628.872 248.801L643.994 259.084L647.033 276.244L625.915 283.129C625.915 283.129 602.401 284.461 595.918 283.735C589.436 283.01 589.427 279.98 589.427 279.98C588.224 279.604 585.754 277.465 585.754 275.472C582.605 272.525 582.733 271.13 582.733 271.13" fill="#FFBE9D"/>
<path d="M615.521 278.474C615.167 278.507 614.816 278.574 614.475 278.676C613.804 278.842 612.831 279.053 611.628 279.292C608.492 279.918 605.312 280.299 602.116 280.43C598.918 280.553 595.716 280.421 592.539 280.035C591.318 279.898 590.327 279.76 589.656 279.65C589.305 279.564 588.944 279.524 588.582 279.53C588.918 279.658 589.265 279.753 589.62 279.815C590.29 279.971 591.272 280.164 592.493 280.347C598.885 281.286 605.395 281.031 611.693 279.595C612.895 279.319 613.86 279.053 614.512 278.842C614.86 278.754 615.198 278.631 615.521 278.474Z" fill="#EB996E"/>
<path d="M613.189 274.517C612.824 274.544 612.464 274.611 612.115 274.719C611.445 274.885 610.453 275.096 609.232 275.335C606.045 275.945 602.815 276.304 599.572 276.409C596.325 276.503 593.074 276.353 589.849 275.959C588.609 275.812 587.609 275.674 586.92 275.564C586.552 275.483 586.177 275.439 585.8 275.436C586.14 275.571 586.494 275.67 586.856 275.729C587.535 275.895 588.536 276.078 589.766 276.271C593.002 276.754 596.275 276.945 599.545 276.84C602.813 276.743 606.065 276.343 609.259 275.647C610.49 275.371 611.472 275.105 612.133 274.894C612.497 274.805 612.851 274.678 613.189 274.517Z" fill="#EB996E"/>
<path d="M440.452 236.351H110.99V481.021H440.452V236.351Z" fill="white"/>
<path d="M440.452 481.03C440.452 478.542 440.332 384.471 440.149 236.351L440.452 236.654L111.017 236.728L111.385 236.351C111.385 324.243 111.385 407.516 111.385 481.03L111.054 480.699L440.516 481.03L111.054 481.36H110.714V481.03C110.714 407.516 110.714 324.243 110.714 236.351V235.956H111.109L440.544 236.03H440.727V236.324C440.571 384.471 440.452 478.542 440.452 481.03Z" fill="#263238"/>
<path d="M439.892 270.56C439.892 270.762 366.869 270.928 276.804 270.928C186.74 270.928 113.689 270.762 113.689 270.56C113.689 270.358 186.703 270.193 276.804 270.193C366.906 270.193 439.892 270.358 439.892 270.56Z" fill="#E0E0E0"/>
<path d="M132.54 252.703C132.54 253.662 132.255 254.599 131.723 255.396C131.19 256.193 130.433 256.815 129.547 257.182C128.661 257.549 127.686 257.645 126.746 257.457C125.806 257.27 124.942 256.809 124.264 256.131C123.586 255.453 123.124 254.589 122.937 253.649C122.75 252.708 122.846 251.734 123.213 250.848C123.58 249.962 124.201 249.205 124.998 248.672C125.796 248.14 126.733 247.855 127.692 247.855C128.978 247.855 130.211 248.366 131.12 249.275C132.029 250.184 132.54 251.417 132.54 252.703Z" fill="#E0E0E0"/>
<path d="M147.139 252.703C147.146 253.664 146.867 254.606 146.338 255.409C145.808 256.212 145.052 256.839 144.165 257.21C143.278 257.582 142.301 257.682 141.357 257.497C140.414 257.311 139.547 256.85 138.866 256.171C138.186 255.491 137.722 254.625 137.535 253.682C137.348 252.739 137.446 251.761 137.816 250.874C138.186 249.986 138.812 249.229 139.614 248.698C140.415 248.167 141.357 247.887 142.318 247.892C143.594 247.897 144.816 248.405 145.718 249.306C146.621 250.207 147.131 251.428 147.139 252.703Z" fill="#E0E0E0"/>
<path d="M161.747 252.703C161.747 253.662 161.462 254.599 160.93 255.396C160.397 256.193 159.64 256.815 158.754 257.182C157.868 257.548 156.893 257.645 155.953 257.457C155.013 257.27 154.149 256.809 153.471 256.131C152.793 255.453 152.331 254.589 152.144 253.649C151.957 252.708 152.053 251.734 152.42 250.848C152.787 249.962 153.408 249.205 154.205 248.672C155.003 248.14 155.94 247.855 156.899 247.855C157.536 247.854 158.167 247.979 158.755 248.222C159.344 248.465 159.879 248.822 160.33 249.272C160.78 249.723 161.137 250.258 161.38 250.846C161.623 251.435 161.748 252.066 161.747 252.703Z" fill="#E0E0E0"/>
<path d="M293.313 230.888C292.212 226.904 290.045 223.002 286.482 220.918C284.784 219.935 282.855 219.403 281.138 218.466C279.063 217.328 277.346 215.638 275.4 214.298C272.999 212.634 270.27 211.504 267.396 210.983C264.522 210.462 261.569 210.563 258.738 211.279C255.906 211.995 253.26 213.309 250.979 215.133C248.698 216.958 246.834 219.249 245.513 221.854C241.491 218.797 234.495 220.091 229.775 221.799C225.056 223.507 221.043 229.144 219.905 234.093L242.198 240.841C246.661 245.716 251.619 250.233 257.431 253.382C263.243 256.532 269.992 258.221 276.52 257.238C283.048 256.256 289.292 252.345 292.239 246.432C294.608 241.676 294.737 236.012 293.313 230.888Z" fill="#263238"/>
<path d="M309.133 304.668C314.799 300.711 316.157 291.815 311.943 286.306C310.685 284.672 308.959 283.203 308.683 281.165C308.627 279.899 308.811 278.634 309.225 277.437C310.165 273.32 309.902 269.021 308.468 265.049C307.034 261.077 304.489 257.602 301.136 255.035C301.017 250.444 298.455 240.795 292.661 237.104L266.309 240.777C267.534 268.522 267.454 296.283 266.071 324.059C265.859 328.31 265.703 332.882 268.036 336.445C271.332 341.503 278.209 342.55 284.241 342.706C290.017 342.853 295.893 342.605 301.347 340.695C306.801 338.786 311.805 335.012 314.092 329.678C317.599 321.599 314.018 312.16 309.133 304.668Z" fill="#263238"/>
<path d="M228.783 248.553L227.984 242.65L262.747 231.797C273.572 229.383 286.684 238.995 288.649 249.921C290.825 262.049 293.001 276.941 292.597 286.223C291.798 304.898 278.016 308.846 278.016 308.846L279.421 319.909C280.107 325.288 278.629 330.719 275.311 335.008C271.993 339.297 267.107 342.093 261.728 342.78C256.361 343.465 250.942 341.995 246.656 338.693C242.371 335.39 239.57 330.525 238.865 325.161L228.783 248.553Z" fill="#FFBE9D"/>
<path d="M286.261 263.647C286.333 264.255 286.165 264.867 285.793 265.354C285.421 265.84 284.875 266.163 284.269 266.254C283.973 266.313 283.669 266.311 283.374 266.25C283.078 266.188 282.799 266.069 282.55 265.898C282.302 265.727 282.091 265.507 281.929 265.253C281.767 264.999 281.657 264.715 281.606 264.418C281.527 263.806 281.692 263.186 282.064 262.694C282.437 262.201 282.988 261.874 283.599 261.783C283.896 261.725 284.203 261.728 284.5 261.791C284.796 261.854 285.077 261.976 285.326 262.15C285.574 262.324 285.785 262.546 285.946 262.803C286.107 263.06 286.214 263.347 286.261 263.647Z" fill="#263238"/>
<path d="M285.664 258.147C285.407 258.487 283.479 257.376 280.945 257.679C278.411 257.982 276.712 259.451 276.354 259.176C276.198 259.056 276.437 258.469 277.171 257.78C278.179 256.895 279.437 256.343 280.771 256.201C282.086 256.048 283.417 256.315 284.572 256.963C285.462 257.477 285.793 257.991 285.664 258.147Z" fill="#263238"/>
<path d="M262.646 266.86C262.72 267.471 262.553 268.087 262.181 268.577C261.81 269.067 261.262 269.393 260.654 269.486C260.357 269.544 260.052 269.543 259.757 269.482C259.461 269.421 259.18 269.301 258.931 269.13C258.682 268.959 258.47 268.74 258.307 268.486C258.144 268.232 258.033 267.947 257.982 267.65C257.905 267.038 258.071 266.42 258.443 265.928C258.815 265.436 259.364 265.108 259.974 265.015C260.271 264.957 260.577 264.959 260.873 265.02C261.169 265.082 261.45 265.202 261.699 265.374C261.948 265.546 262.16 265.766 262.323 266.022C262.485 266.277 262.595 266.562 262.646 266.86Z" fill="#263238"/>
<path d="M260.847 261.48C260.589 261.82 258.661 260.709 256.127 261.012C253.593 261.315 251.894 262.784 251.582 262.508C251.435 262.389 251.665 261.802 252.408 261.113C253.411 260.225 254.667 259.673 255.999 259.534C257.314 259.381 258.645 259.648 259.8 260.296C260.645 260.81 260.975 261.333 260.847 261.48Z" fill="#263238"/>
<path d="M272.186 279.191C272.186 279.044 273.701 278.594 276.217 277.979C276.85 277.832 277.447 277.639 277.502 277.18C277.476 276.517 277.252 275.878 276.859 275.344L274.38 270.643C270.919 263.95 268.339 258.404 268.605 258.276C268.871 258.147 271.901 263.454 275.363 270.156L277.759 274.894C278.257 275.626 278.478 276.511 278.383 277.391C278.319 277.626 278.203 277.843 278.044 278.027C277.885 278.211 277.688 278.358 277.465 278.456C277.117 278.594 276.753 278.687 276.382 278.732C273.802 279.108 272.213 279.328 272.186 279.191Z" fill="#263238"/>
<path d="M278.007 308.892C269.191 310.052 260.225 308.782 252.078 305.219C252.078 305.219 259.744 317.348 278.521 313.482L278.007 308.892Z" fill="#EB996E"/>
<path d="M271.782 285.406C271.231 284.857 270.549 284.456 269.8 284.243C269.052 284.029 268.261 284.009 267.503 284.185C266.953 284.296 266.432 284.516 265.968 284.831C265.505 285.147 265.109 285.551 264.804 286.021C264.513 286.482 264.372 287.02 264.398 287.564C264.424 288.108 264.617 288.63 264.95 289.06C265.41 289.467 265.98 289.728 266.588 289.809C267.197 289.891 267.815 289.79 268.366 289.519C269.511 288.956 270.535 288.173 271.378 287.215C271.637 286.98 271.852 286.7 272.011 286.389C272.083 286.241 272.111 286.076 272.091 285.913C272.072 285.751 272.006 285.597 271.901 285.471" fill="#EB996E"/>
<path d="M264.941 281.798C265.354 281.725 265.676 284.47 268.247 286.15C270.818 287.83 273.756 287.187 273.756 287.573C273.82 287.738 273.168 288.179 271.919 288.353C270.316 288.563 268.69 288.198 267.328 287.325C266.02 286.485 265.091 285.167 264.739 283.653C264.528 282.514 264.758 281.798 264.941 281.798Z" fill="#263238"/>
<path d="M260.36 251.491C260.194 252.207 257.605 252.17 254.704 252.877C251.802 253.584 249.461 254.659 249.002 254.089C248.79 253.814 249.13 253.116 250.021 252.336C251.221 251.373 252.623 250.695 254.123 250.353C255.623 250.011 257.181 250.014 258.679 250.362C259.845 250.646 260.433 251.151 260.36 251.491Z" fill="#263238"/>
<path d="M283.893 250.94C283.516 251.564 281.698 251.17 279.605 251.381C277.511 251.592 275.776 252.207 275.299 251.656C275.087 251.381 275.299 250.738 276.015 250.141C276.982 249.37 278.156 248.903 279.389 248.8C280.621 248.697 281.856 248.963 282.938 249.563C283.718 250.068 284.058 250.646 283.893 250.94Z" fill="#263238"/>
<path d="M232.722 230.145C229.123 231.329 225.046 241.162 226.102 244.835C227.158 248.507 230.555 251.124 234.237 252.051C237.919 252.978 241.822 252.428 245.448 251.326C250.581 249.765 255.989 246.23 256.356 240.887C258.898 243.384 262.035 245.19 265.471 246.133C268.907 247.076 272.527 247.126 275.987 246.276C282.855 244.495 287.923 233.983 289.888 227.152L232.722 230.145Z" fill="#263238"/>
<path d="M268.302 266.952C268.219 266.952 268.302 266.034 267.843 264.455C267.228 262.233 265.89 260.278 264.042 258.9C262.78 257.965 261.319 257.336 259.772 257.064C257.999 256.748 256.173 256.91 254.483 257.532C252.616 258.21 250.995 259.432 249.828 261.039C248.563 262.758 247.881 264.836 247.881 266.97C247.881 269.105 248.563 271.183 249.828 272.902C250.994 274.512 252.615 275.737 254.483 276.418C256.065 277.004 257.769 277.183 259.439 276.941C261.109 276.699 262.691 276.043 264.042 275.032C265.889 273.652 267.226 271.698 267.843 269.477C268.265 267.898 268.219 266.97 268.302 266.97C268.355 267.19 268.37 267.416 268.348 267.641C268.346 268.281 268.269 268.919 268.118 269.541C267.591 271.886 266.263 273.974 264.363 275.445C263.238 276.314 261.951 276.95 260.577 277.315C259.203 277.68 257.77 277.766 256.362 277.569C254.954 277.373 253.599 276.897 252.378 276.169C251.157 275.442 250.093 274.477 249.25 273.333C247.885 271.494 247.148 269.265 247.148 266.975C247.148 264.685 247.885 262.456 249.25 260.617C250.505 258.9 252.249 257.601 254.254 256.89C256.058 256.247 258.001 256.098 259.882 256.458C261.515 256.774 263.048 257.476 264.354 258.505C266.259 259.976 267.588 262.069 268.109 264.418C268.26 265.044 268.337 265.684 268.339 266.328C268.36 266.537 268.347 266.747 268.302 266.952Z" fill="#455A64"/>
<path d="M294.341 262.261C294.259 262.261 294.296 261.342 293.873 259.763C293.262 257.539 291.924 255.584 290.072 254.209C288.813 253.27 287.35 252.641 285.802 252.372C284.032 252.056 282.21 252.217 280.523 252.841C278.654 253.516 277.032 254.738 275.868 256.348C274.957 257.608 274.349 259.062 274.092 260.596C273.835 262.129 273.936 263.702 274.386 265.19C274.837 266.678 275.625 268.043 276.689 269.176C277.754 270.31 279.066 271.183 280.523 271.726C282.105 272.312 283.809 272.492 285.478 272.25C287.148 272.008 288.73 271.351 290.081 270.34C291.926 268.96 293.26 267.006 293.873 264.785C294.296 263.206 294.259 262.279 294.341 262.279C294.375 262.501 294.375 262.727 294.341 262.949C294.339 263.589 294.265 264.226 294.121 264.85C293.586 267.193 292.256 269.279 290.357 270.753C289.047 271.774 287.515 272.473 285.885 272.791C284.001 273.156 282.054 273.007 280.247 272.36C278.243 271.653 276.499 270.357 275.243 268.642C273.878 266.803 273.142 264.573 273.142 262.284C273.142 259.994 273.878 257.764 275.243 255.926C276.501 254.211 278.244 252.912 280.247 252.198C282.055 251.555 284.001 251.406 285.885 251.766C287.881 252.153 289.723 253.108 291.189 254.517C292.655 255.926 293.683 257.729 294.149 259.708C294.293 260.335 294.367 260.975 294.369 261.618C294.392 261.832 294.382 262.049 294.341 262.261Z" fill="#455A64"/>
<path d="M266.75 261.232C266.668 261.232 266.649 260.736 266.998 260.057C267.23 259.613 267.548 259.219 267.933 258.898C268.318 258.576 268.762 258.334 269.24 258.185C269.719 258.036 270.222 257.982 270.721 258.028C271.22 258.073 271.706 258.217 272.149 258.45C272.82 258.808 273.067 259.212 273.067 259.277C273.067 259.341 272.627 259.121 271.993 258.928C271.19 258.651 270.32 258.638 269.509 258.891C268.698 259.143 267.989 259.648 267.485 260.332C267.026 260.856 266.861 261.26 266.75 261.232Z" fill="#455A64"/>
<path d="M247.156 269.413C247.23 269.606 245.439 270.377 243.153 271.148C240.867 271.919 238.975 272.369 238.92 272.176C238.865 271.983 240.646 271.203 242.914 270.441C245.182 269.679 247.083 269.22 247.156 269.413Z" fill="#455A64"/>
<path d="M427.368 301.143C430.407 299.968 429.149 296.809 429.149 296.809L417.846 300.206C417.846 300.206 423.851 297.783 426.918 295.267C429.985 292.751 428.461 290.566 428.461 290.566L416.855 295.01L410.271 298.893L393.744 324.05C393.744 324.05 406.599 330.348 408.903 328.53C412.916 325.344 415.101 318.211 415.992 314.584C417.608 314.116 422.694 312.61 424.072 311.692C425.089 310.984 425.918 310.039 426.486 308.938L417.516 310.645C418.82 310.269 427.138 307.423 427.8 306.404C428.956 304.613 428.231 303.815 428.231 303.815L416.956 305.577L418.113 304.724C418.113 304.724 424.439 302.226 427.368 301.143Z" fill="#FFBE9D"/>
<path d="M385.857 327.291L347.926 362.014C343.216 360.931 285.49 326.409 285.49 326.409L276.373 370.828C276.373 370.828 335.476 398.004 351.746 394.699C354.4 394.157 358.77 393.781 361.506 390.301C374.517 373.573 402.127 332.203 402.127 332.203L385.857 327.291Z" fill="#FFBE9D"/>
<path d="M411.62 325.556L404.78 322.25L409.729 313.29L413.604 305.091L419.609 293.936L410.427 297.369C409.35 297.839 408.405 298.564 407.672 299.481L392.614 320.295L385.93 327.098L392.357 344.451L399.932 332.616L404.367 331.588C408.82 330.523 411.62 325.556 411.62 325.556Z" fill="#FFBE9D"/>
<path d="M400.621 311.462C403.769 309.878 407.058 308.59 410.445 307.616C411.534 307.233 412.692 307.083 413.842 307.175C414.417 307.234 414.963 307.454 415.418 307.81C415.872 308.166 416.218 308.642 416.413 309.186C416.521 309.832 416.427 310.496 416.144 311.087C415.862 311.678 415.405 312.168 414.834 312.491C413.688 313.117 412.447 313.555 411.161 313.785C409.863 314.029 408.672 314.671 407.755 315.622C407.073 316.647 406.579 317.784 406.295 318.982C405.595 320.867 404.427 322.544 402.901 323.854C401.376 325.165 399.542 326.066 397.572 326.474" fill="#FFBE9D"/>
<path d="M397.572 326.446C397.572 326.382 398.178 326.253 399.225 325.84C400.691 325.245 402.029 324.372 403.164 323.27C403.941 322.513 404.611 321.654 405.156 320.717C405.754 319.613 406.219 318.442 406.543 317.228C406.755 316.532 407.101 315.883 407.562 315.319C408.072 314.755 408.698 314.31 409.398 314.015C410.803 313.4 412.355 313.253 413.723 312.684C414.393 312.434 414.99 312.02 415.458 311.481C415.908 310.976 416.15 310.32 416.138 309.645C416.074 308.35 414.696 307.505 413.494 307.432C412.257 307.423 411.029 307.635 409.867 308.056C408.728 308.387 407.672 308.727 406.717 309.057C404.808 309.727 403.293 310.352 402.246 310.792C401.714 311.048 401.165 311.266 400.602 311.444C401.075 311.078 401.59 310.77 402.136 310.526C403.573 309.804 405.047 309.157 406.552 308.589C407.47 308.222 408.563 307.854 409.711 307.496C410.936 307.029 412.237 306.79 413.549 306.789C414.298 306.838 415.018 307.099 415.624 307.542C415.958 307.774 416.237 308.077 416.44 308.429C416.643 308.782 416.766 309.175 416.799 309.58C416.761 310.407 416.47 311.203 415.966 311.859C415.462 312.516 414.769 313.002 413.98 313.253C412.474 313.859 410.95 313.997 409.665 314.566C409.04 314.811 408.478 315.194 408.021 315.686C407.608 316.187 407.296 316.764 407.103 317.384C406.75 318.627 406.251 319.823 405.616 320.947C405.027 321.917 404.304 322.798 403.467 323.563C402.266 324.674 400.842 325.516 399.289 326.033C398.872 326.172 398.446 326.279 398.013 326.354C397.872 326.41 397.723 326.441 397.572 326.446Z" fill="#EB996E"/>
<path d="M281.175 451.393H203.432C203.432 451.393 191.955 465.835 184.389 480.883L295.186 481.342C297.362 477.78 281.175 451.393 281.175 451.393Z" fill="#263238"/>
<path d="M304.157 380.716C301.522 345.919 292.9 324.096 292.9 324.096L279.43 319.955C277.401 328.852 262.903 331.79 254.64 327.897L245.908 323.306C217.885 319.101 219.335 321.424 212.853 325.317C207.225 328.705 207.748 353.944 207.748 353.944C207.748 353.944 193.737 419.699 194.535 430.249C195.334 440.798 203.433 451.365 203.433 451.365H281.175C288.998 451.365 291.229 433.664 290.687 427.246C290.146 420.829 305.02 392.147 304.157 380.716Z" fill="#DB7887"/>
<path d="M230.335 402.623C230.713 403.052 231.152 403.423 231.639 403.724C232.899 404.634 234.246 405.419 235.66 406.065C237.763 407.045 239.996 407.716 242.29 408.058C245.116 408.47 247.994 408.346 250.774 407.691C255.798 406.414 260.367 403.762 263.968 400.033C265.068 398.936 266.083 397.757 267.007 396.508C267.377 396.071 267.686 395.586 267.925 395.066C267.806 394.975 266.401 396.958 263.582 399.657C259.956 403.163 255.483 405.668 250.599 406.928C245.682 408.046 240.537 407.57 235.908 405.57C232.3 404.018 230.464 402.485 230.335 402.623Z" fill="#263238"/>
<path d="M266.622 396.857C266.074 402.802 263.204 408.292 258.634 412.134C256.341 414.005 253.64 415.308 250.749 415.938C247.858 416.569 244.859 416.508 241.996 415.761C239.15 414.947 236.584 413.363 234.58 411.184C232.576 409.006 231.212 406.316 230.638 403.412C234.632 405.248 238.7 407.085 243.043 407.736C247.7 408.361 252.439 407.626 256.688 405.619C260.936 403.612 264.514 400.419 266.989 396.425L266.355 397.095" fill="#D26A7E"/>
<path d="M177.879 379.109L217.058 397.472C217.058 397.472 233.025 362.152 234.403 357.323C235.78 352.493 240.086 344.845 235.661 334.774C231.235 324.702 219.409 321.002 212.853 325.299C198.199 334.902 177.879 379.109 177.879 379.109Z" fill="#DB7887"/>
<path d="M301.063 381.019C302.899 381.019 323.898 392.037 323.898 392.037L335.835 352.42C317.994 340.448 303.34 326.85 292.9 324.096L298.409 356.827L301.063 381.019Z" fill="#DB7887"/>
<path d="M177.879 379.109C178.149 379.172 178.411 379.264 178.66 379.385L180.827 380.303L188.741 383.819L214.744 395.709L217.921 397.169L217.425 397.343C221.943 388.034 225.9 379.697 228.71 373.683C230.069 370.736 231.171 368.331 231.988 366.568C232.337 365.788 232.631 365.154 232.906 364.64C232.988 364.406 233.106 364.186 233.255 363.988C233.208 364.231 233.134 364.468 233.035 364.695C232.869 365.154 232.621 365.824 232.282 366.678C231.593 368.386 230.555 370.856 229.215 373.895C226.525 379.972 222.641 388.346 218.132 397.674L217.976 398.004L217.637 397.857L214.469 396.398L188.558 384.343L180.744 380.606L178.632 379.559C178.363 379.443 178.11 379.292 177.879 379.109Z" fill="#263238"/>
<path d="M297.491 348.453C297.813 349.246 298.082 350.059 298.299 350.887C298.822 352.585 299.52 354.844 300.355 357.58C302.054 363.208 304.533 371.149 304.643 380.285C304.509 384.56 303.808 388.799 302.559 392.89C301.466 396.664 300.209 399.96 299.125 402.714C298.042 405.469 297.114 407.672 296.481 409.196C296.193 410.004 295.839 410.787 295.425 411.537C295.454 411.316 295.513 411.1 295.599 410.895C295.765 410.399 295.967 409.802 296.214 409.059L298.638 402.494C299.648 399.74 300.86 396.416 301.907 392.661C303.099 388.634 303.775 384.472 303.918 380.275C303.808 371.305 301.439 363.391 299.869 357.726C299.07 354.88 298.427 352.576 298.032 350.969C297.83 350.161 297.693 349.537 297.601 349.133C297.528 348.914 297.491 348.684 297.491 348.453Z" fill="#263238"/>
<path d="M264.336 340.558C263.739 334.792 260.663 329.467 256.605 325.363C254.575 323.325 252.142 321.286 251.747 318.44C251.233 314.768 254.428 311.297 253.905 307.606C253.262 303.016 247.478 301.005 245.439 296.837C242.685 291.236 247.496 283.983 244.521 278.475C242.731 275.169 238.461 273.379 237.607 269.716C237.056 267.347 241.574 263.876 242.63 258.698C244.99 247.121 246.192 238.169 234.945 231.421L228.38 222.423C221.034 226.013 214.827 234.093 214.708 242.549C214.644 246.533 216.691 250.545 214.947 254.135C212.523 259.148 206.876 262.242 205.168 267.549C202.726 275.133 209.447 283.625 206.518 291.044C204.782 295.414 200.219 297.902 197.336 301.629C195.166 304.621 194.086 308.265 194.273 311.956C194.46 315.647 195.903 319.163 198.364 321.92C194.827 324.417 192.177 327.975 190.797 332.078C189.417 336.182 189.379 340.618 190.688 344.744C191.854 348.178 194.508 351.584 198.126 351.786C203.322 352.071 206.279 346.195 210.062 342.605C215.966 337.096 226.305 337.363 231.915 343.174C235.909 347.324 237.525 353.558 242.18 356.946C246.835 360.334 253.822 359.7 258.322 356.092C262.821 352.484 264.942 346.323 264.336 340.558Z" fill="#263238"/>
<path d="M213.211 394.984C205.792 407.167 200.623 414.182 200.623 414.182L267.191 454.698L259.432 472.702L173.123 437.19C173.123 437.19 164.621 428.44 167.614 418.68L181.387 380.716L213.211 394.984Z" fill="#FFBE9D"/>
<path d="M184.435 420.37C184.591 420.581 187.731 417.937 192.396 416.238C197.06 414.54 201.146 414.402 201.137 414.182C201.128 413.961 196.931 413.658 192.111 415.467C187.291 417.276 184.279 420.25 184.435 420.37Z" fill="#EB996E"/>
<path d="M318.774 467.038L302.174 459.059L269.789 456.498L267.154 454.661L259.396 472.666C259.396 472.666 267.889 476.724 272.333 477.091L299.557 476.265L313.798 477.761L318.774 467.038Z" fill="#FFBE9D"/>
<path d="M412.117 403.118L318.765 403.88C315.735 403.88 312.843 405.331 312.393 408.324L302.192 476.366H254.098C253.382 476.407 252.708 476.72 252.216 477.242C251.723 477.763 251.449 478.453 251.449 479.171C251.449 479.888 251.723 480.578 252.216 481.1C252.708 481.621 253.382 481.935 254.098 481.975H407.673L418.168 410.16C418.3 409.289 418.242 408.399 417.999 407.552C417.756 406.705 417.332 405.92 416.758 405.251C416.183 404.583 415.471 404.046 414.67 403.678C413.869 403.31 412.998 403.119 412.117 403.118Z" fill="#E0E0E0"/>
<path d="M412.117 403.118C412.614 403.09 413.112 403.137 413.595 403.256C414.836 403.553 415.955 404.225 416.8 405.181C417.645 406.138 418.174 407.331 418.314 408.599C418.341 409.891 418.224 411.181 417.966 412.446C417.58 415.201 417.13 418.359 416.625 421.921C414.568 436.18 411.603 456.736 407.967 482.012V482.26H407.673L258.679 482.352H254.667C253.936 482.417 253.202 482.277 252.546 481.948C252.051 481.672 251.638 481.268 251.351 480.779C251.064 480.29 250.913 479.733 250.913 479.166C250.913 478.599 251.064 478.042 251.351 477.553C251.638 477.064 252.051 476.661 252.546 476.384C253.196 476.059 253.925 475.922 254.649 475.989H302.174L301.806 476.302C305.479 451.935 308.904 429.202 311.98 408.811C312.077 407.448 312.696 406.176 313.706 405.257C314.721 404.401 315.961 403.856 317.278 403.688C318.529 403.565 319.786 403.519 321.042 403.55H324.715L338.772 403.449L363.747 403.293L399.308 403.109H408.82H411.281C411.832 403.109 412.108 403.109 412.108 403.109C412.108 403.109 411.832 403.109 411.281 403.155L408.82 403.201L399.308 403.339L363.747 403.733L338.809 403.972L324.752 404.11H321.079C319.853 404.086 318.627 404.132 317.406 404.248C316.208 404.403 315.08 404.9 314.156 405.68C313.249 406.504 312.702 407.651 312.632 408.875C309.593 429.266 306.204 452.026 302.532 476.375L302.486 476.678H302.174H272.232H254.667C254.071 476.611 253.469 476.716 252.932 476.981C252.427 477.262 252.038 477.715 251.836 478.256C251.635 478.798 251.632 479.394 251.83 479.937C252.025 480.484 252.414 480.941 252.922 481.223C253.465 481.493 254.074 481.599 254.676 481.526H258.689L407.682 481.617L407.397 481.865C411.143 456.608 414.192 436.06 416.304 421.802C416.836 418.249 417.314 415.091 417.727 412.345C417.991 411.102 418.117 409.834 418.103 408.563C418.003 407.517 417.63 406.517 417.02 405.661C416.187 404.483 414.964 403.637 413.567 403.274C413.087 403.196 412.603 403.144 412.117 403.118Z" fill="#263238"/>
<path d="M361.488 447.528C364.719 447.528 367.337 444.909 367.337 441.679C367.337 438.449 364.719 435.831 361.488 435.831C358.258 435.831 355.64 438.449 355.64 441.679C355.64 444.909 358.258 447.528 361.488 447.528Z" fill="white"/>
<path d="M305.975 481.342C306.103 481.342 309.078 464.035 312.604 442.652C316.13 421.269 318.893 403.899 318.765 403.88C318.636 403.862 315.661 421.178 312.126 442.57C308.591 463.962 305.837 481.324 305.975 481.342Z" fill="#263238"/>
</svg>
