<svg xmlns="http://www.w3.org/2000/svg" viewBox="0 0 209.99 441.74"><defs><style>.cls-1{fill:#db7887;}.cls-2{fill:#d26a7e;}.cls-3{fill:#e0c7a2;}.cls-4{fill:#f19c7c;}.cls-5{fill:#e08565;}.cls-6{fill:#fddec0;}.cls-7{fill:#352c38;}.cls-8{fill:#c4734e;}.cls-9{fill:#6f96bd;}.cls-10{fill:#597a96;}.cls-11{fill:#1c181e;}.cls-12{fill:#fdedee;}.cls-13{fill:#263238;}.cls-14{fill:#e8505b;}.cls-15{opacity:0.3;}.cls-16{opacity:0.2;}.cls-17{fill:#fff;}</style></defs><title>olhominionPrancheta 4</title><g id="OBJECTS"><path class="cls-1" d="M69.41,217.63S35,288.79,37,330.19,68.76,441.74,68.76,441.74h37.8l4.7-90.52L117,441.74h39.75s23.6-91.83,21-124.69-30.12-98.11-30.12-98.11Z"/><path class="cls-2" d="M176.46,307.64c-4.88,8.68-12.62,16.08-20.33,21.72-13.34,9.77-29.2,16.93-44.81,22.83L117,441.74h39.75s23.6-91.83,21-124.69C177.49,314.1,177.06,310.94,176.46,307.64Z"/><path class="cls-2" d="M154.87,230.85c-4.19-7.32-7.26-11.91-7.26-11.91l-78.2-1.31a191.13,191.13,0,0,0-10.35,16.13C104.25,249.32,138.9,238.32,154.87,230.85Z"/><path class="cls-3" d="M67.62,108s41.79-6.35,69.89,1.71c0,0,10-42.27-14.66-53.52s-48.63,5.14-48.63,5.14Z"/><path class="cls-4" d="M91.32,96s4.89,36.16-4.88,38.12-26.88-7.82-36.66,8.79,31.28,28.84,58.16,26.4c27.3-2.48,60.55-7,51.81-29.33-9.78-24.92-44.28,12.23-42.52-23,1-19.55,1.46-31.77,1.46-31.77Z"/><path class="cls-5" d="M91.92,124.26A45.42,45.42,0,0,0,106,122.87a23.09,23.09,0,0,0,11.22-6.33c1-19.26,1.44-31.28,1.44-31.28L91.32,96S93.61,112.94,91.92,124.26Z"/><path class="cls-4" d="M99.63,36.88S66.75,39.64,72.75,77.93c6.35,40.57,45.65,51.39,58.16,11.24C142.64,51.54,118.2,35.41,99.63,36.88Z"/><path class="cls-6" d="M72.26,26.62s27.62-12.47,30.55,11.24C105.14,56.72,88.39,57.41,79.1,64s2.2,22,2.2,22-7.08-1.22-8.55-8.07c0,0-4.89,24.68,16.86,34.7,0,0-9.28,2-16.37-6.84,0,0,3.91,7.82,14.66,8.55,0,0-10.26,5.62-19.79-3.66l4.15,5.86a21.22,21.22,0,0,1-18.57-16.12s.24,6.84-6.11,8.3c0,0,4.16-5.86-.49-9.77s-12.46-19.79,2-29.81S54.18,37.61,72.26,26.62Z"/><path class="cls-6" d="M131.88,26.65s-28-11.51-30.15,12.28C100,57.86,116.81,58,126.31,64.25s-1.44,22.06-1.44,22.06,7-1.46,8.27-8.35c0,0,5.72,24.5-15.67,35.25,0,0,9.35,1.64,16.13-7.39,0,0-3.64,7.94-14.36,9,0,0,10.45,5.27,19.65-4.33l-3.95,6a21.21,21.21,0,0,0,18-16.75s0,6.84,6.39,8.09c0,0-4.35-5.72.16-9.78s11.78-20.21-3-29.73S150.33,37,131.88,26.65Z"/><path class="cls-6" d="M66.64,31.26s4.57-5.53,14.68-9c4.49-1.53,11.06,0,17.82-.05,4.12,0,7.61-1.58,12.7-1.42,6.61.2,11.8,2.72,18.58,5.33L104.27,40.55Z"/><path class="cls-7" d="M99.39,69.87l-3.69-2a33.71,33.71,0,0,0-8-3.14,13.57,13.57,0,0,0-2.16-.27,9.66,9.66,0,0,0-2,.16,8,8,0,0,0-1.86.55,11.06,11.06,0,0,0-1.61.84,6.05,6.05,0,0,0-.69.49,5.25,5.25,0,0,0-.62.46c-.36.33-.73.59-1,.85-.53.5-.86.79-.86.79s.11-.41.38-1.12a9.1,9.1,0,0,1,.6-1.24,9.35,9.35,0,0,1,1-1.49,9.54,9.54,0,0,1,1.63-1.5,9,9,0,0,1,2.28-1.15,9.62,9.62,0,0,1,2.69-.49,12.07,12.07,0,0,1,2.76.25,13.36,13.36,0,0,1,2.58.8,15.19,15.19,0,0,1,2.28,1.15,18.55,18.55,0,0,1,3.51,2.7,16.81,16.81,0,0,1,2.06,2.32A10.12,10.12,0,0,1,99.39,69.87Z"/><path class="cls-7" d="M106,70.36a15.17,15.17,0,0,1,1.82-4,18.3,18.3,0,0,1,2.84-3.55,14.18,14.18,0,0,1,4.5-3,10.36,10.36,0,0,1,2.8-.7,9.12,9.12,0,0,1,2.82.14,9.58,9.58,0,0,1,2.43.91,8.91,8.91,0,0,1,1,.62l.84.67a10.41,10.41,0,0,1,1.28,1.33,10.69,10.69,0,0,1,.82,1.13c.4.66.59,1.05.59,1.05s-.39-.22-1-.64c-.3-.22-.71-.42-1.14-.69s-1-.49-1.47-.78a15.91,15.91,0,0,0-1.77-.66,10.45,10.45,0,0,0-2-.37,9.31,9.31,0,0,0-4.14.71,15.16,15.16,0,0,0-2,1,22.16,22.16,0,0,0-1.89,1.26c-.6.43-1.17.9-1.71,1.34s-1.06.88-1.52,1.31c-.92.83-1.7,1.56-2.25,2.08Z"/><path class="cls-7" d="M83.75,77.93l.59.58c.37.36.9.87,1.55,1.43.33.28.69.57,1.06.86s.81.54,1.23.8c.21.13.44.22.66.34l.69.25a4.76,4.76,0,0,0,1.39.19l.34,0s.17,0,.12,0l.21,0a7.34,7.34,0,0,0,.8-.19,5.54,5.54,0,0,0,1.28-.56,4.76,4.76,0,0,0,.57-.39,3.23,3.23,0,0,0,.52-.45,8.51,8.51,0,0,0,.85-1,10.68,10.68,0,0,0,1-1.78c.21-.47.31-.76.31-.76A4.08,4.08,0,0,1,97,78a6.09,6.09,0,0,1-.08,1,6.3,6.3,0,0,1-1,2.64A5.45,5.45,0,0,1,94.66,83a6.08,6.08,0,0,1-1.74,1,6.57,6.57,0,0,1-.89.26l-.21,0c-.2,0-.21,0-.32,0l-.54,0a5.47,5.47,0,0,1-1.06-.08,8,8,0,0,1-1-.27,7.57,7.57,0,0,1-1.68-1,9.43,9.43,0,0,1-2.18-2.35A9.07,9.07,0,0,1,83.75,77.93Z"/><path class="cls-7" d="M122.36,77.93a10.17,10.17,0,0,1-3.49,5.1,7.49,7.49,0,0,1-1.67,1,8.17,8.17,0,0,1-1,.27,5.35,5.35,0,0,1-1.06.08l-.53,0a3,3,0,0,1-.32,0l-.22,0a6.46,6.46,0,0,1-.88-.26,6,6,0,0,1-1.75-1,5.45,5.45,0,0,1-1.23-1.32,6.1,6.1,0,0,1-.71-1.39,6.22,6.22,0,0,1-.32-1.25,5.11,5.11,0,0,1-.08-1,4.74,4.74,0,0,1,.06-.84s.1.29.32.76a10.68,10.68,0,0,0,1,1.78,7.54,7.54,0,0,0,.84,1,3.73,3.73,0,0,0,.52.45,5.57,5.57,0,0,0,1.85,1,8,8,0,0,0,.8.19l.22,0c-.06,0,.08,0,.11,0l.35,0a4.8,4.8,0,0,0,1.39-.19l.68-.25c.22-.12.45-.21.67-.34.42-.26.84-.52,1.22-.8s.74-.58,1.07-.86c.64-.56,1.17-1.07,1.55-1.43Z"/><path class="cls-8" d="M105.5,74.76l.78,3.46c.15.57.27,1.13.43,1.68.06.28.16.55.23.83a8.36,8.36,0,0,0,.25.81c.17.54.37,1,.57,1.56l.34.74a5.9,5.9,0,0,0,.38.7,3.15,3.15,0,0,0,.42.65,3.84,3.84,0,0,0,.47.58,6.38,6.38,0,0,0,.53.51l.59.41,1.47,1-1.49.55c-.5.19-1,.34-1.52.5s-1,.31-1.53.45a27.16,27.16,0,0,1-3.15.71A28.36,28.36,0,0,1,107,88.17c.46-.27.93-.53,1.4-.77s.94-.5,1.42-.72l0,1.56-.93-.49a7.22,7.22,0,0,1-.82-.64,6,6,0,0,1-.68-.75,6.26,6.26,0,0,1-.56-.82,5.93,5.93,0,0,1-.46-.86c-.12-.29-.27-.58-.37-.88a13.16,13.16,0,0,1-.5-1.81,12.4,12.4,0,0,1-.29-1.81c-.05-.61-.1-1.22-.09-1.82A15.07,15.07,0,0,1,105.5,74.76Z"/><path class="cls-8" d="M93,93.33s.21.21.59.54.92.8,1.59,1.29c.33.25.71.49,1.09.75s.82.49,1.26.73a14.91,14.91,0,0,0,1.4.64,14.33,14.33,0,0,0,1.48.51c.5.17,1,.22,1.53.36l1.52.2c.51,0,1,0,1.47.06s.91,0,1.34,0,.81,0,1.15-.06.65,0,.9-.07c.51,0,.81,0,.81,0s-.24.15-.7.4c-.22.12-.5.27-.83.43a5.12,5.12,0,0,1-1.13.43,10.11,10.11,0,0,1-1.4.39c-.51.07-1.06.16-1.63.21s-1.16,0-1.77,0a16.38,16.38,0,0,1-1.8-.36A10.22,10.22,0,0,1,98.18,99a9.09,9.09,0,0,1-1.52-.9,10.43,10.43,0,0,1-1.27-1,9.56,9.56,0,0,1-1-1.1,8.66,8.66,0,0,1-1.11-1.85A5.19,5.19,0,0,1,93,93.33Z"/><path class="cls-9" d="M80.49,133.57s1.3,16.29,24.11,16.29,20.2-17.6,20.2-17.6,28.67-13.68,37.8,5.87-8.47,85.36-8.47,85.36-46.92,15.64-91.89-1.3c0,0-22.15-64.51-16.29-76.89S57.68,127.7,80.49,133.57Z"/><path class="cls-10" d="M96,182.19C76.6,179,60.7,169.08,45.39,158c2.65,22.84,16.85,64.21,16.85,64.21,45,16.94,91.89,1.3,91.89,1.3a428.1,428.1,0,0,0,9.54-47.76C141.61,182.42,118.62,186,96,182.19Z"/><path class="cls-5" d="M32.92,188.14s-17.11,67.45,0,80.16,26.39-71.85,26.39-71.85Z"/><path class="cls-5" d="M178.27,184.72s17.11,67.45,0,80.15S151.88,193,151.88,193Z"/><path class="cls-9" d="M64.2,197.43S43.67,194.5,25.59,185.7c0,0,19.55-48.87,25.9-52.3s29,.17,29,.17Z"/><path class="cls-9" d="M147,194s20.53-2.93,38.61-11.73c0,0-19.55-48.88-25.9-52.3s-29,.17-29,.17Z"/><rect class="cls-11" x="71.81" y="171.82" width="70.03" height="35.02" rx="2.46" ry="2.46" transform="translate(-88.42 284.93) rotate(-86.66)"/><path class="cls-4" d="M25.1,246.79s47.41-58.65,53.27-62.56,65,0,24.44,2.45c0,0,43,3.91.49,4.4,0,0,39.1,5.37-4.89,4.39,0,0,32.26,6.36-7.33,3.43,0,0-30.81,72.1-45.94,72.82C24.61,272.69,25.1,246.79,25.1,246.79Z"/><path class="cls-4" d="M186.09,243.37s-47.41-58.65-53.27-62.56-65,0-24.44,2.45c0,0-43,3.91-.49,4.39,0,0-39.09,5.38,4.89,4.4,0,0-32.25,6.36,7.33,3.42,0,0,30.81,72.1,45.94,72.83C186.58,269.27,186.09,243.37,186.09,243.37Z"/><path class="cls-12" d="M135,172.15a18.72,18.72,0,0,1-14.48-6.26,20.85,20.85,0,0,1-5.71-14.48q0-8.22,6.41-14.9t14.76-6.68q8.35,0,14.48,6.68A22.19,22.19,0,0,1,156.54,152a18.57,18.57,0,0,1-6.4,14.49A22.08,22.08,0,0,1,135,172.15Z"/><rect class="cls-12" x="116.18" y="156.75" width="10.19" height="9.01" transform="translate(53.13 -28.66) rotate(17.21)"/><path class="cls-13" d="M143.1,147.55l-1.63,0,.06-4.44a5.93,5.93,0,0,0-11.86,0l-.06,4.45-1.63,0,.06-4.44a7.56,7.56,0,0,1,15.12,0Z"/><rect class="cls-14" x="124.4" y="144.39" width="22.56" height="22.05" rx="11.02" ry="11.02"/><g class="cls-15"><path d="M137.94,154.25a2.25,2.25,0,1,0-3.44,1.91l-.57,2.66h3.69l-.68-2.7A2.26,2.26,0,0,0,137.94,154.25Z"/></g><g class="cls-16"><path class="cls-17" d="M132.94,159.18a9.61,9.61,0,0,1,.64-2.77l.06.26L133,156a2.54,2.54,0,0,1-.61-1.5,2.34,2.34,0,0,1,.3-1.27,2.12,2.12,0,0,1,.58-.65c.16-.11.27-.14.29-.11s-.29.33-.53.92a2.16,2.16,0,0,0-.15,1.07,2.22,2.22,0,0,0,.51,1.18l.66.69.11.12-.05.14A9.17,9.17,0,0,1,132.94,159.18Z"/></g></g></svg>