<svg width="441" height="824" viewBox="0 0 441 824" fill="none" xmlns="http://www.w3.org/2000/svg">
<path d="M245.692 60.1019C245.692 60.1019 191.128 43.3629 156.811 68.0237C122.493 92.6845 143.617 168.458 132.178 203.71C120.739 238.961 120.722 268.909 173.462 276.831C226.202 284.753 233.307 212.51 233.307 212.51L245.692 60.1019Z" fill="#76413B"/>
<path d="M129.529 326.17C129.529 326.17 139.213 425.725 152.407 440.708C165.601 455.69 188.531 459.203 188.531 459.203L182.338 317.352L129.529 326.17Z" fill="#DD908A"/>
<path d="M83.7724 388.717C83.7724 388.717 68.8069 402.821 87.2127 426.603C105.619 450.386 177.866 507.664 200.744 497.09C223.622 486.516 191.059 443.342 191.059 443.342L83.7724 388.717Z" fill="#FFAC9D"/>
<path d="M208.313 262.055L202.98 254.874C202.98 254.874 137.872 246.849 131.628 267.376C125.383 287.904 118.245 345.044 118.245 345.044L172.654 357.546L208.313 262.055Z" fill="#769D9D"/>
<path d="M157.017 307.984C146.214 302.446 136.132 295.598 127 287.594C122.304 312.41 118.227 345.027 118.227 345.027L172.636 357.529L186.398 320.848C176.366 317.127 166.556 312.832 157.017 307.984Z" fill="#547676"/>
<path d="M184.23 434.37C184.23 434.37 150.343 495.075 132.453 603.999C118.864 687.298 110.349 789.058 110.349 789.058H376.098C376.098 789.058 364.366 550.441 294.82 423.641L184.23 434.37Z" fill="#DB7887"/>
<path d="M260.847 670.249C223.622 698.888 182.871 722.171 137.27 734.674C129.907 736.706 122.493 738.428 115.028 739.84C112 769.116 110.349 788.989 110.349 788.989H376.098C376.098 788.989 370.249 669.939 342.297 555.332C324.665 599.9 299.189 640.801 260.847 670.249Z" fill="#D26A7E"/>
<path d="M285.548 461.184C294.7 462.303 303.885 463.302 313.071 464.232C307.953 450.287 301.854 436.723 294.82 423.641L184.23 434.353C184.23 434.353 182.51 437.487 179.586 443.566C215.021 448.612 250.044 456.861 285.548 461.184Z" fill="#D26A7E"/>
<path d="M254.207 159.072C254.207 159.072 254.207 269.494 261.242 271.837C268.278 274.179 207.263 274.179 207.263 274.179L199.058 194.307L254.207 159.072Z" fill="#DD908A"/>
<path d="M203.858 237.05L264.493 224.564L267.16 249.552C267.16 249.552 312.641 234.38 324.235 260.264C335.829 286.147 306.414 433.475 306.414 433.475L176.197 436.161C176.197 436.161 142.31 364.728 153.095 311.153L163.812 257.595L202.98 254.874L203.858 237.05Z" fill="#769D9D"/>
<path d="M260.572 349.177C228.79 367.473 195.579 383.162 161.266 396.088C165.321 409.794 170.31 423.207 176.197 436.23L306.414 433.544C306.414 433.544 322.704 351.967 326.265 299.546C307.911 319.935 283.278 336.209 260.572 349.177Z" fill="#547676"/>
<path d="M342.211 302.387C342.211 302.387 363.317 466.832 343.38 473.893C323.444 480.954 207.263 389.302 207.263 389.302C207.263 389.302 160.337 401.047 172.017 386.96C172.017 386.96 161.455 383.516 169.66 379.917C169.66 379.917 160.285 375.215 166.22 372.856C172.155 370.497 71.1807 385.789 203.754 357.598L298.794 399.876L294.149 342.323L342.211 302.387Z" fill="#FFAC9D"/>
<path d="M349.418 373.545C346.528 336.037 342.211 302.387 342.211 302.387L294.046 342.323L296.248 369.412C313.071 375.181 331.563 375.525 349.418 373.545Z" fill="#DD908A"/>
<path d="M283.536 359.923C283.536 359.923 325.13 362.92 353.667 348.643C353.667 348.643 345.651 258.473 311.764 248.64C277.876 238.806 261.242 288.283 283.536 359.923Z" fill="#769D9D"/>
<path d="M105.259 309.446L58.0415 333.543C55.917 334.627 55.0727 337.23 56.1557 339.357L108.208 441.586C109.29 443.713 111.891 444.558 114.015 443.474L161.233 419.378C163.357 418.294 164.202 415.69 163.119 413.564L111.067 311.334C109.984 309.207 107.384 308.362 105.259 309.446Z" fill="#352C38"/>
<path d="M78.4915 395.76C78.4915 395.76 136.564 324.413 89.9306 392.316C89.9306 392.316 156.811 333.282 101.37 397.603C101.37 397.603 166.495 360.595 100.492 409.055C100.492 409.055 172.74 374.613 99.6151 420.507L110.177 445.168C110.177 445.168 69.6842 416.908 78.4915 395.76Z" fill="#FFAC9D"/>
<path d="M164.018 158.366L141.415 160.088" stroke="#6F96BD" stroke-width="2.05" stroke-miterlimit="10"/>
<path d="M223.622 90.9278C223.622 90.9278 152.407 73.5861 152.407 153.492C152.407 233.399 221.059 266.343 252.727 181.494C284.396 96.6453 223.622 90.9278 223.622 90.9278Z" fill="#FFAC9D"/>
<path d="M199.058 77.7192C199.058 77.7192 192.9 126.18 228.095 158.779C263.289 191.379 215.778 282.118 261.535 287.405C307.291 292.691 277.377 239.822 315.221 249.518C315.221 249.518 322.257 212.51 305.537 203.71C288.817 194.909 312.572 68.0237 256.305 53.0584C200.039 38.0932 200.813 66.2671 199.058 77.7192Z" fill="#965450"/>
<path d="M220.939 191.758C220.939 191.758 190.096 199.904 176.748 202.78C176.748 202.78 198.37 217.09 220.939 191.758Z" fill="white"/>
<path d="M175.457 155.8C175.457 155.8 175.612 156.317 175.802 157.23C176.059 158.499 176.18 159.792 176.163 161.087C176.179 162.996 175.829 164.89 175.131 166.667C174.907 167.166 174.632 167.683 174.357 168.182C174.032 168.693 173.645 169.162 173.204 169.577C172.752 170.037 172.23 170.42 171.656 170.714C171.122 171.035 170.542 171.273 169.936 171.42L169.454 171.54H169.265H168.938H168.164C167.475 171.503 166.793 171.382 166.134 171.179C164.97 170.737 163.947 169.987 163.175 169.009C162.521 168.185 161.993 167.268 161.61 166.288C161.285 165.456 161.032 164.597 160.853 163.722C160.604 162.446 160.489 161.147 160.509 159.847C160.509 158.917 160.612 158.383 160.612 158.383C160.612 158.383 160.802 158.883 161.094 159.744C161.386 160.605 161.868 161.828 162.487 163.188C162.814 163.877 163.193 164.583 163.606 165.289C164.043 165.992 164.556 166.645 165.136 167.235C165.676 167.782 166.335 168.195 167.063 168.441C167.218 168.441 167.355 168.441 167.51 168.527C167.686 168.563 167.868 168.563 168.044 168.527H168.818H169.024L169.299 168.441C170.057 168.271 170.76 167.916 171.346 167.407C171.649 167.136 171.93 166.842 172.189 166.529C172.438 166.186 172.668 165.83 172.877 165.461C173.278 164.707 173.622 163.924 173.909 163.119C174.167 162.327 174.391 161.552 174.58 160.812C174.941 159.348 175.182 158.056 175.337 157.161L175.457 155.8Z" fill="#352C38"/>
<path d="M220.474 151.891C220.634 152.387 220.761 152.893 220.853 153.406C221.103 154.752 221.218 156.119 221.197 157.488C221.197 159.516 220.794 161.524 220.01 163.395C219.522 164.537 218.808 165.568 217.911 166.426C217.402 166.898 216.821 167.288 216.191 167.579C215.61 167.926 214.977 168.176 214.316 168.32L213.817 168.44H212.389C212.052 168.477 211.712 168.477 211.375 168.44L210.256 168.217C209.018 167.771 207.92 167.005 207.074 165.995C206.342 165.147 205.76 164.181 205.354 163.136C205.165 162.671 205.01 162.206 204.855 161.759C204.7 161.311 204.632 160.863 204.528 160.433C204.257 159.084 204.136 157.709 204.167 156.334C204.171 155.816 204.205 155.298 204.27 154.784L204.786 156.231C205.113 157.143 205.595 158.418 206.266 159.864C206.61 160.57 207.023 161.311 207.47 162.069C207.938 162.794 208.486 163.464 209.104 164.066C209.688 164.624 210.395 165.037 211.168 165.272C211.33 165.291 211.491 165.319 211.65 165.358C211.848 165.401 212.054 165.401 212.252 165.358H213.06H213.301H213.594C214.008 165.283 214.409 165.143 214.781 164.945C215.158 164.776 215.506 164.55 215.813 164.273C216.136 163.995 216.435 163.689 216.707 163.36C216.982 163.016 217.223 162.637 217.464 162.275C217.898 161.481 218.277 160.658 218.599 159.813C218.875 158.986 219.133 158.091 219.339 157.384C219.735 155.835 219.993 154.491 220.165 153.544L220.474 151.891Z" fill="#352C38"/>
<path d="M180.618 158.779C181.25 159.615 181.771 160.53 182.166 161.5C182.571 162.473 182.882 163.482 183.095 164.514C183.22 165.036 183.312 165.565 183.37 166.098C183.37 166.632 183.508 167.166 183.508 167.7C183.508 168.234 183.508 168.768 183.508 169.302L183.37 170.92C183.37 171.454 183.198 171.971 183.112 172.505C183.037 173.042 182.916 173.572 182.751 174.089L182.287 175.639L181.685 177.137C181.252 178.117 180.764 179.072 180.222 179.996C179.964 180.461 179.638 180.891 179.345 181.339L178.416 182.631L177.935 180.289C178.863 180.943 179.792 181.546 180.704 182.217C181.616 182.889 182.424 183.543 183.388 184.25C185.191 185.642 186.914 187.137 188.548 188.727C186.394 187.994 184.285 187.132 182.235 186.144C181.203 185.696 180.222 185.162 179.208 184.663C178.193 184.163 177.247 183.595 176.249 183.079L174.855 182.321L175.784 180.736C176.008 180.323 176.249 179.893 176.507 179.497C176.765 179.1 177.023 178.687 177.229 178.257C177.642 177.413 178.141 176.534 178.485 175.725C178.879 174.867 179.224 173.988 179.517 173.09C179.689 172.652 179.832 172.203 179.947 171.747C180.068 171.299 180.222 170.851 180.326 170.387C180.498 169.474 180.704 168.544 180.824 167.597C180.824 167.114 180.824 166.649 180.962 166.167C181.1 165.685 180.962 165.203 181.065 164.721C181.065 163.756 181.065 162.775 181.065 161.776C180.982 160.768 180.833 159.767 180.618 158.779Z" fill="#B57572"/>
<path d="M180.893 156.127C182.906 171.403 176.988 184.783 167.665 186.006C158.342 187.229 149.156 175.863 147.143 160.588C145.131 145.312 151.048 131.932 160.354 130.709C169.66 129.486 178.898 140.852 180.893 156.127Z" stroke="#6F96BD" stroke-width="1.98" stroke-miterlimit="10"/>
<path d="M216.136 183.509C227.456 182.01 234.952 168.062 232.878 152.353C230.804 136.644 219.945 125.124 208.625 126.622C197.304 128.12 189.808 142.069 191.882 157.778C193.956 173.487 204.815 185.007 216.136 183.509Z" stroke="#6F96BD" stroke-width="2.21" stroke-miterlimit="10"/>
<path d="M181.891 163.171C181.891 163.171 185.417 152.166 192.453 161.862" stroke="#6F96BD" stroke-width="2.05" stroke-miterlimit="10"/>
<path d="M234.253 154.801L247.894 154.371" stroke="#6F96BD" stroke-width="2.05" stroke-miterlimit="10"/>
</svg>
