<svg xmlns="http://www.w3.org/2000/svg" viewBox="0 0 256.37 457.64"><defs><style>.cls-1{fill:#76413b;}.cls-2{fill:#dd908a;}.cls-3{fill:#ffac9d;}.cls-4{fill:#769d9d;}.cls-5{fill:#547676;}.cls-6{fill:#db7887;}.cls-7{fill:#d26a7e;}.cls-8{fill:#352c38;}.cls-13,.cls-14,.cls-9{fill:none;stroke:#6f96bd;stroke-miterlimit:10;}.cls-9{stroke-width:2.05px;}.cls-10{fill:#965450;}.cls-11{fill:#fff;}.cls-12{fill:#b57572;}.cls-13{stroke-width:1.98px;}.cls-14{stroke-width:2.21px;}</style></defs><title>ilustra6Prancheta 7</title><g id="OBJECTS"><path class="cls-1" d="M142.83,34.9s-31.72-9.72-51.67,4.6-7.67,58.32-14.32,78.79-6.66,37.86,24,42.46,34.79-37.35,34.79-37.35Z"/><path class="cls-2" d="M75.3,189.4s5.63,57.81,13.3,66.51,21,10.74,21,10.74L106,184.28Z"/><path class="cls-3" d="M48.7,225.72s-8.7,8.19,2,22,52.7,47.07,66,40.93-5.63-31.21-5.63-31.21Z"/><path class="cls-4" d="M121.1,152.17,118,148s-37.85-4.66-41.48,7.26-7.78,45.1-7.78,45.1l31.63,7.26Z"/><path class="cls-5" d="M91.28,178.84A86,86,0,0,1,73.83,167c-2.73,14.41-5.1,33.35-5.1,33.35l31.63,7.26,8-21.3A162.21,162.21,0,0,1,91.28,178.84Z"/><path class="cls-6" d="M107.1,252.23S87.4,287.48,77,350.73C69.1,399.1,64.15,458.19,64.15,458.19H218.64S211.82,319.63,171.39,246Z"/><path class="cls-7" d="M151.64,389.2C130,405.83,106.31,419.35,79.8,426.61c-4.28,1.18-8.59,2.18-12.93,3-1.76,17-2.72,28.54-2.72,28.54H218.64s-3.4-69.13-19.65-135.68C188.74,348.35,173.93,372.1,151.64,389.2Z"/><path class="cls-7" d="M166,267.8c5.32.65,10.66,1.23,16,1.77A182.56,182.56,0,0,0,171.39,246l-64.29,6.22s-1,1.82-2.7,5.35C125,260.5,145.36,265.29,166,267.8Z"/><path class="cls-2" d="M147.78,92.37s0,64.12,4.09,65.48-31.38,1.36-31.38,1.36l-4.77-46.38Z"/><path class="cls-4" d="M118.51,137.65l35.25-7.25,1.55,14.51s26.44-8.81,33.18,6.22-10.36,100.58-10.36,100.58l-75.7,1.56S82.73,211.79,89,180.68l6.23-31.1L118,148Z"/><path class="cls-5" d="M151.48,202.76A394.55,394.55,0,0,1,93.75,230a181.6,181.6,0,0,0,8.68,23.31l75.7-1.56s9.47-47.37,11.54-77.81C179,185.78,164.68,195.23,151.48,202.76Z"/><path class="cls-3" d="M198.94,175.59s12.27,95.49.68,99.59-79.13-49.12-79.13-49.12S93.21,232.88,100,224.7c0,0-6.14-2-1.37-4.09,0,0-5.45-2.73-2-4.1s-55.25,7.51,21.82-8.86L173.7,232.2,171,198.78Z"/><path class="cls-2" d="M203.13,216.91c-1.68-21.78-4.19-41.32-4.19-41.32l-28,23.19,1.28,15.73C182,217.86,192.75,218.06,203.13,216.91Z"/><path class="cls-4" d="M164.83,209s24.18,1.74,40.77-6.55c0,0-4.66-52.36-24.36-58.07S151.87,167.4,164.83,209Z"/><rect class="cls-8" x="45.83" y="182.77" width="35.83" height="71.65" rx="2.51" ry="2.51" transform="translate(-92.33 52.8) rotate(-27.01)"/><path class="cls-3" d="M45.63,229.81s33.76-41.43,6.65-2c0,0,38.88-34.28,6.65,3.07,0,0,37.86-21.49-.51,6.65,0,0,42-20-.51,6.65l6.14,14.32S40.51,242.09,45.63,229.81Z"/><line class="cls-9" x1="95.35" y1="91.96" x2="82.21" y2="92.96"/><path class="cls-3" d="M130,52.8S88.6,42.73,88.6,89.13s39.91,65.53,58.32,16.26S130,52.8,130,52.8Z"/><path class="cls-10" d="M115.72,45.13S112.14,73.27,132.6,92.2s-7.16,71.62,19.44,74.69,9.21-27.63,31.21-22c0,0,4.09-21.49-5.63-26.6S181.71,39.5,149,30.81,116.74,38.48,115.72,45.13Z"/><path class="cls-11" d="M128.44,111.35s-17.93,4.73-25.69,6.4C102.75,117.75,115.32,126.06,128.44,111.35Z"/><path class="cls-8" d="M102,90.47s.09.3.2.83a10.54,10.54,0,0,1,.21,2.24,8.65,8.65,0,0,1-.6,3.24c-.13.29-.29.59-.45.88a4.24,4.24,0,0,1-.67.81,3.49,3.49,0,0,1-.9.66,3.58,3.58,0,0,1-1,.41l-.28.07h0l-.11,0h-.19l-.45,0a4.9,4.9,0,0,1-1.18-.21,4,4,0,0,1-1.72-1.26,6.11,6.11,0,0,1-.91-1.58,9.09,9.09,0,0,1-.44-1.49,10.82,10.82,0,0,1-.2-2.25c0-.54.06-.85.06-.85s.11.29.28.79.45,1.21.81,2c.19.4.41.81.65,1.22a6.52,6.52,0,0,0,.89,1.13,2.85,2.85,0,0,0,1.12.7c.09,0,.17,0,.26.05a.76.76,0,0,0,.31,0l.45,0h.12l.16-.05a2.72,2.72,0,0,0,1.19-.6,4.74,4.74,0,0,0,.49-.51,6.57,6.57,0,0,0,.4-.62,10.23,10.23,0,0,0,.6-1.36c.15-.46.28-.91.39-1.34.21-.85.35-1.6.44-2.12Z"/><path class="cls-8" d="M128.17,88.2a6.71,6.71,0,0,1,.22.88,11.93,11.93,0,0,1,.2,2.37,8.86,8.86,0,0,1-.69,3.43,5.33,5.33,0,0,1-1.22,1.76,3.84,3.84,0,0,1-1,.67,3.65,3.65,0,0,1-1.09.43l-.29.07h-.83a2.74,2.74,0,0,1-.59,0l-.65-.13a4.32,4.32,0,0,1-1.85-1.29,5.7,5.7,0,0,1-1-1.66c-.11-.27-.2-.54-.29-.8s-.13-.52-.19-.77a10.83,10.83,0,0,1-.21-2.38,7.54,7.54,0,0,1,.06-.9l.3.84c.19.53.47,1.27.86,2.11.2.41.44.84.7,1.28a6.68,6.68,0,0,0,.95,1.16,3,3,0,0,0,1.2.7,2.33,2.33,0,0,1,.28.05.82.82,0,0,0,.35,0l.47,0H124l.17,0a2.36,2.36,0,0,0,.69-.24,2.29,2.29,0,0,0,.6-.39,4.35,4.35,0,0,0,.52-.53c.16-.2.3-.42.44-.63a11.51,11.51,0,0,0,.66-1.43c.16-.48.31-1,.43-1.41.23-.9.38-1.68.48-2.23Z"/><path class="cls-12" d="M105,92.2a7,7,0,0,1,.9,1.58,9.59,9.59,0,0,1,.54,1.75,7.38,7.38,0,0,1,.16.92c0,.31.08.62.08.93s0,.62,0,.93l-.08.94c0,.31-.1.61-.15.92a5.59,5.59,0,0,1-.21.92l-.27.9-.35.87a16.2,16.2,0,0,1-.85,1.66c-.15.27-.34.52-.51.78l-.54.75-.28-1.36c.54.38,1.08.73,1.61,1.12s1,.77,1.56,1.18a34.78,34.78,0,0,1,3,2.6,32.81,32.81,0,0,1-3.67-1.5c-.6-.26-1.17-.57-1.76-.86s-1.14-.62-1.72-.92l-.81-.44.54-.92c.13-.24.27-.49.42-.72s.3-.47.42-.72c.24-.49.53-1,.73-1.47a14.27,14.27,0,0,0,.6-1.53,6.46,6.46,0,0,0,.25-.78c.07-.26.16-.52.22-.79.1-.53.22-1.07.29-1.62,0-.28,0-.55.08-.83s0-.56.06-.84c0-.56,0-1.13,0-1.71A13.35,13.35,0,0,0,105,92.2Z"/><path class="cls-13" d="M105.16,90.66c1.17,8.87-2.27,16.64-7.69,17.35s-10.76-5.89-11.93-14.76,2.27-16.64,7.68-17.35S104,81.79,105.16,90.66Z"/><ellipse class="cls-14" cx="123.47" cy="90.04" rx="12.02" ry="16.66" transform="translate(-10.74 16.96) rotate(-7.53)"/><path class="cls-9" d="M105.74,94.75s2.05-6.39,6.14-.76"/><line class="cls-9" x1="136.18" y1="89.89" x2="144.11" y2="89.64"/></g></svg>