<svg width="538" height="544" viewBox="0 0 538 544" fill="none" xmlns="http://www.w3.org/2000/svg">
<path d="M275.429 544C420.009 544 537.215 530.016 537.215 512.765C537.215 495.515 420.009 481.53 275.429 481.53C130.849 481.53 13.6437 495.515 13.6437 512.765C13.6437 530.016 130.849 544 275.429 544Z" fill="#FCD2D4"/>
<path opacity="0.15" d="M335.306 360.529C332.788 359.128 331.349 358.446 331.349 358.446L287.81 343.605C262.576 329.445 246.428 291.433 231.322 250.847C233.688 249.939 236.111 248.954 238.629 247.875C344.373 202.443 271.87 110.442 243.854 93.1019C215.837 75.7619 201.28 63.3247 196.964 42.8423C192.648 22.3598 178.961 -6.69803 139.056 1.38516C139.056 1.38516 105.928 -4.84287 92.8098 53.8028C88.8155 67.1865 87.1307 76.8977 82.3225 85.0755C61.1017 89.4295 42.1716 103.684 28.1254 123.939C-17.1178 189.475 -18.7269 464.342 106.212 511.137C209.779 549.944 403.719 532.661 412.03 466.935C419.318 409.577 352.475 369.729 335.306 360.529Z" fill="#BCADB0"/>
<path d="M433.231 466.897C424.902 532.623 230.962 549.906 127.357 511.137C2.41821 464.38 4.02729 189.513 49.2704 123.977C80.846 78.2607 137.599 63.0976 189.354 123.977C200.865 137.798 210.831 152.836 219.074 168.823C249.192 225.784 265.794 319.526 308.879 343.681L352.418 358.522C352.418 358.522 353.876 359.204 356.394 360.604C373.658 369.729 440.501 409.577 433.231 466.897Z" fill="#3A619B"/>
<g style="mix-blend-mode:multiply" opacity="0.44">
<path d="M352.627 358.446L309.087 343.605C266.002 319.45 249.4 225.708 219.282 168.747C211.039 152.76 201.073 137.722 189.562 123.901C156.358 125.794 158.63 122.349 158.63 122.349C158.63 122.349 104.83 132.647 95.8765 176.982C94.9691 180.002 94.5224 183.142 94.5514 186.295C88.3233 182.509 70.4911 181.203 69.715 182.149C68.5791 183.512 85.711 188.15 94.5324 196.234C94.5324 196.234 78.2903 194.057 69.431 197.313C78.022 199.082 86.484 201.429 94.7596 204.336C94.7596 204.336 66.5347 215.107 69.6582 215.561C74.2961 216.224 95.4411 213.952 95.4411 213.952C96.6526 230.421 98.981 246.682 101.537 274.661C104.187 303.53 117.059 357.632 134.153 383.699C126.375 389.154 118.911 395.045 111.797 401.342C99.1325 412.7 104.225 416.108 113.292 412.36C122.36 408.611 150.907 399.449 150.907 399.449C150.907 399.449 130.803 416.089 132.298 417.868C133.794 419.648 152.421 407.04 161.64 403.727C175.591 407.93 192.648 408.82 208.852 407.741C211.843 417.206 216.954 430.286 230.792 430.23C242.055 430.23 243.134 417.281 254.284 411.299C284.573 395.322 328.112 374.045 343.635 373.288C353.1 372.852 356.034 366.965 356.488 360.491C353.99 359.128 352.627 358.446 352.627 358.446Z" fill="#ABD7EF"/>
</g>
<path d="M137.012 97.683C112.989 89.1644 83.1934 98.781 71.2295 121.952C61.4426 140.882 59.3035 164.014 58.2055 184.97C56.3125 219.915 59.4549 255.012 64.6039 289.635C67.8031 311.234 71.9678 332.682 76.8517 353.998C80.9217 371.622 84.3102 390.306 91.9959 406.851C111.929 450.106 160.145 469.623 204.082 478.331C241.163 485.41 279.031 487.454 316.659 484.408C323.516 483.906 330.341 483.034 337.104 481.795C362.357 477.195 389.465 469.737 410.193 453.968C414.942 450.374 419.155 446.123 422.706 441.342C423.369 440.452 421.854 439.278 421.173 440.168C404.685 461.351 375.419 470.608 350.279 476.476C341.055 478.788 331.671 480.408 322.206 481.322C290.034 483.977 257.67 483.203 225.662 479.013C182.236 473.163 132.904 459.628 105.077 423.036C98.0751 413.866 92.7964 403.501 89.4971 392.445C83.288 371.451 78.4797 349.928 74.1447 328.499C66.3449 291.358 61.7281 253.62 60.3446 215.694C59.6063 190.308 60.231 163.882 66.9891 139.235C68.8907 131.268 72.1847 123.699 76.7192 116.878C86.0329 103.968 102.086 96.5472 117.779 96.055C124.214 95.8491 130.641 96.6605 136.823 98.4592C136.923 98.4752 137.026 98.4538 137.112 98.3991C137.198 98.3444 137.26 98.2601 137.288 98.1623C137.316 98.0644 137.308 97.9597 137.264 97.8679C137.22 97.7761 137.144 97.7036 137.05 97.6641L137.012 97.683Z" fill="#72B1CC"/>
<path d="M183.258 374.613C172.165 381.901 158.327 385.819 145.985 390.419C135.213 394.452 123.382 398.162 113.803 404.636C104.225 411.11 96.3119 420.253 89.3266 429.435C82.3414 438.616 75.2615 449.311 71.3619 460.575C71.1536 461.18 72.1569 461.616 72.403 461.01C77.2978 450.154 83.5712 439.974 91.0682 430.722C98.4131 421.37 106.97 411.621 117.324 405.526C127.679 399.43 140.041 395.493 151.399 391.025C162.652 386.857 173.438 381.521 183.58 375.105C183.921 374.878 183.58 374.329 183.258 374.556V374.613Z" fill="#72B1CC"/>
<path d="M118.971 138.213C111.267 130.11 99.6057 125.17 88.9859 122.33C78.3661 119.491 65.6071 117.825 54.9116 120.607C54.7621 120.645 54.6317 120.736 54.5454 120.864C54.4591 120.992 54.4231 121.147 54.4443 121.299C54.4654 121.452 54.5422 121.591 54.6599 121.691C54.7776 121.79 54.9279 121.843 55.0819 121.838C60.496 121.838 65.7964 121.119 71.2294 121.44C77.0449 121.817 82.8089 122.768 88.4369 124.28C99.5868 127.252 108.825 132.912 118.725 138.402C118.75 138.419 118.781 138.426 118.812 138.421C118.842 138.416 118.869 138.399 118.886 138.373C118.904 138.348 118.911 138.317 118.905 138.287C118.9 138.257 118.883 138.23 118.858 138.213H118.971Z" fill="#72B1CC"/>
<path d="M206.296 326.133C206.296 326.133 364.004 275.135 410.269 298.494C456.534 321.854 439.194 355.853 402.072 370.618C367.297 384.419 284.705 388.924 284.705 388.924L206.296 326.133Z" fill="#549696"/>
<path d="M325.859 340.766C325.859 340.766 355.258 313.941 387.591 310.78C387.591 310.78 352.097 309.171 317.076 336.071C282.055 362.971 325.859 340.766 325.859 340.766Z" fill="#3D7777"/>
<path d="M251.691 204.828C248.325 208.603 244.511 211.953 240.333 214.804C239.5 215.429 228.975 191.917 227.176 189.513C227.176 171.984 227.46 155.307 227.46 155.307C227.46 155.307 239.367 183.986 251.691 204.828Z" fill="#EF6A80"/>
<path d="M160.277 1.44195C160.277 1.44195 127.149 -4.78608 114.106 53.8596C107.235 76.9923 107.424 89.1077 85.5785 101.393C63.7331 113.679 20.5723 140.371 43.2506 182.358C55.1009 201.004 62.7866 212.23 58.7166 229.134C54.6466 246.039 67.6895 295.333 136.444 277.823C205.198 260.312 222.898 263.795 259.869 248.008C365.632 202.575 293.11 110.574 265.112 93.2344C237.115 75.8944 222.482 63.3815 218.222 42.8991C213.963 22.4166 200.163 -6.64124 160.277 1.44195Z" fill="#211C1D"/>
<path d="M175.459 6.23129C165.238 4.71978 154.802 6.5665 145.72 11.4939C136.754 16.5074 129.236 23.7519 123.893 32.5253C123.212 33.6043 122.436 34.6266 121.83 35.7624L120.088 39.1698C118.841 41.4024 117.747 43.7172 116.813 46.0983L113.993 53.235L111.096 60.3716C109.203 65.142 107.424 69.9503 105.247 74.645C103.113 79.3813 100.173 83.7112 96.5581 87.4418C92.8256 91.0432 88.5202 93.9988 83.8181 96.1876C79.1234 98.4024 74.353 100.239 69.7719 102.491C60.4661 106.722 51.7382 112.123 43.7996 118.563C39.8906 121.821 36.3828 125.532 33.3502 129.618C30.3517 133.706 28.0902 138.287 26.6678 143.153C23.7526 152.921 25.3806 163.465 29.1287 172.836C31.8547 178.42 34.6374 183.986 37.0605 189.759C39.6701 195.515 41.2035 201.7 41.5848 208.008C41.6919 211.198 41.3348 214.386 40.5247 217.473C40.2218 219.026 39.5971 220.521 39.1617 221.998C38.6814 223.433 38.3329 224.909 38.1206 226.408C36.9466 235.561 38.5562 244.856 42.7395 253.081C44.1101 255.813 45.7798 258.384 47.7182 260.748C51.5976 265.469 56.4122 269.336 61.859 272.106C72.8196 277.785 85.446 279.186 97.7128 278.769C103.887 278.458 110.042 277.826 116.151 276.876C122.284 275.93 128.418 274.983 134.513 273.828C146.742 271.633 158.876 268.944 170.897 265.878C182.918 262.811 194.825 259.233 206.486 255.012C218.21 250.899 229.602 245.893 240.56 240.038C251.35 234.075 261.838 227.052 269.694 217.53C273.621 212.804 276.429 207.252 277.909 201.288L279.14 196.801L280.162 192.277C280.9 189.267 281.298 186.182 281.866 183.153C283.872 170.924 283.609 158.43 281.09 146.296C279.765 140.261 277.612 134.438 274.691 128.994C271.724 123.586 267.988 118.637 263.598 114.304C259.093 110.139 254.133 106.391 249.325 102.359C244.531 98.3673 239.956 94.1208 235.619 89.6377C231.209 85.1801 227.392 80.1729 224.261 74.7396C221.109 69.2645 219.058 63.2262 218.222 56.9642C217.234 44.5447 213.196 32.5611 206.467 22.0759C203.147 16.8055 198.666 12.3637 193.367 9.08976C187.979 5.89208 181.575 4.86978 175.459 6.23129ZM175.459 6.23129C181.594 4.79989 188.044 5.77552 193.481 8.95725C198.824 12.2031 203.356 16.625 206.732 21.8866C213.59 32.3536 217.764 44.3492 218.885 56.8128C219.737 62.9403 221.775 68.8429 224.886 74.1907C228.034 79.5374 231.851 84.4611 236.244 88.8426C240.576 93.288 245.145 97.4966 249.93 101.45C254.663 105.463 259.642 109.136 264.28 113.395C268.767 117.799 272.593 122.83 275.638 128.331C278.627 133.847 280.832 139.753 282.187 145.879C284.788 158.148 285.096 170.791 283.096 183.172C282.547 186.257 282.131 189.362 281.392 192.391L280.389 196.953L279.159 201.477C278.794 203.005 278.339 204.509 277.796 205.983C277.278 207.481 276.646 208.937 275.903 210.337C275.185 211.743 274.389 213.109 273.517 214.425C272.647 215.732 271.624 216.981 270.735 218.212C262.708 227.979 252.126 235.097 241.26 241.136C230.279 247.06 218.855 252.123 207.091 256.28C195.374 260.558 183.429 264.117 171.389 267.298C159.35 270.478 147.158 273.147 134.911 275.381C128.777 276.535 122.625 277.52 116.473 278.447C110.294 279.402 104.07 280.034 97.8264 280.34C85.3703 280.738 72.4789 279.205 61.1586 273.393C55.517 270.468 50.5364 266.415 46.5256 261.486C44.5297 259.031 42.8094 256.365 41.3955 253.535C39.9588 250.716 38.823 247.752 38.007 244.695C36.2786 238.593 35.8338 232.199 36.7008 225.916C36.9318 224.333 37.3056 222.775 37.8177 221.259C38.272 219.764 38.8589 218.363 39.1617 216.867C39.9512 213.919 40.302 210.87 40.2029 207.819C39.8566 201.683 38.3806 195.663 35.849 190.062C33.4638 184.383 30.7 178.704 28.0119 173.177C26.0439 168.332 24.7694 163.233 24.2258 158.032C23.673 152.838 24.1359 147.585 25.5888 142.566C27.0525 137.566 29.385 132.863 32.4794 128.672C35.5843 124.517 39.1679 120.743 43.156 117.427C51.1859 110.955 60.0093 105.535 69.4122 101.299C74.0501 99.0649 78.8773 97.1908 83.4773 95.0328C88.0954 92.9031 92.3297 90.0248 96.0091 86.5142C99.5503 82.8668 102.432 78.6332 104.528 74.0014C106.534 69.6285 108.427 64.8392 110.32 60.0877L113.33 53.0267L116.208 45.8711C117.167 43.4887 118.286 41.1739 119.558 38.9427L121.451 35.5163C122.057 34.3805 122.852 33.3583 123.534 32.2792C128.97 23.5 136.57 16.2645 145.606 11.2667C154.752 6.40715 165.225 4.64052 175.459 6.23129Z" fill="#211C1D"/>
<path d="M296.555 202.575C289.532 201.667 250.555 147.81 236.774 131.398C227.687 120.626 213.736 119.282 213.736 119.282C203.249 128.236 201.185 146.731 207.451 158.638C233.669 208.481 275.221 237.634 291.444 244.638C278.799 227.658 296.555 202.575 296.555 202.575Z" fill="#FDD7BD"/>
<path d="M266.854 168.501C266.854 174.18 262.5 186.182 259.566 192.504C257.572 196.966 254.917 201.101 251.691 204.771C248.325 208.546 244.511 211.896 240.333 214.747C239.5 215.372 228.975 191.861 227.176 189.457C227.044 189.343 226.968 189.248 226.93 189.248C225.489 188.807 224.155 188.072 223.012 187.09C220.57 185.292 218.165 183.304 215.78 181.411C213.642 179.862 211.844 177.891 210.499 175.619C209.158 172.296 208.714 168.679 209.211 165.131L208.644 116.083C214.408 116.164 220.085 117.498 225.283 119.992C230.48 122.486 235.073 126.081 238.743 130.527C240.621 132.855 242.366 135.288 243.967 137.815C251.123 148.624 259.736 157.862 266.854 168.501Z" fill="#F8798A"/>
<path d="M138.981 369.483C154.238 377.982 153.027 340.311 155.753 340.766C185.568 345.706 260.228 324.58 269.485 312.238C262.916 299.327 229.732 152.505 227.347 148.643C217.692 133.158 218.487 121.175 213.584 116.594C199.368 115.515 197.191 114.701 192.629 114.455C193.537 118.241 195.695 123.144 196.131 128.104C196.266 130.154 195.894 132.206 195.048 134.078C194.201 135.95 192.907 137.585 191.28 138.839C189.652 140.093 187.74 140.926 185.714 141.266C183.688 141.606 181.609 141.441 179.661 140.787C162.624 134.919 151.38 113.755 151.38 113.755C151.38 113.755 129.856 130.375 120.94 137.607C118.082 139.916 113.046 143.702 110.547 149.135C90.8032 192.296 114.125 283.54 127.585 330.032C131.143 342.299 127.982 361.229 138.981 369.483Z" fill="#F8798A"/>
<path d="M111.797 178.875L122.473 239.659C122.473 239.659 142.464 239.224 149.808 236.309C149.808 236.309 193.916 278.372 208.7 276.346C223.485 274.321 174.304 204.09 174.304 204.09L111.797 178.875Z" fill="#EF6A80"/>
<path d="M214.266 237.35C209.344 229.096 185.568 206.058 158.251 164.563C150.547 152.846 135.819 151.18 135.819 151.18C124.461 159.13 127.149 184.232 133.055 196.309C155.298 241.742 197.588 274.112 203.722 274.661C192.742 256.678 214.266 237.35 214.266 237.35Z" fill="#FDD7BD"/>
<path d="M253.641 164.071V164.166C250.299 167.7 247.789 171.936 246.296 176.565C236.566 210.772 231.492 250.904 227.025 259.858C227.025 259.858 219.339 292.039 192.231 266.654C191.512 260.975 219.131 193.716 227.574 173.082C228.931 169.528 229.536 165.732 229.353 161.932C229.107 149.741 237.02 136.812 244.365 132.079C248.037 129.618 264.374 147.678 253.641 164.071Z" fill="#FDD7BD"/>
<path d="M118.119 140.56C118.119 140.56 102.748 151.464 111.323 177.379C113.917 185.254 126.638 232.371 126.638 232.371C126.638 232.371 152.099 231.974 162.492 224.705C183.807 209.807 184.981 198.202 184.981 198.202C184.981 198.202 175.705 187.015 169.004 177.531C165.009 171.851 174.683 173.839 174.683 173.839L159.368 139.254L118.119 140.56Z" fill="#F8798A"/>
<path d="M186.268 163.465C187.021 163.465 187.743 163.166 188.276 162.634C188.808 162.101 189.108 161.379 189.108 160.626C189.108 159.873 188.808 159.151 188.276 158.618C187.743 158.086 187.021 157.786 186.268 157.786C185.515 157.786 184.793 158.086 184.26 158.618C183.728 159.151 183.429 159.873 183.429 160.626C183.429 161.379 183.728 162.101 184.26 162.634C184.793 163.166 185.515 163.465 186.268 163.465Z" fill="#FFB6C2"/>
<path d="M146.515 272.314C147.268 272.314 147.99 272.015 148.523 271.482C149.055 270.95 149.354 270.228 149.354 269.474C149.354 268.721 149.055 267.999 148.523 267.467C147.99 266.934 147.268 266.635 146.515 266.635C145.762 266.635 145.039 266.934 144.507 267.467C143.974 267.999 143.675 268.721 143.675 269.474C143.675 270.228 143.974 270.95 144.507 271.482C145.039 272.015 145.762 272.314 146.515 272.314Z" fill="#FFB6C2"/>
<path d="M176.103 289.522C176.856 289.522 177.578 289.222 178.11 288.69C178.643 288.157 178.942 287.435 178.942 286.682C178.942 285.929 178.643 285.207 178.11 284.674C177.578 284.142 176.856 283.842 176.103 283.842C175.349 283.842 174.627 284.142 174.095 284.674C173.562 285.207 173.263 285.929 173.263 286.682C173.263 287.435 173.562 288.157 174.095 288.69C174.627 289.222 175.349 289.522 176.103 289.522Z" fill="#FFB6C2"/>
<path d="M243.059 259.536C243.812 259.536 244.534 259.237 245.067 258.704C245.599 258.172 245.898 257.45 245.898 256.697C245.898 255.943 245.599 255.221 245.067 254.689C244.534 254.156 243.812 253.857 243.059 253.857C242.306 253.857 241.583 254.156 241.051 254.689C240.518 255.221 240.219 255.943 240.219 256.697C240.219 257.45 240.518 258.172 241.051 258.704C241.583 259.237 242.306 259.536 243.059 259.536Z" fill="#FFB6C2"/>
<path d="M217.976 130.811C218.729 130.811 219.452 130.512 219.984 129.979C220.517 129.447 220.816 128.724 220.816 127.971C220.816 127.218 220.517 126.496 219.984 125.963C219.452 125.431 218.729 125.132 217.976 125.132C217.223 125.132 216.501 125.431 215.968 125.963C215.436 126.496 215.137 127.218 215.137 127.971C215.137 128.724 215.436 129.447 215.968 129.979C216.501 130.512 217.223 130.811 217.976 130.811Z" fill="#FFB6C2"/>
<path d="M130.897 133.65C131.65 133.65 132.373 133.351 132.905 132.819C133.438 132.286 133.737 131.564 133.737 130.811C133.737 130.058 133.438 129.336 132.905 128.803C132.373 128.27 131.65 127.971 130.897 127.971C130.144 127.971 129.422 128.27 128.89 128.803C128.357 129.336 128.058 130.058 128.058 130.811C128.058 131.564 128.357 132.286 128.89 132.819C129.422 133.351 130.144 133.65 130.897 133.65Z" fill="#FFB6C2"/>
<path d="M105.815 238.713C106.568 238.713 107.29 238.414 107.823 237.881C108.355 237.349 108.654 236.626 108.654 235.873C108.654 235.12 108.355 234.398 107.823 233.866C107.29 233.333 106.568 233.034 105.815 233.034C105.062 233.034 104.34 233.333 103.807 233.866C103.275 234.398 102.975 235.12 102.975 235.873C102.975 236.626 103.275 237.349 103.807 237.881C104.34 238.414 105.062 238.713 105.815 238.713Z" fill="#FFB6C2"/>
<path d="M125.218 320.113C125.971 320.113 126.694 319.814 127.226 319.281C127.759 318.749 128.058 318.026 128.058 317.273C128.058 316.52 127.759 315.798 127.226 315.265C126.694 314.733 125.971 314.434 125.218 314.434C124.465 314.434 123.743 314.733 123.21 315.265C122.678 315.798 122.379 316.52 122.379 317.273C122.379 318.026 122.678 318.749 123.21 319.281C123.743 319.814 124.465 320.113 125.218 320.113Z" fill="#FFB6C2"/>
<path d="M226.495 286.985C227.248 286.985 227.97 286.686 228.503 286.153C229.035 285.621 229.334 284.898 229.334 284.145C229.334 283.392 229.035 282.67 228.503 282.138C227.97 281.605 227.248 281.306 226.495 281.306C225.742 281.306 225.019 281.605 224.487 282.138C223.954 282.67 223.655 283.392 223.655 284.145C223.655 284.898 223.954 285.621 224.487 286.153C225.019 286.686 225.742 286.985 226.495 286.985Z" fill="#FFB6C2"/>
<path d="M204.252 209.844C205.005 209.844 205.727 209.545 206.26 209.013C206.792 208.48 207.091 207.758 207.091 207.005C207.091 206.252 206.792 205.53 206.26 204.997C205.727 204.464 205.005 204.165 204.252 204.165C203.499 204.165 202.777 204.464 202.244 204.997C201.712 205.53 201.412 206.252 201.412 207.005C201.412 207.758 201.712 208.48 202.244 209.013C202.777 209.545 203.499 209.844 204.252 209.844Z" fill="#FFB6C2"/>
<path d="M258.676 182.396C259.429 182.396 260.151 182.096 260.684 181.564C261.216 181.031 261.516 180.309 261.516 179.556C261.516 178.803 261.216 178.081 260.684 177.548C260.151 177.016 259.429 176.717 258.676 176.717C257.923 176.717 257.201 177.016 256.668 177.548C256.136 178.081 255.837 178.803 255.837 179.556C255.837 180.309 256.136 181.031 256.668 181.564C257.201 182.096 257.923 182.396 258.676 182.396Z" fill="#FFB6C2"/>
<path d="M128.001 166.305C128.754 166.305 129.476 166.006 130.009 165.473C130.541 164.941 130.841 164.219 130.841 163.465C130.841 162.712 130.541 161.99 130.009 161.458C129.476 160.925 128.754 160.626 128.001 160.626C127.248 160.626 126.526 160.925 125.993 161.458C125.461 161.99 125.161 162.712 125.161 163.465C125.161 164.219 125.461 164.941 125.993 165.473C126.526 166.006 127.248 166.305 128.001 166.305Z" fill="#FFB6C2"/>
<path d="M130.424 213.157C131.177 213.157 131.899 212.858 132.432 212.325C132.964 211.793 133.264 211.071 133.264 210.318C133.264 209.565 132.964 208.842 132.432 208.31C131.899 207.777 131.177 207.478 130.424 207.478C129.671 207.478 128.949 207.777 128.416 208.31C127.884 208.842 127.585 209.565 127.585 210.318C127.585 211.071 127.884 211.793 128.416 212.325C128.949 212.858 129.671 213.157 130.424 213.157Z" fill="#FFB6C2"/>
<path d="M316.432 383.358L245.936 392.994C245.936 392.994 203.173 407.589 176.084 401.702C122.833 390.154 136.936 333.742 144.754 323.615C176.936 282.158 242.037 282.328 242.037 282.328L316.432 383.358Z" fill="#609FA0"/>
<path d="M390.581 501.218C390.581 501.218 371.651 480.679 380.927 468.393C390.203 456.107 401.485 461.843 409.833 469.169C418.182 476.495 453.827 504.833 430.751 523.385L390.581 501.218Z" fill="#D35974"/>
<path d="M365.745 440.849C369.276 444.965 373.159 448.766 377.349 452.208C378.883 453.343 387.837 457.792 392.702 461.18C397.87 464.796 399.062 467.465 404.495 471.668C411.026 476.722 416.459 481.455 417.652 484.105C421.059 491.677 402.508 504.19 397.321 504.076C393.421 504.076 381.041 484.237 378.258 482.004C375.002 479.372 371.822 475.208 367.165 469.453C358.552 458.795 344.865 451.621 344.865 451.621" fill="#FDD7BD"/>
<path d="M399.327 499.666C399.327 499.666 414.68 493.078 413.733 479.429C413.733 479.429 429.048 492.434 434.102 503.319C439.156 514.204 432.701 529.121 415.645 529.102C401.069 529.102 389.9 500.442 389.9 500.442C389.9 500.442 393.232 502.429 399.327 499.666Z" fill="#F8798A"/>
<path d="M326.825 381.163L297.104 363.576C291.758 366.061 286.202 368.069 280.503 369.577C277.814 370.145 273.744 370.6 269.409 371.281C264.557 370.17 259.516 370.17 254.663 371.281C245.198 373.572 247.337 375.2 240.276 383.075C233.215 390.949 218.828 389.719 213.679 396.496C208.53 403.273 218.014 424.74 229.694 424.74C235.941 424.74 237.38 417.262 240.825 414.006C244.27 410.75 271.965 396.382 271.965 396.382C275.032 395.038 278.477 393.278 282.736 391.177C296.082 384.57 326.825 381.163 326.825 381.163Z" fill="#FDD7BD"/>
<g style="mix-blend-mode:multiply" opacity="0.48">
<path d="M214.133 345.233C261.08 431.233 359.593 467.749 359.593 467.749C359.593 467.749 268.444 362.27 229.448 332.285C215.818 321.835 207.64 333.326 214.133 345.233Z" fill="#89A5AF"/>
</g>
<path d="M363.701 472.293C368.282 474.697 384.524 454.82 385.868 450.012C385.868 450.012 360.085 416.562 351.794 406.813C327.43 377.963 303.408 339.592 281.279 309.039C270.488 294.103 254.776 277.368 233.783 283.71C216.537 288.916 205.899 308.452 207.072 324.164C208.246 339.876 218.09 352.389 228.123 363.747C228.179 363.747 303.957 440.831 363.701 472.293Z" fill="#609FA0"/>
<path d="M235.827 141.033C235.827 141.033 243.399 129.183 245.936 125.189C248.473 121.194 254.19 116.159 255.685 116.178C257.181 116.197 256.934 119.377 254.947 122.349C252.4 127.047 250.1 131.874 248.056 136.812L235.827 141.033Z" fill="#FDD7BD"/>
<path d="M479.762 483.783C479.762 483.783 456.061 476.325 449.341 478.369C447.451 479.072 445.768 480.238 444.448 481.761C443.127 483.284 442.21 485.115 441.782 487.085C441.354 489.055 441.429 491.101 441.999 493.035C442.568 494.969 443.616 496.728 445.044 498.151C452.142 505.723 477.982 510.683 488.583 511.402C505.09 512.519 517.603 499.476 511.773 492.926C505.942 486.377 480.935 483.972 480.935 483.972" fill="#D35974"/>
<path d="M471.394 474.659C467.192 478.35 464.239 493.059 465.924 503.338C474.286 505.92 482.959 507.359 491.707 507.616C512.984 506.575 517.717 485.903 504.428 480.641C496.261 477.44 487.795 475.062 479.156 473.542C479.156 473.542 474.31 472.103 471.394 474.659Z" fill="#F8798A"/>
<path d="M192.667 114.436C196.055 119.282 199.784 140.068 190.092 142.832C181.971 145.065 156.642 131.985 151.437 113.83C152.226 113.366 152.973 112.834 153.67 112.24C155.828 110.347 156.624 108.057 157.191 104.044C157.67 100.278 157.86 96.4804 157.759 92.6854C157.759 92.6854 186.401 94.2756 186.325 94.7678C185.52 99.5812 185.745 104.511 186.988 109.23C187.323 110.563 188.038 111.77 189.046 112.704C190.055 113.638 191.312 114.26 192.667 114.493V114.436Z" fill="#FDD7BD"/>
<path d="M305.731 63.0546L279.771 65.9711C276.976 66.2851 274.965 68.8053 275.279 71.6L281.784 129.503C282.098 132.298 284.618 134.309 287.413 133.995L313.373 131.078C316.168 130.764 318.179 128.244 317.865 125.449L311.36 67.5465C311.046 64.7517 308.526 62.7406 305.731 63.0546Z" fill="#E86D74"/>
<path d="M319.896 109.817C320.846 116.939 320.647 124.168 319.31 131.227C319.31 131.227 319.31 131.36 319.31 131.398C319.316 131.524 319.316 131.65 319.31 131.776C318.6 133.867 318.241 136.061 318.249 138.269C319.196 176.641 317.17 219.915 315.088 231.368C312.93 243.237 303.579 251.131 291.577 244.619C281.941 239.394 279.14 227.43 279.14 227.43C283.815 201.401 302.765 130.887 302.765 130.243C292.277 116.765 298.978 103.741 306.153 96.7933C306.815 96.0825 307.659 95.5658 308.593 95.299C309.527 95.0321 310.516 95.0251 311.453 95.2789C311.453 95.2789 318.136 99.1406 319.896 109.817Z" fill="#FDD7BD"/>
<path d="M316.413 100.485L310.204 88.6533C310.204 88.6533 302.632 74.3421 300.02 75.4022C298.429 76.0647 298.751 77.5034 300.02 80.9108C300.02 80.9108 301.591 84.8483 302.916 87.9529C300.038 84.5644 293.64 77.4088 291.804 78.6392C290.384 79.5668 290.952 80.9487 292.959 84.0154C292.959 84.0154 294.624 86.6278 296.29 89.1076C293.167 85.6812 289.116 81.7438 287.696 82.6714C286.276 83.5989 286.863 84.9808 288.87 88.0665C288.87 88.0665 293.697 95.6385 295.136 97.3044C295.911 98.6387 296.485 100.08 296.839 101.583C295.255 99.1385 293.442 96.8503 291.425 94.7488C289.854 93.4805 287.923 93.6319 287.923 95.506C287.923 97.3801 293.015 103.665 293.867 106.296C294.719 108.928 298.41 122.822 298.41 122.822L299.187 109.155L302.234 102.416C302.689 104.309 302.992 105.728 302.992 105.728L305.566 100.049C305.68 102.34 305.717 104.157 305.717 104.157L316.413 100.485Z" fill="#FDD7BD"/>
<path d="M137.201 76.4623C139.544 79.2027 142.567 81.2788 145.966 82.4821C146.547 82.6498 147.101 82.8983 147.613 83.2203C148.155 83.6585 148.622 84.1829 148.995 84.7726C152.105 89.1649 156.309 92.6685 161.19 94.9363C166.071 97.2041 171.459 98.1574 176.822 97.7019C181.182 97.1725 185.347 95.5848 188.954 93.0772C192.56 90.5697 195.498 87.2182 197.513 83.315C198.37 81.5911 199.006 79.7656 199.406 77.882C199.406 77.6927 199.406 77.5034 199.406 77.3141C199.715 75.6013 199.892 73.8672 199.936 72.1273C199.936 71.2754 199.936 70.4235 199.936 69.5717C199.936 68.2655 199.936 66.9782 199.936 65.7856C199.936 60.1066 201.375 54.7304 201.45 49.1271C201.545 41.1764 199.065 31.1055 191.266 27.3006C186.685 25.0668 182.047 25.8808 177.182 25.8997C174.21 25.8997 171.37 24.9532 168.417 25.7483C165.93 26.4325 163.672 27.7747 161.884 29.6336C160.095 31.4926 158.84 33.7994 158.252 36.3113C157.343 40.0974 159.047 43.8834 159.368 47.5369C159.427 49.4627 159.039 51.3758 158.234 53.1264C157.429 54.8769 156.23 56.4173 154.731 57.6267C154.182 58.1 148.73 62.719 148.275 61.5453C147.499 59.8632 146.115 58.5375 144.401 57.835C142.687 57.1326 140.771 57.1055 139.037 57.7592C137.345 58.5083 135.9 59.7226 134.872 61.2609C133.843 62.7992 133.272 64.5981 133.226 66.4482C133.259 70.1646 134.676 73.7351 137.201 76.4623Z" fill="#FDD7BD"/>
<path d="M191.038 62.3593C191.038 64.3848 192.118 65.6153 193.234 65.5396C194.351 65.4638 195.127 64.1576 195.127 62.1321C195.127 60.1066 194.048 59.0844 192.931 59.1412C191.815 59.1979 190.925 60.3338 191.038 62.3593Z" fill="#6C1712"/>
<path d="M176.046 51.1337C173.791 49.3473 170.943 48.4827 168.076 48.7146C165.209 48.9465 162.537 50.2576 160.599 52.3831C159.936 53.1024 161.356 54.0868 161.962 53.4242C163.554 51.5547 165.811 50.3774 168.255 50.1407C170.699 49.904 173.14 50.6266 175.061 52.1559C175.894 52.7427 176.954 51.7962 176.046 51.1337Z" fill="#6C1712"/>
<path d="M190.016 51.4744C193.802 48.5024 198.175 50.0357 200.92 53.5378C201.507 54.295 202.813 53.7271 202.226 52.8185C198.838 48.4835 193.235 46.7797 188.635 50.4333C187.896 51.0201 189.316 52.0234 190.016 51.4744Z" fill="#6C1712"/>
<path d="M167.925 61.6021C168.038 63.6655 169.023 64.9338 170.177 64.8581C171.332 64.7823 172.184 63.4383 172.07 61.3749C171.957 59.3115 170.972 58.2514 169.818 58.3082C168.663 58.365 167.811 59.5387 167.925 61.6021Z" fill="#6C1712"/>
<path d="M179.112 84.4508C175.989 84.0722 171.9 79.4722 173.66 76.3487C173.825 76.0503 174.067 75.8017 174.361 75.6294C174.763 75.5152 175.189 75.5152 175.591 75.6294C177.163 75.8944 178.734 76.1783 180.305 76.3487C184.564 76.8598 187.233 76.7273 187.006 78.5446C186.779 80.3619 183.372 84.943 179.112 84.4508Z" fill="#FBF7EE"/>
<path d="M166.126 70.7832C165.956 72.3544 163.268 73.3388 160.125 72.9981C156.983 72.6573 154.56 71.1051 154.73 69.5528C154.901 68.0005 157.589 66.9783 160.731 67.319C163.874 67.6598 166.297 69.212 166.126 70.7832Z" fill="#F9C5AC"/>
<path d="M197.626 77.2006C198.256 77.2581 198.89 77.2581 199.519 77.2006C199.829 75.4878 200.006 73.7537 200.049 72.0137C199.43 71.8377 198.797 71.7173 198.156 71.654C195.241 71.3322 192.742 72.3166 192.477 73.8499C192.212 75.3833 194.711 76.8787 197.626 77.2006Z" fill="#F9C5AC"/>
<path d="M149.127 74.7775C148.729 72.1272 147.12 69.0984 144.054 68.8145C143.479 68.725 142.89 68.8217 142.375 69.0906C141.859 69.3595 141.442 69.7863 141.186 70.3088C140.93 70.8312 140.848 71.4218 140.952 71.9942C141.056 72.5667 141.34 73.0909 141.763 73.4902C143.921 75.6293 146.628 73.6606 146.515 70.9347C146.278 69.1668 145.664 67.4706 144.713 65.9614C143.763 64.4523 142.498 63.1656 141.006 62.1889C140.173 61.5831 139.662 62.1889 140.514 62.8515C142.823 64.5173 145.53 67.9058 145.019 71.0104C144.906 71.5972 144.376 72.9034 143.675 73.017C141.29 73.4524 142.52 71.124 142.994 70.7264C143.231 70.4483 143.548 70.25 143.902 70.1585L146.988 71.6729C147.4 72.4585 147.639 73.3236 147.688 74.2096C147.688 74.7207 149.26 75.5347 149.127 74.7775Z" fill="#F4A398"/>
<path d="M181.876 62.1321C182.021 63.5398 182.411 64.911 183.031 66.1832C183.65 67.4231 184.412 68.5859 185.303 69.6474L185.738 70.1585L185.151 70.4046C184.545 70.6696 183.883 70.8968 183.258 71.1997C182.974 71.3701 182.652 71.5026 182.368 71.6919C182.07 71.8469 181.836 72.1014 181.706 72.4112C181.706 72.2258 181.744 72.0424 181.819 71.8728C181.894 71.7033 182.004 71.5513 182.141 71.4269C182.373 71.1473 182.64 70.8991 182.936 70.6886C183.532 70.2532 184.165 69.8731 184.829 69.5528L184.697 70.31C183.602 69.2459 182.755 67.9531 182.217 66.5239C181.951 65.8187 181.785 65.0795 181.725 64.328C181.643 63.5929 181.695 62.8491 181.876 62.1321Z" fill="#E2928F"/>
<path d="M175.951 97.7966C175.951 97.7966 163.912 98.4024 157.343 92.7233" stroke="#F2C09E" stroke-width="0.31" stroke-miterlimit="10"/>
<path d="M205.634 45.4546H188.18C188.18 45.4546 188.994 34.8158 186.438 31.3705C186.06 39.0751 186.06 43.8455 185.056 45.4546C180.854 45.606 173.282 44.8678 173.282 44.8678C173.282 44.8678 174.399 32.9039 170.897 30.9919C171.01 34.3047 170.556 45.4546 170.556 45.4546L147.972 45.2274C147.972 45.2274 139.889 18.2709 161.886 9.48725C178.261 2.84276 207.678 6.91275 205.634 45.4546Z" fill="#211C1D"/>
<path d="M140.419 355.285C143.297 349.865 147.147 345.02 151.777 340.993C156.512 337.07 161.728 333.768 167.3 331.168C172.79 328.461 178.45 326.114 183.75 323.179C189.051 320.245 194.048 316.421 200.125 314.755C203.155 313.851 206.374 313.785 209.439 314.566C212.448 315.479 215.194 317.102 217.446 319.299C219.643 321.444 221.716 323.713 223.655 326.095C225.649 328.417 227.605 330.764 229.523 333.137C237.209 342.602 244.819 352.218 252.618 361.532C256.537 366.189 260.569 370.789 264.734 375.237C268.898 379.686 273.29 383.889 277.72 388.11L304.222 413.495C313.1 421.862 322.035 430.192 331.254 438.105C340.473 446.017 350.052 453.684 359.952 460.821V460.915C359.952 460.915 359.952 460.915 359.858 460.915C349.705 454.099 339.929 446.737 330.573 438.862C321.108 431.025 312.059 422.847 303.2 414.442C294.34 406.037 285.576 397.405 276.83 388.962C267.972 380.511 259.693 371.474 252.05 361.911C244.289 352.445 237.02 342.621 229.145 333.288C227.252 330.96 225.188 328.631 223.182 326.341C221.227 324.015 219.142 321.803 216.935 319.715C214.762 317.651 212.117 316.15 209.23 315.342C206.329 314.676 203.302 314.8 200.466 315.702C197.59 316.585 194.832 317.812 192.25 319.355C189.638 320.87 187.12 322.63 184.394 324.069C178.961 326.984 173.263 329.237 167.754 331.849C162.211 334.332 157.007 337.513 152.269 341.314C147.564 345.194 143.578 349.872 140.495 355.134L140.419 355.285Z" fill="#FDFFFF"/>
</svg>
