<svg xmlns="http://www.w3.org/2000/svg" viewBox="0 0 266.99 509.89"><defs><style>.cls-1{fill:#965450;}.cls-2{fill:#76413b;}.cls-3{fill:#352c38;}.cls-4{fill:#fff;}.cls-5{fill:#597a96;}.cls-6{fill:#6f96bd;}.cls-7{fill:#ffa65b;}.cls-8{fill:#ce8a41;}.cls-9{fill:#1c181e;}</style></defs><title>ilustra5Prancheta 3</title><g id="OBJECTS"><path class="cls-1" d="M96.39,122.27s7.2,33.18-5.83,43.61-48.22-2.61-37.14,40.4,86,86.66,102.3,65.16,45-99.05,15.64-103-38.45,13.69-36.49-18.9S96.39,122.27,96.39,122.27Z"/><path class="cls-2" d="M97.33,153.09a46.28,46.28,0,0,0,10.42,9.81c9.15,6.15,19.89,7.28,30.6,7.49-3-3.48-4.15-9.67-3.48-20.81,1.95-32.58-38.48-27.31-38.48-27.31S100.14,139.55,97.33,153.09Z"/><path class="cls-1" d="M151.59,54.09S93.18,26.19,88.51,67.25c-4.42,38.77,18.06,96.19,49.29,92.43,15.5-1.86,28.23-6.34,24.43-42.87C158.64,82.33,159.46,68.61,151.59,54.09Z"/><path class="cls-3" d="M115.65,68.13s1.63,13.69-8.8,16.94c0,0,5.75,46.88,6.52,51.81.94,6,9.14,10.53,9.14-8.69,0-15.31,13.34-9.56,19.53-10.21s13.68-3.58,14.66,8.8,7.17,5.21,5.54-10.43c0,0,11.08,36.17-5.22,43s-51.53,19.59-55.77-28S89.91,93.54,87,99.08s-2,23.79,9.13,24.44c0,0-32.26-28-23.79-51.15S94.47,56.08,94.47,56.08s2.93-15.64,15.64-19.23,16.29,14,33.56.65,29,16.3,37.47,2.29c0,0,2.6,14-12.39,11.4,0,0,6.85,6.84,12.71-2.28,0,0-2.28,24.76-27,20.52S136.82,82.14,115.65,68.13Z"/><path class="cls-1" d="M99.36,110.16s-.68-19.61-9.8-15.38-5.19,33,10.12,29.39Z"/><path class="cls-4" d="M126.15,124.85s19.13,1.21,27.33,1.36C153.48,126.21,142.4,137.15,126.15,124.85Z"/><path class="cls-2" d="M96.7,121.05a11,11,0,0,1-2.38-1.4,6.48,6.48,0,0,1-1-1,3.23,3.23,0,0,1-.69-1.4,2.18,2.18,0,0,1,0-.88,2.52,2.52,0,0,1,.36-.8,4.31,4.31,0,0,1,1.16-1.1,11.31,11.31,0,0,1,2.66-1.16l-.58.79a75.14,75.14,0,0,0-1.11-7.47,34,34,0,0,0-1-3.57,7.39,7.39,0,0,0-1.64-2.89,1.46,1.46,0,0,0-1.09-.43h0l-.12,0-.23,0c-.15,0-.19.08-.3.1a2.89,2.89,0,0,0-.6.36,5.8,5.8,0,0,0-1.57,2.93,20.39,20.39,0,0,0-.57,3.7c-.09,1.27-.13,2.55-.11,3.84a22.47,22.47,0,0,1-.64-3.84,17.45,17.45,0,0,1,.08-4,8.55,8.55,0,0,1,.52-2,5.23,5.23,0,0,1,1.2-1.88,4.17,4.17,0,0,1,1-.7c.2-.08.45-.18.61-.23l.23,0,.12,0h.21a3.23,3.23,0,0,1,2.46.74,6,6,0,0,1,1.41,1.75A13.8,13.8,0,0,1,96,102.4a24.36,24.36,0,0,1,1,3.85,36.62,36.62,0,0,1,.56,3.88c.12,1.3.23,2.58.24,3.9v.66l-.58.13a10.73,10.73,0,0,0-2.4.79,2.89,2.89,0,0,0-.89.65,1.22,1.22,0,0,0-.25.4.92.92,0,0,0-.08.47,3.75,3.75,0,0,0,1.12,2.11A13.85,13.85,0,0,0,96.7,121.05Z"/><path class="cls-2" d="M141.49,117.86c1.72-.39,3.46-.69,5.19-1s3.47-.52,5.21-.75l-.7,1.11c-.82-2-1.57-4-2.26-6.1s-1.3-4.13-1.86-6.23c-.28-1-.52-2.1-.75-3.16s-.47-2.12-.61-3.21-.37-2.14-.43-3.23-.12-2.18-.15-3.26c.31,1,.6,2.09.87,3.13.11.52.29,1,.45,1.55l.46,1.54.45,1.54.49,1.53c.34,1,.61,2.06,1,3.07s.65,2,1,3.07.68,2,1,3.06l2,6.12.35,1.08-1.05,0c-1.76.07-3.51.14-5.27.16S143.25,118,141.49,117.86Z"/><path class="cls-3" d="M148.79,98.39l.31.82c.19.51.48,1.23.86,2.06.2.41.42.84.67,1.28a9.82,9.82,0,0,0,.88,1.26,6.88,6.88,0,0,0,.53.55,5.79,5.79,0,0,0,.59.42,2.24,2.24,0,0,0,.64.27,2,2,0,0,0,.69.1h.19l.11,0,.46-.06c.19,0,.21-.07.31-.1s.17,0,.26-.1a3,3,0,0,0,1-.94,6.22,6.22,0,0,0,.67-1.31c.16-.47.31-.93.42-1.37.21-.88.33-1.65.42-2.19s.13-.86.13-.86a7.17,7.17,0,0,1,.23.85,10.92,10.92,0,0,1,.24,2.32,9.28,9.28,0,0,1-.14,1.6,6.07,6.07,0,0,1-.61,1.78l-.26.45c-.11.15-.23.29-.35.43a3.76,3.76,0,0,1-.88.74,4.69,4.69,0,0,1-1.16.45l-.46.07-.12,0h-.51a3.64,3.64,0,0,1-1.14-.2,3.68,3.68,0,0,1-1-.49,4.83,4.83,0,0,1-.85-.69c-.22-.27-.44-.53-.63-.8a8.87,8.87,0,0,1-1.25-3.17,10.59,10.59,0,0,1-.24-2.32A7.87,7.87,0,0,1,148.79,98.39Z"/><path class="cls-3" d="M121.79,101.32l.33.86c.21.54.52,1.3.94,2.17.21.43.45.88.72,1.34a10.91,10.91,0,0,0,1,1.31,7.53,7.53,0,0,0,.57.56,5.12,5.12,0,0,0,.64.43,2.25,2.25,0,0,0,.69.27,2,2,0,0,0,.74.11l.19,0h.13l.48-.07a.87.87,0,0,0,.35-.1l.27-.1a3,3,0,0,0,1.08-1,6.4,6.4,0,0,0,.73-1.37c.18-.49.33-1,.46-1.43.22-.93.36-1.74.45-2.31s.13-.91.13-.91a6.91,6.91,0,0,1,.25.89,11.39,11.39,0,0,1,.26,2.46l0,.82c0,.28-.08.57-.13.87a6.15,6.15,0,0,1-.69,1.88,4.43,4.43,0,0,1-1.62,1.69c-.19.09-.41.18-.63.26a2.7,2.7,0,0,1-.59.18l-.49.07-.12,0h-.54a4.08,4.08,0,0,1-1.2-.2,3.55,3.55,0,0,1-1.1-.5,5.65,5.65,0,0,1-1.6-1.55,8.13,8.13,0,0,1-.9-1.72,10.66,10.66,0,0,1-.48-1.61,12.25,12.25,0,0,1-.27-2.45A8.83,8.83,0,0,1,121.79,101.32Z"/><path class="cls-3" d="M137.66,90.74l-1-.76c-.63-.46-1.5-1.11-2.57-1.75a17.08,17.08,0,0,0-3.62-1.73,11.94,11.94,0,0,0-2-.47,11.21,11.21,0,0,0-2.09,0,11.86,11.86,0,0,0-2.11.39c-.35.1-.7.2-1,.33a10,10,0,0,0-1,.41c-.34.13-.66.29-1,.45s-.65.3-1,.48c-.63.33-1.22.65-1.76,1s-1.06.62-1.52.9l-1.2.72c-.67.41-1.09.63-1.09.63a11.63,11.63,0,0,1,.52-1.15,8.93,8.93,0,0,1,.71-1.26A12.52,12.52,0,0,1,117,87.34l.7-.84.82-.83a11,11,0,0,1,.95-.82,9.82,9.82,0,0,1,1.07-.78,9.55,9.55,0,0,1,1.21-.7l.64-.33.69-.26a11.58,11.58,0,0,1,3-.68,11,11,0,0,1,3.09.21,10.78,10.78,0,0,1,2.77,1,11.82,11.82,0,0,1,3.75,3.24,12.36,12.36,0,0,1,1.65,2.94A6.62,6.62,0,0,1,137.66,90.74Z"/><path class="cls-3" d="M146.24,91.65a8.47,8.47,0,0,1,.57-3.06,10.63,10.63,0,0,1,1.54-2.8,8.13,8.13,0,0,1,1.32-1.38,7.64,7.64,0,0,1,1.79-1.15,5.92,5.92,0,0,1,2.29-.53,5.15,5.15,0,0,1,2.3.46,4.81,4.81,0,0,1,.92.53,4.7,4.7,0,0,1,.74.63,6,6,0,0,1,1,1.33,6.66,6.66,0,0,1,.77,2.18,6,6,0,0,1,.09.87,8,8,0,0,1-.74-.44c-.45-.28-1.07-.68-1.76-1.05a4.39,4.39,0,0,0-.53-.27,3.25,3.25,0,0,0-.54-.23,2.18,2.18,0,0,0-.53-.17,5.09,5.09,0,0,0-.51-.1,2.81,2.81,0,0,0-.92,0,3.54,3.54,0,0,0-1,.32,11.83,11.83,0,0,0-2.24,1.38c-.76.56-1.5,1.15-2.16,1.67s-1.26,1-1.7,1.27S146.24,91.65,146.24,91.65Z"/><polygon class="cls-5" points="201.99 345.07 227.4 510.59 182.44 510.59 143.34 372.44 201.99 345.07"/><polygon class="cls-6" points="100.33 357.45 92.19 510.59 139.19 510.59 151.81 438.91 213.69 421.64 201.34 339.86 100.33 357.45"/><path class="cls-5" d="M149.62,383.94c18.67-1.28,40.78-3.46,56.65-14.74l-4.93-29.34-101,17.59-.7,23.38A196.45,196.45,0,0,0,149.62,383.94Z"/><path class="cls-7" d="M86.65,167.83s13.68,15,34.54,15.64,23.45-13.69,23.45-13.69,33.89-14.33,43,6.52S208.5,356.15,208.5,356.15s-27.36,34.54-113.38,8.47c0,0-56-179.2-42.36-186.36S86.65,167.83,86.65,167.83Z"/><path class="cls-8" d="M130.84,262.41A312.16,312.16,0,0,1,68.6,212.73c-5.91-6.14-11.69-12.41-17.5-18.66,4.83,45.24,44,170.55,44,170.55,86,26.07,113.38-8.47,113.38-8.47s-2.09-28.34-5.19-62.65A273.6,273.6,0,0,1,130.84,262.41Z"/><path class="cls-1" d="M54.07,192.59s0,104.91,5.21,123.81S93.17,390,93.17,390l4.56,19.54,11.46.06,4.18-39.15-7.82-2.61-15-64.51L87.3,197.8Z"/><path class="cls-2" d="M77.4,270.54a76.05,76.05,0,0,0,12.17.86L87.3,197.8l-33.23-5.21s0,37.44,1.11,71.61A102.35,102.35,0,0,0,77.4,270.54Z"/><path class="cls-2" d="M97.94,409.58l11.25.06,4.18-39.15-.63-.21C109.48,383.9,103.5,396.7,97.94,409.58Z"/><path class="cls-7" d="M86.65,167.83s-35.84,3.91-38.45,16.29-.65,73-.65,73,22.16,11.73,47.57,7.82Z"/><path class="cls-7" d="M156.37,167.18s26.07-13.69,38.45,11.08,13.68,61.9,13.68,61.9l-27.36,6.52Z"/><path class="cls-8" d="M172.27,218.23l8.87,28.45,27.36-6.52s-.88-25.12-8.08-47.81C191.13,201.07,181.71,209.66,172.27,218.23Z"/><rect class="cls-9" x="140.88" y="209.17" width="70.03" height="35.02" rx="2.46" ry="2.46" transform="translate(-83.69 348.89) rotate(-77.4)"/><path class="cls-1" d="M196.77,223.87s-73-12.38-19.54,2.61c0,0-54.74-9.13-2,5.86,0,0-48.87-6.52,0,7.17,0,0-39.75-2,5.87,7.17,0,0-.66,78.19,27.36,82.75S217.63,259.71,196.77,223.87Z"/></g></svg>