<svg width="406" height="554" viewBox="0 0 406 554" fill="none" xmlns="http://www.w3.org/2000/svg">
<path fill-rule="evenodd" clip-rule="evenodd" d="M296.265 198.052C296.265 198.052 328.518 200.236 332.407 200.744C336.296 201.251 339.676 209.021 337.643 214.417C335.61 219.812 329.37 230.782 299.811 229.931L296.265 198.052Z" fill="#FDD7BD"/>
<path fill-rule="evenodd" clip-rule="evenodd" d="M318.225 307.73L304.881 352.609C303.935 354.269 302.439 355.548 300.651 356.227C298.863 356.906 296.895 356.942 295.083 356.329C288.323 354.297 282.578 342.148 283.938 330.671C285.298 319.194 301.73 292.889 301.73 292.889L318.225 307.73Z" fill="#FDD7BD"/>
<path fill-rule="evenodd" clip-rule="evenodd" d="M293.647 287.48C293.647 287.48 306.152 318.356 316.954 323.764C327.756 329.173 335.495 325.009 336.766 320.717C338.037 316.426 336.931 311.615 334.402 304.696C331.873 297.776 320.423 273.312 320.423 273.312C318.623 270.095 315.883 267.504 312.57 265.885C307.169 263.346 298.972 259.22 298.972 259.22L293.647 287.48Z" fill="#FDD7BD"/>
<path fill-rule="evenodd" clip-rule="evenodd" d="M158.852 81.1379C158.318 80.014 157.433 79.0935 156.331 78.5144C155.229 77.9353 153.969 77.7288 152.739 77.9259C148.355 78.6114 140.247 98.1754 130.449 121.459C128.057 127.587 126.414 133.981 125.557 140.503C124.032 151.637 113.725 192.466 113.725 201.251C113.725 210.037 113.052 259.651 111.705 266.71C110.358 273.769 101.907 370.307 99.8861 408.102C99.2379 420.086 92.8203 461.804 84.3567 513.171H209.443C209.138 469.269 209.024 437.429 209.316 435.435C210.333 428.681 229.255 408.102 236.003 355.453C236.003 355.453 250.198 332.854 250.872 323.396C251.545 313.938 158.852 239.732 158.852 239.732L153.248 198.738L158.852 143.232V81.1379Z" fill="#FDD7BD"/>
<path d="M158.852 239.732C154.638 242.365 151.279 246.162 149.181 250.663" stroke="#DBAF91" stroke-width="1.42" stroke-linecap="round" stroke-linejoin="round"/>
<path d="M285.641 37.8965H175.004C166.111 37.8965 158.903 45.0982 158.903 53.9819V317.01C158.903 325.894 166.111 333.096 175.004 333.096H285.641C294.534 333.096 301.742 325.894 301.742 317.01V53.9819C301.742 45.0982 294.534 37.8965 285.641 37.8965Z" fill="#CC6D73"/>
<path d="M288.259 77.9005H172.373C170.731 77.9005 169.4 79.2305 169.4 80.8713V290.121C169.4 291.762 170.731 293.092 172.373 293.092H288.259C289.901 293.092 291.233 291.762 291.233 290.121V80.8713C291.233 79.2305 289.901 77.9005 288.259 77.9005Z" fill="white"/>
<path fill-rule="evenodd" clip-rule="evenodd" d="M230.323 300.481C232.887 300.478 235.394 301.235 237.527 302.657C239.661 304.078 241.324 306.1 242.307 308.466C243.29 310.832 243.549 313.436 243.05 315.949C242.551 318.461 241.318 320.77 239.505 322.582C237.693 324.395 235.384 325.629 232.869 326.13C230.354 326.631 227.747 326.375 225.378 325.395C223.008 324.415 220.983 322.756 219.558 320.626C218.133 318.496 217.373 315.992 217.373 313.43C217.373 309.998 218.737 306.706 221.165 304.278C223.593 301.85 226.887 300.484 230.323 300.481Z" fill="#D4CFE6"/>
<path fill-rule="evenodd" clip-rule="evenodd" d="M222.316 64.9509C221.936 64.9509 221.57 64.7998 221.301 64.5307C221.032 64.2617 220.88 63.8968 220.88 63.5163C220.88 63.1358 221.032 62.7709 221.301 62.5019C221.57 62.2328 221.936 62.0817 222.316 62.0817H245.941C246.322 62.0817 246.687 62.2328 246.956 62.5019C247.226 62.7709 247.377 63.1358 247.377 63.5163C247.377 63.8968 247.226 64.2617 246.956 64.5307C246.687 64.7998 246.322 64.9509 245.941 64.9509H222.316ZM214.692 64.9509C214.311 64.9509 213.945 64.7998 213.676 64.5307C213.407 64.2617 213.255 63.8968 213.255 63.5163C213.255 63.1358 213.407 62.7709 213.676 62.5019C213.945 62.2328 214.311 62.0817 214.692 62.0817H216.445C216.826 62.0817 217.191 62.2328 217.461 62.5019C217.73 62.7709 217.881 63.1358 217.881 63.5163C217.881 63.8968 217.73 64.2617 217.461 64.5307C217.191 64.7998 216.826 64.9509 216.445 64.9509H214.692Z" fill="#D4CFE6"/>
<path fill-rule="evenodd" clip-rule="evenodd" d="M131.237 329.325L181.561 272.956C181.561 272.956 191.029 262.66 201.5 270.087C211.972 277.514 224.299 289.994 224.299 289.994C224.299 289.994 233.919 294.387 237.007 295.897C240.095 297.408 247.822 301.471 250.185 308.225C252.549 314.979 250.694 321.213 247.733 322.812C247.733 322.812 244.276 331.445 230.424 332.258C216.572 333.07 201.716 328.893 201.716 328.893C200.348 329.734 198.759 330.145 197.154 330.074C197.154 330.074 185.59 350.819 183.722 354.031C183.722 354.031 185.247 367.526 173.428 370.535C161.61 373.544 98.0561 365.508 131.237 329.325Z" fill="#FDD7BD"/>
<path d="M153.298 198.738L147.211 197.849" stroke="#DBAF91" stroke-width="1.42" stroke-linecap="round" stroke-linejoin="round"/>
<path d="M158.903 143.232L151.265 140.82" stroke="#DBAF91" stroke-width="1.42" stroke-linecap="round" stroke-linejoin="round"/>
<path d="M187.737 342.554C199.967 363.58 206.38 387.478 206.317 411.796" stroke="#DBAF91" stroke-width="1.42" stroke-linecap="round" stroke-linejoin="round"/>
<path d="M209.367 435.461L209.189 426.472" stroke="#DBAF91" stroke-width="1.42" stroke-linecap="round" stroke-linejoin="round"/>
<path d="M199.06 433.899C199.06 433.899 191.436 459.379 188.424 466.794" stroke="#DBAF91" stroke-width="1.42" stroke-linecap="round" stroke-linejoin="round"/>
<path d="M194.765 330.087C194.65 323.962 193.054 317.956 190.114 312.58" stroke="#DBAF91" stroke-width="1.42" stroke-linecap="round" stroke-linejoin="round"/>
<path d="M199.327 328.906C199.327 328.906 200.751 318.483 200.751 315.627" stroke="#DBAF91" stroke-width="1.42" stroke-linecap="round" stroke-linejoin="round"/>
<path fill-rule="evenodd" clip-rule="evenodd" d="M141.365 96.1822C142.928 95.9875 144.417 95.4043 145.696 94.4861C146.975 93.5679 148.002 92.3439 148.685 90.9262C150.159 88.1713 152.638 82.4328 154.557 77.9005C153.988 77.8187 153.41 77.8187 152.841 77.9005C150.172 78.3321 146.207 85.5052 141.365 96.1822Z" fill="#F0DCE4"/>
<path fill-rule="evenodd" clip-rule="evenodd" d="M337.198 317.67C337.351 314.141 336.296 310.053 334.351 304.696C333.487 302.334 331.581 297.929 329.433 293.142C329.054 293.306 328.743 293.594 328.551 293.959C328.359 294.324 328.298 294.744 328.379 295.148C328.544 296.748 334.212 315.639 334.212 316.325C334.212 317.01 337.058 316.502 337.198 317.67Z" fill="#F0DCE4"/>
<path fill-rule="evenodd" clip-rule="evenodd" d="M310.524 333.616L304.881 352.66C304.348 349.041 299.074 347.581 298.527 346.997C297.981 346.413 297.523 345.474 299.544 340.497C301.564 335.521 304.36 326.837 307.652 327.929C310.943 329.02 310.524 333.565 310.524 333.616Z" fill="#F0DCE4"/>
<path fill-rule="evenodd" clip-rule="evenodd" d="M221.948 290.007C221.948 290.007 231.581 294.399 234.656 295.91C237.731 297.421 245.471 301.484 247.834 308.238C250.198 314.992 248.343 321.225 245.382 322.825C241.938 320.73 233.461 312.783 231.606 305.051C229.751 297.319 221.948 290.007 221.948 290.007Z" fill="#F0DCE4"/>
<path d="M199.327 328.906C197.959 329.747 196.37 330.158 194.765 330.087C194.765 330.087 183.188 350.831 181.333 354.043C181.333 354.043 182.858 367.539 171.039 370.548M128.899 329.325L159.614 294.933L128.899 329.325Z" stroke="#DBAF91" stroke-width="1.42" stroke-linecap="round" stroke-linejoin="round"/>
<path fill-rule="evenodd" clip-rule="evenodd" d="M191.779 335.419L236.054 355.478C240.533 348.289 244.532 340.812 248.025 333.096H193.075C192.694 333.798 192.262 334.573 191.779 335.419Z" fill="#DBAF91"/>
<path fill-rule="evenodd" clip-rule="evenodd" d="M177.126 367.234L192.719 351.822C190.826 347.886 189.085 344.788 187.763 342.605C184.954 347.683 182.171 352.609 181.333 354.031C181.333 354.044 182.248 362.169 177.126 367.234Z" fill="#DBAF91"/>
<path fill-rule="evenodd" clip-rule="evenodd" d="M312.621 229.487L305.377 198.687L301.742 198.433V229.982C305.375 230.046 309.009 229.881 312.621 229.487Z" fill="#DBAF91"/>
<path fill-rule="evenodd" clip-rule="evenodd" d="M301.742 312.072L311.68 329.731L314.044 321.758C309.723 318.039 305.339 311.145 301.742 304.518V312.072Z" fill="#DBAF91"/>
<path fill-rule="evenodd" clip-rule="evenodd" d="M302.085 293.193L308.287 263.892C305.923 262.736 303.521 261.543 301.742 260.654V294.818L302.085 293.193Z" fill="#DBAF91"/>
<path fill-rule="evenodd" clip-rule="evenodd" d="M222.672 170.795V144.451C222.695 144.141 222.778 143.839 222.919 143.561C223.059 143.284 223.253 143.037 223.489 142.835C223.726 142.633 224 142.48 224.296 142.385C224.592 142.29 224.904 142.254 225.214 142.28C225.869 142.276 226.504 142.506 227.006 142.928L242.255 156.093C242.484 156.277 242.668 156.511 242.794 156.775C242.921 157.04 242.986 157.329 242.986 157.623C242.986 157.916 242.921 158.206 242.794 158.47C242.668 158.735 242.484 158.968 242.255 159.153L227.006 172.318C226.507 172.73 225.88 172.955 225.233 172.955C224.586 172.955 223.959 172.73 223.46 172.318C223.225 172.137 223.032 171.907 222.896 171.644C222.76 171.381 222.684 171.091 222.672 170.795Z" fill="#496197"/>
<path d="M254.303 130.689H206.342C202.91 130.689 200.128 133.468 200.128 136.897V178.336C200.128 181.764 202.91 184.544 206.342 184.544H254.303C257.735 184.544 260.517 181.764 260.517 178.336V136.897C260.517 133.468 257.735 130.689 254.303 130.689Z" stroke="#171533" stroke-width="2.13" stroke-linecap="round" stroke-linejoin="round"/>
<path fill-rule="evenodd" clip-rule="evenodd" d="M281.092 103.33H245.267C244.012 103.33 242.809 103.827 241.92 104.712C241.031 105.598 240.531 106.799 240.527 108.053V141.455C240.526 141.56 240.557 141.662 240.616 141.748C240.675 141.835 240.759 141.901 240.858 141.937C240.952 141.983 241.059 141.997 241.163 141.976C241.266 141.956 241.36 141.902 241.429 141.823L249.499 133.761H281.155C282.41 133.758 283.612 133.258 284.499 132.37C285.385 131.482 285.883 130.28 285.883 129.026V108.053C285.881 107.428 285.755 106.809 285.513 106.233C285.271 105.656 284.917 105.133 284.472 104.694C284.026 104.255 283.498 103.909 282.918 103.674C282.338 103.44 281.717 103.323 281.092 103.33Z" fill="#B85972"/>
<path fill-rule="evenodd" clip-rule="evenodd" d="M248.419 117.168H266.515C266.913 117.168 267.294 117.326 267.576 117.607C267.857 117.888 268.015 118.269 268.015 118.666C268.015 119.063 267.857 119.445 267.576 119.725C267.294 120.006 266.913 120.164 266.515 120.164H248.419C248.02 120.164 247.637 120.007 247.354 119.726C247.071 119.446 246.91 119.065 246.907 118.666C246.91 118.268 247.071 117.887 247.354 117.606C247.637 117.326 248.02 117.168 248.419 117.168Z" fill="white"/>
<path fill-rule="evenodd" clip-rule="evenodd" d="M273.225 117.168H277.902C278.299 117.168 278.681 117.326 278.962 117.607C279.243 117.888 279.401 118.269 279.401 118.666C279.401 119.063 279.243 119.445 278.962 119.725C278.681 120.006 278.299 120.164 277.902 120.164H273.225C272.827 120.164 272.446 120.006 272.165 119.725C271.884 119.445 271.726 119.063 271.726 118.666C271.726 118.269 271.884 117.888 272.165 117.607C272.446 117.326 272.827 117.168 273.225 117.168Z" fill="white"/>
<path fill-rule="evenodd" clip-rule="evenodd" d="M259.78 124.138H277.876C278.078 124.138 278.277 124.178 278.462 124.257C278.648 124.335 278.815 124.45 278.955 124.595C279.095 124.739 279.204 124.91 279.277 125.098C279.349 125.286 279.383 125.486 279.376 125.687C279.376 126.084 279.218 126.465 278.937 126.746C278.656 127.027 278.274 127.185 277.876 127.185H259.78C259.381 127.185 258.998 127.028 258.715 126.747C258.432 126.466 258.271 126.085 258.268 125.687C258.263 125.485 258.298 125.285 258.372 125.097C258.445 124.909 258.556 124.738 258.697 124.594C258.838 124.45 259.006 124.335 259.192 124.257C259.378 124.178 259.578 124.138 259.78 124.138Z" fill="white"/>
<path fill-rule="evenodd" clip-rule="evenodd" d="M248.419 110.198H266.515C266.714 110.198 266.911 110.238 267.095 110.315C267.279 110.392 267.445 110.504 267.585 110.646C267.724 110.788 267.834 110.956 267.908 111.141C267.982 111.325 268.018 111.523 268.015 111.722C268.015 112.12 267.857 112.503 267.576 112.786C267.296 113.069 266.914 113.229 266.515 113.233H248.419C248.019 113.229 247.636 113.069 247.353 112.786C247.07 112.504 246.91 112.121 246.907 111.722C246.905 111.522 246.943 111.324 247.018 111.14C247.093 110.955 247.204 110.787 247.345 110.645C247.486 110.504 247.653 110.391 247.837 110.314C248.022 110.238 248.219 110.198 248.419 110.198Z" fill="white"/>
<path fill-rule="evenodd" clip-rule="evenodd" d="M178.905 212.017H211.146C212.402 212.014 213.606 211.514 214.494 210.627C215.382 209.739 215.883 208.537 215.886 207.282V173.93C215.886 173.826 215.854 173.724 215.795 173.638C215.736 173.552 215.653 173.486 215.556 173.448C215.46 173.406 215.354 173.395 215.252 173.415C215.149 173.435 215.056 173.487 214.984 173.562L206.901 181.548H178.943C177.688 181.548 176.485 182.045 175.596 182.93C174.708 183.816 174.207 185.017 174.203 186.271V207.244C174.197 208.499 174.687 209.705 175.568 210.6C176.449 211.494 177.649 212.004 178.905 212.017Z" fill="#6C9494"/>
<path fill-rule="evenodd" clip-rule="evenodd" d="M209.761 198.192H191.664C191.265 198.188 190.884 198.028 190.603 197.745C190.322 197.462 190.165 197.079 190.165 196.681C190.165 196.284 190.323 195.903 190.604 195.622C190.885 195.341 191.267 195.183 191.664 195.183H209.761C210.158 195.183 210.54 195.341 210.821 195.622C211.102 195.903 211.26 196.284 211.26 196.681C211.26 197.079 211.103 197.462 210.822 197.745C210.541 198.028 210.16 198.188 209.761 198.192Z" fill="white"/>
<path fill-rule="evenodd" clip-rule="evenodd" d="M184.967 198.192H180.303C179.903 198.188 179.52 198.028 179.238 197.746C178.955 197.463 178.794 197.081 178.791 196.681C178.794 196.282 178.955 195.901 179.238 195.621C179.522 195.34 179.904 195.183 180.303 195.183H184.967C185.366 195.183 185.749 195.34 186.032 195.621C186.315 195.901 186.476 196.282 186.479 196.681C186.476 197.081 186.316 197.463 186.033 197.746C185.75 198.028 185.367 198.188 184.967 198.192Z" fill="white"/>
<path fill-rule="evenodd" clip-rule="evenodd" d="M198.4 191.222H180.303C179.902 191.222 179.517 191.063 179.234 190.779C178.95 190.496 178.791 190.112 178.791 189.711C178.794 189.313 178.955 188.932 179.238 188.651C179.522 188.37 179.904 188.213 180.303 188.213H198.4C198.597 188.213 198.792 188.252 198.973 188.327C199.155 188.402 199.321 188.513 199.46 188.652C199.599 188.791 199.71 188.956 199.785 189.138C199.86 189.32 199.899 189.514 199.899 189.711C199.901 189.909 199.863 190.105 199.789 190.288C199.714 190.472 199.604 190.638 199.465 190.779C199.325 190.919 199.159 191.031 198.976 191.107C198.794 191.183 198.598 191.222 198.4 191.222Z" fill="white"/>
<path fill-rule="evenodd" clip-rule="evenodd" d="M209.761 205.149H191.664C191.267 205.149 190.885 204.991 190.604 204.71C190.323 204.429 190.165 204.048 190.165 203.651C190.165 203.254 190.323 202.872 190.604 202.592C190.885 202.311 191.267 202.153 191.664 202.153H209.761C210.158 202.153 210.54 202.311 210.821 202.592C211.102 202.872 211.26 203.254 211.26 203.651C211.26 204.048 211.102 204.429 210.821 204.71C210.54 204.991 210.158 205.149 209.761 205.149Z" fill="white"/>
<path fill-rule="evenodd" clip-rule="evenodd" d="M232.673 117.168H214.577C214.179 117.168 213.798 117.326 213.517 117.607C213.236 117.888 213.078 118.269 213.078 118.666C213.078 119.063 213.236 119.445 213.517 119.725C213.798 120.006 214.179 120.164 214.577 120.164H232.673C233.072 120.164 233.455 120.007 233.738 119.726C234.022 119.446 234.182 119.065 234.186 118.666C234.182 118.268 234.022 117.887 233.738 117.606C233.455 117.326 233.072 117.168 232.673 117.168Z" fill="#171533"/>
<path fill-rule="evenodd" clip-rule="evenodd" d="M207.893 117.168H203.216C202.818 117.168 202.437 117.326 202.156 117.607C201.874 117.888 201.716 118.269 201.716 118.666C201.716 119.063 201.874 119.445 202.156 119.725C202.437 120.006 202.818 120.164 203.216 120.164H207.893C208.29 120.164 208.672 120.006 208.953 119.725C209.234 119.445 209.392 119.063 209.392 118.666C209.392 118.269 209.234 117.888 208.953 117.607C208.672 117.326 208.29 117.168 207.893 117.168Z" fill="#171533"/>
<path fill-rule="evenodd" clip-rule="evenodd" d="M232.674 110.198H214.577C214.378 110.198 214.181 110.238 213.997 110.315C213.814 110.392 213.647 110.504 213.508 110.646C213.368 110.788 213.258 110.956 213.184 111.141C213.11 111.325 213.074 111.523 213.078 111.722C213.078 112.12 213.235 112.503 213.516 112.786C213.797 113.069 214.178 113.229 214.577 113.233H232.674C233.074 113.229 233.456 113.069 233.739 112.786C234.022 112.504 234.182 112.121 234.186 111.722C234.187 111.522 234.15 111.324 234.074 111.14C233.999 110.955 233.888 110.787 233.747 110.645C233.607 110.504 233.439 110.391 233.255 110.314C233.071 110.238 232.873 110.198 232.674 110.198Z" fill="#171533"/>
<path fill-rule="evenodd" clip-rule="evenodd" d="M223.663 196.554H241.76C242.159 196.554 242.541 196.397 242.825 196.116C243.108 195.835 243.269 195.454 243.272 195.056C243.269 194.657 243.108 194.276 242.825 193.996C242.541 193.715 242.159 193.558 241.76 193.558H223.663C223.467 193.558 223.272 193.597 223.09 193.672C222.908 193.747 222.742 193.858 222.603 193.997C222.464 194.136 222.353 194.301 222.278 194.483C222.203 194.664 222.164 194.859 222.164 195.056C222.164 195.453 222.322 195.834 222.603 196.115C222.884 196.396 223.266 196.554 223.663 196.554Z" fill="#171533"/>
<path fill-rule="evenodd" clip-rule="evenodd" d="M248.495 196.554H253.159C253.558 196.554 253.941 196.397 254.224 196.116C254.507 195.835 254.668 195.454 254.671 195.056C254.668 194.657 254.507 194.276 254.224 193.996C253.941 193.715 253.558 193.558 253.159 193.558H248.495C248.096 193.558 247.714 193.715 247.43 193.996C247.147 194.276 246.986 194.657 246.983 195.056C246.986 195.454 247.147 195.835 247.43 196.116C247.714 196.397 248.096 196.554 248.495 196.554Z" fill="#171533"/>
<path fill-rule="evenodd" clip-rule="evenodd" d="M223.663 203.524H241.76C242.159 203.524 242.541 203.366 242.825 203.086C243.108 202.805 243.269 202.424 243.272 202.026C243.269 201.627 243.108 201.246 242.825 200.966C242.541 200.685 242.159 200.528 241.76 200.528H223.663C223.266 200.528 222.884 200.686 222.603 200.966C222.322 201.247 222.164 201.628 222.164 202.026C222.164 202.423 222.322 202.804 222.603 203.085C222.884 203.366 223.266 203.524 223.663 203.524Z" fill="#171533"/>
<path fill-rule="evenodd" clip-rule="evenodd" d="M283.061 86.013C282.68 86.013 282.315 85.8619 282.046 85.5928C281.777 85.3238 281.625 84.9589 281.625 84.5784C281.625 84.1979 281.777 83.833 282.046 83.564C282.315 83.2949 282.68 83.1438 283.061 83.1438H284.815C285.196 83.1438 285.561 83.2949 285.83 83.564C286.1 83.833 286.251 84.1979 286.251 84.5784C286.251 84.9589 286.1 85.3238 285.83 85.5928C285.561 85.8619 285.196 86.013 284.815 86.013H283.061Z" fill="#D4CFE6"/>
<path fill-rule="evenodd" clip-rule="evenodd" d="M274.242 86.013C273.861 86.013 273.496 85.8619 273.226 85.5928C272.957 85.3238 272.806 84.9589 272.806 84.5784C272.806 84.1979 272.957 83.833 273.226 83.564C273.496 83.2949 273.861 83.1438 274.242 83.1438H275.996C276.376 83.1438 276.742 83.2949 277.011 83.564C277.28 83.833 277.432 84.1979 277.432 84.5784C277.432 84.9589 277.28 85.3238 277.011 85.5928C276.742 85.8619 276.376 86.013 275.996 86.013H274.242Z" fill="#D4CFE6"/>
<path fill-rule="evenodd" clip-rule="evenodd" d="M175.245 86.013C174.865 86.013 174.499 85.8619 174.23 85.5928C173.961 85.3238 173.809 84.9589 173.809 84.5784C173.809 84.1979 173.961 83.833 174.23 83.564C174.499 83.2949 174.865 83.1438 175.245 83.1438H176.999C177.38 83.1438 177.745 83.2949 178.015 83.564C178.284 83.833 178.435 84.1979 178.435 84.5784C178.435 84.9589 178.284 85.3238 178.015 85.5928C177.745 85.8619 177.38 86.013 176.999 86.013H175.245Z" fill="#D4CFE6"/>
<path fill-rule="evenodd" clip-rule="evenodd" d="M283.061 284.928C282.68 284.928 282.315 284.777 282.046 284.508C281.777 284.239 281.625 283.874 281.625 283.494C281.625 283.113 281.777 282.748 282.046 282.479C282.315 282.21 282.68 282.059 283.061 282.059H284.815C285.196 282.059 285.561 282.21 285.83 282.479C286.1 282.748 286.251 283.113 286.251 283.494C286.251 283.874 286.1 284.239 285.83 284.508C285.561 284.777 285.196 284.928 284.815 284.928H283.061Z" fill="#D4CFE6"/>
<path fill-rule="evenodd" clip-rule="evenodd" d="M274.242 284.928C273.861 284.928 273.496 284.777 273.226 284.508C272.957 284.239 272.806 283.874 272.806 283.494C272.806 283.113 272.957 282.748 273.226 282.479C273.496 282.21 273.861 282.059 274.242 282.059H275.996C276.376 282.059 276.742 282.21 277.011 282.479C277.28 282.748 277.432 283.113 277.432 283.494C277.432 283.874 277.28 284.239 277.011 284.508C276.742 284.777 276.376 284.928 275.996 284.928H274.242Z" fill="#D4CFE6"/>
<path opacity="0.42" fill-rule="evenodd" clip-rule="evenodd" d="M179.757 225.983H280.85C281.304 225.986 281.739 226.168 282.06 226.488C282.381 226.809 282.562 227.243 282.566 227.696C282.566 228.152 282.385 228.589 282.064 228.913C281.743 229.236 281.306 229.42 280.85 229.423H179.757C179.53 229.423 179.305 229.378 179.095 229.292C178.886 229.205 178.695 229.078 178.535 228.917C178.374 228.757 178.247 228.567 178.16 228.357C178.073 228.148 178.028 227.923 178.028 227.696C178.032 227.241 178.215 226.805 178.539 226.484C178.863 226.163 179.301 225.983 179.757 225.983Z" fill="#86AEC9"/>
<path opacity="0.42" fill-rule="evenodd" clip-rule="evenodd" d="M179.757 237.117H280.85C281.304 237.12 281.739 237.302 282.06 237.622C282.381 237.943 282.562 238.377 282.566 238.83C282.566 239.286 282.385 239.723 282.064 240.047C281.743 240.37 281.306 240.554 280.85 240.557H179.757C179.298 240.557 178.859 240.375 178.535 240.051C178.211 239.728 178.028 239.288 178.028 238.83C178.032 238.375 178.215 237.939 178.539 237.618C178.863 237.297 179.301 237.117 179.757 237.117Z" fill="#86AEC9"/>
<path opacity="0.42" fill-rule="evenodd" clip-rule="evenodd" d="M187.547 248.251H273.098C273.554 248.251 273.992 248.431 274.316 248.752C274.64 249.073 274.823 249.509 274.826 249.965C274.826 250.423 274.644 250.862 274.32 251.185C273.996 251.509 273.556 251.691 273.098 251.691H187.547C187.32 251.691 187.095 251.647 186.885 251.56C186.676 251.473 186.485 251.346 186.325 251.185C186.164 251.025 186.037 250.835 185.95 250.625C185.863 250.416 185.819 250.191 185.819 249.965C185.822 249.509 186.005 249.073 186.329 248.752C186.653 248.431 187.091 248.251 187.547 248.251Z" fill="#86AEC9"/>
<path d="M250.859 263.638H209.773C208.412 263.638 207.308 264.741 207.308 266.101V273.528C207.308 274.888 208.412 275.991 209.773 275.991H250.859C252.22 275.991 253.324 274.888 253.324 273.528V266.101C253.324 264.741 252.22 263.638 250.859 263.638Z" fill="#B85972"/>
</svg>
