<svg width="33" height="31" viewBox="0 0 33 31" fill="none" xmlns="http://www.w3.org/2000/svg">
<path d="M16.5 0C7.38869 0 0 6.9409 0 15.5C0 24.0591 7.38869 31 16.5 31C25.6113 31 33 24.0591 33 15.5C33 6.9409 25.6113 0 16.5 0ZM11.7053 23.4316H7.68679V12.0746H11.7053V23.4316ZM9.69617 10.5238H9.66998C8.3215 10.5238 7.44937 9.65179 7.44937 8.56194C7.44937 7.4475 8.34819 6.59961 9.72285 6.59961C11.0975 6.59961 11.9435 7.4475 11.9697 8.56194C11.9697 9.65179 11.0975 10.5238 9.69617 10.5238ZM26.1952 23.4316H22.1772V17.3559C22.1772 15.829 21.5953 14.7876 20.1413 14.7876C19.0313 14.7876 18.3701 15.4901 18.0796 16.1681C17.9734 16.4108 17.9474 16.75 17.9474 17.0894V23.4316H13.9292C13.9292 23.4316 13.9818 13.1401 13.9292 12.0746H17.9474V13.6826C18.4814 12.9088 19.4369 11.8081 21.5689 11.8081C24.2127 11.8081 26.1952 13.4312 26.1952 16.9195V23.4316Z" fill="#F8798A"/>
</svg>
