<svg width="199" height="58" viewBox="0 0 199 58" fill="none" xmlns="http://www.w3.org/2000/svg">
<path d="M15.6473 46.3911C12.7714 46.4562 9.92751 45.7908 7.39408 44.46C5.09192 43.2218 3.19679 41.371 1.92886 39.1227C0.613407 36.7331 -0.0498953 34.0531 0.00292521 31.3406C0.00292521 28.045 0.683129 25.227 2.04351 22.8865C3.2967 20.6471 5.14513 18.7792 7.39408 17.4797C9.50763 16.2501 11.9218 15.6003 14.3819 15.5988C16.2148 15.5964 18.028 15.9687 19.7047 16.6918C21.3944 17.4133 22.9273 18.4437 24.2209 19.7274C25.5386 21.0412 26.5928 22.5843 27.3292 24.2769C28.1 26.0851 28.503 28.0226 28.5156 29.9812C28.5043 30.3361 28.4163 30.6847 28.2576 31.0042C28.0988 31.3236 27.8727 31.6067 27.5941 31.835C27.0397 32.3146 26.3219 32.5749 25.5813 32.5649H3.26155L1.88136 27.7914H23.5565L22.465 28.7994V27.3974C22.3715 26.1359 21.8905 24.9313 21.0849 23.9409C20.2952 22.9544 19.2811 22.161 18.1229 21.6237C16.9638 21.0822 15.6944 20.8037 14.4095 20.8087C13.2759 20.8063 12.1495 20.9864 11.0758 21.3417C10.0118 21.6907 9.04623 22.2779 8.25621 23.0565C7.375 23.9442 6.70052 25.0073 6.27891 26.1732C5.73891 27.7184 5.48579 29.3454 5.53149 30.9776C5.48414 32.8617 5.94075 34.7253 6.85627 36.3845C7.68582 37.8697 8.91693 39.1041 10.4154 39.953C11.9379 40.8019 13.665 41.2379 15.418 41.2159C16.5838 41.2441 17.7474 41.1022 18.8703 40.7949C19.6862 40.5625 20.4619 40.2123 21.1719 39.756C21.7848 39.3428 22.3227 38.9527 22.7814 38.5742C23.3038 38.2648 23.8989 38.0919 24.5096 38.0722C24.8311 38.0639 25.1508 38.1219 25.4479 38.2423C25.745 38.3627 26.0128 38.543 26.2338 38.7712C26.4563 38.9893 26.6321 39.2484 26.7509 39.5335C26.8698 39.8187 26.9292 40.1241 26.9258 40.4319C26.9258 41.2532 26.504 42.0012 25.6603 42.6758C24.4048 43.7862 22.952 44.6631 21.3736 45.2633C19.5614 46.0101 17.6142 46.3936 15.6473 46.3911Z" fill="#F8798A"/>
<path d="M59.5433 15.8267C59.9224 15.8188 60.2992 15.8871 60.6502 16.0272C61.0012 16.1674 61.319 16.3765 61.5838 16.6416C61.8589 16.9097 62.0748 17.23 62.2183 17.5827C62.3618 17.9354 62.4298 18.313 62.4183 18.6924V42.9616C62.4305 43.341 62.3628 43.7189 62.2193 44.0717C62.0757 44.4245 61.8594 44.7446 61.5838 45.0124C61.0332 45.5352 60.2954 45.8277 59.5274 45.8277C58.7594 45.8277 58.0217 45.5352 57.4711 45.0124C57.2059 44.7393 56.9994 44.4172 56.8635 44.065C56.7277 43.7128 56.6654 43.3377 56.6801 42.9616V38.918L57.8309 39.0841C57.7834 39.8968 57.4933 40.6781 56.9965 41.3318C56.3679 42.2361 55.6026 43.0422 54.7265 43.7224C53.701 44.5246 52.5553 45.1681 51.3296 45.6303C49.9943 46.1471 48.57 46.4093 47.1337 46.4027C44.6119 46.4325 42.1367 45.7382 40.0155 44.406C37.8773 43.0483 36.1489 41.1577 35.0089 38.9296C33.797 36.4417 33.1682 33.7212 33.1682 30.966C33.1682 28.2109 33.797 25.4904 35.0089 23.0024C36.1485 20.8022 37.8652 18.9365 39.9839 17.5956C41.6925 16.5531 43.622 15.9049 45.6257 15.7001C47.6294 15.4953 49.6545 15.7394 51.5471 16.4138C52.8671 16.8952 54.1005 17.5783 55.2011 18.4375C56.1522 19.1693 56.9692 20.0533 57.6174 21.0521C58.1462 21.8279 58.4446 22.7315 58.4795 23.6629L56.696 23.8328V18.6924C56.6779 17.9427 56.9619 17.216 57.4869 16.6687C57.749 16.394 58.0679 16.177 58.4224 16.0318C58.7769 15.8867 59.159 15.8168 59.5433 15.8267ZM47.806 41.2198C49.4917 41.2542 51.1477 40.7839 52.5515 39.872C53.9348 38.9466 55.0384 37.6755 55.7469 36.1914C56.5038 34.5526 56.8953 32.7754 56.8953 30.9776C56.8953 29.1798 56.5038 27.4026 55.7469 25.7638C55.0321 24.291 53.9293 23.0301 52.5515 22.1103C51.1379 21.2303 49.4963 20.7628 47.8199 20.7628C46.1434 20.7628 44.5019 21.2303 43.0882 22.1103C41.6963 23.0211 40.5837 24.2839 39.8692 25.7638C39.1094 27.4019 38.7165 29.1794 38.7165 30.9776C38.7165 32.7758 39.1094 34.5534 39.8692 36.1914C40.5738 37.6768 41.6764 38.9485 43.0605 39.872C44.4666 40.7854 46.1256 41.2558 47.8139 41.2198H47.806Z" fill="#F8798A"/>
<path d="M68.6388 41.2198C68.2881 40.6752 68.1271 40.0343 68.18 39.393C68.2169 38.7004 68.619 38.1108 69.3862 37.6242C69.8856 37.2982 70.4846 37.1496 71.0827 37.2032C71.7372 37.2892 72.3395 37.5984 72.7832 38.0761C73.8026 39.1961 75.0203 40.1276 76.3779 40.8259C77.8704 41.5386 79.5181 41.8858 81.1788 41.8377C81.9805 41.7978 82.7757 41.6761 83.5515 41.4747C84.3287 41.2807 85.0413 40.8935 85.6198 40.3508C86.1972 39.805 86.4859 39.0094 86.4859 37.9641C86.5051 37.5469 86.4328 37.1306 86.2739 36.743C86.115 36.3553 85.8731 36.0053 85.5645 35.7163C84.862 35.103 84.0402 34.634 83.1482 34.3376C82.1516 33.9823 81.0773 33.6553 79.9252 33.3566C78.6993 33.0168 77.4628 32.6421 76.2158 32.2328C75.026 31.8472 73.8942 31.3082 72.8504 30.63C71.8475 29.9701 71.0117 29.0958 70.4065 28.0733C69.7412 26.8924 69.4134 25.5584 69.4574 24.2113C69.4174 22.5694 69.9548 20.9637 70.9799 19.6617C72.0275 18.3669 73.3858 17.3442 74.9345 16.6841C76.6113 15.964 78.4257 15.6006 80.2574 15.6182C81.4393 15.626 82.6164 15.7673 83.7651 16.0391C85.0049 16.3276 86.2012 16.7715 87.3242 17.36C88.4663 17.9524 89.4812 18.7534 90.3139 19.7197C90.7048 20.2244 90.9357 20.83 90.9783 21.4615C90.9943 21.8157 90.9151 22.1678 90.7486 22.4828C90.5821 22.7979 90.3341 23.0649 90.0292 23.2573C89.5626 23.6337 88.9631 23.8154 88.3603 23.7633C87.7647 23.7495 87.1933 23.5306 86.7469 23.1453C85.9979 22.2302 85.0313 21.5076 83.9312 21.0405C82.6976 20.5133 81.3626 20.2499 80.0162 20.2681C79.2489 20.2739 78.4858 20.3777 77.7462 20.5771C76.9992 20.765 76.3168 21.1435 75.7689 21.6739C75.4841 21.9882 75.2672 22.3555 75.1313 22.7537C74.9954 23.1519 74.9433 23.5728 74.978 23.9911C74.9592 24.4107 75.0343 24.8292 75.1982 25.2174C75.3622 25.6056 75.6109 25.9542 75.9271 26.2388C76.6614 26.86 77.5113 27.3373 78.4304 27.6446C79.5419 28.0412 80.6746 28.379 81.8234 28.6565C83.0098 28.9539 84.1961 29.313 85.3825 29.7224C86.5073 30.1125 87.5719 30.6518 88.5462 31.3252C89.495 31.9908 90.281 32.8534 90.8478 33.851C91.4827 35.0563 91.7892 36.401 91.7376 37.7555C91.7838 39.4605 91.203 41.1252 90.1004 42.4479C88.9904 43.7514 87.5663 44.7653 85.956 45.3985C84.2872 46.0725 82.4982 46.4164 80.6924 46.4104C78.4633 46.4007 76.2534 46.0085 74.1633 45.2518C71.9556 44.468 70.0339 43.0655 68.6388 41.2198Z" fill="#F8798A"/>
<path d="M120.412 16.0507C120.797 16.0385 121.18 16.1047 121.536 16.245C121.893 16.3853 122.216 16.5966 122.485 16.8656C122.749 17.1391 122.955 17.4612 123.091 17.8133C123.227 18.1654 123.29 18.5404 123.276 18.9164V43.0659C123.276 46.3615 122.632 49.0392 121.346 51.0989C120.139 53.0923 118.331 54.673 116.169 55.6253C113.856 56.6078 111.355 57.095 108.833 57.0543C107.445 57.0542 106.059 56.9327 104.693 56.6912C103.516 56.5107 102.372 56.1606 101.3 55.6523C100.502 55.3476 99.8143 54.8196 99.3226 54.1345C99.1335 53.8448 99.019 53.5148 98.9887 53.1725C98.9584 52.8302 99.0133 52.4859 99.1486 52.1688C99.2334 51.7863 99.4002 51.4258 99.6381 51.1109C99.876 50.796 100.18 50.534 100.529 50.342C100.838 50.1854 101.179 50.0967 101.528 50.082C101.876 50.0673 102.223 50.1271 102.546 50.257C103.199 50.5145 104.062 50.8518 105.132 51.2689C106.308 51.699 107.557 51.9087 108.814 51.8868C110.454 51.9327 112.085 51.6255 113.591 50.987C114.875 50.4055 115.919 49.4156 116.553 48.1792C117.222 46.8919 117.557 45.2441 117.557 43.2358V39.3737L118.479 40.7216C117.906 41.9067 117.082 42.9597 116.062 43.8112C115.02 44.6629 113.82 45.3118 112.527 45.723C111.069 46.1867 109.544 46.415 108.011 46.3988C106.111 46.4375 104.238 45.9516 102.609 44.9969C101.094 44.0801 99.8851 42.7531 99.1288 41.1773C98.2951 39.4274 97.8813 37.5148 97.9187 35.585V18.9009C97.9046 18.5249 97.9672 18.15 98.103 17.7979C98.2388 17.4458 98.445 17.1236 98.7096 16.8502C98.9781 16.5812 99.301 16.3698 99.6578 16.2295C100.015 16.0892 100.397 16.0231 100.782 16.0353C101.161 16.0287 101.537 16.0976 101.888 16.2377C102.239 16.3778 102.557 16.5862 102.822 16.8502C103.097 17.1183 103.313 17.4386 103.457 17.7912C103.6 18.1439 103.668 18.5216 103.657 18.9009V34.0711C103.657 36.5428 104.213 38.3451 105.326 39.478C106.438 40.6109 108.087 41.1812 110.273 41.1889C111.597 41.2211 112.907 40.9106 114.069 40.289C115.132 39.6995 116.008 38.8349 116.6 37.7903C117.234 36.6445 117.551 35.3575 117.522 34.0557V18.9164C117.51 18.537 117.578 18.1594 117.722 17.8067C117.865 17.454 118.081 17.1337 118.356 16.8656C118.623 16.5986 118.943 16.3883 119.297 16.2481C119.651 16.1079 120.031 16.0407 120.412 16.0507Z" fill="#F8798A"/>
<path d="M160.567 8.74753C160.958 8.91882 161.297 9.18408 161.553 9.51845C161.81 9.85282 161.976 10.2453 162.034 10.6592C162.103 11.0758 162.08 11.502 161.966 11.909C161.852 12.316 161.65 12.6945 161.374 13.019C161.187 13.2838 160.943 13.5061 160.66 13.6707C160.377 13.8353 160.061 13.9384 159.733 13.9729C159.049 14.0441 158.359 13.9093 157.756 13.5867C156.636 13.0225 155.461 12.5709 154.248 12.2388C152.974 11.8963 151.658 11.726 150.337 11.7329C148.32 11.7032 146.316 12.056 144.436 12.7718C142.732 13.4414 141.193 14.4563 139.92 15.7494C138.64 17.0647 137.652 18.6241 137.018 20.3299C136.326 22.2028 135.984 24.1821 136.009 26.1732C135.969 28.3099 136.34 30.4349 137.105 32.4374C137.77 34.1608 138.798 35.729 140.122 37.041C141.406 38.2956 142.959 39.256 144.67 39.8526C146.489 40.4832 148.407 40.7969 150.337 40.7795C151.625 40.7811 152.91 40.6294 154.161 40.3276C155.404 40.036 156.601 39.5826 157.72 38.9798C158.345 38.6554 159.058 38.5286 159.761 38.6167C160.089 38.6604 160.404 38.7701 160.687 38.939C160.969 39.1079 161.213 39.3321 161.402 39.5977C161.702 39.9152 161.923 40.2963 162.047 40.711C162.171 41.1257 162.195 41.5629 162.117 41.9883C162.035 42.3828 161.86 42.753 161.605 43.0695C161.35 43.386 161.023 43.64 160.65 43.8112C159.643 44.3591 158.583 44.8105 157.487 45.1591C156.339 45.5352 155.167 45.8358 153.979 46.0589C152.785 46.2846 151.572 46.3984 150.357 46.3988C147.686 46.4142 145.034 45.9562 142.53 45.0471C140.103 44.1663 137.876 42.8307 135.974 41.1155C134.018 39.3411 132.477 37.1754 131.457 34.7663C130.32 32.0401 129.761 29.1166 129.816 26.1732C129.789 23.4331 130.308 20.714 131.343 18.1671C132.313 15.7806 133.782 13.6181 135.657 11.8179C137.533 10.0262 139.751 8.61278 142.186 7.65843C144.785 6.64879 147.56 6.14373 150.357 6.17153C152.172 6.16799 153.98 6.39518 155.735 6.84739C157.422 7.27706 159.046 7.91562 160.567 8.74753Z" fill="#F8798A"/>
<path d="M172.38 40.4203C170.663 42.0733 168.283 42.139 167.634 40.9533C166.954 39.7676 167.674 38.0838 168.852 36.929C170.202 35.6182 171.266 34.0545 171.981 32.3318C172.696 30.6092 173.047 28.7631 173.013 26.9046C172.979 25.0461 172.561 23.2135 171.783 21.5169C171.006 19.8202 169.885 18.2946 168.488 17.0317C167.266 15.9155 166.487 14.2626 167.12 13.0499C167.749 11.841 170.126 11.8256 171.901 13.4361C173.792 15.151 175.309 17.2212 176.361 19.5226C177.413 21.8239 177.978 24.3089 178.023 26.8287C178.067 29.3485 177.591 31.8512 176.621 34.1867C175.651 36.5222 174.209 38.6425 172.38 40.4203Z" fill="#547676"/>
<path d="M179.3 46.1169C177.604 47.5304 175.393 47.5188 174.705 46.3448C174.009 45.1668 174.705 43.4791 176.018 42.3861C185.829 34.2372 185.549 19.1249 175.445 11.3236C174.104 10.2769 173.337 8.62011 173.989 7.41515C174.634 6.21791 176.841 6.12908 178.589 7.48466C191.152 17.19 191.5 35.9828 179.3 46.1169Z" fill="#547676"/>
<path d="M186.85 51.6473C185.173 52.9411 183.049 52.8948 182.353 51.7246C181.649 50.5659 182.353 48.8628 183.717 47.8046C197.705 37.0255 197.317 15.9194 182.927 5.64241C181.523 4.63055 180.759 2.966 181.42 1.78035C182.076 0.59083 184.188 0.467247 185.92 1.69925C202.968 13.8686 203.427 38.8793 186.85 51.6473Z" fill="#547676"/>
</svg>
