<svg width="199" height="58" viewBox="0 0 199 58" fill="none" xmlns="http://www.w3.org/2000/svg">
<path d="M15.6473 46.6525C12.7714 46.7193 9.92752 46.0379 7.39409 44.6752C5.09192 43.4073 3.19679 41.5122 1.92886 39.21C0.613407 36.7632 -0.0498953 34.019 0.00292521 31.2415C0.00292521 27.8669 0.683129 24.9814 2.04351 22.5849C3.2967 20.2918 5.14514 18.3792 7.39409 17.0485C9.50763 15.7895 11.9218 15.1241 14.3819 15.1226C16.2148 15.1201 18.028 15.5013 19.7047 16.2417C21.3944 16.9806 22.9273 18.0356 24.2209 19.35C25.5386 20.6953 26.5928 22.2754 27.3292 24.0085C28.1 25.8601 28.503 27.844 28.5156 29.8495C28.5043 30.2129 28.4163 30.5699 28.2576 30.897C28.0988 31.2241 27.8727 31.514 27.5941 31.7477C27.0397 32.2388 26.3219 32.5053 25.5813 32.4951H3.26155L1.88136 27.6072H23.5565L22.465 28.6394V27.2038C22.3715 25.9121 21.8905 24.6786 21.0849 23.6645C20.2952 22.6543 19.2811 21.842 18.1229 21.2917C16.9638 20.7374 15.6944 20.4521 14.4095 20.4573C13.2759 20.4548 12.1495 20.6392 11.0758 21.003C10.0118 21.3603 9.04623 21.9617 8.25621 22.7589C7.375 23.6679 6.70052 24.7565 6.27891 25.9503C5.73891 27.5325 5.48579 29.1985 5.53149 30.8698C5.48414 32.799 5.94075 34.7073 6.85627 36.4062C7.68583 37.927 8.91693 39.191 10.4154 40.0602C11.9379 40.9294 13.665 41.3759 15.418 41.3534C16.5838 41.3822 17.7474 41.237 18.8703 40.9223C19.6862 40.6843 20.4619 40.3258 21.1719 39.8586C21.7848 39.4354 22.3227 39.036 22.7814 38.6484C23.3038 38.3316 23.8989 38.1546 24.5096 38.1344C24.8311 38.1259 25.1508 38.1852 25.4479 38.3085C25.745 38.4319 26.0128 38.6164 26.2338 38.8501C26.4563 39.0734 26.6321 39.3388 26.7509 39.6307C26.8698 39.9227 26.9292 40.2354 26.9258 40.5506C26.9258 41.3916 26.504 42.1575 25.6603 42.8482C24.4048 43.9852 22.952 44.8832 21.3736 45.4978C19.5614 46.2624 17.6142 46.6551 15.6473 46.6525Z" fill="#F8798A"/>
<path d="M59.5433 15.3559C59.9224 15.3478 60.2992 15.4177 60.6502 15.5612C61.0012 15.7048 61.319 15.9189 61.5838 16.1903C61.8589 16.4649 62.0748 16.7928 62.2183 17.154C62.3618 17.5151 62.4298 17.9018 62.4183 18.2902V43.1409C62.4305 43.5294 62.3628 43.9163 62.2193 44.2776C62.0757 44.6388 61.8594 44.9667 61.5838 45.2408C61.0332 45.7761 60.2954 46.0756 59.5274 46.0756C58.7594 46.0756 58.0217 45.7761 57.4711 45.2408C57.2059 44.9612 56.9994 44.6313 56.8635 44.2707C56.7277 43.9101 56.6654 43.526 56.6801 43.1409V39.0004L57.8309 39.1705C57.7833 40.0027 57.4933 40.8027 56.9965 41.4721C56.3679 42.3981 55.6026 43.2234 54.7265 43.92C53.701 44.7414 52.5553 45.4003 51.3296 45.8735C49.9943 46.4028 48.57 46.6712 47.1337 46.6644C44.6119 46.695 42.1367 45.984 40.0155 44.6199C37.8773 43.2296 36.1489 41.2938 35.0089 39.0123C33.797 36.4647 33.1682 33.6791 33.1682 30.8579C33.1682 28.0368 33.797 25.2511 35.0089 22.7036C36.1485 20.4506 37.8652 18.5402 39.9839 17.1671C41.6925 16.0997 43.622 15.436 45.6257 15.2263C47.6294 15.0166 49.6545 15.2665 51.5471 15.957C52.8671 16.45 54.1005 17.1495 55.2011 18.0292C56.1522 18.7785 56.9692 19.6838 57.6174 20.7065C58.1462 21.5008 58.4446 22.4262 58.4795 23.3798L56.696 23.5538V18.2902C56.6779 17.5226 56.9619 16.7785 57.4869 16.218C57.749 15.9368 58.0679 15.7146 58.4224 15.5659C58.7769 15.4173 59.159 15.3457 59.5433 15.3559ZM47.806 41.3574C49.4916 41.3926 51.1477 40.911 52.5515 39.9772C53.9348 39.0297 55.0384 37.7281 55.7469 36.2085C56.5038 34.5305 56.8953 32.7107 56.8953 30.8698C56.8953 29.0289 56.5038 27.2091 55.7469 25.5311C55.0321 24.0229 53.9293 22.7318 52.5515 21.79C51.1379 20.8889 49.4963 20.4102 47.8199 20.4102C46.1434 20.4102 44.5019 20.8889 43.0882 21.79C41.6963 22.7227 40.5837 24.0157 39.8692 25.5311C39.1094 27.2084 38.7165 29.0285 38.7165 30.8698C38.7165 32.7111 39.1094 34.5312 39.8692 36.2085C40.5737 37.7295 41.6764 39.0316 43.0605 39.9772C44.4666 40.9125 46.1256 41.3942 47.8139 41.3574H47.806Z" fill="#F8798A"/>
<path d="M68.6388 41.3574C68.2881 40.7997 68.1272 40.1435 68.1801 39.4868C68.217 38.7776 68.6191 38.1739 69.3863 37.6756C69.8857 37.3418 70.4846 37.1897 71.0828 37.2446C71.7373 37.3326 72.3396 37.6492 72.7832 38.1383C73.8026 39.2852 75.0203 40.239 76.378 40.954C77.8705 41.6838 79.5182 42.0394 81.1788 41.9901C81.9806 41.9492 82.7758 41.8246 83.5516 41.6184C84.3288 41.4197 85.0413 41.0233 85.6198 40.4676C86.1972 39.9087 86.4859 39.094 86.4859 38.0236C86.5051 37.5965 86.4329 37.1702 86.274 36.7733C86.115 36.3763 85.8732 36.0179 85.5645 35.7221C84.8621 35.094 84.0403 34.6138 83.1482 34.3103C82.1517 33.9464 81.0774 33.6116 79.9253 33.3058C78.6993 32.9578 77.4629 32.5742 76.2159 32.155C75.026 31.7602 73.8942 31.2083 72.8505 30.5138C71.8476 29.8382 71.0118 28.9429 70.4065 27.8959C69.7413 26.6867 69.4134 25.3208 69.4574 23.9413C69.4175 22.2601 69.9549 20.6159 70.98 19.2828C72.0276 17.957 73.3859 16.9097 74.9346 16.2338C76.6113 15.4964 78.4258 15.1244 80.2574 15.1423C81.4394 15.1504 82.6164 15.2951 83.7652 15.5734C85.0049 15.8687 86.2013 16.3233 87.3243 16.9259C88.4663 17.5325 89.4813 18.3527 90.314 19.3421C90.7049 19.859 90.9358 20.479 90.9783 21.1256C90.9944 21.4883 90.9152 21.8489 90.7487 22.1715C90.5822 22.4941 90.3341 22.7675 90.0292 22.9645C89.5627 23.3499 88.9631 23.536 88.3604 23.4826C87.7648 23.4685 87.1934 23.2444 86.7469 22.8499C85.998 21.9128 85.0314 21.1729 83.9313 20.6946C82.6976 20.1547 81.3627 19.885 80.0162 19.9037C79.249 19.9096 78.4859 20.0159 77.7463 20.22C76.9993 20.4125 76.3168 20.8001 75.769 21.3431C75.4842 21.665 75.2673 22.0411 75.1314 22.4488C74.9955 22.8566 74.9433 23.2875 74.9781 23.7159C74.9592 24.1455 75.0344 24.574 75.1983 24.9716C75.3622 25.3691 75.611 25.726 75.9272 26.0175C76.6615 26.6535 77.5114 27.1422 78.4304 27.457C79.542 27.863 80.6746 28.2089 81.8234 28.4931C83.0098 28.7976 84.1962 29.1653 85.3826 29.5845C86.5074 29.9839 87.5719 30.5361 88.5463 31.2257C89.495 31.9072 90.2811 32.7905 90.8479 33.812C91.4828 35.0462 91.7892 36.4231 91.7376 37.8101C91.7839 39.5559 91.203 41.2605 90.1004 42.6149C88.9904 43.9496 87.5663 44.9878 85.956 45.6362C84.2873 46.3263 82.4982 46.6785 80.6924 46.6723C78.4634 46.6624 76.2534 46.2608 74.1634 45.4859C71.9557 44.6834 70.0339 43.2472 68.6388 41.3574Z" fill="#F8798A"/>
<path d="M120.412 15.5852C120.797 15.5727 121.18 15.6405 121.536 15.7841C121.893 15.9278 122.216 16.1443 122.485 16.4197C122.749 16.6997 122.955 17.0296 123.091 17.3901C123.227 17.7506 123.29 18.1346 123.276 18.5196V43.2476C123.276 46.6222 122.632 49.3641 121.346 51.4732C120.139 53.5142 118.331 55.1329 116.169 56.108C113.856 57.114 111.355 57.6129 108.833 57.5712C107.445 57.5711 106.059 57.4467 104.693 57.1994C103.516 57.0146 102.372 56.6561 101.3 56.1356C100.502 55.8236 99.8143 55.2829 99.3226 54.5815C99.1335 54.2848 99.019 53.9469 98.9887 53.5964C98.9584 53.2459 99.0133 52.8933 99.1486 52.5686C99.2334 52.177 99.4002 51.8078 99.6381 51.4854C99.876 51.163 100.18 50.8946 100.529 50.6981C100.838 50.5377 101.179 50.4469 101.528 50.4319C101.876 50.4168 102.223 50.478 102.546 50.6111C103.199 50.8747 104.062 51.2201 105.132 51.6472C106.308 52.0876 107.557 52.3023 108.814 52.2799C110.454 52.3269 112.085 52.0124 113.591 51.3585C114.875 50.7631 115.919 49.7495 116.553 48.4835C117.222 47.1653 117.557 45.478 117.557 43.4216V39.467L118.479 40.8472C117.906 42.0607 117.082 43.139 116.062 44.0109C115.02 44.8829 113.82 45.5474 112.527 45.9684C111.069 46.4432 109.544 46.677 108.011 46.6604C106.111 46.7001 104.238 46.2025 102.609 45.2249C101.094 44.2862 99.8851 42.9273 99.1288 41.3138C98.2951 39.522 97.8813 37.5635 97.9187 35.5876V18.5037C97.9046 18.1187 97.9672 17.7348 98.103 17.3743C98.2388 17.0137 98.445 16.6839 98.7096 16.4038C98.9781 16.1284 99.301 15.912 99.6578 15.7683C100.015 15.6247 100.397 15.5569 100.782 15.5694C101.161 15.5627 101.537 15.6332 101.888 15.7767C102.239 15.9201 102.557 16.1335 102.822 16.4038C103.097 16.6784 103.313 17.0063 103.457 17.3675C103.6 17.7286 103.668 18.1153 103.657 18.5037V34.0374C103.657 36.5683 104.213 38.4138 105.326 39.5738C106.438 40.7338 108.087 41.3178 110.273 41.3257C111.597 41.3587 112.907 41.0408 114.069 40.4043C115.132 39.8007 116.008 38.9153 116.6 37.8456C117.234 36.6724 117.551 35.3546 117.522 34.0216V18.5196C117.51 18.1311 117.578 17.7444 117.722 17.3833C117.865 17.0222 118.081 16.6942 118.356 16.4197C118.623 16.1462 118.943 15.931 119.297 15.7874C119.651 15.6438 120.031 15.5749 120.412 15.5852Z" fill="#F8798A"/>
<path d="M160.567 8.1071C160.958 8.28249 161.297 8.5541 161.553 8.89648C161.81 9.23886 161.976 9.6408 162.034 10.0646C162.103 10.4912 162.08 10.9275 161.966 11.3443C161.852 11.7611 161.65 12.1486 161.374 12.4809C161.187 12.752 160.943 12.9796 160.66 13.1482C160.377 13.3168 160.061 13.4223 159.733 13.4577C159.049 13.5305 158.359 13.3925 157.756 13.0622C156.636 12.4845 155.461 12.022 154.248 11.682C152.974 11.3313 151.658 11.157 150.337 11.164C148.32 11.1336 146.316 11.4949 144.436 12.2278C142.732 12.9134 141.193 13.9526 139.92 15.2768C138.64 16.6235 137.652 18.2203 137.018 19.9669C136.326 21.8848 135.984 23.9115 136.009 25.9502C135.969 28.1381 136.34 30.3141 137.105 32.3646C137.77 34.1293 138.798 35.735 140.122 37.0784C141.406 38.3631 142.959 39.3465 144.67 39.9574C146.489 40.6031 148.407 40.9243 150.337 40.9065C151.625 40.9081 152.91 40.7528 154.161 40.4438C155.404 40.1452 156.601 39.681 157.72 39.0637C158.345 38.7315 159.058 38.6017 159.761 38.6919C160.089 38.7366 160.404 38.849 160.687 39.0219C160.969 39.1948 161.213 39.4245 161.402 39.6964C161.702 40.0215 161.923 40.4117 162.047 40.8364C162.171 41.261 162.195 41.7087 162.117 42.1443C162.035 42.5482 161.86 42.9273 161.605 43.2514C161.35 43.5754 161.023 43.8355 160.65 44.0108C159.643 44.5718 158.583 45.034 157.487 45.391C156.339 45.7762 155.167 46.084 153.979 46.3124C152.785 46.5435 151.572 46.66 150.357 46.6604C147.686 46.6762 145.034 46.2072 142.53 45.2763C140.103 44.3744 137.876 43.0069 135.974 41.2505C134.018 39.4337 132.477 37.2161 131.457 34.7492C130.32 31.9578 129.761 28.9641 129.816 25.9502C129.789 23.1445 130.308 20.3602 131.343 17.7523C132.313 15.3087 133.782 13.0943 135.657 11.251C137.533 9.41635 139.751 7.96911 142.186 6.9919C144.785 5.95807 147.56 5.44091 150.357 5.46938C152.172 5.46575 153.98 5.69839 155.735 6.16143C157.422 6.60139 159.046 7.25525 160.567 8.1071Z" fill="#F8798A"/>
<path d="M172.38 40.5387C170.663 42.2313 168.283 42.2985 167.634 41.0845C166.954 39.8704 167.674 38.1462 168.852 36.9638C170.202 35.6215 171.266 34.0203 171.981 32.2564C172.696 30.4925 173.047 28.6022 173.013 26.6992C172.979 24.7962 172.561 22.9196 171.783 21.1824C171.006 19.4451 169.885 17.8829 168.488 16.5897C167.266 15.4468 166.487 13.7543 167.12 12.5125C167.749 11.2747 170.126 11.2589 171.901 12.908C173.792 14.664 175.309 16.7838 176.361 19.1403C177.413 21.4967 177.978 24.0413 178.023 26.6215C178.067 29.2017 177.591 31.7643 176.621 34.1558C175.651 36.5472 174.209 38.7183 172.38 40.5387Z" fill="#547676"/>
<path d="M179.3 46.3718C177.604 47.8192 175.393 47.8073 174.705 46.6051C174.009 45.399 174.705 43.6708 176.018 42.5517C185.829 34.2075 185.549 18.7332 175.445 10.7449C174.104 9.67318 173.337 7.97666 173.989 6.74283C174.634 5.5169 176.841 5.42594 178.588 6.81401C191.152 16.7519 191.5 35.9949 179.3 46.3718Z" fill="#547676"/>
<path d="M186.85 52.0347C185.173 53.3595 183.049 53.3121 182.353 52.1138C181.649 50.9274 182.353 49.1835 183.718 48.0999C197.705 37.0626 197.317 15.4508 182.927 4.9276C181.523 3.89149 180.76 2.18706 181.42 0.973004C182.076 -0.245011 184.188 -0.371555 185.92 0.88996C202.969 13.3509 203.427 38.9608 186.85 52.0347Z" fill="#547676"/>
</svg>
