<svg width="284" height="637" viewBox="0 0 284 637" fill="none" xmlns="http://www.w3.org/2000/svg">
<mask id="mask0" mask-type="alpha" maskUnits="userSpaceOnUse" x="0" y="0" width="284" height="637">
<rect width="284" height="637" fill="#C4C4C4"/>
</mask>
<g mask="url(#mask0)">
<path d="M88.7892 301.143C88.7892 301.143 37.3356 407.457 40.3262 469.309C43.3168 531.161 87.8172 635.966 87.8172 635.966H144.34L151.368 500.728L159.951 635.966H219.389C219.389 635.966 254.679 498.771 250.791 449.678C246.903 400.584 205.752 303.1 205.752 303.1L88.7892 301.143Z" fill="#DB7887"/>
<path d="M248.862 435.619C241.565 448.587 229.992 459.643 218.463 468.069C198.515 482.665 174.8 493.363 151.458 502.177L159.951 635.966H219.39C219.39 635.966 254.679 498.771 250.791 449.678C250.403 445.27 249.76 440.549 248.862 435.619Z" fill="#D26A7E"/>
<path d="M216.579 320.893C210.313 309.957 205.723 303.1 205.723 303.1L88.7894 301.143C83.2305 308.912 78.0652 316.955 73.313 325.241C140.886 348.488 192.698 332.054 216.579 320.893Z" fill="#D26A7E"/>
<path d="M86.1128 137.354C86.1128 137.354 148.602 127.867 190.62 139.908C190.62 139.908 205.573 76.7564 168.699 59.9488C131.824 43.1411 95.9818 67.628 95.9818 67.628L86.1128 137.354Z" fill="#E0C7A2"/>
<path d="M121.552 119.425C121.552 119.425 128.864 173.449 114.255 176.377C99.6454 179.306 74.0606 164.694 59.4365 189.51C44.8124 214.325 106.21 232.597 146.404 228.952C187.226 225.247 236.945 218.494 223.876 185.132C209.252 147.901 157.663 203.404 160.295 150.77C161.79 121.562 162.478 103.305 162.478 103.305L121.552 119.425Z" fill="#F19C7C"/>
<path d="M122.449 161.646C129.532 162.057 136.637 161.356 143.503 159.57C149.88 158.071 155.699 154.791 160.28 150.113C161.776 121.338 162.434 103.38 162.434 103.38L121.552 119.425C121.552 119.425 124.976 144.734 122.449 161.646Z" fill="#E08565"/>
<path d="M133.978 31.0993C133.978 31.0993 84.812 35.2228 93.7838 92.4286C103.279 153.041 162.045 169.206 180.751 109.221C198.291 53.0016 161.746 28.9031 133.978 31.0993Z" fill="#F19C7C"/>
<path d="M93.0509 15.7707C93.0509 15.7707 134.351 -2.85965 138.733 32.5634C142.217 60.7406 117.17 61.7714 103.279 71.617C89.3874 81.4625 106.568 104.485 106.568 104.485C106.568 104.485 95.9817 102.663 93.7836 92.4286C93.7836 92.4286 86.4715 129.301 118.994 144.271C118.994 144.271 105.118 147.259 94.5163 134.052C94.5163 134.052 100.363 145.735 116.438 146.826C116.438 146.826 101.096 155.222 86.8453 141.358L93.0509 150.113C86.4926 149.476 80.2954 146.815 75.3194 142.499C70.3435 138.183 66.8357 132.427 65.283 126.029C65.283 126.029 65.6419 136.248 56.1466 138.429C56.1466 138.429 62.3671 129.674 55.4139 123.833C48.4608 117.991 36.7824 94.2663 58.4046 79.2962C80.0267 64.3262 66.0157 32.1899 93.0509 15.7707Z" fill="#FDDEC0"/>
<path d="M182.201 15.8155C182.201 15.8155 140.333 -1.38062 137.118 34.162C134.531 62.4437 159.667 62.6529 173.872 71.9905C188.078 81.3281 171.719 104.948 171.719 104.948C171.719 104.948 182.186 102.767 184.085 92.4734C184.085 92.4734 192.639 129.077 160.654 145.137C160.654 145.137 174.635 147.588 184.773 134.097C184.773 134.097 179.33 145.959 163.301 147.543C163.301 147.543 178.927 155.416 192.683 141.074L186.777 150.038C193.309 149.177 199.411 146.304 204.234 141.82C209.058 137.335 212.364 131.461 213.693 125.013C213.693 125.013 213.693 135.232 223.248 137.1C223.248 137.1 216.743 128.554 223.487 122.488C230.231 116.422 241.102 92.2941 219.001 78.0711C196.9 63.8481 209.79 31.2786 182.201 15.8155Z" fill="#FDDEC0"/>
<path d="M84.6475 22.7029C84.6475 22.7029 91.481 14.441 106.599 9.25678C113.313 6.97094 123.137 9.25678 133.245 9.18208C139.406 9.18208 144.624 6.82154 152.235 7.06058C162.119 7.35938 169.88 11.1243 180.018 15.0237L140.916 36.5823L84.6475 22.7029Z" fill="#FDDEC0"/>
<path d="M133.619 80.3869L128.101 77.3988C124.33 75.3316 120.31 73.755 116.139 72.7076C115.075 72.487 113.994 72.3521 112.909 72.3042C111.906 72.28 110.904 72.3601 109.918 72.5433C108.961 72.7035 108.027 72.9794 107.137 73.365C106.301 73.7167 105.496 74.1364 104.729 74.62C104.369 74.8396 104.024 75.0842 103.698 75.352C103.372 75.5581 103.062 75.7878 102.771 76.0393C102.232 76.5323 101.679 76.9207 101.275 77.3092C100.483 78.0562 99.9893 78.4895 99.9893 78.4895C99.9893 78.4895 100.154 77.8769 100.557 76.8162C100.809 76.1769 101.109 75.5576 101.455 74.9636C101.881 74.1754 102.381 73.4299 102.95 72.7375C103.673 71.8985 104.491 71.1464 105.387 70.4965C106.436 69.7648 107.584 69.1862 108.797 68.7783C110.096 68.3442 111.45 68.0977 112.819 68.0463C114.204 68.0121 115.589 68.1374 116.946 68.4198C118.269 68.6869 119.562 69.0874 120.804 69.615C121.987 70.0911 123.127 70.6658 124.213 71.3331C126.118 72.4635 127.88 73.8178 129.462 75.367C130.593 76.425 131.625 77.5853 132.542 78.8331C132.933 79.3281 133.293 79.847 133.619 80.3869Z" fill="#352C38"/>
<path d="M143.503 81.1189C144.115 79.0054 145.032 76.9923 146.224 75.1428C147.414 73.2054 148.84 71.4237 150.471 69.8391C152.405 67.9275 154.69 66.4059 157.2 65.357C158.54 64.8149 159.949 64.4629 161.387 64.3112C162.795 64.1618 164.217 64.2324 165.604 64.5204C166.871 64.8068 168.093 65.2642 169.237 65.8799C169.756 66.1554 170.255 66.4649 170.733 66.8062L171.989 67.8072C172.684 68.4116 173.325 69.0766 173.903 69.7942C174.348 70.3297 174.757 70.8936 175.129 71.4825C175.727 72.4685 176.011 73.0512 176.011 73.0512C176.011 73.0512 175.428 72.7225 174.516 72.095C174.067 71.7663 173.454 71.4675 172.811 71.0641C172.168 70.6608 171.316 70.3321 170.613 69.8988C169.751 69.518 168.867 69.1888 167.966 68.9128C166.99 68.6318 165.988 68.4466 164.976 68.36C162.858 68.2378 160.741 68.6006 158.785 69.4207C157.753 69.8445 156.753 70.3439 155.794 70.9147C154.821 71.4935 153.877 72.1219 152.968 72.7972C152.071 73.4396 151.219 74.1418 150.411 74.7992C149.604 75.4565 148.826 76.1139 148.138 76.7563C146.763 77.9964 145.596 79.087 144.774 79.8639L143.503 81.1189Z" fill="#352C38"/>
<path d="M110.232 92.4287L111.114 93.2952C111.667 93.833 112.46 94.595 113.432 95.4316C113.925 95.8499 114.464 96.2832 115.017 96.7165C115.57 97.1497 116.228 97.5232 116.856 97.9117C117.17 98.1059 117.514 98.2404 117.843 98.4197L118.875 98.7932C119.55 98.9898 120.25 99.0855 120.953 99.077H121.462C121.462 99.077 121.716 99.077 121.641 99.077H121.955C122.359 99.0048 122.758 98.91 123.151 98.7932C123.822 98.5961 124.465 98.315 125.065 97.9565C125.363 97.7832 125.648 97.5884 125.918 97.3738C126.2 97.178 126.461 96.9526 126.695 96.7015C127.157 96.237 127.582 95.7375 127.966 95.2075C128.549 94.3708 129.049 93.4803 129.462 92.5482C129.776 91.846 129.925 91.4127 129.925 91.4127C130 91.7817 130.04 92.1568 130.045 92.5332C130.046 93.0337 130.006 93.5334 129.925 94.0272C129.732 95.4381 129.22 96.7867 128.43 97.9714C127.923 98.7513 127.285 99.4385 126.546 100.003C125.767 100.642 124.888 101.147 123.944 101.497C123.51 101.658 123.065 101.788 122.613 101.886H122.299C122 101.886 121.985 101.886 121.821 101.886H121.013C120.482 101.897 119.951 101.857 119.428 101.766C118.921 101.664 118.422 101.529 117.933 101.363C117.034 100.975 116.19 100.473 115.421 99.8689C114.141 98.893 113.039 97.7055 112.161 96.3579C111.309 95.1612 110.658 93.8342 110.232 92.4287Z" fill="#352C38"/>
<path d="M167.966 92.4286C167.059 95.4477 165.236 98.1105 162.747 100.048C161.983 100.652 161.144 101.155 160.25 101.542C159.761 101.708 159.261 101.843 158.755 101.945C158.232 102.038 157.701 102.078 157.17 102.065H156.377C156.218 102.073 156.058 102.073 155.899 102.065H155.57C155.122 101.967 154.683 101.837 154.254 101.677C153.304 101.329 152.419 100.824 151.637 100.182C150.919 99.6318 150.297 98.9653 149.798 98.2104C149.356 97.5665 149 96.8685 148.736 96.1337C148.512 95.5295 148.352 94.9036 148.258 94.2662C148.169 93.7733 148.129 93.2729 148.138 92.7722C148.131 92.352 148.161 91.932 148.228 91.5172C148.228 91.5172 148.377 91.9505 148.706 92.6527C149.119 93.5848 149.619 94.4753 150.202 95.312C150.576 95.8454 150.996 96.3453 151.458 96.806C151.696 97.0536 151.956 97.2786 152.235 97.4783C153.054 98.1473 153.993 98.6544 155.002 98.9723C155.395 99.0874 155.794 99.1821 156.198 99.2562H156.527C156.437 99.2562 156.646 99.2562 156.691 99.2562H157.215C157.918 99.2638 158.618 99.1682 159.293 98.9723L160.31 98.5988C160.639 98.4196 160.983 98.2851 161.312 98.0909C161.94 97.7024 162.568 97.314 163.136 96.8957C163.704 96.4773 164.243 96.0291 164.736 95.6108C165.693 94.7742 166.485 94.0122 167.054 93.4744L167.966 92.4286Z" fill="#352C38"/>
<path d="M142.755 87.6926L143.922 92.8619C144.146 93.7135 144.325 94.5502 144.565 95.3719C144.654 95.7902 144.804 96.1936 144.909 96.6119C145.013 97.0213 145.137 97.4252 145.282 97.822C145.537 98.6288 145.836 99.3161 146.135 100.153L146.643 101.258C146.809 101.619 146.999 101.969 147.211 102.304C147.38 102.652 147.591 102.979 147.839 103.275C148.045 103.586 148.28 103.876 148.542 104.142C148.791 104.411 149.056 104.665 149.335 104.904L150.217 105.516L152.415 107.01L150.187 107.832C149.439 108.116 148.692 108.34 147.914 108.579C147.137 108.818 146.419 109.042 145.626 109.251C144.079 109.698 142.506 110.052 140.916 110.312C142.226 109.374 143.589 108.511 144.998 107.727C145.686 107.324 146.389 106.936 147.092 106.577C147.794 106.218 148.497 105.83 149.215 105.501V107.832L147.824 107.1C147.393 106.811 146.983 106.491 146.598 106.144C146.228 105.799 145.888 105.425 145.581 105.023C145.27 104.638 144.99 104.228 144.744 103.798C144.48 103.389 144.25 102.96 144.056 102.513C143.877 102.08 143.652 101.647 143.503 101.199C143.19 100.316 142.94 99.4124 142.755 98.4944C142.544 97.6049 142.399 96.701 142.322 95.7902C142.247 94.8788 142.172 93.9675 142.187 93.0711C142.159 91.262 142.35 89.4561 142.755 87.6926V87.6926Z" fill="#C4734E"/>
<path d="M124.063 115.436C124.063 115.436 124.377 115.75 124.946 116.243C125.514 116.736 126.321 117.438 127.323 118.17C127.817 118.544 128.385 118.903 128.953 119.291C129.521 119.679 130.179 120.023 130.837 120.382C131.518 120.736 132.217 121.055 132.931 121.338C133.654 121.632 134.393 121.886 135.144 122.1C135.891 122.354 136.639 122.428 137.432 122.638L139.704 122.936C140.467 122.936 141.2 122.936 141.903 123.026C142.605 123.116 143.263 123.026 143.906 123.026C144.549 123.026 145.117 123.026 145.626 122.936C146.134 122.847 146.598 122.936 146.972 122.832C147.734 122.832 148.183 122.832 148.183 122.832C148.183 122.832 147.824 123.056 147.136 123.429C146.807 123.609 146.388 123.833 145.895 124.072C145.359 124.352 144.792 124.568 144.205 124.714C143.522 124.958 142.823 125.153 142.112 125.297C141.349 125.401 140.527 125.536 139.675 125.611C138.822 125.685 137.94 125.611 137.028 125.611C136.121 125.482 135.223 125.302 134.336 125.073C133.46 124.762 132.614 124.372 131.809 123.907C131.01 123.534 130.248 123.084 129.536 122.563C128.866 122.115 128.231 121.615 127.637 121.069C127.097 120.561 126.597 120.011 126.142 119.425C125.476 118.577 124.918 117.648 124.482 116.661C124.309 116.266 124.169 115.856 124.063 115.436V115.436Z" fill="#C4734E"/>
<path d="M105.358 175.556C105.358 175.556 107.302 199.893 141.41 199.893C175.518 199.893 171.615 173.599 171.615 173.599C171.615 173.599 214.485 153.16 228.137 182.368C241.79 211.576 215.472 309.897 215.472 309.897C215.472 309.897 145.312 333.264 78.0682 307.955C78.0682 307.955 44.9471 211.576 53.7096 193.08C62.4721 174.585 71.2496 166.786 105.358 175.556Z" fill="#6F96BD"/>
<path d="M128.55 248.195C99.5407 243.429 75.7653 228.608 52.8721 212.054C56.8346 246.178 78.068 307.985 78.068 307.985C145.357 333.294 215.472 309.927 215.472 309.927C221.578 286.432 226.341 262.609 229.737 238.573C196.751 248.538 162.374 253.887 128.55 248.195Z" fill="#597A96"/>
<path d="M34.2255 257.084C34.2255 257.084 8.64075 357.855 34.2255 376.844C59.8102 395.833 73.6867 269.499 73.6867 269.499L34.2255 257.084Z" fill="#E08565"/>
<path d="M251.569 251.974C251.569 251.974 277.154 352.746 251.569 371.72C225.984 390.694 212.108 264.345 212.108 264.345L251.569 251.974Z" fill="#E08565"/>
<path d="M80.999 270.963C80.999 270.963 50.3003 266.586 23.2651 253.439C23.2651 253.439 52.4984 180.426 61.9936 175.302C71.4889 170.177 105.358 175.556 105.358 175.556L80.999 270.963Z" fill="#6F96BD"/>
<path d="M204.81 265.839C204.81 265.839 235.509 261.461 262.544 248.314C262.544 248.314 233.311 175.287 223.816 170.177C214.32 165.068 180.452 170.431 180.452 170.431L204.81 265.839Z" fill="#6F96BD"/>
<path d="M121.415 208.763L115.743 305.873C115.624 307.9 117.172 309.638 119.201 309.757L164.133 312.377C166.161 312.495 167.901 310.948 168.019 308.922L173.692 211.812C173.81 209.785 172.262 208.047 170.234 207.928L125.301 205.308C123.273 205.19 121.533 206.737 121.415 208.763Z" fill="#1C181E"/>
<path d="M22.5323 344.708C22.5323 344.708 93.4249 257.084 102.187 251.242C110.95 245.401 199.383 251.242 138.733 254.903C138.733 254.903 203.031 260.744 139.465 261.476C139.465 261.476 197.932 269.499 132.153 268.035C132.153 268.035 180.392 277.537 121.193 273.16C121.193 273.16 75.1223 380.878 52.4983 381.954C21.7996 383.403 22.5323 344.708 22.5323 344.708Z" fill="#F19C7C"/>
<path d="M263.262 339.598C263.262 339.598 192.369 251.974 183.607 246.133C174.844 240.291 86.4117 246.133 147.061 249.793C147.061 249.793 82.7632 255.635 146.329 256.352C146.329 256.352 87.8771 264.39 153.641 262.926C153.641 262.926 105.417 272.428 164.601 268.035C164.601 268.035 210.672 375.754 233.296 376.844C263.995 378.293 263.262 339.598 263.262 339.598Z" fill="#F19C7C"/>
<path d="M186.867 233.195C182.794 233.304 178.746 232.524 175.007 230.909C171.267 229.293 167.925 226.882 165.215 223.842C159.68 218.003 156.621 210.251 156.677 202.209C156.677 194.022 159.872 186.601 166.261 179.948C172.651 173.295 180.008 169.968 188.332 169.968C196.656 169.968 203.873 173.295 209.984 179.948C215.905 186.192 219.165 194.49 219.076 203.09C219.177 207.181 218.371 211.243 216.717 214.985C215.062 218.728 212.6 222.059 209.506 224.739C203.3 230.315 195.212 233.336 186.867 233.195V233.195Z" fill="#FDEDEE"/>
<path d="M175.597 212.744L161.042 208.24L157.056 221.098L171.611 225.602L175.597 212.744Z" fill="#FDEDEE"/>
<path d="M198.979 196.442H196.541L196.631 189.809C196.631 187.459 195.697 185.205 194.034 183.544C192.371 181.882 190.116 180.949 187.764 180.949C185.412 180.949 183.157 181.882 181.494 183.544C179.831 185.205 178.897 187.459 178.897 189.809L178.807 196.457H176.37L176.459 189.823C176.459 186.828 177.65 183.955 179.77 181.837C181.89 179.719 184.766 178.529 187.764 178.529C190.762 178.529 193.637 179.719 195.757 181.837C197.877 183.955 199.068 186.828 199.068 189.823L198.979 196.442Z" fill="#263238"/>
<path d="M188.272 191.721H187.495C178.394 191.721 171.017 199.092 171.017 208.185V208.2C171.017 217.293 178.394 224.664 187.495 224.664H188.272C197.373 224.664 204.751 217.293 204.751 208.2V208.185C204.751 199.092 197.373 191.721 188.272 191.721Z" fill="#E8505B"/>
<g opacity="0.3">
<path opacity="0.3" d="M191.263 206.452C191.263 205.867 191.11 205.291 190.819 204.783C190.528 204.275 190.11 203.852 189.605 203.555C189.1 203.258 188.526 203.099 187.941 203.091C187.355 203.084 186.778 203.229 186.265 203.514C185.753 203.798 185.324 204.21 185.021 204.711C184.717 205.212 184.55 205.783 184.535 206.368C184.52 206.953 184.659 207.532 184.937 208.047C185.214 208.562 185.622 208.996 186.119 209.305L185.267 213.279H190.785L189.768 209.246C190.227 208.938 190.603 208.522 190.864 208.035C191.124 207.548 191.262 207.004 191.263 206.452Z" fill="black"/>
</g>
<g opacity="0.2">
<path opacity="0.2" d="M183.786 213.817C183.898 212.398 184.221 211.003 184.743 209.679L184.833 210.067L183.876 209.066C183.335 208.439 183.015 207.652 182.964 206.825C182.93 206.163 183.086 205.505 183.413 204.928C183.631 204.548 183.927 204.217 184.28 203.957C184.519 203.792 184.684 203.748 184.713 203.792C184.743 203.837 184.28 204.286 183.921 205.167C183.712 205.672 183.635 206.222 183.697 206.766C183.771 207.416 184.037 208.029 184.459 208.529L185.446 209.559L185.611 209.739L185.536 209.948C185.158 211.321 184.567 212.626 183.786 213.817V213.817Z" fill="white"/>
</g>
</g>
</svg>
